<svg width="519" height="376" viewBox="0 0 519 376" fill="none" xmlns="http://www.w3.org/2000/svg">
<g filter="url(#filter0_i_1_471)">
<path d="M222.381 216.975H206.001V240.555H178.461V216.975H112.221V191.415L169.641 107.355H206.001V191.415H222.381V216.975ZM143.181 191.415H178.461V139.575L143.181 191.415Z" fill="#BCBEC6"/>
</g>
<g filter="url(#filter1_i_1_471)">
<path d="M220.164 243.815C220.164 202.595 243.564 174.335 278.304 174.335C313.044 174.335 336.444 202.595 336.444 243.815C336.444 285.035 314.844 312.395 278.304 312.395C241.764 312.395 220.164 285.035 220.164 243.815ZM248.964 243.815C248.964 272.435 259.764 286.835 278.304 286.835C296.844 286.835 307.644 272.435 307.644 243.815C307.644 214.295 296.844 199.895 278.304 199.895C259.764 199.895 248.964 214.295 248.964 243.815Z" fill="#BCBEC6"/>
</g>
<g filter="url(#filter2_i_1_471)">
<path d="M454.407 302.8L439.103 296.961L430.697 318.992L404.966 309.175L413.372 287.144L351.484 263.531L360.595 239.65L444.208 181.581L478.18 194.543L448.214 273.08L463.518 278.919L454.407 302.8ZM389.521 250.686L422.484 263.263L440.963 214.829L389.521 250.686Z" fill="#BCBEC6"/>
</g>
<g filter="url(#filter3_i_1_471)">
<path d="M283.714 93.5641C280.355 92.5698 277.007 93.1672 273.831 94.4875C273.135 94.7766 272.419 95.0736 271.758 95.4347L271.709 95.4617C272.662 96.2201 273.711 96.9065 274.745 97.5479C276.61 98.7039 278.631 99.7893 280.778 100.301C282.071 100.61 283.314 100.695 284.639 100.68C285.486 100.671 286.351 100.616 287.194 100.72C288.574 100.89 290.011 101.494 291.219 102.16C292.168 102.683 293.238 103.4 293.952 104.224L294.201 103.974L294.497 103.529L295.461 102.344L295.951 101.807C294.865 101.012 293.914 100.055 292.847 99.2369C291.112 97.9068 289.309 96.6219 287.419 95.523L283.714 93.5641Z" fill="#BCBEC6"/>
<path d="M295.461 102.344L295.407 102.317C294.932 102.069 294.511 101.67 294.079 101.35L292.026 99.9599C289.174 98.2227 285.975 96.9859 282.732 96.2029C281.857 95.9918 280.969 95.8616 280.084 95.7048L280.014 95.76C280.756 95.9488 281.438 96.2097 282.161 96.4537C283.229 96.8139 284.303 97.1825 285.338 97.6274C287.904 98.7296 290.372 100.159 292.656 101.759C293.13 102.091 293.589 102.439 294.024 102.821C294.149 102.931 294.338 103.072 294.418 103.219C294.465 103.306 294.479 103.432 294.497 103.529L295.461 102.344Z" fill="#BCBEC6"/>
<path d="M299.911 98.426C299.583 97.7939 299.225 97.1768 298.934 96.5259C297.851 94.0969 297.317 91.6756 297.108 89.0304C296.951 87.0581 296.875 85.0742 296.529 83.1219C295.725 78.576 293.362 74.5873 289.561 71.9271C289.306 72.297 289.171 72.9735 289.039 73.4155C287.968 77.022 288.044 80.8252 288.61 84.5102C288.744 84.7668 288.979 84.9533 289.174 85.1642L289.793 85.8942C290.555 86.8171 291.289 87.7595 291.966 88.7476C292.818 89.9909 293.599 91.3116 294.337 92.6254C294.778 93.4101 295.19 94.2256 295.674 94.9843L298.223 99.6776L298.952 99.082L299.911 98.426Z" fill="#BCBEC6"/>
<path d="M298.952 99.0819C297.176 95.5805 295.735 91.9824 294.451 88.2733L292.517 82.5355L292.018 80.9635C291.935 80.7009 291.878 80.3755 291.728 80.1461C291.674 80.2347 291.833 80.896 291.857 81.0318C292.213 83.0683 292.761 85.1191 293.332 87.1048L294.177 89.9695C294.372 90.5929 295.747 94.5372 295.694 94.8049L295.676 94.8828L295.674 94.9842L298.223 99.6775L298.952 99.0819Z" fill="#BCBEC6"/>
<path d="M270.047 74.9869L269.875 74.9399L269.839 75.0153C270.965 77.9018 272.217 80.7296 273.854 83.3689C274.908 85.0681 276.167 86.6989 277.499 88.1874C278.623 89.4437 279.859 90.5729 281.181 91.6182L283.024 93.0017C283.206 93.1326 283.64 93.3648 283.714 93.5642L287.419 95.5231C289.309 96.6221 291.112 97.9069 292.847 99.237C293.914 100.055 294.865 101.012 295.951 101.807L296.065 101.678L296.889 100.845L298.223 99.6775L295.674 94.9842C295.19 94.2255 294.778 93.41 294.337 92.6253C293.599 91.3115 292.818 89.9908 291.966 88.7475C291.289 87.7594 290.555 86.817 289.793 85.8941L289.174 85.1641C288.979 84.9533 288.744 84.7667 288.61 84.5101L285.511 81.7223C284.251 80.6951 282.898 79.7789 281.495 78.9593C280.944 78.6377 280.394 78.3012 279.817 78.0304C278.63 77.4742 277.369 77.0573 276.127 76.6417C274.152 75.9802 272.085 75.4183 270.047 74.9869Z" fill="#BCBEC6"/>
<path d="M296.889 100.845C296.698 100.41 296.401 100.011 296.149 99.6092L294.086 96.6136C290.825 92.2915 287.062 88.2298 282.758 84.9226C281.456 83.9217 280.062 83.0115 278.68 82.1246L278.644 82.1845C283.249 85.8802 287.48 89.8691 291.174 94.489C292.415 96.0408 293.639 97.6608 294.664 99.365C295.203 100.086 295.553 100.934 296.065 101.678L296.889 100.845Z" fill="#BCBEC6"/>
<path d="M270.047 74.9869L269.875 74.9399L269.839 75.0153C270.965 77.9019 272.217 80.7296 273.854 83.369C274.908 85.0681 276.167 86.699 277.499 88.1875C278.623 89.4438 279.859 90.5729 281.181 91.6183L283.024 93.0017C283.206 93.1326 283.64 93.3648 283.714 93.5642L287.418 95.5232C289.309 96.6221 291.112 97.907 292.847 99.2371C293.914 100.055 294.865 101.012 295.951 101.807L296.065 101.678C295.553 100.934 295.203 100.086 294.663 99.3649C294.541 99.3454 294.552 99.327 294.474 99.2399C293.538 98.193 292.464 97.2917 291.374 96.4119C288.279 93.9118 284.838 91.8967 281.724 89.4179C278.364 86.7431 275.364 83.3422 272.932 79.8115L271.234 77.1369L270.425 75.765C270.272 75.5014 270.082 75.2951 270.047 74.9869Z" fill="#BCBEC6"/>
<path d="M307.044 97.5149C306.754 97.4163 306.413 97.3696 306.111 97.3147C304.782 97.0723 303.247 97.1017 301.957 97.5308C301.239 97.7698 300.57 98.0501 299.911 98.426L298.952 99.082L298.223 99.6776L296.889 100.845L296.065 101.678L295.951 101.807L295.461 102.344L294.497 103.529L294.201 103.974L293.952 104.225C293.24 105.162 292.66 106.236 292.218 107.325C292.164 107.458 292.023 107.738 292.037 107.873C291.171 110.17 291.62 112.477 292.602 114.649C293.906 117.531 296.021 119.995 298.214 122.236L303.811 127.461L315.063 136.314L329.395 145.861L338.59 150.869C340.452 151.794 342.316 152.72 344.265 153.45C344.96 153.711 345.991 154.188 346.73 153.944C346.887 153.723 346.881 153.582 346.869 153.317C346.61 152.139 346.103 151.11 345.591 150.026L343.54 145.928L337.432 134.524L331.275 124.719L326.975 118.337L322.942 112.691C322.415 111.988 321.904 111.248 321.331 110.583C321.058 110.135 320.69 109.713 320.365 109.299L318.269 106.742C316.507 104.662 314.772 102.603 312.715 100.803C311.044 99.3409 309.211 98.0942 307.044 97.5149Z" fill="#BCBEC6"/>
<path d="M307.115 97.5945C307.114 98.1386 306.879 98.7931 306.943 99.3069L307.403 99.55C307.375 98.9084 307.386 98.1918 307.115 97.5945Z" fill="#BCBEC6"/>
<path d="M326.41 120.915L327.117 119.06L326.498 119.7L326.053 120.325C326.11 120.537 326.251 120.764 326.41 120.915Z" fill="#BCBEC6"/>
<path d="M315.921 106.88C315.932 106.5 316.039 106.145 316.082 105.771C316.134 105.328 316.1 104.905 316.051 104.464C315.903 105.087 315.769 105.743 315.535 106.34L315.511 106.399C315.587 106.597 315.756 106.752 315.921 106.88Z" fill="#BCBEC6"/>
<path d="M333.388 133.777C333.264 133.668 333.24 133.558 333.077 133.506L333.022 133.582C332.455 134.348 331.685 134.966 331.011 135.634L331.096 135.663C331.867 135.073 332.721 134.506 333.404 133.816L333.388 133.777Z" fill="#BCBEC6"/>
<path d="M306.185 101.874C305.721 102.768 305.227 103.616 304.628 104.428C304.469 104.644 304.272 104.823 304.109 105.033L304.193 105.051C305.042 104.166 306.021 103.292 306.581 102.179L306.185 101.874Z" fill="#BCBEC6"/>
<path d="M323.782 137.704C324.008 137.524 324.199 137.197 324.371 136.962C325.026 136.065 325.663 135.123 326.223 134.165L323.075 137.123C323.264 137.342 323.528 137.563 323.782 137.704Z" fill="#BCBEC6"/>
<path d="M324.745 122.178C323.658 123.611 322.211 124.936 320.808 126.056C321.178 126.093 323.405 124.388 323.816 124.051L325.214 122.777C325.133 122.572 324.907 122.328 324.745 122.178Z" fill="#BCBEC6"/>
<path d="M312.214 128.254C312.875 127.547 313.475 126.78 313.979 125.954L314.98 124.12C313.834 125.257 312.845 126.675 311.535 127.632L311.485 127.668L311.437 127.706C311.71 127.745 311.991 128.067 312.17 128.282L312.214 128.254Z" fill="#BCBEC6"/>
<path d="M314.694 110.198L314.696 110.073C314.51 109.846 314.335 109.553 314.05 109.468L314.031 109.515C313.842 109.945 313.501 110.348 313.211 110.715C312.186 112.011 310.998 113.095 309.821 114.245C311.246 113.404 312.861 112.645 313.942 111.347C314.236 110.994 314.408 110.541 314.694 110.198Z" fill="#BCBEC6"/>
<path d="M334.117 132.716L334.087 132.43L333.988 132.379L333.717 132.622C333.488 132.869 333.335 133.175 333.112 133.421L333.077 133.506C333.24 133.557 333.264 133.668 333.388 133.776L333.404 133.815L338.354 141.112L338.383 141.053L337.757 139.858L335.064 134.517C334.763 133.961 334.469 133.249 334.09 132.752L334.117 132.716Z" fill="#BCBEC6"/>
<path d="M334.117 132.716L334.087 132.43L333.988 132.379L333.717 132.622C333.488 132.87 333.335 133.175 333.112 133.421L333.077 133.506C333.24 133.558 333.264 133.668 333.388 133.777C333.683 133.556 333.902 133.07 334.09 132.752L334.117 132.716Z" fill="#BCBEC6"/>
<path d="M306.93 99.3479C306.533 98.942 304.834 98.6244 304.225 98.6156C303.431 98.6042 302.671 98.8544 301.952 99.1685C302.743 99.6064 303.554 100.027 304.312 100.522L305.485 101.357C305.689 101.511 305.932 101.751 306.171 101.841C306.577 101.074 306.797 100.2 306.93 99.3479Z" fill="#BCBEC6"/>
<path d="M326.422 120.945L325.261 122.779L333.112 133.421C333.335 133.174 333.488 132.869 333.717 132.622L333.875 132.323L326.422 120.945Z" fill="#BCBEC6"/>
<path d="M306.944 99.3071L306.93 99.3483C306.797 100.2 306.577 101.074 306.172 101.841L306.185 101.874L306.581 102.179L306.597 102.177L309.023 104.346L312.493 107.787C313.013 108.318 313.641 108.841 314.087 109.431C314.272 109.229 314.413 108.93 314.55 108.693C314.911 108.067 315.46 107.167 315.487 106.423C315.245 106.28 315.039 106.015 314.844 105.811L313.753 104.679C312.245 103.14 310.64 101.667 308.872 100.431C308.436 100.126 307.908 99.73 307.396 99.5792L307.403 99.5501L306.944 99.3071Z" fill="#BCBEC6"/>
<path d="M306.944 99.307L306.93 99.3482C306.797 100.2 306.577 101.074 306.172 101.841L306.185 101.874L306.581 102.179L306.597 102.177C307.046 101.326 307.26 100.524 307.396 99.5791L307.403 99.55L306.944 99.307Z" fill="#BCBEC6"/>
<path d="M315.933 106.977C315.758 107.728 315.534 108.442 315.221 109.148C315.069 109.491 314.852 109.835 314.734 110.187C315.109 110.463 315.43 110.891 315.739 111.241L317.702 113.527L323.391 120.429C323.823 120.973 324.38 121.551 324.739 122.144L324.745 122.178C324.907 122.328 325.134 122.572 325.214 122.776L325.261 122.779L326.422 120.945L326.41 120.914C326.251 120.764 326.11 120.537 326.053 120.325L326.019 120.331L315.933 106.977Z" fill="#BCBEC6"/>
<path d="M326.053 120.325L326.019 120.332C325.816 120.776 325.444 121.223 325.156 121.621C325.033 121.792 324.906 122.02 324.739 122.144L324.745 122.178C324.907 122.328 325.134 122.572 325.214 122.776L325.261 122.779L326.422 120.945L326.41 120.914C326.251 120.764 326.11 120.537 326.053 120.325Z" fill="#BCBEC6"/>
<path d="M321.331 110.583C321.358 110.753 321.388 110.854 321.478 111.004C322.089 112.016 322.818 112.951 323.505 113.911L325.683 117.058L326.48 118.197C326.499 118.225 326.594 118.345 326.592 118.379L334.718 131.227L333.875 132.323L333.717 132.622L333.988 132.379L334.087 132.43L334.117 132.716C334.434 132.287 334.698 131.889 334.824 131.362L339.634 140.215C339.808 140.565 340.155 141.071 340.236 141.437C338.866 143.24 336.971 144.617 335.204 146.011C334.959 145.912 334.708 145.698 334.489 145.549L333.163 144.642L323.804 137.755C323.168 138.475 322.474 139.071 321.709 139.649C322.943 140.723 324.435 141.573 325.801 142.472L331.882 146.294L336.672 148.909L341.018 151.187L343.651 152.336C344.503 152.7 345.703 153.381 346.644 153.34L346.869 153.317C346.61 152.138 346.103 151.109 345.591 150.026L343.54 145.928L337.432 134.524L331.275 124.718L326.975 118.337L322.942 112.691C322.416 111.988 321.904 111.248 321.331 110.583Z" fill="#BCBEC6"/>
<path d="M340.236 141.437C338.866 143.24 336.971 144.617 335.204 146.011C335.117 146.046 335.047 146.083 334.966 146.129C334.687 146.285 334.302 146.435 334.064 146.639C334.171 146.665 334.201 146.649 334.301 146.615C334.48 146.553 334.64 146.533 334.807 146.44L334.907 146.396C335.021 146.345 335.251 146.258 335.328 146.164C336.127 146.586 336.89 147.201 337.642 147.708L341.566 150.296C342.356 150.814 343.19 151.438 344.095 151.733C344.338 151.811 344.555 151.807 344.805 151.776C344.863 151.736 344.899 151.733 344.912 151.659C345.187 150.065 342.574 145.882 341.758 144.32L340.85 142.581C340.677 142.247 340.531 141.885 340.306 141.584C340.298 141.524 340.267 141.487 340.236 141.437Z" fill="#BCBEC6"/>
<path d="M340.236 141.437C338.866 143.24 336.971 144.617 335.204 146.011C335.116 146.046 335.047 146.083 334.965 146.129C334.687 146.285 334.302 146.435 334.064 146.639C334.171 146.666 334.201 146.65 334.301 146.615C334.48 146.554 334.64 146.533 334.807 146.44L334.907 146.396C335.021 146.346 335.251 146.258 335.328 146.165C336.784 145.372 338.106 144.435 339.212 143.192C339.631 142.72 340.046 142.162 340.306 141.584C340.298 141.524 340.267 141.487 340.236 141.437Z" fill="#BCBEC6"/>
<path d="M294.201 103.974L293.952 104.224C293.24 105.162 292.661 106.236 292.218 107.325C292.164 107.458 292.023 107.738 292.037 107.872C291.171 110.17 291.62 112.477 292.602 114.648C293.906 117.53 296.021 119.995 298.214 122.236L303.811 127.461L315.063 136.313L329.395 145.861L338.59 150.869C340.452 151.793 342.316 152.72 344.265 153.45C344.96 153.711 345.991 154.188 346.73 153.943C346.887 153.723 346.881 153.581 346.869 153.316L346.644 153.339C345.703 153.381 344.503 152.7 343.651 152.336L341.018 151.187L336.671 148.909L331.882 146.294L325.801 142.472C324.435 141.573 322.943 140.723 321.709 139.649C322.474 139.071 323.168 138.475 323.804 137.755L323.782 137.704C323.528 137.563 323.264 137.342 323.075 137.123L323.031 137.124L312.214 128.254L312.17 128.282C311.991 128.067 311.71 127.745 311.437 127.706L311.485 127.668C311.415 127.495 311.215 127.366 311.074 127.246L310.214 126.498L307.781 124.237C304.709 121.303 301.616 118.306 299.196 114.796C299.933 114.151 300.66 113.483 301.276 112.718C301.746 112.135 302.15 111.497 302.555 110.868C302.535 110.867 302.512 110.854 302.494 110.863C302.458 110.882 302.369 111.043 302.335 111.091C302.157 111.344 301.983 111.595 301.767 111.818C300.912 112.702 299.758 113.42 298.679 113.999L298.586 113.995C298.299 113.663 298.07 113.229 297.838 112.856C296.562 110.808 295.388 108.563 294.673 106.251C294.445 105.516 294.333 104.731 294.201 103.974Z" fill="#BCBEC6"/>
<path d="M294.201 103.974L293.952 104.224C293.24 105.162 292.661 106.236 292.218 107.325C292.164 107.458 292.023 107.738 292.037 107.872L292.071 107.97C292.145 108.204 292.138 108.473 292.173 108.716C292.25 109.252 292.353 109.802 292.5 110.323C293.079 112.367 293.904 114.168 294.96 116.003C296.195 115.495 297.487 114.752 298.586 113.995C298.299 113.663 298.071 113.229 297.838 112.856C296.562 110.808 295.388 108.563 294.673 106.251C294.445 105.516 294.333 104.731 294.201 103.974Z" fill="#BCBEC6"/>
<path d="M312.214 128.254L312.17 128.282C311.096 129.126 310.135 129.736 308.825 130.138L320.486 138.896L323.032 137.124L312.214 128.254Z" fill="#BCBEC6"/>
<path d="M299.196 114.796C298.083 115.693 296.997 116.469 295.693 117.066C297.077 118.937 298.663 120.648 300.291 122.305L305.134 126.919L308.552 129.86C309.536 129.251 310.612 128.523 311.437 127.705L311.485 127.668C311.415 127.494 311.215 127.366 311.074 127.246L310.214 126.498L307.781 124.237C304.709 121.303 301.616 118.306 299.196 114.796Z" fill="#BCBEC6"/>
</g>
<g filter="url(#filter4_i_1_471)">
<path d="M15.9791 30.5026C12.6201 29.5083 9.2727 30.1057 6.09603 31.426C5.40071 31.715 4.68449 32.0121 4.02303 32.3732L3.97411 32.4002C4.9269 33.1586 5.97604 33.8449 7.01075 34.4863C8.87556 35.6424 10.8961 36.7278 13.0432 37.2399C14.336 37.5481 15.5798 37.6335 16.9045 37.6189C17.7516 37.6094 18.6165 37.5545 19.4597 37.6584C20.8398 37.8284 22.2761 38.4329 23.4844 39.0988C24.4334 39.6218 25.5032 40.3381 26.2178 41.1628L26.4664 40.9121L26.7621 40.467L27.7266 39.2823L28.2168 38.7455C27.1302 37.9508 26.1794 36.9932 25.1127 36.1754C23.3777 34.8453 21.5748 33.5604 19.6839 32.4615L15.9791 30.5026Z" fill="#BCBEC6"/>
<path d="M27.7267 39.2824L27.6724 39.2553C27.197 39.007 26.776 38.6087 26.3444 38.2886L24.2909 36.8984C21.439 35.1611 18.24 33.9244 14.997 33.1414C14.1227 32.9303 13.2339 32.8001 12.3492 32.6433L12.2793 32.6985C13.0212 32.8873 13.7033 33.1481 14.4268 33.3922C15.4942 33.7524 16.568 34.121 17.6036 34.5659C20.1698 35.6681 22.6373 37.0975 24.9211 38.6978C25.395 39.0298 25.8543 39.3772 26.2893 39.7595C26.4144 39.8693 26.6038 40.01 26.6836 40.1574C26.7304 40.244 26.7448 40.3703 26.7622 40.4672L27.7267 39.2824Z" fill="#BCBEC6"/>
<path d="M32.1763 35.3645C31.848 34.7323 31.4902 34.1153 31.1998 33.4643C30.116 31.0354 29.5827 28.6141 29.373 25.9689C29.2167 23.9966 29.1399 22.0127 28.7946 20.0604C27.9905 15.5145 25.6275 11.5258 21.8261 8.86554C21.5709 9.23547 21.436 9.91197 21.3047 10.354C20.2332 13.9605 20.309 17.7636 20.875 21.4487C21.0096 21.7052 21.2447 21.8918 21.4397 22.1027L22.0579 22.8327C22.8208 23.7555 23.554 24.6979 24.2314 25.6861C25.0836 26.9293 25.8639 28.25 26.6021 29.5639C27.043 30.3486 27.4553 31.164 27.9397 31.9227L30.4888 36.6161L31.2177 36.0205L32.1763 35.3645Z" fill="#BCBEC6"/>
<path d="M31.2177 36.0204C29.4412 32.519 28.0003 28.9209 26.7159 25.2118L24.782 19.474L24.2833 17.902C24.2006 17.6394 24.1434 17.314 23.9933 17.0846C23.939 17.1732 24.0982 17.8345 24.122 17.9703C24.4784 20.0067 25.0264 22.0575 25.5977 24.0433L26.4419 26.908C26.6377 27.5314 28.012 31.4756 27.9596 31.7434L27.9417 31.8212L27.9398 31.9227L30.4888 36.616L31.2177 36.0204Z" fill="#BCBEC6"/>
<path d="M2.31217 11.9253L2.14036 11.8784L2.10466 11.9537C3.23008 14.8403 4.4826 17.668 6.1195 20.3074C7.17329 22.0066 8.43272 23.6374 9.76444 25.1259C10.8884 26.3822 12.1246 27.5114 13.4465 28.5567L15.2894 29.9402C15.4717 30.0711 15.9052 30.3032 15.9791 30.5027L19.6839 32.4616C21.5748 33.5605 23.3777 34.8454 25.1127 36.1755C26.1794 36.9933 27.1302 37.9509 28.2168 38.7456L28.3306 38.6162L29.1541 37.7831L30.4888 36.616L27.9397 31.9227C27.4553 31.164 27.043 30.3485 26.6021 29.5638C25.864 28.25 25.0836 26.9293 24.2314 25.686C23.554 24.6979 22.8208 23.7555 22.0579 22.8326L21.4397 22.1026C21.2447 21.8917 21.0096 21.7052 20.875 21.4486L17.7768 18.6608C16.5163 17.6336 15.1638 16.7173 13.7602 15.8978C13.2095 15.5762 12.6598 15.2397 12.082 14.9688C10.8954 14.4127 9.63408 13.9958 8.39278 13.5802C6.4176 12.9187 4.35025 12.3568 2.31217 11.9253Z" fill="#BCBEC6"/>
<path d="M29.1543 37.7831C28.963 37.3488 28.6664 36.9495 28.414 36.5477L26.3509 33.5521C23.0906 29.23 19.3269 25.1683 15.0236 21.8611C13.7213 20.8602 12.3271 19.95 10.9458 19.0631L10.9097 19.123C15.5145 22.8186 19.745 26.8075 23.4392 31.4275C24.6799 32.9792 25.9042 34.5993 26.9291 36.3034C27.4683 37.0245 27.8188 37.873 28.3307 38.6162L29.1543 37.7831Z" fill="#BCBEC6"/>
<path d="M2.31211 11.9254L2.1403 11.8784L2.1046 11.9538C3.23002 14.8404 4.48254 17.6681 6.11944 20.3074C7.17323 22.0066 8.43266 23.6375 9.76438 25.126C10.8884 26.3822 12.1245 27.5114 13.4464 28.5567L15.2894 29.9402C15.4716 30.0711 15.9051 30.3033 15.9791 30.5027L19.6838 32.4617C21.5747 33.5606 23.3776 34.8454 25.1126 36.1756C26.1794 36.9933 27.1302 37.9509 28.2168 38.7457L28.3305 38.6162C27.8186 37.8729 27.4681 37.0244 26.9288 36.3034C26.8059 36.2839 26.8176 36.2655 26.7396 36.1784C25.8033 35.1314 24.7289 34.2301 23.6398 33.3504C20.5444 30.8502 17.1036 28.8352 13.9896 26.3564C10.6291 23.6816 7.62937 20.2807 5.19735 16.75L3.49894 14.0754L2.69065 12.7035C2.5375 12.4399 2.34758 12.2336 2.31211 11.9254Z" fill="#BCBEC6"/>
<path d="M39.3094 34.4533C39.0192 34.3548 38.6783 34.3081 38.3768 34.2531C37.0475 34.0108 35.5124 34.0402 34.2222 34.4693C33.5039 34.7082 32.8354 34.9886 32.1762 35.3645L31.2176 36.0205L30.4887 36.6161L29.1541 37.7831L28.3305 38.6162L28.2168 38.7457L27.7265 39.2825L26.762 40.4672L26.4663 40.9123L26.2177 41.163C25.5055 42.1008 24.9258 43.1748 24.4837 44.2633C24.4296 44.3967 24.2879 44.6763 24.3025 44.8111C23.4362 47.1087 23.8853 49.4153 24.8678 51.587C26.1716 54.4692 28.2859 56.9333 30.4792 59.1749L36.0766 64.3998L47.3282 73.252L61.6601 82.7997L70.8551 87.8077C72.7169 88.7322 74.5816 89.6589 76.5306 90.3889C77.2257 90.6493 78.256 91.1264 78.9955 90.8822C79.1526 90.6619 79.1462 90.5202 79.1341 90.2552C78.875 89.077 78.3685 88.0481 77.8563 86.9649L75.8055 82.8669L69.697 71.4626L63.5406 61.6571L59.2402 55.2753L55.2071 49.6299C54.6808 48.9269 54.1689 48.1862 53.5966 47.5212C53.3235 47.0736 52.9551 46.6517 52.6303 46.2376L50.5343 43.68C48.7725 41.6006 47.037 39.5416 44.9799 37.7415C43.3092 36.2794 41.4761 35.0327 39.3094 34.4533Z" fill="#BCBEC6"/>
<path d="M39.3804 34.5329C39.3797 35.077 39.144 35.7316 39.2087 36.2454L39.6687 36.4884C39.64 35.8469 39.6508 35.1303 39.3804 34.5329Z" fill="#BCBEC6"/>
<path d="M58.6752 57.853L59.3819 55.9985L58.7633 56.6387L58.3182 57.2639C58.3753 57.4758 58.5162 57.7024 58.6752 57.853Z" fill="#BCBEC6"/>
<path d="M48.186 43.8184C48.1977 43.4387 48.3044 43.0837 48.3477 42.7099C48.3991 42.2669 48.3653 41.8432 48.3164 41.4028C48.1686 42.0257 48.0348 42.6816 47.8006 43.2785L47.7765 43.3376C47.8522 43.5352 48.0214 43.6901 48.186 43.8184Z" fill="#BCBEC6"/>
<path d="M65.6537 70.715C65.5295 70.6064 65.5058 70.4961 65.3428 70.4445L65.2872 70.5206C64.7202 71.2867 63.95 71.9046 63.2764 72.5726L63.3619 72.6015C64.1324 72.0114 64.9861 71.4445 65.669 70.7542L65.6537 70.715Z" fill="#BCBEC6"/>
<path d="M38.4499 38.8126C37.9863 39.7064 37.492 40.5541 36.8936 41.366C36.7339 41.5827 36.5371 41.7613 36.3743 41.9717L36.4578 41.9897C37.307 41.1044 38.286 40.2308 38.8462 39.1179L38.4499 38.8126Z" fill="#BCBEC6"/>
<path d="M56.0475 74.6428C56.2737 74.4622 56.4639 74.1357 56.6359 73.9003C57.2911 73.0033 57.9283 72.0616 58.4887 71.103L55.3404 74.0614C55.5296 74.2808 55.793 74.5011 56.0475 74.6428Z" fill="#BCBEC6"/>
<path d="M57.0103 59.1167C55.9237 60.5494 54.4764 61.8749 53.0729 62.9949C53.4435 63.0311 55.6702 61.3265 56.0812 60.989L57.479 59.715C57.3988 59.5108 57.172 59.2665 57.0103 59.1167Z" fill="#BCBEC6"/>
<path d="M44.4797 65.1922C45.1403 64.4858 45.7404 63.7187 46.2446 62.8922L47.2452 61.0586C46.0998 62.1953 45.1104 63.6135 43.8001 64.5708L43.7506 64.6065L43.7021 64.6442C43.9756 64.6834 44.2564 65.0059 44.4355 65.2207L44.4797 65.1922Z" fill="#BCBEC6"/>
<path d="M46.9596 47.1364L46.9616 47.0114C46.7755 46.7846 46.6 46.4914 46.3154 46.4064L46.2959 46.4535C46.1078 46.8835 45.7663 47.2861 45.4762 47.6531C44.4514 48.9497 43.2635 50.0333 42.086 51.1833C43.5116 50.3426 45.1259 49.584 46.2071 48.2858C46.5015 47.9323 46.6733 47.479 46.9596 47.1364Z" fill="#BCBEC6"/>
<path d="M66.3827 69.6542L66.3523 69.3681L66.253 69.3171L65.9819 69.5608C65.7535 69.808 65.6005 70.1132 65.3774 70.3597L65.3427 70.4443C65.5057 70.4959 65.5294 70.6063 65.6536 70.7148L65.6689 70.754L70.619 78.0505L70.6485 77.9913L70.0219 76.7963L67.3296 71.4554C67.0288 70.899 66.7341 70.1873 66.3555 69.6905L66.3827 69.6542Z" fill="#BCBEC6"/>
<path d="M66.3827 69.6544L66.3523 69.3683L66.253 69.3173L65.9819 69.5609C65.7534 69.8081 65.6005 70.1133 65.3774 70.3598L65.3426 70.4445C65.5057 70.4961 65.5294 70.6064 65.6536 70.715C65.9486 70.4948 66.1671 70.0089 66.3555 69.6906L66.3827 69.6544Z" fill="#BCBEC6"/>
<path d="M39.1955 36.2864C38.7988 35.8804 37.0991 35.5629 36.4903 35.5541C35.6968 35.5427 34.9366 35.7929 34.2171 36.107C35.0085 36.5449 35.8198 36.9655 36.5772 37.4607L37.7507 38.2955C37.9541 38.449 38.1978 38.6899 38.4369 38.7791C38.8424 38.0121 39.0623 37.1382 39.1955 36.2864Z" fill="#BCBEC6"/>
<path d="M58.6876 57.8832L57.5268 59.7171L65.3775 70.3594C65.6006 70.1129 65.7536 69.8077 65.982 69.5605L66.1406 69.2614L58.6876 57.8832Z" fill="#BCBEC6"/>
<path d="M39.2089 36.2455L39.1955 36.2868C39.0623 37.1386 38.8424 38.0124 38.4369 38.7794L38.4501 38.8126L38.8464 39.1178L38.8623 39.1153L41.2881 41.285L44.7579 44.7256C45.2779 45.2563 45.9068 45.779 46.3524 46.3698C46.5371 46.1673 46.6785 45.8688 46.8154 45.6314C47.1761 45.0058 47.7256 44.105 47.7521 43.3616C47.5106 43.2181 47.3042 42.9536 47.1095 42.7494L46.0184 41.6175C44.5103 40.0786 42.9054 38.6053 41.1375 37.369C40.7017 37.0643 40.1734 36.6684 39.6614 36.5177L39.6688 36.4886L39.2089 36.2455Z" fill="#BCBEC6"/>
<path d="M39.2089 36.2455L39.1956 36.2867C39.0623 37.1385 38.8425 38.0123 38.4369 38.7793L38.4501 38.8125L38.8464 39.1178L38.8623 39.1152C39.311 38.2647 39.5256 37.4628 39.6614 36.5176L39.6688 36.4885L39.2089 36.2455Z" fill="#BCBEC6"/>
<path d="M48.1979 43.9156C48.0236 44.6665 47.7992 45.3809 47.486 46.0867C47.3338 46.4294 47.1175 46.7734 46.9995 47.1251C47.3739 47.401 47.6953 47.8296 48.0044 48.1794L49.9674 50.4659L55.6568 57.3672C56.0881 57.9117 56.6451 58.4899 57.0041 59.0825L57.0105 59.1164C57.1721 59.2661 57.399 59.5105 57.4792 59.7147L57.5267 59.7171L58.6875 57.8832L58.6751 57.8528C58.5161 57.7021 58.3752 57.4755 58.3181 57.2636L58.2839 57.2699L48.1979 43.9156Z" fill="#BCBEC6"/>
<path d="M58.3181 57.2638L58.2839 57.2701C58.0814 57.7149 57.7092 58.1613 57.4216 58.5598C57.2986 58.7304 57.1713 58.9582 57.0042 59.0826L57.0105 59.1165C57.1721 59.2663 57.399 59.5107 57.4792 59.7149L57.5268 59.7173L58.6876 57.8834L58.6752 57.8529C58.5162 57.7022 58.3752 57.4757 58.3181 57.2638Z" fill="#BCBEC6"/>
<path d="M53.5968 47.521C53.6237 47.6913 53.6532 47.7926 53.7438 47.9429C54.3539 48.9546 55.0836 49.8891 55.7705 50.8496L57.9487 53.9969L58.7451 55.1354C58.7642 55.1638 58.8591 55.2833 58.8576 55.3175L66.9835 68.1657L66.1405 69.2616L65.982 69.5607L66.2531 69.317L66.3523 69.368L66.3828 69.6541C66.6992 69.2256 66.963 68.8271 67.0893 68.3001L71.8992 77.1532C72.0737 77.5039 72.4203 78.0096 72.5015 78.3751C71.1312 80.1784 69.2364 81.5552 67.4692 82.9494C67.2245 82.8507 66.9737 82.6367 66.7539 82.4871L65.4286 81.5805L56.0692 74.6934C55.4331 75.4137 54.7394 76.0091 53.9741 76.5877C55.2081 77.6619 56.7002 78.5116 58.0668 79.4104L64.1477 83.2329L68.9369 85.8474L73.2832 88.1251L75.9163 89.2748C76.7685 89.6387 77.9684 90.3197 78.9095 90.278L79.1343 90.255C78.8752 89.0768 78.3687 88.0479 77.8565 86.9647L75.8057 82.8668L69.6972 71.4624L63.5408 61.6569L59.2404 55.2751L55.2073 49.6297C54.681 48.9267 54.1691 48.186 53.5968 47.521Z" fill="#BCBEC6"/>
<path d="M72.5014 78.3751C71.1312 80.1784 69.2364 81.5551 67.4692 82.9493C67.3819 82.984 67.3125 83.0216 67.2309 83.0673C66.9524 83.2236 66.5676 83.373 66.3298 83.577C66.4363 83.6038 66.4659 83.5877 66.5668 83.5532C66.7458 83.4919 66.9055 83.4715 67.0728 83.3784L67.1721 83.3345C67.2864 83.2839 67.5163 83.1961 67.5935 83.1029C68.3925 83.5246 69.1557 84.1396 69.9076 84.647L73.8316 87.2345C74.6214 87.7521 75.4558 88.3768 76.3601 88.671C76.6029 88.75 76.82 88.7451 77.0703 88.7143C77.1279 88.674 77.1648 88.6714 77.1775 88.5977C77.4526 87.0039 74.8392 82.8206 74.0232 81.2582L73.115 79.5193C72.942 79.1859 72.7967 78.8235 72.5712 78.5223C72.5633 78.4624 72.5326 78.4257 72.5014 78.3751Z" fill="#BCBEC6"/>
<path d="M72.5014 78.3753C71.1312 80.1786 69.2364 81.5554 67.4692 82.9496C67.3818 82.9843 67.3125 83.0219 67.2308 83.0676C66.9523 83.2239 66.5675 83.3733 66.3298 83.5773C66.4362 83.604 66.4659 83.588 66.5668 83.5535C66.7457 83.4921 66.9054 83.4718 67.0728 83.3787L67.1721 83.3348C67.2864 83.2842 67.5163 83.1963 67.5935 83.1032C69.0491 82.3108 70.3718 81.3733 71.4772 80.1303C71.8966 79.6586 72.3116 79.1002 72.5712 78.5226C72.5633 78.4627 72.5326 78.426 72.5014 78.3753Z" fill="#BCBEC6"/>
<path d="M26.4664 40.912L26.2178 41.1627C25.5056 42.1005 24.9259 43.1745 24.4838 44.2631C24.4296 44.3964 24.288 44.6761 24.3025 44.8108C23.4362 47.1084 23.8853 49.415 24.8678 51.5867C26.1717 54.4689 28.2859 56.933 30.4793 59.1747L36.0767 64.3996L47.3283 73.2517L61.6602 82.7994L70.8552 87.8074C72.717 88.7319 74.5816 89.6586 76.5306 90.3887C77.2258 90.6491 78.2561 91.1261 78.9955 90.8819C79.1527 90.6617 79.1463 90.5199 79.1342 90.255L78.9093 90.2779C77.9683 90.3196 76.7683 89.6386 75.9161 89.2748L73.283 88.1251L68.9368 85.8473L64.1475 83.2329L58.0667 79.4103C56.7 78.5115 55.208 77.6618 53.974 76.5876C54.7393 76.009 55.433 75.4136 56.069 74.6933L56.0474 74.6428C55.7929 74.5011 55.5295 74.2808 55.3403 74.0614L55.2969 74.0623L44.4797 65.192L44.4354 65.2206C44.2563 65.0058 43.9755 64.6833 43.7021 64.6441L43.7505 64.6064C43.6807 64.4331 43.4802 64.3043 43.3389 64.185L42.4795 63.4363L40.0462 61.1753C36.9746 58.2416 33.8816 55.2444 31.461 51.7345C32.1982 51.0898 32.9253 50.4213 33.5417 49.6569C34.0118 49.0738 34.4149 48.4352 34.8209 47.8069C34.8005 47.805 34.7778 47.7921 34.7596 47.8015C34.7235 47.8201 34.6344 47.9812 34.6007 48.0292C34.4227 48.282 34.248 48.5333 34.0324 48.7564C33.1778 49.6402 32.0232 50.3583 30.9443 50.9371L30.8515 50.9331C30.5648 50.6015 30.3359 50.1675 30.1034 49.7944C28.8277 47.7464 27.6536 45.5016 26.9379 43.1898C26.7103 42.4543 26.5984 41.6698 26.4664 40.912Z" fill="#BCBEC6"/>
<path d="M26.4664 40.912L26.2178 41.1627C25.5056 42.1005 24.9259 43.1745 24.4838 44.2631C24.4296 44.3964 24.288 44.6761 24.3025 44.8108L24.336 44.9083C24.4103 45.1422 24.403 45.411 24.438 45.6544C24.5153 46.1904 24.6179 46.7409 24.7656 47.2619C25.3447 49.3053 26.1696 51.1063 27.2256 52.941C28.4607 52.4335 29.7525 51.6903 30.8515 50.9331C30.5648 50.6015 30.3358 50.1676 30.1034 49.7944C28.8277 47.7464 27.6536 45.5016 26.9379 43.1898C26.7103 42.4543 26.5984 41.6698 26.4664 40.912Z" fill="#BCBEC6"/>
<path d="M44.4797 65.1923L44.4355 65.2208C43.3615 66.0647 42.4003 66.6747 41.0899 67.076L52.7516 75.8342L55.2969 74.0626L44.4797 65.1923Z" fill="#BCBEC6"/>
<path d="M31.4611 51.7344C30.3479 52.6316 29.2627 53.4077 27.9581 54.0042C29.3421 55.8754 30.9282 57.5863 32.5568 59.2438L37.3992 63.8576L40.8169 66.7984C41.8014 66.1896 42.8769 65.4618 43.7021 64.6439L43.7506 64.6062C43.6807 64.433 43.4802 64.3041 43.339 64.1848L42.4796 63.4362L40.0462 61.1752C36.9746 58.2415 33.8816 55.2442 31.4611 51.7344Z" fill="#BCBEC6"/>
</g>
<defs>
<filter id="filter0_i_1_471" x="112.221" y="107.354" width="110.16" height="137.2" filterUnits="userSpaceOnUse" color-interpolation-filters="sRGB">
<feFlood flood-opacity="0" result="BackgroundImageFix"/>
<feBlend mode="normal" in="SourceGraphic" in2="BackgroundImageFix" result="shape"/>
<feColorMatrix in="SourceAlpha" type="matrix" values="0 0 0 0 0 0 0 0 0 0 0 0 0 0 0 0 0 0 127 0" result="hardAlpha"/>
<feOffset dy="4"/>
<feGaussianBlur stdDeviation="2"/>
<feComposite in2="hardAlpha" operator="arithmetic" k2="-1" k3="1"/>
<feColorMatrix type="matrix" values="0 0 0 0 0 0 0 0 0 0 0 0 0 0 0 0 0 0 0.25 0"/>
<feBlend mode="normal" in2="shape" result="effect1_innerShadow_1_471"/>
</filter>
<filter id="filter1_i_1_471" x="220.164" y="174.334" width="116.28" height="142.06" filterUnits="userSpaceOnUse" color-interpolation-filters="sRGB">
<feFlood flood-opacity="0" result="BackgroundImageFix"/>
<feBlend mode="normal" in="SourceGraphic" in2="BackgroundImageFix" result="shape"/>
<feColorMatrix in="SourceAlpha" type="matrix" values="0 0 0 0 0 0 0 0 0 0 0 0 0 0 0 0 0 0 127 0" result="hardAlpha"/>
<feOffset dy="4"/>
<feGaussianBlur stdDeviation="2"/>
<feComposite in2="hardAlpha" operator="arithmetic" k2="-1" k3="1"/>
<feColorMatrix type="matrix" values="0 0 0 0 0 0 0 0 0 0 0 0 0 0 0 0 0 0 0.25 0"/>
<feBlend mode="normal" in2="shape" result="effect1_innerShadow_1_471"/>
</filter>
<filter id="filter2_i_1_471" x="343.078" y="161.112" width="150.406" height="167.719" filterUnits="userSpaceOnUse" color-interpolation-filters="sRGB">
<feFlood flood-opacity="0" result="BackgroundImageFix"/>
<feBlend mode="normal" in="SourceGraphic" in2="BackgroundImageFix" result="shape"/>
<feColorMatrix in="SourceAlpha" type="matrix" values="0 0 0 0 0 0 0 0 0 0 0 0 0 0 0 0 0 0 127 0" result="hardAlpha"/>
<feOffset dy="4"/>
<feGaussianBlur stdDeviation="2"/>
<feComposite in2="hardAlpha" operator="arithmetic" k2="-1" k3="1"/>
<feColorMatrix type="matrix" values="0 0 0 0 0 0 0 0 0 0 0 0 0 0 0 0 0 0 0.25 0"/>
<feBlend mode="normal" in2="shape" result="effect1_innerShadow_1_471"/>
</filter>
<filter id="filter3_i_1_471" x="269.839" y="71.9272" width="77.0352" height="86.084" filterUnits="userSpaceOnUse" color-interpolation-filters="sRGB">
<feFlood flood-opacity="0" result="BackgroundImageFix"/>
<feBlend mode="normal" in="SourceGraphic" in2="BackgroundImageFix" result="shape"/>
<feColorMatrix in="SourceAlpha" type="matrix" values="0 0 0 0 0 0 0 0 0 0 0 0 0 0 0 0 0 0 127 0" result="hardAlpha"/>
<feOffset dy="4"/>
<feGaussianBlur stdDeviation="2"/>
<feComposite in2="hardAlpha" operator="arithmetic" k2="-1" k3="1"/>
<feColorMatrix type="matrix" values="0 0 0 0 0 0 0 0 0 0 0 0 0 0 0 0 0 0 0.25 0"/>
<feBlend mode="normal" in2="shape" result="effect1_innerShadow_1_471"/>
</filter>
<filter id="filter4_i_1_471" x="2.1046" y="8.86572" width="77.0351" height="86.084" filterUnits="userSpaceOnUse" color-interpolation-filters="sRGB">
<feFlood flood-opacity="0" result="BackgroundImageFix"/>
<feBlend mode="normal" in="SourceGraphic" in2="BackgroundImageFix" result="shape"/>
<feColorMatrix in="SourceAlpha" type="matrix" values="0 0 0 0 0 0 0 0 0 0 0 0 0 0 0 0 0 0 127 0" result="hardAlpha"/>
<feOffset dy="4"/>
<feGaussianBlur stdDeviation="2"/>
<feComposite in2="hardAlpha" operator="arithmetic" k2="-1" k3="1"/>
<feColorMatrix type="matrix" values="0 0 0 0 0 0 0 0 0 0 0 0 0 0 0 0 0 0 0.25 0"/>
<feBlend mode="normal" in2="shape" result="effect1_innerShadow_1_471"/>
</filter>
</defs>
</svg>
