<svg width="231" height="231" viewBox="0 0 231 231" fill="none" xmlns="http://www.w3.org/2000/svg">
<g clip-path="url(#clip0_847_2195)">
<path d="M0 0H231V231H0V0Z" fill="#FEFEFE"/>
<path d="M126.018 17.9611C127.488 17.795 129.096 17.8656 130.515 18.3118C133.863 19.3642 135.981 22.0257 137.56 25.0196C139.237 25.6454 140.935 26.1279 142.699 26.4464C143.971 26.6759 145.285 26.8083 146.535 27.1358C148.918 27.76 150.979 28.9419 152.216 31.1373C156.136 38.095 148.94 49.1968 147.113 56.1908L147.071 56.3539C149.747 58.2726 152.392 60.803 154.093 63.6426C154.98 65.1245 155.675 66.889 155.187 68.6281C154.863 69.7869 154.068 70.7522 153.017 71.3313C150.733 72.5909 148.111 72.1477 145.752 71.4168C145.039 74.6023 144.491 77.7961 143.711 80.9724C141.627 89.4632 139.174 97.8652 137.112 106.359C139.604 107.739 142.011 109.262 144.249 111.027C147.113 113.287 151.197 116.901 151.577 120.752C152.006 125.105 147.87 128.638 144.898 131.161C143.538 132.315 142.178 133.473 140.741 134.531C140.333 134.831 138.241 136.182 138.075 136.448C137.821 136.854 138.063 137.331 137.656 137.742C137.45 137.95 137.253 137.984 136.977 137.985C136.139 137.456 135.638 137.797 134.72 137.989C135.181 138.864 135.717 139.72 136.421 140.42C136.996 140.991 138.5 141.644 138.791 142.302C138.921 142.596 138.857 142.702 138.752 142.981C138.405 143.327 138.018 143.469 137.541 143.551C135.828 143.846 134.049 142.821 132.703 141.879C133.036 142.995 133.356 144.388 133.95 145.393C134.379 146.119 135.603 147.317 135.458 148.199C135.387 148.632 135.094 148.973 134.722 149.188C132.762 150.321 132.344 148.444 130.803 147.995C130.47 148.185 130.12 148.4 129.72 148.356C128.768 148.252 128.033 147.244 127.447 146.58C125.763 150.771 124.45 155.095 122.858 159.322C122.145 161.216 121.493 163.242 120.395 164.952C118.803 167.431 115.517 168.758 112.764 169.378C111.095 178.597 108.835 187.724 107.353 196.972C112.656 194.824 120.734 191.859 126.495 192.272C128.804 192.438 132.123 193.152 133.685 195.027C135.689 197.434 132.774 198.009 132.633 199.343C133.303 199.746 136.15 199.532 137.082 199.525C142.869 199.487 148.633 199.806 154.375 200.536C156.211 200.769 158.091 200.934 159.858 201.507C157.277 202.469 150.533 202.195 147.476 202.24C145.144 202.275 142.81 202.37 140.479 202.456C125.888 202.997 111.27 203.439 96.6915 204.252C93.1635 204.309 89.5893 204.668 86.065 204.888C75.991 205.518 65.8171 206.371 55.7221 206.418C54.8347 206.423 51.4107 206.656 50.8066 206.059L50.8777 205.849C51.8242 205.145 53.2082 204.88 54.3386 204.573C60.9153 202.786 67.9096 202.33 74.6801 201.776C77.3231 201.56 80.1436 201.525 82.7453 201.015L82.94 200.976C81.0155 200.87 78.7245 200.923 76.9092 200.217C76.4339 200.032 75.786 199.716 75.61 199.199C75.5247 198.948 75.6211 198.644 75.7456 198.421C76.9719 196.22 80.3056 194.79 82.6038 194.163C88.7923 192.475 96.4045 194.104 101.9 197.245C100.705 193.516 100.033 189.605 99.3037 185.762C98.2595 180.257 97.2798 174.723 96.5656 169.164C94.7909 168.642 92.7018 167.831 91.346 166.525C90.1738 165.396 89.5424 163.846 88.9313 162.371C86.0447 155.404 85.0181 147.813 84.1613 140.377C83.9154 138.243 83.5626 136.065 83.561 133.913C82.6248 136.275 79.4337 141.546 77.44 143.044C76.8977 143.451 76.2671 143.736 75.5764 143.618C75.157 143.545 74.815 143.368 74.5759 143.005C74.1802 142.405 74.3749 141.525 74.4943 140.869C73.083 141.279 71.7956 141.97 70.3126 142.141C69.4533 142.24 68.4086 142.232 67.7113 141.643C67.3434 141.332 67.0815 140.798 67.0761 140.315C67.0662 139.409 67.9444 138.762 68.5368 138.192C68.1648 138.174 67.7774 138.171 67.4086 138.116C66.9588 138.05 66.4939 137.918 66.2369 137.514C66.0894 137.282 66.1018 136.942 66.188 136.687C66.8025 134.864 73.0927 132.401 74.9213 131.526C75.1232 130.971 75.2728 130.398 75.4347 129.831C74.8277 129.231 74.1324 128.709 73.4985 128.135C71.7399 126.541 69.9925 124.57 68.9897 122.397C68.2394 120.771 68.1747 119.159 68.8075 117.483C70.9733 111.748 79.2932 107.046 84.6869 104.626C85.086 102.608 85.2495 100.492 85.5164 98.4503C85.9407 95.2053 86.4359 91.9462 87.0307 88.728C87.6696 85.272 88.6523 81.8822 89.6365 78.5128C91.3015 72.8125 93.1739 67.1399 95.6012 61.7121C97.1546 58.2385 98.9439 54.9228 100.78 51.5934C98.4835 50.1438 96.2762 48.379 94.7715 46.0851C94.0487 44.9835 93.4807 43.6063 93.7918 42.2733C94.0688 41.0863 94.9982 40.1025 96.0073 39.4697C99.2273 37.4505 104.786 38.9971 108.266 39.7684C108.834 38.7075 109.303 37.5663 109.819 36.4771C111.383 33.1788 112.945 29.832 115.012 26.8117C117.602 23.0266 121.306 18.8382 126.018 17.9611Z" fill="#878794"/>
<path d="M110.018 114.971L110.133 114.973L110.144 115.141C109.651 115.797 109.112 116.395 108.554 116.996C106.685 116.618 104.593 116.703 102.684 116.61C102.491 116.242 102.363 115.807 102.214 115.418C104.898 115.72 107.38 115.433 110.018 114.971Z" fill="#FEFEFE"/>
<path d="M99.4104 110.348C104.54 111.945 107.826 111.962 113.073 111.572L113.138 111.661L112.628 112.059C112.487 112.246 112.347 112.447 112.141 112.567C110.337 113.61 102.418 112.461 100.051 111.854C99.7853 111.379 99.6073 110.855 99.4104 110.348Z" fill="#FEFEFE"/>
<path d="M140.752 47.5654C142.548 48.3719 143.772 49.8111 145.297 50.9882L145.378 51.0494C145.021 52.0469 144.705 53.0808 144.233 54.0296L144.084 54.079C142.416 53.1573 140.752 52.2287 139.06 51.3505C139.596 50.064 140.304 48.9004 140.752 47.5654Z" fill="#FEFEFE"/>
<path d="M83.7637 114.132C83.9387 115.52 83.458 118.436 83.368 119.994C83.2119 122.693 83.2487 125.385 83.278 128.087C80.9962 125.583 79.7356 126.746 78.6911 125.912C78.6079 125.827 78.5238 125.743 78.4443 125.655C77.4669 124.569 76.2803 123.014 76.3951 121.479C76.6047 118.675 81.7068 115.853 83.7637 114.132Z" fill="#FEFEFE"/>
<path d="M110.949 36.5234C116.162 37.1781 121.404 38.9004 126.33 40.6672C125.702 41.9483 125.05 43.2182 124.405 44.4911C119.095 42.3918 114.48 41.2188 108.951 39.926C109.606 38.7849 110.25 37.6381 110.949 36.5234Z" fill="#FEFEFE"/>
<path d="M129.444 132.456C129.735 132.422 130.03 132.442 130.322 132.46C132.943 132.62 134.518 134.265 136.141 136.111C135.416 136.372 134.67 136.615 133.895 136.655C133.428 136.679 132.969 136.627 132.507 136.719L132.464 136.927C132.806 137.68 135.797 141.607 136.424 142.265C135.177 141.922 132.837 140.807 132.174 139.64C131.82 139.018 131.866 138.207 131.446 137.603L131.302 137.589C131.042 137.772 130.935 137.92 130.884 138.241C130.498 140.679 132.261 145.433 133.642 147.445C133.758 147.638 133.803 147.768 133.835 147.991L133.654 148.048C133.402 147.985 133.199 147.925 132.986 147.77C132.363 147.32 131.965 146.586 131.631 145.909C130.236 143.089 130.273 141.21 129.757 138.279C129.669 137.782 129.614 137.295 129.185 136.991C128.931 137.069 128.879 137.079 128.728 137.315C128.496 137.678 128.517 138.3 128.492 138.719C128.341 141.337 128.826 143.717 129.391 146.252C128.021 144.748 127.103 142.796 126.719 140.805C126.341 138.847 125.987 135.256 127.226 133.55C127.825 132.724 128.498 132.587 129.444 132.456Z" fill="#FEFEFE"/>
<path d="M128.708 39.7549C129.21 39.9649 129.696 40.3331 130.202 40.5697C131.888 41.3563 133.59 42.1091 135.263 42.9221C136.681 43.6108 138.061 44.3613 139.508 44.9907C138.981 46.5633 138.933 48.6355 137.765 49.9123C137.558 50.1391 137.428 50.2243 137.125 50.2286C133.291 48.624 129.677 46.5976 125.834 45.0126C126.609 43.173 127.69 41.4673 128.708 39.7549Z" fill="#FEFEFE"/>
<path d="M129.968 42.0573C130.389 42.044 130.739 42.0345 131.101 42.2791C131.306 42.7129 131.188 43.1137 131.214 43.5895C131.578 44.2816 134.026 45.0874 134.79 45.4745C135.09 45.1797 135.415 44.8101 135.814 44.6484C136.114 44.5266 136.317 44.5209 136.623 44.6378C136.773 44.7898 136.844 44.8769 136.902 45.0892C137.136 45.9473 136.529 46.7035 136.086 47.3667C135.838 47.676 135.544 47.9476 135.262 48.2255C134.54 47.9083 129.286 44.9969 128.782 44.5146C128.695 44.28 128.621 44.0917 128.65 43.8374C128.74 43.0585 129.387 42.5053 129.968 42.0573Z" fill="#878794"/>
<path d="M86.4642 194.841C91.5561 194.517 97.0656 196.02 101.608 198.31C98.3681 198.775 95.1132 199.129 91.8521 199.404C87.0004 199.644 81.5877 200.205 76.8452 198.942L76.9122 198.86C79.2006 196.097 83.0502 195.176 86.4642 194.841Z" fill="#FEFEFE"/>
<path d="M134.358 116.625C138.091 117.459 141.03 119.158 144.06 121.404C141.98 123.425 139.601 125.212 137.175 126.797C135.196 128.203 133.13 129.537 131.072 130.826C131.662 128.556 132.031 126.216 132.53 123.923C133.064 121.474 133.725 119.05 134.358 116.625Z" fill="#FEFEFE"/>
<path d="M89.2026 105.085C91.694 106.471 94.3701 107.466 96.9592 108.647C99.0975 113.916 102.366 118.504 105.175 123.405L104.749 124.772L103.484 123.765C101.134 122.114 96.3704 119.563 94.7173 117.624C95.4302 116.712 96.3138 115.936 97.0147 115.004C97.3359 114.577 97.7235 114.055 97.6418 113.496C97.4584 113.291 97.3889 113.224 97.1126 113.147C96.3325 112.932 95.3864 112.988 94.5784 112.901C93.6787 112.804 92.826 112.56 91.9611 112.303C90.2266 110.293 89.4521 107.685 89.2026 105.085Z" fill="#FEFEFE"/>
<path d="M79.491 127.243C80.3263 127.207 81.1619 127.56 81.7622 128.139C82.4955 128.846 82.8655 129.864 82.8813 130.871C82.9271 133.82 78.9218 139.681 76.7772 141.728C76.5432 141.951 76.3623 142.043 76.0318 142.046C74.7112 141.178 77.6892 138.047 77.3639 136.825C76.0797 137.237 75.6195 139.269 73.5885 139.824C72.3586 140.16 69.733 140.968 68.567 140.304C68.5144 139.987 68.567 140.02 68.7355 139.768C70.0766 138.733 74.201 136.231 74.9391 135.063L74.8319 134.957C73.2984 135.212 71.7849 136.23 70.2564 136.646C69.6723 136.805 68.5406 137.041 68.0113 136.682C67.8532 136.575 67.8785 136.502 67.8383 136.33C67.9389 136.06 68.0797 135.883 68.3186 135.724C69.377 135.02 70.6954 134.542 71.8483 134.01C73.5059 133.244 75.0178 132.411 76.5229 131.379C77.0948 130.986 77.7244 130.597 78.1961 130.085L78.1047 129.835C77.4144 129.978 76.8015 130.35 76.1994 130.7C76.3817 130.254 76.5924 129.827 76.8261 129.406C77.4539 128.274 78.2374 127.603 79.491 127.243Z" fill="#FEFEFE"/>
<path d="M119.258 110.523C120.99 109.775 125.192 109.548 127.226 109.304C128.678 109.131 130.11 108.884 131.546 108.611C130.599 110.181 129.571 111.419 128.314 112.74C125.947 113.745 125.401 113.167 123.217 113.457C122.468 113.315 121.683 113.261 120.926 113.173C121.97 114.652 123.38 115.812 124.502 117.23C118.537 118.566 111.524 121.213 106.042 123.994C106.796 122.794 107.556 121.586 108.512 120.534C111.786 116.935 116.256 114.38 119.258 110.523Z" fill="#FEFEFE"/>
<path d="M84.6254 105.475L84.6818 105.53C84.8246 106.383 84.137 111.233 83.9816 112.395C81.6614 113.998 79.2855 115.552 77.2702 117.541C76.2124 118.585 75.1361 119.839 75.1625 121.413C75.1966 123.446 76.7003 125.187 78.0832 126.514C77.1842 127.16 76.5451 127.841 75.9897 128.796L74.1839 127.192C72.8302 126.076 71.589 124.506 70.6758 123.013C69.7789 121.547 69.3444 120.09 69.7811 118.369C71.1843 112.842 79.8906 108.25 84.6254 105.475Z" fill="#FEFEFE"/>
<path d="M136.691 107.697C140.502 109.245 145.906 113.757 148.33 117.126C149.515 118.773 150.31 120.567 149.927 122.649C149.043 127.459 141.23 132.736 137.306 135.373C136.852 134.752 136.372 134.186 135.85 133.621C134.844 132.585 133.755 131.781 132.568 130.967C135.239 129.411 137.902 127.811 140.371 125.946C141.461 125.122 144.45 122.288 145.416 121.989C145.613 121.929 145.906 121.839 146.066 121.706C146.31 121.502 146.323 121.384 146.385 121.092L146.178 120.905C145.863 120.887 145.57 120.842 145.286 120.698C144.61 120.352 143.972 119.76 143.35 119.319C142.249 118.536 141.064 117.827 139.855 117.226C138.213 116.409 136.442 115.833 134.657 115.426C135.29 112.84 136.056 110.286 136.691 107.697Z" fill="#FEFEFE"/>
<path d="M99.6754 39.7308C101.515 39.5549 103.351 39.7656 105.164 40.0841C112.488 41.3713 120.895 44.0262 127.668 47.13C130.159 48.2715 132.553 49.6047 134.967 50.8973C136.611 51.7773 138.341 52.5355 139.945 53.4825C141.456 54.3752 142.901 55.4975 144.322 56.5318C146.563 58.1628 148.982 59.9404 150.586 62.2258C149.617 61.8166 148.713 61.2759 147.809 60.7444C146.522 60.0712 145.44 58.9965 144.118 58.433C142.956 57.9374 141.677 57.8057 140.45 57.5438C139.26 57.2895 138.097 56.9511 136.949 56.5507C132 54.825 127.195 52.6765 122.228 51.0049C120.926 50.5668 119.564 50.2488 118.242 49.8714C113.843 48.6157 109.412 47.5124 104.945 46.5259C103.818 46.2773 96.7525 45.0201 96.2835 44.7102C95.8862 44.4476 95.5654 43.9152 95.4854 43.4514C95.3832 42.8597 95.6399 42.2407 95.9735 41.764C96.8396 40.5262 98.2445 39.9763 99.6754 39.7308Z" fill="#FEFEFE"/>
<path d="M97.8313 169.483C102.68 170.718 106.649 170.659 111.53 169.72L111.37 170.407C109.802 177.27 108.361 184.232 107.104 191.159C106.731 193.215 106.051 195.817 105.903 197.849C105.876 198.218 105.845 198.311 106.039 198.62C106.299 198.681 106.411 198.709 106.675 198.625C107.176 198.464 107.65 198.1 108.152 197.902C109.99 197.177 111.878 196.497 113.767 195.919C118.083 194.599 122.685 193.344 127.231 193.81C127.755 193.888 128.286 193.963 128.803 194.082C129.895 194.334 132.203 195.044 132.741 196.09C132.866 196.333 132.85 196.593 132.726 196.834C132.507 197.258 131.995 197.54 131.57 197.709C129.831 198.396 127.492 198.349 125.63 198.437C122.123 198.602 118.598 198.698 115.087 198.709C113.246 198.715 111.385 198.583 109.547 198.652C108.316 198.698 104.28 199.406 103.355 199.003C103.373 198.877 103.383 198.75 103.407 198.626C103.443 198.443 103.504 198.319 103.47 198.13C103.312 197.255 102.899 196.359 102.655 195.496C102.292 194.212 102.024 192.892 101.754 191.586C100.235 184.262 99.0269 176.866 97.8313 169.483Z" fill="#FEFEFE"/>
<path d="M126.518 19.4426C132.432 18.8601 135.086 24.0202 137.321 28.6034C137.846 29.6806 138.48 31.3815 139.599 31.9593C140.136 32.2365 141.004 32.5343 141.6 32.2884C141.764 32.2203 141.721 32.2115 141.815 32.0242C141.668 31.0344 140.481 30.6739 139.923 29.9267C139.245 29.0194 138.794 27.8712 138.312 26.8484C139.388 27.2736 140.484 27.6801 141.616 27.9251C143.284 28.286 145.04 28.4099 146.621 29.0909C148.307 29.8173 149.571 31.1043 150.23 32.826C150.658 33.9435 150.839 35.1468 150.748 36.3404C150.475 39.8965 147.7 46.0435 146.186 49.4027C145.611 49.028 145.064 48.6084 144.51 48.2026C143.499 47.4739 142.457 46.7868 141.322 46.265C141.448 45.7816 141.636 45.2131 141.597 44.7123C141.572 44.3861 141.486 44.205 141.218 44.0042C140.4 43.3895 128.372 37.8385 128.056 37.8714C127.568 38.2795 127.265 38.9335 126.94 39.4749C122.027 37.5678 116.887 35.9214 111.645 35.2307C113.416 31.791 114.884 28.3889 117.31 25.3121C119.44 22.6105 123.024 19.8539 126.518 19.4426Z" fill="#FEFEFE"/>
<path d="M86.112 103.343C86.9065 103.805 87.7225 104.248 88.4978 104.741C88.6339 107.217 89.379 111.1 91.3445 112.821C92.6364 113.951 95.2291 113.774 96.8486 113.92C95.7829 115.153 94.6128 116.372 93.7585 117.765C97.055 121.038 101.464 122.959 105.045 125.895C104.593 127.022 104.369 128.306 104.086 129.49C102.916 134.389 102.127 139.37 101.757 144.395C101.705 145.101 101.513 146.122 101.684 146.8C101.943 146.894 101.97 146.9 102.238 146.836C102.373 146.365 102.284 145.874 102.317 145.388C102.409 144.053 102.584 142.712 102.731 141.382C103.106 137.998 103.707 134.666 104.412 131.336C104.854 129.252 105.276 127.118 106.046 125.126C110.617 122.612 115.862 121.004 120.807 119.385C122.399 118.864 124.057 118.48 125.602 117.833C125.665 117.575 125.642 117.46 125.505 117.227C125.052 116.455 122.756 114.757 122.723 114.12L122.748 114.086C124.543 114.269 126.719 114.31 128.376 113.515C130.332 112.683 131.598 110.293 132.568 108.53C133.411 108.31 134.253 108.081 135.106 107.906C134.388 110.312 133.828 112.755 133.219 115.19C132.423 118.377 131.619 121.555 130.966 124.776C130.552 126.82 130.264 128.89 129.844 130.931C128.526 131.051 127.29 131.236 126.413 132.343C124.666 134.548 125.077 138.834 125.44 141.428L125.5 141.843C124.802 143.621 124.247 145.471 123.64 147.282C122.338 151.168 121.057 155.071 119.606 158.905C119.037 160.407 118.521 162.293 117.536 163.562C116.681 164.664 115.236 165.384 113.981 165.925C108.374 168.344 99.545 168.645 93.8338 166.363C91.6305 165.482 91.1458 164.422 90.2784 162.363C86.2043 152.692 84.546 138.26 84.3739 127.781C84.3114 123.972 84.5149 120.054 84.7612 116.251C85.0416 111.923 85.7019 107.654 86.112 103.343Z" fill="#FEFEFE"/>
<path d="M108.831 128.586C109.057 128.593 109.301 128.59 109.522 128.646C109.847 128.729 110.144 128.982 110.319 129.263C110.512 129.573 110.55 129.945 110.453 130.293C110.299 130.852 110 131.084 109.512 131.359C109.277 131.386 109.007 131.386 108.775 131.333C108.466 131.263 108.205 131.051 108.036 130.788C107.828 130.461 107.789 130.062 107.879 129.689C108.018 129.113 108.334 128.865 108.831 128.586Z" fill="#878794"/>
<path d="M107.541 137.621C107.773 137.656 108 137.701 108.214 137.799C108.541 137.949 108.851 138.281 108.951 138.63C109.054 138.988 109.017 139.343 108.852 139.675C108.594 140.195 108.171 140.38 107.645 140.553C107.432 140.505 107.223 140.452 107.022 140.367C106.615 140.195 106.325 139.878 106.184 139.457C106.065 139.101 106.099 138.73 106.289 138.404C106.579 137.905 107.003 137.74 107.541 137.621Z" fill="#878794"/>
<path d="M104.161 49.1299C104.558 49.5057 105.721 51.8599 106.311 52.6409C110.327 57.9521 116.938 59.7189 123.195 60.6982C124.317 60.8737 125.462 60.8872 126.581 61.0611C127.334 61.178 128.551 61.5017 128.982 62.1956C129.141 62.4512 129.195 62.6856 129.104 62.9802C128.887 63.6858 128.025 64.0389 127.43 64.3729C127.638 64.696 127.813 65.0506 128 65.3867C127.723 66.1111 127.436 66.9595 126.839 67.4856C126.168 68.0766 125.549 68.0579 124.714 68.0019C124.555 68.5131 124.411 69.0275 124.365 69.563C124.279 70.5434 124.492 71.5838 125.157 72.3366C125.862 73.1345 126.781 73.3962 127.809 73.465C126.534 75.2259 124.572 77.8508 122.32 78.373C121.705 78.5158 121.089 78.4536 120.556 78.0985C119.596 77.4587 119.037 76.1082 118.806 75.0109C118.129 71.7986 119.468 67.9785 121.265 65.3353C121.913 64.3838 122.837 63.5547 123.431 62.589C123.45 62.5592 123.465 62.5279 123.482 62.4972L123.455 62.7208L123.274 62.5773C122.99 62.7336 122.757 62.9538 122.513 63.1656C119.43 65.8465 117.649 68.741 117.375 72.8994C117.234 75.0332 117.67 77.0249 119.131 78.6494C119.788 79.3805 120.574 79.7762 121.564 79.8066C123.416 79.8635 124.977 78.667 126.251 77.4486C129.219 74.6094 131.461 70.2134 131.525 66.0556C131.554 64.1823 131.099 62.6123 129.779 61.2348C133.907 61.0927 139.066 60.9416 142.46 58.3284C142.587 58.4412 142.715 58.5508 142.843 58.6618C143.415 59.1594 144.095 59.5019 144.754 59.8718C145.007 62.0799 144.674 64.5758 144.351 66.7725C143.598 72.8453 141.866 78.9508 140.305 84.8575C138.461 91.8319 136.606 98.7872 134.598 105.717C134.064 105.907 133.511 106.051 132.965 106.203C128.44 107.46 123.883 107.968 119.222 108.413C105.53 109.72 98.5679 109.072 86.3596 102.176C87.206 97.5501 87.7346 92.8699 88.6744 88.2564C91.1208 76.2446 96.7404 58.8549 104.161 49.1299Z" fill="#FEFEFE"/>
<path d="M114.907 60.0371C115.64 60.0373 116.265 60.1817 116.882 60.5954C117.754 61.1802 118.176 62.1502 118.372 63.1493C118.988 66.2996 117.853 69.5126 116.083 72.0967C114.58 74.2899 111.726 77.9198 108.93 78.3655C107.957 78.5205 107.032 78.2101 106.258 77.6238C105.069 76.7235 104.417 75.3984 104.2 73.9465C103.719 70.7127 105.258 66.9549 107.192 64.4342C107.631 63.8624 108.868 62.29 109.591 62.1946L109.538 62.3444C107.232 65.39 105.278 69.1237 105.415 73.0577C105.458 74.3117 105.806 75.8888 106.784 76.7417C107.231 77.1316 107.785 77.285 108.372 77.2141C110.597 76.9464 112.585 74.3499 113.823 72.7031C113.118 72.3676 112.505 72.013 112.024 71.3811C111.115 70.1878 111.172 68.6229 111.38 67.2157C112.01 66.9741 112.751 66.7086 113.182 66.1627C113.692 65.5166 113.611 64.8236 113.532 64.0634C113.975 63.6253 114.555 63.0345 114.798 62.4554C114.895 62.223 114.937 61.9898 114.792 61.7687C113.78 60.2293 112.372 61.9417 111.564 61.8723L111.607 61.7017C112.675 60.8648 113.543 60.2753 114.907 60.0371Z" fill="#878794"/>
<path d="M120.572 85.9381C120.967 85.9271 121.385 85.9702 121.739 86.1569C123.291 86.9763 127.343 91.2274 127.843 92.9117L127.666 92.9985C126.247 92.6678 125.375 91.5875 124.39 90.5974C124.094 91.0303 123.769 91.4458 123.426 91.8424C118.733 97.2677 112.248 102.673 104.844 103.196C104.274 103.213 103.691 103.23 103.127 103.141C101.981 102.96 100.74 102.381 100.076 101.393C99.6251 100.722 99.5139 99.9136 99.7066 99.1338C100.023 97.8536 101.109 96.697 102.222 96.0257C105.113 94.2825 106.404 96.3773 108.937 96.9616C109.923 97.1892 110.853 96.99 111.782 96.6451C113.995 95.8231 116.035 94.2997 117.998 93.0026L123.436 89.4277C122.623 88.1726 121.526 87.0886 120.572 85.9381Z" fill="#878794"/>
</g>
<defs>
<clipPath id="clip0_847_2195">
<rect width="231" height="231" fill="white"/>
</clipPath>
</defs>
</svg>
