<svg width="212" height="212" viewBox="0 0 212 212" fill="none" xmlns="http://www.w3.org/2000/svg">
<g id="dry-out-faucet- 1" clip-path="url(#clip0_313_123)">
<path id="Vector" d="M0 0H212V212H0V0Z" fill="#FEFEFE"/>
<path id="Vector_2" d="M172.531 164.047C172.778 164.066 173.015 164.043 173.228 164.176C173.912 164.603 174.226 165.602 174.388 166.349C173.961 166.305 173.437 166.313 173.107 166.01C172.616 165.558 172.581 164.672 172.531 164.047Z" fill="#767880"/>
<path id="Vector_3" d="M64.9147 137.199L65.3201 137.52C65.5015 138.002 65.5493 138.511 65.4739 139.02C65.3027 140.176 64.9263 140.91 63.987 141.627C63.8719 141.561 63.7667 141.494 63.6655 141.407C63.4483 141.221 63.3815 141.186 63.3916 140.885C63.4299 139.726 64.0276 137.948 64.9147 137.199Z" fill="#767880"/>
<path id="Vector_4" d="M23.9319 123.166C24.1406 123.176 24.4938 123.181 24.6855 123.268C25.1625 123.483 25.1379 125.986 25.2958 126.615C25.5316 127.553 25.8084 128.436 26.2291 129.311C26.5451 129.968 27.1633 130.737 27.3038 131.445C27.3421 131.638 27.1332 131.836 27.025 131.993C25.5244 130.991 24.4683 128.862 24.0077 127.15C23.6971 125.995 23.3129 124.243 23.9319 123.166Z" fill="#767880"/>
<path id="Vector_5" d="M189.7 133.176L191.175 133.488L191.207 135.14C191.162 137.763 189.639 139.932 187.838 141.686C187.594 141.852 187.364 142.046 187.067 142.095C186.911 141.908 186.686 141.475 186.78 141.228C186.989 140.681 187.604 140.112 187.961 139.633C189.475 137.603 189.786 135.645 189.7 133.176Z" fill="#767880"/>
<path id="Vector_6" d="M114.326 4.75586C114.506 4.81536 114.679 4.85499 114.813 4.99622C115.044 5.23822 114.988 5.3253 114.971 5.64102C114.64 6.09069 114.066 6.27021 113.571 6.49449L111.073 7.64985L107.405 9.51706L103.241 11.8771L102.999 11.9112C102.8 11.7558 102.783 11.7271 102.695 11.4897C103.542 10.0387 112.366 5.67471 114.326 4.75586Z" fill="#767880"/>
<path id="Vector_7" d="M85.8094 61.7383C86.2127 61.7975 86.4286 61.8174 86.717 62.1248C86.7576 62.3946 86.7889 62.6235 86.7056 62.8921C86.304 64.1864 85.6653 65.4559 85.2301 66.7578L83.7567 71.2671C83.455 72.2176 83.219 73.1505 82.7979 74.0597L82.2451 73.9167C82.1129 73.8535 81.9592 73.7687 81.9205 73.6173C81.7586 72.9826 82.2983 71.5984 82.4849 70.976L84.6084 64.7454C84.9918 63.7351 85.3345 62.7109 85.8094 61.7383Z" fill="#767880"/>
<path id="Vector_8" d="M61.4648 137.975L62.159 137.992C62.3157 138.277 62.3008 138.325 62.2461 138.647C61.9977 140.107 60.87 141.518 59.6746 142.339C58.5833 143.089 57.1258 143.629 55.7927 143.374C55.0733 143.237 54.688 142.717 54.2986 142.153C54.0742 141.581 53.9932 140.871 54.2251 140.288C54.3593 139.951 54.5253 139.761 54.8611 139.629C55.54 140.137 54.9095 140.689 55.2625 141.248C55.6453 141.545 55.8623 141.627 56.3499 141.623C57.8293 141.61 59.5624 140.897 60.3992 139.632C60.7642 139.08 60.8849 138.554 61.3797 138.058L61.4648 137.975Z" fill="#767880"/>
<path id="Vector_9" d="M86.364 49.6719L86.4799 49.6766C86.9091 49.7147 87.0524 49.8358 87.3178 50.148C87.3708 50.4737 87.3801 50.5489 87.242 50.8575C86.7201 52.0252 85.9505 53.1409 85.3214 54.2601L82.4449 60.004C81.4166 62.3331 80.6988 64.7075 80.0123 67.1528C79.8119 67.1865 79.6531 67.1615 79.4506 67.1428C79.3185 67.0259 79.1386 66.936 79.1107 66.753C79.0125 66.1133 79.3663 65.1632 79.5386 64.5334C80.4379 61.246 81.7598 58.2401 83.2471 55.187C84.1722 53.2885 85.1094 51.3793 86.364 49.6719Z" fill="#767880"/>
<path id="Vector_10" d="M118.774 9.63477L118.89 9.6422C119.189 9.69097 119.366 9.7742 119.505 10.0549C119.615 10.2768 119.578 10.5849 119.505 10.8068C118.825 11.3369 117.773 11.5784 116.962 11.8531L112.809 13.2865C109.797 14.3713 106.723 15.4234 103.818 16.769C103.607 16.7831 103.444 16.7635 103.236 16.7342C103.013 16.4372 102.991 16.4145 102.977 16.0455C103.523 15.3132 105.26 14.7516 106.131 14.3663C110.225 12.5551 114.439 10.7858 118.774 9.63477Z" fill="#767880"/>
<path id="Vector_11" d="M67.1456 169.782C67.818 169.761 68.5809 169.85 69.1534 170.225C69.9565 170.751 70.5521 171.8 70.7496 172.722C70.9676 173.739 70.9341 175.399 70.2622 176.277C69.9834 176.642 69.7163 176.591 69.301 176.618L68.9054 176.414C67.4228 175.579 65.8007 173.964 65.3869 172.269C65.2631 171.762 65.3684 171.081 65.6651 170.645C66.0413 170.092 66.5187 169.922 67.1456 169.782Z" fill="#767880"/>
<path id="Vector_12" d="M67.1397 171.205C67.6489 171.21 68.1779 171.201 68.5994 171.536C69.0636 171.905 69.3522 172.571 69.4391 173.144C69.5313 173.751 69.5557 174.398 69.1611 174.9C68.1744 174.289 67.2328 173.185 66.9442 172.044C66.8376 171.622 66.9231 171.555 67.1397 171.205Z" fill="#FEFEFE"/>
<path id="Vector_13" d="M30.2852 113.512C30.7456 113.55 30.9336 113.714 31.2531 114.023C31.1479 115.003 30.7959 115.928 30.6682 116.908C30.1674 120.745 30.4537 124.627 31.569 128.333C32.0563 129.951 32.7596 131.46 33.5584 132.947C33.9347 133.647 34.3699 134.299 34.8088 134.96C35.0009 135.25 35.3243 135.613 35.2927 135.968L35.0612 136.04C34.5693 135.876 34.073 135.591 33.6743 135.257C32.8497 134.567 32.323 133.601 31.8265 132.666C30.2982 129.786 29.3682 126.648 29.1117 123.393C28.9254 121.03 28.9324 118.561 29.3088 116.216C29.4032 115.628 29.4627 114.951 29.66 114.39C29.7744 114.063 30.0639 113.77 30.2852 113.512Z" fill="#767880"/>
<path id="Vector_14" d="M188.422 123.227C188.893 123.355 189.378 123.445 189.729 123.804L189.747 124.322C189.678 125.656 189.141 127.287 188.765 128.574C187.35 133.426 185.009 138.23 181.694 142.073C180.668 143.262 179.503 144.306 178.343 145.36C178.143 145.475 178.257 145.443 177.996 145.429C177.681 145.062 177.43 144.664 177.172 144.258L177.945 143.729C179.307 142.742 180.333 141.481 181.349 140.154C185.101 135.253 187.431 129.302 188.422 123.227Z" fill="#767880"/>
<path id="Vector_15" d="M172.94 162.018C173.848 161.995 174.731 161.888 175.559 162.335C176.611 162.902 177.022 164 177.329 165.078C176.645 167.101 175.208 168.828 173.335 169.866C172.56 170.296 171.712 170.438 170.849 170.174C169.583 169.788 168.549 168.939 167.951 167.753C167.466 166.793 167.535 166.089 167.861 165.107C168.094 164.786 168.152 164.679 168.52 164.504C168.694 164.525 169.042 164.561 169.135 164.745C169.171 164.815 169.161 165.177 169.166 165.262C169.201 165.92 169.129 166.309 169.579 166.843C170.166 167.538 171.125 168.049 172.04 168.083C172.712 168.108 173.36 167.606 173.811 167.154C174.367 166.597 175.381 165.486 175.332 164.693C175.309 164.325 175.208 164.094 174.945 163.843C173.649 163.274 171.76 163.966 170.435 164.265C170.13 164.177 169.857 164.136 169.659 163.865L169.699 163.752C170.153 162.844 172.033 162.329 172.94 162.018Z" fill="#767880"/>
<path id="Vector_16" d="M48.4661 80.8906L48.9108 81.0277C48.9371 81.0409 49.1656 81.1782 49.1787 81.208C49.2915 81.4643 49.0677 82.2218 49.0215 82.5065C48.9435 82.9874 48.9008 83.5301 49.0027 84.0106C49.153 84.7184 49.577 85.4726 49.8824 86.125C50.4289 87.2927 50.9384 88.3847 51.2765 89.6325C51.473 90.3577 51.5693 91.2726 51.3177 92.0005L51.2691 92.1293L51.2254 92.251C50.9742 92.8891 50.3407 93.24 49.7521 93.5104C49.4292 93.4705 49.0921 93.4369 48.7903 93.3079C47.9228 92.9376 47.3835 91.709 47.0574 90.8743C45.7455 87.515 47.097 84.0029 48.4661 80.8906Z" fill="#767880"/>
<path id="Vector_17" d="M48.0475 85.6875L49.5572 88.852C49.9146 89.7364 50.2255 91.0631 49.8593 91.9825C49.368 91.8866 49.11 91.7962 48.785 91.3873C47.6149 89.9157 47.8095 87.4141 48.0475 85.6875Z" fill="#FEFEFE"/>
<path id="Vector_18" d="M61.0033 175.898L61.1799 175.888C63.2311 175.827 65.3232 176.679 66.79 178.118C67.3245 178.642 67.7879 179.323 67.7858 180.1C67.7852 180.281 67.8129 180.3 67.6661 180.43C67.4138 180.653 67.1606 180.687 66.8401 180.675C65.9629 180.642 65.0342 180.788 64.1578 180.864C62.4715 181.1 60.0379 181.83 58.4789 180.89C58.0189 180.613 57.5953 180.154 57.4837 179.613C57.333 178.883 57.5641 178.15 57.9849 177.552C58.7369 176.483 59.788 176.138 61.0033 175.898Z" fill="#767880"/>
<path id="Vector_19" d="M60.8083 177.245L61.179 177.205C63.1225 177.036 64.2903 177.988 65.6824 179.171L62.9635 179.647C61.973 179.92 60.5559 180.351 59.5392 180.072C59.1758 179.973 58.9025 179.716 58.7266 179.393C58.756 179.118 58.7969 178.865 58.9259 178.617C59.3537 177.794 59.9834 177.508 60.8083 177.245Z" fill="#FEFEFE"/>
<path id="Vector_20" d="M44.5124 58.6348C44.9875 59.0867 45.5163 59.5983 45.7262 60.2347L45.4668 60.3767C44.9492 60.3684 44.3903 60.4094 44 60.0391C44.0791 59.5327 44.3023 59.0971 44.5124 58.6348Z" fill="#FEFEFE"/>
<path id="Vector_21" d="M45.0612 54.3105C45.3831 54.3994 45.7431 54.9844 45.9469 55.2465L44.5502 56.392L43.5938 55.5291L45.0612 54.3105Z" fill="#FEFEFE"/>
<path id="Vector_22" d="M42.3364 56.7754C42.7699 56.8975 43.0908 57.093 43.4672 57.3317L42.6452 59.2896L42.5597 59.3333C42.2515 59.3401 41.9053 59.131 41.625 59.0035C41.7652 58.2466 42.0444 57.4859 42.3364 56.7754Z" fill="#FEFEFE"/>
<path id="Vector_23" d="M48.5799 52.3477L49.4127 53.4377L47.4186 54.4058C47.2468 54.1795 46.6015 53.6447 46.5859 53.4325L48.5799 52.3477Z" fill="#FEFEFE"/>
<path id="Vector_24" d="M51.918 50.5932L52.123 50.5859C52.6547 51.299 52.9987 52.0151 53.3056 52.8453C53.0039 53.2196 52.5689 53.7465 52.123 53.9367L51.8766 53.6514C51.3187 52.8602 50.8086 52.1646 49.9984 51.6159L49.8672 51.5279L51.918 50.5932Z" fill="#FEFEFE"/>
<path id="Vector_25" d="M56.405 47.4528C57.0013 47.4383 57.6066 47.522 58.2004 47.5748C57.4331 49.1741 56.6605 50.3212 55.4572 51.6289L55.1765 51.8531C54.697 51.4908 54.2707 49.901 54.0391 49.2871C54.3575 49.0602 55.1759 48.5238 55.2432 48.1302C55.293 47.8396 55.1191 47.8491 55.3156 47.5522L56.405 47.4528Z" fill="#FEFEFE"/>
<path id="Vector_26" d="M53.3769 47.5374C53.6501 47.5227 53.7655 47.4741 54.0108 47.6178C53.7634 47.871 53.422 47.9554 53.0978 48.0883L50.7867 49.0227L47.9704 50.3353C46.2363 51.2406 44.4735 52.3167 42.9303 53.5165C41.2947 54.7883 39.7886 56.2704 38.2625 57.6714C36.9055 58.9173 35.5214 60.1191 34.3811 61.5768C33.77 62.3582 32.6427 63.9155 32.8145 64.9566C32.8723 65.3063 33.1085 65.4817 33.3781 65.6812C33.7472 65.7543 33.8124 65.7924 34.1718 65.6419C34.4434 65.3645 34.4743 65.162 34.5356 64.7819L34.5559 64.6461C34.9105 64.4573 35.5028 64.5254 35.915 64.5121C36.5106 64.4931 37.0201 64.4241 37.5926 64.2498C39.1917 63.7631 40.2078 62.8201 41.6251 62.0466C41.8224 61.9389 42.105 61.764 42.3199 61.7166C42.8526 61.5988 44.0089 62.0278 44.5453 62.1861L42.7924 62.9716L39.7142 64.4041C38.2818 65.0332 32.392 67.5839 31.0583 66.8791C30.8442 66.7661 30.6635 66.5537 30.5856 66.323C30.3337 65.5769 30.8187 64.2883 31.1415 63.6076C31.4831 62.8876 32.5497 60.8195 33.2839 60.5576C33.5385 60.6204 33.7445 60.6829 34.0085 60.6286L34.4329 59.8301C35.1941 58.5695 36.3717 57.0414 37.5568 56.171C38.0209 55.8301 38.5836 55.5941 39.0905 55.3222C39.536 55.0835 40.0041 54.7788 40.4985 54.6599C40.6958 54.6125 40.8074 54.5796 40.9738 54.4498C40.9709 54.2129 40.9693 54.0101 41.0198 53.7769C42.1334 52.8499 43.2462 51.8368 44.4379 51.0145C47.1237 49.161 50.2109 48.1782 53.3769 47.5374Z" fill="#FEFEFE"/>
<path id="Vector_27" d="M50.0121 55.062C50.1113 55.0477 50.209 55.0655 50.3082 55.0748C52.2503 58.155 54.4919 62.1017 54.0757 65.887L54.0519 66.0939C53.9511 67.0172 53.7099 67.9128 53.5323 68.8227C53.2813 70.1076 53.0619 71.3284 52.6358 72.5708L52.3358 69.69C51.3992 65.0138 48.8351 61.0042 45.6953 57.517L45.7104 57.4197C46.2259 56.993 46.7336 56.5259 47.3472 56.2477L50.0121 55.062Z" fill="#FEFEFE"/>
<path id="Vector_28" d="M142.601 3.14838C145.124 3.0335 147.685 3.42135 149.998 4.45963C151.86 5.29532 153.701 6.43363 155.1 7.92877C155.761 8.63595 156.301 9.43497 156.938 10.1613C158.077 11.4617 159.446 12.6094 160.478 13.9961C163.744 18.3813 163.893 24.2507 165.816 29.2437C167.183 27.9483 168.298 26.5337 169.465 25.0606C168.643 23.6381 167.973 21.9976 168.062 20.3223C168.16 18.4825 169.091 17.0932 170.177 15.681C170.744 14.9435 171.305 14.2255 171.996 13.599L173.738 17.5673L176.414 10.3507C176.805 9.6091 177.65 10.3499 178.284 10.2239L183.11 9.05161C183.08 11.736 182.424 14.7728 180.934 17.0282C181.411 17.1824 181.954 17.1979 182.45 17.2925L185.161 17.9295C183.266 20.0345 181.298 21.7463 178.74 22.9868C179.342 23.1651 179.98 23.3926 180.599 23.4972C181.346 23.6236 182.23 23.4996 182.996 23.5183C185.449 23.5783 188.163 23.9483 190.39 25.029C193.01 26.3004 194.628 29.1671 195.527 31.8382C196.09 33.5096 196.305 35.181 195.438 36.7989C195.091 37.448 194.48 37.9434 193.759 38.1107C191.479 38.6398 189.424 36.1327 187.695 35.1131C186.838 34.6073 185.982 34.6336 185.044 34.8712C183.71 35.2097 182.377 36.0611 181.203 36.7571C177.338 39.0481 173.813 41.6911 170.322 44.5081C169.714 44.999 168.659 45.6042 168.268 46.2509C168.295 46.3155 168.306 46.3896 168.35 46.4445C168.443 46.5617 171.053 47.3157 171.418 47.4333L178.732 49.9263C183.034 51.6252 187.336 53.8295 191.358 56.1054C193.106 57.095 194.419 58.2577 195.746 59.7467C196.714 60.8319 197.529 61.8669 197.909 63.2915C198.116 64.0647 198.181 64.8711 198.322 65.658C198.454 66.3973 198.686 67.1081 198.63 67.8683C198.521 69.3364 198.087 70.829 197.728 72.253L196.014 78.8571L193.164 89.6954L186.713 108.907C184.016 116.046 181.022 123.201 177.463 129.959C175.334 134.001 172.927 137.988 170.279 141.712C169.629 142.625 168.975 143.563 168.259 144.424C167.823 144.948 167.233 145.433 166.873 146.008C166.488 146.621 166.463 148.058 166.329 148.785C166.109 149.98 165.736 151.293 165.108 152.336C164.64 153.111 163.982 153.819 163.362 154.475C161.236 156.724 159.175 157.846 156.217 158.626C156.884 160.059 156.942 161.388 157.08 162.932L157.545 166.695C157.845 168.522 158.417 170.335 158.965 172.101C159.747 171.483 160.386 171.074 161.381 170.864C162.203 170.69 163.035 170.603 163.765 171.105C164.43 171.562 164.776 172.301 164.9 173.079L164.923 173.232C165.05 174.038 164.948 174.852 164.884 175.66C165.966 175.672 167.281 175.742 168.268 176.229C168.914 176.547 169.233 177.129 169.439 177.792C169.897 179.264 169.093 180.703 168.445 181.977C168.487 182.189 169.19 182.529 169.399 182.702C169.71 182.959 169.982 183.255 170.194 183.599C170.421 183.965 170.169 184.635 170.07 185.022C172.747 185.52 180.831 186.917 182.301 189.226C182.48 189.507 182.524 189.735 182.417 190.054C181.966 191.394 174.569 192.621 173.14 192.839C171.921 193.026 170.6 193.064 169.415 193.386C168.644 193.596 168.188 194.06 167.512 194.422C166.239 195.103 164.361 195.128 162.937 195.439C160.263 196.023 157.65 196.807 154.915 197.079C152.816 197.287 150.661 197.202 148.552 197.203L138.384 197.19L124.92 197.107L115.311 197.028L100.51 195.905L95.0008 195.39L82.8162 193.683C77.04 192.857 71.0651 192.244 65.4552 190.595C64.1308 190.2 62.7097 189.782 61.4922 189.12C60.516 188.588 59.2546 187.863 58.9635 186.71C58.8884 186.412 58.866 186.027 59.0378 185.763C59.395 185.214 60.2285 184.869 60.8274 184.662C62.0559 184.238 63.3859 184.126 64.6567 183.873L69.0408 182.868L72.3352 182.278L73.6934 179.999C74.3207 179.014 75.16 178.184 76.0161 177.398C77.8334 175.729 79.9428 174.361 82.264 173.5C83.6247 172.996 85.0586 172.697 86.4709 172.377C86.5357 171.372 86.3773 170.137 86.6875 169.185L86.7392 169.04C86.8753 168.654 87.0469 168.334 87.3034 168.012C87.7247 167.483 88.2261 167.143 88.9139 167.094C90.7347 166.965 92.404 168.635 93.6392 169.767C94.1127 169.515 94.4153 169.067 94.9429 168.881C95.6824 168.619 96.7326 168.628 97.4216 169.03C98.0502 169.396 98.2978 170.241 98.4423 170.904L98.4843 171.104C98.8319 172.672 98.6017 174.298 98.4177 175.875L99.7955 176.851C99.8085 175.654 99.6754 174.456 99.7209 173.261C99.9085 168.325 101.613 163.765 103.741 159.343L105.322 156.253C105.618 155.713 106.053 155.161 106.259 154.585C103.453 153.218 100.612 151.718 98.0046 149.999C95.3789 148.268 92.9123 146.286 90.5221 144.246C89.546 143.413 88.3793 142.579 87.5489 141.603C86.7214 140.631 86.521 138.909 86.2148 137.676C84.7472 131.767 84.1884 125.849 83.9663 119.776C83.8044 115.348 83.7919 111.068 84.1797 106.648L79.9441 105.741C76.414 105.283 72.2396 106.298 69.1463 108.048C68.2087 108.578 67.3472 109.253 66.4895 109.902C66.7783 110.44 67.11 110.991 67.3145 111.567C68.1433 113.904 68.0965 116.539 68.118 118.985C68.6228 119.145 69.1977 119.339 69.6091 119.682C70.7968 120.671 71.085 122.753 71.2309 124.193C71.4419 126.274 70.9968 128.316 69.6341 129.956C68.2865 131.577 66.1779 132.035 64.1815 132.213C64.1273 132.712 64.0627 133.224 63.8639 133.69C63.7519 133.952 63.67 134.145 63.407 134.259L63.1135 133.979C62.924 133.514 63.0501 132.699 63.0698 132.186C62.9236 132.184 61.6001 132.125 61.5477 132.163C61.4653 132.223 60.9487 133.812 60.8187 134.058C60.1956 135.24 59.0902 136.347 57.8867 136.943C56.0384 137.858 53.5958 137.78 51.9685 136.44C51.6373 136.168 51.028 135.452 50.6756 135.3C50.5674 135.254 50.2367 135.327 50.1059 135.346C49.59 135.421 49.0633 135.511 48.5401 135.486C48.0132 135.46 47.4213 135.307 46.9298 135.128C44.7603 134.335 43.8682 132.075 43.0219 130.141C42.3476 129.967 41.7687 129.76 41.2083 129.323C39.7419 128.18 38.8595 126.406 38.6109 124.584L38.5902 124.425C38.468 123.521 38.4403 122.553 38.5674 121.648C38.9552 118.892 40.0001 116.137 41.9205 114.073L43.0542 112.908C43.1407 112.821 43.4204 112.59 43.4647 112.495C43.4815 112.459 43.4136 112.057 43.4076 112.009C43.3134 111.236 43.1401 110.462 43.089 109.687C43.0219 108.667 43.0855 107.603 43.242 106.594C43.7881 103.074 45.1471 99.1559 48.1503 96.9866C51.8265 94.3308 57.0572 94.7227 61.1297 96.1769C61.81 96.42 62.4555 96.7827 63.0969 97.1123C63.283 97.2081 63.6277 97.4475 63.8203 97.4862C64.0271 97.5278 65.378 96.9322 65.6719 96.8351C67.9785 96.0742 70.2256 95.3401 72.6236 94.9033C77.0638 94.0942 81.3688 94.4004 85.7931 95.0815L87.238 84.3561C89.4052 71.8563 93.0947 59.4316 98.3469 47.8751C100.032 44.1669 101.97 40.5385 103.968 36.991C104.72 35.6565 106.24 35.0789 107.564 34.4427C109.413 33.5541 111.419 32.9369 113.458 32.6823C115.683 32.4045 118.094 32.5262 120.327 32.6471C128.522 33.0908 136.629 34.5524 144.505 36.8521C145.34 37.0962 146.161 37.3854 146.968 37.7123C147.758 38.0322 149.754 39.1471 150.519 38.9355C150.635 38.7529 150.705 38.7268 150.674 38.5022C150.624 38.1376 150.363 37.7467 150.194 37.4246L148.933 35.0317C146.416 30.0605 144.049 25.2795 140.195 21.1616C139.005 19.8902 137.854 18.7486 136.368 17.812C135.557 17.3004 134.672 16.8472 133.775 16.5049C132.674 16.0843 129.9 15.6007 129.167 14.8629C128.784 14.4772 128.492 13.5348 128.455 12.9903C128.325 11.1152 129.247 9.44215 130.464 8.08127C133.367 4.83624 138.399 3.40386 142.601 3.14838Z" fill="#767880"/>
<path id="Vector_29" d="M109.961 155.783C110.102 155.787 110.114 155.781 110.274 155.819C110.924 155.972 112.926 156.852 113.258 157.396L113.031 157.921L112.728 158.037C111.91 157.433 110.351 156.694 109.961 155.783Z" fill="#FEFEFE"/>
<path id="Vector_30" d="M54.1576 100.992C54.5302 100.987 54.9081 100.988 55.2735 101.07C56.2165 101.28 56.7558 101.701 57.2707 102.502L56.1736 103.326L54.8101 104.278C54.3062 103.163 54.1394 102.199 54.1576 100.992Z" fill="#FEFEFE"/>
<path id="Vector_31" d="M175.58 23.2586C175.83 23.2441 176.209 23.4383 176.449 23.5283L178.273 24.1465C176.536 24.3794 174.928 24.7993 173.26 25.3183L170.93 26.1264C171.697 25.4005 173.693 23.2515 174.739 23.2764L175.58 23.2586Z" fill="#FEFEFE"/>
<path id="Vector_32" d="M178.852 18.6582L181.678 18.8622C180.635 19.9788 179.413 20.9116 178.063 21.6247C177.875 21.7193 177.363 22.0586 177.185 22.0681C176.735 22.0923 175.907 21.8019 175.438 21.7102C176.517 20.7017 177.609 19.4511 178.852 18.6582Z" fill="#FEFEFE"/>
<path id="Vector_33" d="M176.643 35.9043L176.839 35.9724C172.312 38.7955 167.176 41.6842 164.54 46.5451L162.65 46.4625L162.424 46.3573L162.422 46.2205C166.6 41.8983 171.188 38.4647 176.643 35.9043Z" fill="#FEFEFE"/>
<path id="Vector_34" d="M171.479 16.7754L173.534 21.7458C172.942 22.2584 172.395 22.8387 171.836 23.3869C171.632 23.5873 171.393 23.9297 171.108 23.9641C171.034 23.856 171.021 23.8496 170.973 23.7053C170.694 22.8581 171.127 21.8025 171.508 21.0578L172.378 19.57C171.163 20.4432 170.596 21.4899 170.21 22.9126C169.836 22.3356 169.609 21.7039 169.588 21.0139C169.539 19.3715 170.388 17.9312 171.479 16.7754Z" fill="#FEFEFE"/>
<path id="Vector_35" d="M180.916 11.3008L181.103 11.334C181.01 12.4415 180.72 13.7078 180.278 14.7319C179.984 15.4117 179.437 16.4695 178.722 16.7593L178.605 16.6663C178.907 15.9043 179.465 14.9441 179.499 14.1302C179.329 13.9255 179.293 13.9295 179.033 13.8594C178.71 14.1087 178.669 14.9488 178.349 15.0874C178.164 15.1676 177.962 15.0293 177.819 15.2689C177.682 15.4982 177.626 16.0598 177.554 16.3356C177.5 16.5444 177.47 16.6958 177.325 16.8605L177.118 16.7277C176.917 17.0276 176.983 17.6783 176.965 18.0508C176.264 18.9018 175.387 19.6255 174.492 20.2635C175.159 18.2216 175.945 16.2375 176.835 14.285C177.125 13.649 177.377 12.9159 177.735 12.3187C177.811 12.1922 178.05 11.8135 178.164 11.7629C178.342 11.6841 178.82 11.7023 179.033 11.6732C179.666 11.5868 180.293 11.4442 180.916 11.3008Z" fill="#FEFEFE"/>
<path id="Vector_36" d="M161.973 172.748L162.299 172.92C163.262 173.515 162.733 175.141 162.744 176.081C162.747 176.335 162.821 176.618 162.874 176.865C163.039 177.064 163.204 177.276 163.44 177.395C163.725 177.538 164.283 177.465 164.608 177.475C165.427 177.501 166.341 177.501 167.125 177.776C167.487 177.903 167.6 177.967 167.778 178.306C167.627 180.023 167.112 180.999 166.249 182.444C166.954 183.269 167.635 183.478 168.647 183.758C168.457 184.869 168.109 185.675 167.564 186.652L167.306 186.886C167.03 186.849 167.009 186.469 166.937 186.223C166.173 183.612 165.293 180.922 163.553 178.772C162.817 177.862 161.829 177.03 160.62 176.914L160.022 176.855L159.594 174.691L161.973 172.748Z" fill="#FEFEFE"/>
<path id="Vector_37" d="M88.7227 168.821C90.9763 168.774 92.4085 170.897 93.9138 172.292C94.2973 171.547 94.7732 170.736 95.6515 170.497C95.9065 170.427 96.1467 170.45 96.3547 170.616C97.1512 171.252 97.1114 173.012 97.1365 173.919L97.0951 175.348C94.2203 174.128 91.385 173.44 88.2617 173.361C88.201 171.734 88.0199 170.343 88.7227 168.821Z" fill="#FEFEFE"/>
<path id="Vector_38" d="M111.575 182.746C112.244 182.933 112.71 183.198 113.159 183.744C113.535 184.202 113.819 184.633 113.755 185.242C113.443 185.853 113.026 186.143 112.413 186.431C108.681 188.183 104.799 189.226 100.736 189.851C91.8012 191.223 82.3641 190.319 73.8847 187.171L73.7789 187.121C73.2512 186.878 72.8938 186.616 72.4609 186.236L73.045 185.24C73.4203 185.555 73.7874 185.853 74.2255 186.081C76.1591 187.084 78.5692 187.605 80.6923 188.017C89.4951 189.727 98.7003 189.491 107.31 186.896C108.734 186.466 111.128 185.911 111.878 184.517C111.949 183.85 111.787 183.369 111.575 182.746Z" fill="#FEFEFE"/>
<path id="Vector_39" d="M168.674 187.527L168.764 187.611C168.937 187.842 168.913 187.979 168.856 188.244C168.66 189.164 167.877 189.961 167.113 190.449C164.934 191.842 162.17 192.373 159.676 192.884C156.39 193.558 153.108 194.009 149.769 194.311C147.647 194.503 145.539 194.665 143.405 194.612C140.923 194.551 138.411 194.185 135.985 193.663L132.457 192.822C130.798 192.384 128.768 191.91 127.788 190.388C127.661 189.985 127.605 189.598 127.664 189.175C127.712 188.837 127.828 188.619 128.104 188.414C128.543 188.52 128.932 188.992 129.304 189.248C130.4 190.002 131.714 190.446 132.962 190.873C138.993 192.934 145.353 193.112 151.653 192.645C154.096 192.463 156.536 192.248 158.941 191.769C161.476 191.263 164.07 190.47 166.389 189.325C166.928 189.059 167.601 188.769 168.043 188.358C168.292 188.126 168.486 187.81 168.674 187.527Z" fill="#FEFEFE"/>
<path id="Vector_40" d="M151.952 158.469C152.861 158.675 153.757 158.738 154.684 158.794C153.933 160.769 154.054 162.601 154.354 164.661C154.726 167.22 155.417 169.792 156.303 172.221C157.365 175.135 158.684 177.972 159.534 180.957C158.091 181.146 156.8 181.263 155.35 181.115L153.196 180.747C151.701 177.013 150.536 173.301 149.76 169.351C149.48 167.926 149.187 166.483 149.159 165.026C149.125 163.23 149.412 161.452 149.68 159.68C150.393 160.077 151.652 160.571 152.476 160.448C152.751 160.408 152.847 160.246 152.991 160.035C152.654 159.567 151.866 159.447 151.324 159.293L151.952 158.469Z" fill="#FEFEFE"/>
<path id="Vector_41" d="M149.828 161.176C150.552 161.355 151.232 161.734 151.96 161.873C152.524 161.981 153.101 161.867 153.67 161.914C153.741 162.178 153.665 162.312 153.595 162.568L153.256 162.661C152.294 162.871 151.166 162.617 150.357 162.066C149.975 161.805 149.899 161.614 149.828 161.176Z" fill="#767880"/>
<path id="Vector_42" d="M153.631 167.541C153.7 167.577 153.757 167.601 153.818 167.656C153.846 167.682 153.871 167.712 153.892 167.745C154.068 168.021 154.142 168.433 154.227 168.749L154.795 171.043L156.689 177.082C156.764 177.358 156.786 177.582 156.774 177.866L156.258 177.831C156.08 177.685 155.95 177.557 155.83 177.357C154.857 175.742 153.208 169.22 153.631 167.541Z" fill="#767880"/>
<path id="Vector_43" d="M77.4874 97.2444C80.1738 97.0894 82.7907 97.8015 85.4322 98.1616L84.9724 103.364L83.5667 103.006L83.5921 102.848C83.6994 102.124 83.7737 100.636 83.3408 100.047C83.0011 99.9613 82.9785 99.9072 82.6607 100.087C82.3839 100.884 82.5868 101.995 82.6317 102.832L80.6421 102.662L80.521 100.099C80.278 99.8646 80.1937 99.9083 79.8658 99.889L79.6956 100.047C79.5318 100.826 79.59 101.666 79.8064 102.428L79.8507 102.58L77.8884 102.581C77.8485 101.796 77.8319 100.987 77.692 100.214C77.3889 100.015 77.3317 100.008 76.9673 99.9932L76.7721 100.254C76.6052 100.977 76.9059 101.845 77.0818 102.553L75.5138 102.725C75.4289 102.152 75.2763 101.084 74.9467 100.617C74.7825 100.384 74.6467 100.359 74.3795 100.311L74.1159 100.513C73.8747 101.101 74.4792 102.247 74.7117 102.813L72.8124 103.265C72.7932 102.608 72.8412 101.828 72.4127 101.311L72.1539 101.333C71.8806 101.517 71.8036 101.625 71.6649 101.911C71.6951 102.493 71.8458 102.956 72.0388 103.5L69.5883 104.378C69.138 104.026 69.0459 102.874 68.9165 102.325C68.6923 102.083 68.6989 102.018 68.3755 101.999C68.2979 102.087 68.1981 102.186 68.1486 102.296C67.8985 102.847 68.5925 103.923 68.8374 104.474C68.6933 104.784 68.0985 105.092 67.8139 105.299L65.6572 106.964C64.4894 107.925 63.4683 109.034 62.459 110.157C59.8322 109.163 57.5012 107.828 55.7266 105.618C56.5251 104.96 57.4074 104.388 58.2517 103.791C59.8488 102.663 61.5601 101.493 63.384 100.751C64.1192 100.452 64.9221 100.363 65.6684 100.085C66.5044 99.7739 67.2781 99.339 68.1298 99.0456C71.0661 98.034 74.3997 97.5138 77.4874 97.2444Z" fill="#FEFEFE"/>
<path id="Vector_44" d="M65.2068 103.594C65.3027 103.654 65.3466 103.672 65.4226 103.774C65.7271 104.186 66.0155 105.035 65.8284 105.534C65.7375 105.777 65.595 105.873 65.3721 105.974C65.081 105.654 64.9831 105.152 64.8539 104.745C63.6763 105.493 62.8618 106.392 61.9689 107.444C61.7525 107.678 61.5296 107.879 61.2832 108.081C60.954 108.004 60.8871 107.891 60.6522 107.656C60.647 107.528 60.6414 107.418 60.6789 107.294C60.7913 106.92 61.1569 106.571 61.4287 106.301C62.5194 105.217 63.915 104.414 65.2068 103.594Z" fill="#767880"/>
<path id="Vector_45" d="M181.553 25.5075C183.878 25.2084 188.749 26.1309 190.64 27.5495C191.905 28.4981 192.61 30.2991 193.186 31.7315C193.467 32.4294 193.787 33.1934 193.882 33.9438L193.9 34.1078C193.961 34.5865 194.072 35.2223 193.822 35.6678C193.704 35.8792 193.573 35.9233 193.344 35.981C192.297 36.2467 190.748 34.3068 189.995 33.6704C189.579 33.319 189.117 33.0329 188.646 32.7611C186.786 31.6853 184.864 31.871 182.862 32.4054C176.039 34.2271 170.103 37.7536 164.866 42.4332C163.654 43.5163 162.277 44.654 161.466 46.081L161.382 46.2301C160.573 46.0231 159.748 45.8163 158.913 45.7568C158.689 45.7409 158.583 45.7479 158.38 45.6498C158.559 45.5494 158.486 45.5759 158.646 45.5285C158.923 45.4469 159.139 45.3676 159.35 45.1641C160.029 44.5082 160.566 43.6027 161.153 42.858L164.115 39.3739C165.321 38.1103 166.637 36.9383 168.059 35.922C169.38 34.979 171.028 34.1008 172.116 32.8977L172.031 32.7377C171.479 32.6354 170.969 32.8449 170.467 33.0569C167.234 34.4233 164.375 37.4766 162.065 40.0492C160.888 41.3591 159.629 42.6859 158.955 44.3289C157.507 44.2474 155.841 43.7737 154.578 43.0594L156.718 39.8457C156.981 39.52 157.158 39.2737 157.605 39.4012C157.674 39.4209 157.745 39.4873 157.812 39.4602C157.908 39.4211 158.117 39.16 158.19 39.0761C159.745 37.2758 161.245 35.4924 162.976 33.8513C165.145 31.7965 167.673 29.8546 170.35 28.5215C171.726 27.8362 173.242 27.3482 174.713 26.9124C176.992 26.2371 179.189 25.7427 181.553 25.5075Z" fill="#FEFEFE"/>
<path id="Vector_46" d="M177.682 31.2207L178.301 31.3139C178.641 31.3956 178.788 31.5497 178.975 31.8314C178.974 32.2753 178.944 32.3476 178.711 32.7281L178.05 32.7211C177.737 32.671 177.632 32.4857 177.464 32.2455C177.432 31.7567 177.463 31.6617 177.682 31.2207Z" fill="#767880"/>
<path id="Vector_47" d="M184.949 29.4379C183.891 29.3195 182.805 29.3259 181.741 29.311C181.239 29.3038 180.779 29.3878 180.281 29.2876C181.828 28.8895 183.144 28.8541 184.727 28.893C186.09 29.0032 187.431 29.109 188.399 30.2172L189.081 31.0637C187.862 30.4988 186.275 29.5741 184.949 29.4379Z" fill="#767880"/>
<path id="Vector_48" d="M175.283 33.8555C175.561 33.9397 175.593 33.9225 175.752 34.1608C175.342 34.5441 174.492 34.7888 173.974 35.0416C173.268 35.3867 172.595 35.7796 171.934 36.204L167.819 39.0747C166.878 39.7942 165.976 40.6082 164.963 41.2229L164.539 41.2984V41.1697C165.022 40.3799 165.901 39.7321 166.608 39.1466C169.035 37.1375 172.223 34.6828 175.283 33.8555Z" fill="#767880"/>
<path id="Vector_49" d="M160.392 178.221C160.716 178.251 160.95 178.327 161.224 178.507C162.072 179.063 162.577 179.922 163.08 180.778C164.411 183.045 165.316 185.464 165.803 188.047L164.785 188.557C162.82 189.438 160.654 189.781 158.545 190.133C154.097 190.874 149.719 191.288 145.21 191.217C144.333 191.203 142.813 191.285 142.017 190.927C141.875 190.864 141.887 190.761 141.842 190.624C142.026 190.566 142.192 190.561 142.384 190.545C142.641 190.336 142.865 190.141 142.921 189.796C143.02 189.179 143.169 187.544 142.798 187.046L142.384 187.078C142.087 187.316 141.884 187.542 141.747 187.903C141.443 188.702 141.318 189.632 141.692 190.418L141.743 190.521C141.647 190.63 141.53 190.792 141.387 190.842C141.049 190.958 140.142 190.746 139.746 190.694C136.123 190.216 132.816 189.32 129.617 187.534L129.966 186.405C130.418 185.058 131.278 184.085 132.339 183.17C135.275 180.635 139.451 179.315 143.302 179.617C144.164 179.685 145.258 179.885 146.028 180.271C147.388 180.953 148.55 182.4 149.374 183.648C149.735 184.195 149.974 184.809 150.399 185.311C150.703 185.452 151.013 185.57 151.345 185.431C151.592 185.327 151.7 185.207 151.804 184.96C152.161 184.108 150.951 182.253 150.575 181.461L151.923 181.456C152.83 183.257 154.363 185.046 156.301 185.74C156.714 185.888 157.22 185.997 157.621 185.801C157.467 185.43 156.989 185.078 156.697 184.798L154.363 182.568C155.668 182.854 157.083 182.957 158.41 182.795C159.418 182.672 160.546 182.383 161.186 181.538C161.236 181.472 161.45 181.221 161.453 181.162C161.46 181.059 161.286 180.664 161.245 180.546C160.99 179.818 160.483 179.071 160.399 178.308L160.392 178.221Z" fill="#FEFEFE"/>
<path id="Vector_50" d="M132.526 184.949L132.836 185.034C133.041 185.356 133.07 185.48 133.021 185.862C132.946 186.438 132.742 187.374 132.262 187.721C131.891 187.331 131.501 186.825 131.542 186.255C131.582 185.701 132.136 185.287 132.526 184.949Z" fill="#767880"/>
<path id="Vector_51" d="M135.336 184.854L135.814 184.953C136.065 185.057 136.09 185.11 136.181 185.344C135.885 186.268 135.589 187.201 135.089 188.038L134.727 188.093C134.464 187.989 134.443 187.956 134.275 187.725C134.192 186.564 134.679 185.756 135.336 184.854Z" fill="#767880"/>
<path id="Vector_52" d="M137.58 186.426C137.812 186.417 138.026 186.442 138.256 186.47C138.593 186.965 138.481 187.978 138.411 188.551C138.349 189.064 138.199 189.135 137.81 189.438C137.622 189.399 137.424 189.377 137.266 189.258C136.993 189.052 136.901 188.688 136.864 188.359C136.78 187.59 137.126 187.008 137.58 186.426Z" fill="#767880"/>
<path id="Vector_53" d="M109.36 156.678L112.426 158.587C111.283 160.079 110.43 161.771 109.722 163.507C107.85 168.096 107.136 174.472 108.355 179.319C108.777 180.997 109.524 182.454 110.192 184.034C107.997 184.864 105.779 185.688 103.495 186.239C96.0884 188.028 87.7227 187.948 80.2758 186.371C78.1922 185.929 76.2087 185.126 74.1406 184.615L74.7431 183.214C75.2594 182.184 76.0476 181.258 76.8432 180.434C78.9317 178.272 81.3372 176.739 84.1868 175.757C87.5134 174.659 91.0128 174.668 94.3013 175.905C95.075 176.196 95.8835 176.501 96.5 177.067C97.3219 177.822 97.9486 178.802 98.6328 179.681C99.0194 180.178 99.3256 180.684 99.946 180.891C100.155 180.234 99.2941 178.481 99.0339 177.862C100.743 179.499 101.943 181.236 104.139 182.297C103.58 180.985 102.893 179.863 102.102 178.684L105.722 179.146C104.702 177.746 103.693 177.422 102.061 177.056C102.036 171.432 103.798 166.195 106.227 161.177C106.636 161.692 106.98 162.285 107.658 162.414L107.813 162.272C107.687 161.645 107.031 161.031 106.617 160.561L107.295 159.421C107.997 160.115 108.753 161.04 109.573 161.576C109.843 161.516 109.961 161.401 110.166 161.226C109.918 160.351 108.169 159.761 107.888 158.826C107.846 158.688 108.154 158.356 108.243 158.232C108.548 158.273 108.747 158.488 108.993 158.668C109.559 159.082 110.241 159.711 110.919 159.919L111.136 159.777L111.149 159.428C110.571 158.626 109.573 157.998 108.759 157.451L109.36 156.678Z" fill="#FEFEFE"/>
<path id="Vector_54" d="M92.7827 180.791C93.1207 180.957 93.529 181.196 93.653 181.576C93.8187 182.085 93.5474 182.639 93.3371 183.087L93.1965 183.019C92.8481 182.84 92.5916 182.556 92.4916 182.174C92.3479 181.625 92.5061 181.26 92.7827 180.791Z" fill="#767880"/>
<path id="Vector_55" d="M79.7144 181.037C79.9869 181.177 80.1467 181.346 80.3492 181.567C80.3705 182.623 79.3968 184.145 78.7416 184.942L78.6265 184.944C78.4358 184.738 78.3515 184.569 78.3192 184.293C78.1814 183.107 79.0523 181.953 79.7144 181.037Z" fill="#767880"/>
<path id="Vector_56" d="M82.5733 182.072L83.0222 182.089C83.2822 182.259 83.3205 182.263 83.4286 182.549C83.2679 183.566 82.6623 184.638 82.0454 185.449C81.7558 185.497 81.7485 185.513 81.4963 185.369C81.1899 184.964 81.2286 184.476 81.3003 183.992C81.4355 183.076 81.8553 182.619 82.5733 182.072Z" fill="#767880"/>
<path id="Vector_57" d="M105.143 170.539C105.374 170.563 105.647 170.597 105.835 170.749C105.856 170.766 106.023 170.958 106.033 171.007C106.105 171.389 105.831 172.185 105.801 172.614C105.727 173.674 105.86 174.767 105.823 175.836C105.583 175.746 105.197 175.642 105.023 175.448C104.836 175.239 104.802 174.825 104.765 174.561C104.573 173.187 104.805 171.872 105.143 170.539Z" fill="#767880"/>
<path id="Vector_58" d="M141.468 5.63268C142.871 5.56152 144.273 5.63897 145.657 5.88731C148.078 6.32211 150.532 7.41542 152.529 8.84858C153.537 9.57238 154.476 10.4448 155.408 11.266C155.903 11.7024 156.868 12.4006 157.142 13.005C157.24 13.2228 157.244 13.6452 157.282 13.8894C157.377 14.5006 157.613 15.0782 157.979 15.5782C158.377 16.1211 158.889 16.5198 159.562 16.6077L159.673 16.62C161.76 19.3737 162.207 22.5543 163.089 25.7871L164.407 30.0499L163.055 31.1047C162.855 29.018 162.487 27.0113 161.9 24.9981C161.672 24.2182 161.46 23.3907 161.041 22.6885C160.718 22.1475 160.286 21.7173 159.839 21.2788C159.853 23.0506 160.454 24.7824 160.874 26.4929L161.838 30.7946C161.894 31.0432 162.176 31.8465 162.127 32.0438C162.084 32.2206 160.304 33.9106 160.032 34.2002C158.877 35.4335 158.013 36.7885 157.299 38.3125C155.874 38.6601 155.259 39.6932 154.498 40.847C154.078 39.8996 153.885 38.8721 153.46 37.92C152.548 35.8776 151.361 33.8831 150.614 31.7782C150.848 30.6954 150.996 29.4636 151.616 28.5205C152.021 27.904 152.604 27.4537 153.189 27.0198C152.859 27.9222 152.379 28.7379 151.94 29.5905C152.832 28.8187 153.414 27.8156 153.907 26.7602C154.056 26.4386 154.255 26.0834 154.323 25.7358C154.368 25.5006 154.349 25.4666 154.222 25.2809C153.504 25.2532 152.905 26.3084 152.154 26.3438C151.754 26.8618 151.274 27.3256 150.916 27.8742C150.302 28.8131 150.264 29.8339 150.178 30.9157L147.424 26.2384L144.968 22.8245C145.092 22.6168 145.373 22.4953 145.583 22.3806C146.316 21.9819 147.15 21.7303 147.805 21.2067L147.807 21.0239C147.677 20.9492 147.669 20.9386 147.51 20.8794C146.463 20.4873 145.455 21.0477 144.535 21.4709L143.626 19.8904C143.509 19.642 143.428 19.5933 143.525 19.3281C143.649 19.2696 143.681 19.2467 143.835 19.2198C144.175 19.1603 144.586 19.2141 144.944 19.1739C145.635 19.0962 146.493 18.9141 147.159 19.1844C147.858 19.4683 148.198 20.4021 148.688 20.9268C149.003 21.2635 149.407 21.5486 149.77 21.832C149.052 21.8475 148.32 21.8301 147.696 22.2446C147.391 22.4471 147.198 22.6841 147.136 23.0485C147.535 23.1793 148.739 22.6351 149.167 22.4899C148.769 23.2145 148.235 24.005 148.149 24.8428C148.251 25.0532 148.275 25.2219 148.493 25.3242C148.913 24.2431 149.636 23.3294 150.216 22.3305C151.392 23.2522 151.795 24.2514 152.182 25.6558L152.21 24.9687C152.22 24.1514 152.154 23.4971 151.73 22.7754C151.366 22.1556 150.805 21.6179 150.232 21.1869C149.904 20.9399 149.48 20.732 149.211 20.4229C148.65 19.7766 148.337 18.9689 147.926 18.231C147.513 17.488 147.004 16.8251 146.409 16.2186C144.645 14.4201 141.984 14.1039 139.591 14.0787L139.445 14.2842C139.467 14.3627 139.455 14.4601 139.51 14.5195C139.611 14.6271 139.992 14.7514 140.129 14.802C140.852 15.0676 141.605 15.2309 142.333 15.4778C143.264 15.7935 144.219 16.1458 145.032 16.7082C145.504 17.0354 146.456 17.7289 146.563 18.2967C145.736 18.5198 145.169 18.2861 144.353 18.1885C143.33 18.0663 142.622 18.6533 141.865 19.2423L138.396 16.245C139.732 16.1994 141.13 16.2658 142.443 16.5167C143.071 16.6365 143.715 16.966 144.353 16.9538C144.286 16.7013 144.149 16.5945 143.939 16.4499C142.16 15.226 139.528 15.3317 137.515 15.7978C136.626 15.3584 135.745 14.8905 134.82 14.5298C133.818 14.1391 132.437 13.9716 131.569 13.3381C131.31 13.1493 131.196 12.8347 131.153 12.5245C131.017 11.5643 131.396 10.6198 132.001 9.8876C132.709 9.03066 133.633 8.43427 134.579 7.87379C136.846 6.53049 138.83 5.83321 141.468 5.63268Z" fill="#FEFEFE"/>
<path id="Vector_59" d="M137.174 10.1514C137.371 10.1414 137.602 10.1127 137.785 10.1986C137.998 10.2982 138.011 10.3544 138.083 10.5588C137.955 10.8142 137.755 10.8788 137.511 10.9933L137.109 10.9635C136.809 10.9024 136.677 10.87 136.523 10.6105C136.656 10.3184 136.892 10.2857 137.174 10.1514Z" fill="#767880"/>
<path id="Vector_60" d="M154.514 29.3789L154.611 29.5367C154.332 30.7236 153.77 31.9656 153.134 33.0028C153.032 32.863 152.902 32.7105 152.886 32.5303C152.819 31.8293 154.005 29.8797 154.514 29.3789Z" fill="#767880"/>
<path id="Vector_61" d="M148.992 8.82113L149.272 8.80192C150.158 8.77066 151.032 9.38817 151.645 9.98846C152.284 10.613 152.632 11.3654 152.64 12.2588C152.527 12.218 152.479 12.207 152.369 12.1298C152.026 11.889 151.71 11.5131 151.388 11.2364C150.711 10.6532 149.246 9.70383 148.992 8.82113Z" fill="#767880"/>
<path id="Vector_62" d="M155.454 22.7031C155.582 22.7329 155.726 22.7561 155.825 22.8501C156.092 23.1019 156.267 23.637 156.402 23.983C157.245 26.145 157.62 28.759 157.656 31.0688C157.68 32.6648 157.674 36.6092 156.565 37.7551L156.416 37.6282L156.893 31.469L156.772 31.4042L156.573 33.2033C156.286 34.6652 155.88 36.0217 155.345 37.411C155.11 38.0226 154.915 38.6514 154.518 39.181L154.391 39.1068C154.278 38.3982 154.598 37.4224 154.757 36.7287L155.683 32.5965C155.94 31.2713 156.024 29.9436 156.07 28.5971C156.097 27.8278 156.144 27.0264 156.039 26.263C155.954 25.6506 155.855 25.0772 155.703 24.4784C155.553 23.8905 155.281 23.3122 155.454 22.7031Z" fill="#767880"/>
<path id="Vector_63" d="M53.2148 97.863C56.178 97.5634 59.4342 98.2367 62.031 99.6594L58.9336 101.388L58.3458 100.801C57.136 99.7223 55.8257 99.3522 54.2234 99.4756C53.7404 99.5126 53.1376 99.6733 52.8502 100.097C52.3525 100.831 52.609 102.805 52.8314 103.623C53.2587 105.195 54.1584 106.315 55.264 107.473C56.8316 109.116 58.474 110.447 60.6712 111.151C61.8612 111.533 63.5115 111.563 64.5727 112.16C64.7671 112.47 64.84 112.698 64.8986 113.059L64.9276 113.247C65.2644 115.353 65.233 117.469 65.187 119.593L64.8371 118.927C64.4233 118.16 63.9725 117.363 63.0906 117.097C62.8778 117.179 62.8136 117.206 62.7233 117.439C62.5989 117.761 62.754 118.208 62.8836 118.503C63.378 119.624 63.838 120.625 63.9523 121.86C63.9999 122.375 63.9676 122.883 63.874 123.391C63.8077 123.751 63.5827 124.341 63.6912 124.685C63.7278 124.802 63.8206 124.892 63.8854 124.996C64.1454 125.065 64.4131 125.165 64.6829 125.105C64.857 125.067 64.9862 124.862 65.0922 124.73C65.5193 124.195 65.7603 123.529 65.9565 122.88C66.0482 122.577 66.1211 122.102 66.3269 121.861C66.4244 121.747 66.6704 121.746 66.8172 121.754C67.1848 121.774 67.4308 121.889 67.6765 122.162C68.2976 122.851 68.3722 124.527 68.2985 125.43C68.2148 126.455 67.8219 127.461 66.9971 128.117C65.781 129.084 63.6291 129.173 62.1395 129.039C61.154 128.95 58.9678 128.617 58.44 127.713C57.9935 126.949 57.9347 125.698 57.8382 124.836C57.7676 124.206 57.7676 123.776 57.3486 123.274C57.0248 123.217 56.9455 123.292 56.6525 123.425C56.4623 123.647 56.3523 123.819 56.2873 124.108C55.8569 126.024 56.3598 128.135 57.3641 129.777C57.7701 130.282 58.2009 130.604 58.7595 130.913L58.9131 130.998C58.6591 131.777 58.4009 132.599 57.8798 133.248C57.3453 133.914 56.5082 134.427 55.6435 134.471C54.5886 134.526 53.4059 134.024 52.6564 133.293C50.9579 131.635 50.8706 127.814 51.0428 125.565C51.1056 124.746 51.2786 123.962 51.2451 123.134C51.2312 122.795 51.1209 122.673 50.8757 122.456C50.6023 122.432 50.3967 122.4 50.1511 122.556C49.3928 123.037 49.2147 124.435 49.0406 125.255C48.5326 127.646 48.8754 129.995 49.3771 132.346L49.2195 132.501C48.7508 132.508 48.3502 132.495 47.9026 132.331C46.8763 131.955 46.2215 131.169 45.8569 130.157C45.5012 129.17 45.3797 127.976 45.4619 126.931C45.5151 126.254 45.6101 125.569 45.7606 124.906C45.947 124.085 46.7527 122.29 46.3445 121.541C46.2207 121.314 46.012 121.137 45.7517 121.101C45.465 121.06 45.236 121.121 45.0145 121.303C44.6934 121.567 44.4688 122.021 44.2955 122.392C43.5762 123.932 43.4371 125.851 43.2218 127.52C42.4071 126.838 41.9407 126.265 41.7239 125.188L41.6869 124.996L41.5179 123.843C41.4026 121.759 42.2866 119.053 43.4415 117.34C43.9443 116.594 44.6128 115.925 45.2155 115.258L45.4929 115.462C45.6544 115.586 45.8254 115.747 46.0105 115.833C46.3099 115.972 46.526 115.868 46.8115 115.761C46.8705 115.682 46.9564 115.617 46.9885 115.524C47.1086 115.175 46.4894 113.648 46.3747 113.221C46.2536 112.769 46.1763 112.313 46.1182 111.849C45.643 108.063 46.0832 103.444 48.5317 100.345C49.7733 98.7735 51.2513 98.1032 53.2148 97.863Z" fill="#FEFEFE"/>
<path id="Vector_64" d="M147.898 158.057L147.98 158.139C147.939 158.556 147.668 159.028 147.511 159.42C145.562 164.283 146.664 169.755 148.476 174.494L150.448 179.074C147.76 177.696 145.604 176.68 142.519 176.613C141.411 176.589 140.271 176.598 139.179 176.821C135.789 177.513 133.238 179.429 130.789 181.771C128.205 180.754 125.344 180.733 122.611 180.46L114.776 179.679L111.215 179.377C111.054 178.854 111.074 178.233 111.026 177.685C110.838 175.512 110.869 173.426 111.047 171.251C111.382 167.166 112.779 161.524 116.147 158.845C116.224 158.784 116.541 158.517 116.64 158.506C116.821 158.486 117.376 158.721 117.569 158.779L121.296 159.889C126.289 161.232 131.428 162.792 136.591 163.212C139.386 163.439 142.388 163.384 144.562 161.36C145.713 160.289 146.699 159.085 147.898 158.057Z" fill="#FEFEFE"/>
<path id="Vector_65" d="M117.389 35.5502C119.2 35.4583 121.064 35.5914 122.874 35.7065C132.418 36.3133 141.844 38.9422 151.025 41.4875L151.606 44.1056C150.685 43.7553 149.745 43.4785 148.783 43.2642C148.45 43.1899 148.054 43.0611 147.72 43.1621C147.556 43.2118 147.571 43.2849 147.511 43.4251C147.566 43.5464 147.562 43.5578 147.666 43.6735C148.343 44.4281 153.908 46.6866 155.202 47.0899C156.079 47.3632 156.954 47.5245 157.862 47.6431C159.066 47.8005 160.272 47.6268 161.47 47.7383C163.068 47.8872 164.787 48.5437 166.403 48.3191C166.688 48.2795 166.793 48.2586 167.075 48.3468L175.15 51.3049L183.21 54.3985C184.494 54.9273 185.803 55.43 187.041 56.061C188.257 56.6806 189.474 57.4239 190.494 58.3371C192.362 60.0101 193.318 62.0639 194.5 64.2118C194.899 64.9366 195.428 65.0563 196.173 65.2851C196.197 66.1231 196.11 66.8964 195.98 67.7237C194.664 65.3182 193.176 62.7336 190.366 61.9078L190.185 62.0198C190.183 62.1016 190.152 62.1881 190.179 62.2649C190.232 62.4098 190.526 62.6647 190.643 62.7995L192.048 64.4066C191.445 64.2491 190.889 63.9387 190.314 63.6996L190.256 63.9212C190.431 65.0445 192.283 66.4113 193.057 67.2452L195.597 70.0687L195.112 71.7689L191.1 67.8949C190.74 67.5558 190.122 66.8413 189.678 66.6728C189.312 66.5339 189.102 66.5763 188.762 66.748L188.729 66.9749C189.257 67.7707 190.053 68.4568 190.72 69.1417L194.776 73.175C194.596 73.9746 194.426 74.8081 194.125 75.5708C192.708 73.94 191.245 72.4962 189.636 71.0565C188.81 70.3174 188.001 69.534 187.055 68.9497C187.826 70.6965 189.427 72.1732 190.702 73.5725L193.737 76.9484C193.664 77.814 193.439 78.6301 193.177 79.4545L189.235 75.5238C188.022 74.333 186.961 73.0902 185.421 72.3212C185.736 73.1013 186.497 73.7551 187.07 74.3624L189.918 77.3908L192.778 80.6783L192.414 82.4705L188.993 78.6827C188.367 78.0032 187.718 77.2525 186.95 76.7345C186.722 76.8548 186.66 76.9459 186.539 77.1712C186.758 77.6548 187.379 78.1125 187.741 78.5212L190.627 81.9968C191.098 82.5879 191.69 83.214 192.008 83.8997C191.949 84.2112 191.91 84.4357 191.712 84.6963C191.137 84.6251 187.315 79.9584 186.167 79.2423C185.758 78.9868 185.157 78.8843 184.689 78.7672L184.897 79.1392C185.513 80.2532 186.361 81.1963 187.202 82.1442C188.582 83.6988 190.097 85.2466 191.28 86.9563L190.647 88.4502C189.856 87.2111 188.908 86.0913 187.918 85.0085C187.374 84.4137 186.861 83.8065 186.07 83.5523L185.96 83.6674C186.156 84.6392 186.778 85.5118 187.353 86.3043C188.228 87.5101 189.266 88.7504 189.914 90.0926C190.208 90.7015 189.937 91.0961 189.744 91.7078L186.834 87.0043C186.111 85.8269 185.413 84.4419 184.508 83.403C184.148 82.9894 183.718 82.7001 183.264 82.4024C183.565 83.5848 184.366 84.7735 184.981 85.8209C185.743 87.118 186.503 88.457 187.093 89.8442C187.75 91.3886 187.851 92.9482 188.205 94.5618C188.274 94.8796 188.492 95.3247 188.51 95.6309C188.544 96.2346 188.036 97.3488 187.839 97.9606C185.656 104.735 182.908 111.327 180.263 117.931C178.248 122.335 176.201 126.821 173.849 131.055C171.789 134.764 169.395 138.368 166.912 141.805C166.84 140.547 166.764 139.219 166.053 138.133C165.596 137.435 164.966 136.886 164.125 136.753C163.701 136.685 163.183 136.693 162.831 136.953C162.625 137.105 162.506 137.264 162.467 137.521C162.776 137.978 163.39 138.083 163.814 138.408C164.535 138.958 164.712 140.41 164.767 141.259C165.013 145.029 164.662 149.8 162.077 152.754C159.839 155.31 156.422 155.961 153.198 156.165C153.407 155.622 153.608 155.091 154.013 154.658C154.685 153.94 155.682 153.46 156.404 152.741C158.559 150.598 159.708 147.243 159.71 144.234C159.712 142.076 159.264 139.704 157.682 138.128C157.289 137.737 156.695 137.298 156.103 137.361C155.795 137.394 155.718 137.454 155.53 137.681C155.341 137.909 155.356 138.127 155.449 138.391C155.631 138.905 156.005 139.408 156.269 139.888C156.978 141.179 157.188 142.427 157.274 143.881L152.257 146.042C150.979 146.532 149.346 146.804 148.17 147.445C148.113 147.727 148.131 147.752 148.245 148.02C148.79 148.236 149.981 147.764 150.551 147.581L157.187 145.096C156.939 146.502 156.592 148.017 155.784 149.218C155.371 149.832 154.832 150.482 154.216 150.896C153.393 151.449 152.326 151.762 151.414 152.151C149.301 153.053 146.843 154.231 145.163 155.802L142.876 158.108C142.043 158.957 141.283 159.806 140.056 160.036C139.391 160.161 138.657 160.101 137.983 160.07C136.454 159.999 134.957 159.8 133.444 159.581L126.373 158.245C123.525 157.639 120.669 156.986 117.924 156.001C114.537 154.786 111.272 153.199 108.005 151.7L102.274 149.062C100.628 148.21 99.0464 147.192 97.5058 146.162C95.3896 144.747 93.5015 143.099 91.6053 141.409C90.8703 140.755 89.8861 140.042 89.4095 139.166C88.9358 138.296 88.8105 136.933 88.619 135.953C87.5418 130.44 87.1677 124.954 86.9601 119.354C86.8454 116.264 86.7355 113.137 86.8593 110.046L87.4071 102.884L87.7634 98.8788L88.8093 92.5432C91.0276 78.6059 94.6014 64.8074 100.142 51.8038L104.209 42.975C104.844 41.7133 105.442 40.3798 106.241 39.2147C107.234 37.7665 109.362 36.4611 111.098 36.1402L111.28 36.1079C113.242 35.7417 115.393 35.6846 117.389 35.5502Z" fill="#FEFEFE"/>
<path id="Vector_66" d="M124.252 38.6914C124.763 38.6916 125.179 38.7512 125.613 39.0359C125.698 39.3429 125.651 39.3392 125.493 39.6224L124.933 39.7054C124.644 39.7226 124.447 39.6777 124.221 39.4916C124.096 39.1266 124.151 39.0525 124.252 38.6914Z" fill="#767880"/>
<path id="Vector_67" d="M140.291 47.2773L141.042 47.3055C141.504 47.3734 142.26 47.6247 142.555 47.9794L142.41 48.122C141.773 48.1287 140.526 48.1628 140.07 47.7206L140.291 47.2773Z" fill="#767880"/>
<path id="Vector_68" d="M180.726 55.1602C181.346 55.2568 182.391 55.6094 182.841 56.0543C183.126 56.3361 183.154 56.4467 183.139 56.8363C182.919 56.8499 182.691 56.8649 182.471 56.8307C182.072 56.7686 180.963 55.9605 180.741 55.6266C180.608 55.4268 180.677 55.3806 180.726 55.1602Z" fill="#767880"/>
<path id="Vector_69" d="M178.617 107.344C179.455 107.641 180.192 108.378 180.801 109.005C181.35 109.57 181.576 110.035 181.562 110.832C181.209 110.858 181.072 110.812 180.79 110.597C179.955 109.958 178.765 108.399 178.617 107.344Z" fill="#767880"/>
<path id="Vector_70" d="M157.096 122.389L157.603 122.457C157.898 122.522 158.111 122.659 158.26 122.924C158.66 123.636 158.438 124.58 158.208 125.304C157.949 125.352 157.714 125.411 157.452 125.35C157.286 125.311 157.248 125.24 157.167 125.101C156.74 124.369 156.927 123.176 157.096 122.389Z" fill="#767880"/>
<path id="Vector_71" d="M96.3952 127.572C96.7536 127.608 97.1055 127.608 97.3798 127.87C98.0604 128.521 98.3842 129.523 98.422 130.429L98.3165 130.427C97.7434 130.398 97.1534 130.365 96.7559 129.898C96.2505 129.305 96.3399 128.298 96.3952 127.572Z" fill="#767880"/>
<path id="Vector_72" d="M148.888 141.908L149.341 141.958C149.749 142.067 150.008 142.452 150.201 142.8C150.231 143.141 150.231 143.311 150.104 143.628C149.777 143.971 149.538 144.145 149.088 144.297L148.924 144.263C148.502 144.165 148.09 143.904 147.883 143.514C147.767 143.296 147.738 143.134 147.821 142.904C148.022 142.342 148.363 142.145 148.888 141.908Z" fill="#767880"/>
<path id="Vector_73" d="M175.773 113.338L176.807 114.055C177.977 115.045 178.994 116.027 179.135 117.599L178.595 117.399C177.254 116.771 176.264 114.655 175.773 113.338Z" fill="#767880"/>
<path id="Vector_74" d="M95.1199 128.807C95.3628 128.854 95.5702 128.888 95.7549 129.066C95.963 129.266 96.0176 129.618 96.1031 129.892C96.3244 130.603 96.6487 131.43 96.6565 132.179L96.2447 132.546L96.1516 132.519C95.6156 132.297 95.1344 131.583 94.9295 131.067C94.6073 130.256 94.7773 129.569 95.1199 128.807Z" fill="#767880"/>
<path id="Vector_75" d="M137.46 155.295C138.696 155.319 140.291 155.174 141.48 155.445C141.839 155.527 142.121 155.582 142.317 155.895L142.02 156.406C140.699 156.479 139.332 156.41 138.044 156.098C137.722 156.02 137.434 155.978 137.258 155.688L137.46 155.295Z" fill="#767880"/>
<path id="Vector_76" d="M169.487 51.9609C170.605 52.1711 171.529 52.8062 172.303 53.6215C172.587 53.9205 172.835 54.2139 172.801 54.6521C172.783 54.8817 172.677 54.9 172.515 55.0426C171.387 54.3555 169.972 53.4433 169.094 52.4475L169.11 52.2522L169.487 51.9609Z" fill="#767880"/>
<path id="Vector_77" d="M177.358 110.607C178.241 110.664 179.541 112.113 180.122 112.782C180.51 113.227 180.496 113.631 180.452 114.194L179.943 114.207C179.587 114.182 179.431 114.04 179.206 113.782C178.694 113.196 178.221 112.517 177.805 111.86C177.666 111.641 177.41 111.313 177.329 111.072C177.3 110.987 177.352 110.711 177.358 110.607Z" fill="#767880"/>
<path id="Vector_78" d="M166.502 131.404C166.738 131.459 166.929 131.568 167.126 131.703C167.97 132.283 169.292 133.133 169.813 134.016C169.979 134.297 170.031 134.688 170.09 135.006L169.876 135.001C169.044 134.968 168.591 134.631 168.041 134.029C167.383 133.309 166.453 132.432 166.502 131.404Z" fill="#767880"/>
<path id="Vector_79" d="M140.059 153.131L143.046 153.074C143.538 153.083 144.129 153.073 144.59 153.258C144.803 153.343 144.824 153.347 144.91 153.565C144.55 153.888 144.421 153.906 143.941 154.008L140.725 154.03C140.27 154.032 139.65 154.103 139.214 153.992C138.964 153.928 138.927 153.878 138.812 153.669L138.905 153.462C139.235 153.175 139.642 153.179 140.059 153.131Z" fill="#767880"/>
<path id="Vector_80" d="M169.82 124.557C170.108 124.608 170.345 124.703 170.595 124.851C171.881 125.609 172.991 126.757 173.394 128.201L173.31 128.22C172.95 128.285 172.513 128.329 172.207 128.1C171.053 127.239 170.072 125.979 169.82 124.557Z" fill="#767880"/>
<path id="Vector_81" d="M167.75 127.641C168.685 128.121 170.803 129.275 171.206 130.276L171.242 130.377C171.394 130.787 171.394 131.048 171.322 131.478C171.152 131.533 171.078 131.544 170.907 131.544C170.084 130.986 169.185 130.334 168.575 129.542L168.474 129.406C168.075 128.876 167.931 128.268 167.75 127.641Z" fill="#767880"/>
<path id="Vector_82" d="M130.029 40.1018L130.958 40.0566C132.108 40.0705 133.538 40.7804 134.555 41.2742C134.962 41.4719 135.437 41.6464 135.752 41.9748L135.675 42.1818L135.441 42.2104C134.564 42.0692 133.691 41.8394 132.825 41.6382C131.776 41.3941 130.468 41.1419 129.602 40.4738L129.614 40.2831L130.029 40.1018Z" fill="#767880"/>
<path id="Vector_83" d="M145.617 148.045C146.847 148.116 148.181 148.176 149.34 148.636L149.525 148.712L149.784 148.538C150.498 148.16 152.059 148.227 152.791 148.493L152.885 148.7L152.656 148.904C151.988 148.917 150.82 148.807 150.22 149.085C150.125 149.289 150.037 149.433 149.887 149.602C149.125 149.625 148.374 149.363 147.639 149.186C147.064 149.048 146.278 148.929 145.809 148.546C145.603 148.377 145.652 148.295 145.617 148.045Z" fill="#767880"/>
<path id="Vector_84" d="M109.793 150.133C110.223 150.31 110.587 150.707 110.959 150.981C111.276 151.214 111.635 151.37 111.993 151.526L115.253 152.775C115.635 152.911 116.224 153.021 116.556 153.233C116.661 153.299 116.672 153.325 116.738 153.41L116.57 153.889C116.399 153.93 116.275 153.952 116.095 153.933C114.984 153.819 110.314 151.9 109.727 150.976C109.62 150.806 109.761 150.339 109.793 150.133Z" fill="#767880"/>
<path id="Vector_85" d="M142.669 151.055C144.227 150.995 145.803 150.968 147.359 151.075C148.009 151.119 148.727 151.132 149.335 151.377L149.39 151.598C149.092 151.835 148.788 151.87 148.421 151.94C147.522 152.11 142.743 152.107 142.021 151.712C141.885 151.638 141.91 151.53 141.883 151.391C142.082 151.151 142.38 151.124 142.669 151.055Z" fill="#767880"/>
<path id="Vector_86" d="M164.648 134.031C165.564 134.273 166.564 134.642 167.294 135.26C168.094 135.937 168.711 136.655 168.809 137.721C167.894 137.686 166.952 137.301 166.285 136.669C165.621 136.042 164.676 134.972 164.648 134.031Z" fill="#767880"/>
<path id="Vector_87" d="M160.561 120.656C160.749 120.709 160.915 120.752 161.076 120.868C161.576 121.228 161.713 121.893 161.774 122.479C161.882 123.5 161.644 124.323 161.003 125.102C160.647 124.996 160.426 124.861 160.213 124.546C159.734 123.835 159.72 122.591 159.883 121.766L159.912 121.632C160.003 121.155 160.203 120.98 160.561 120.656Z" fill="#767880"/>
<path id="Vector_88" d="M173.596 52.8691L173.772 52.8764C175.329 52.9609 177.383 54.3022 178.377 55.4637C178.722 55.8665 178.757 55.9709 178.722 56.4802C177.566 56.3075 176.488 55.6138 175.482 55.0411C174.881 54.6993 173.997 54.1972 173.619 53.5987C173.432 53.3041 173.521 53.1801 173.596 52.8691Z" fill="#767880"/>
<path id="Vector_89" d="M174.661 118.1C175.912 118.449 177.143 119.421 177.787 120.566C177.98 120.908 178.074 121.198 177.954 121.579C177.872 121.84 177.765 121.952 177.527 122.067C175.992 121.177 174.939 120.085 173.93 118.629C174.137 118.324 174.338 118.266 174.661 118.1Z" fill="#767880"/>
<path id="Vector_90" d="M171.211 120.859C172.672 120.99 174.045 122.034 175.063 123.042C175.725 123.699 176.166 124.252 176.166 125.22L176.088 125.246C175.605 125.357 175.197 125.178 174.785 124.939C174.145 124.567 173.636 124.015 173.119 123.495C172.319 122.691 171.502 121.997 171.211 120.859Z" fill="#767880"/>
<path id="Vector_91" d="M147.828 47.9961L148.235 48.041C150.033 48.4191 152.034 50.6351 153.022 52.1278C153.477 52.8137 154.027 53.6338 153.861 54.4681C153.489 54.2799 153.201 54.0791 152.907 53.7824C151.982 52.8475 151.199 51.7703 150.267 50.831L148.747 49.4049C148.499 49.1905 148.139 48.9517 147.936 48.7041C147.715 48.4348 147.782 48.3182 147.828 47.9961Z" fill="#767880"/>
<path id="Vector_92" d="M183.246 92.8262L183.417 92.9055C183.472 93.2939 183.385 93.74 183.257 94.1083C182.505 96.2807 180.439 98.034 178.438 99.0251C176.799 99.8369 175.053 100.202 173.279 99.6064L173.067 99.4158C172.826 99.1657 172.728 98.9352 172.735 98.5988C172.832 98.5154 172.917 98.4127 173.028 98.3485C173.133 98.2877 173.443 98.2763 173.574 98.2552C174.131 98.1643 174.699 98.109 175.249 97.9796C176.193 97.7577 177.135 97.3908 177.997 96.9482C179.082 96.3904 180.096 95.6791 180.999 94.86C181.715 94.2104 182.359 93.4574 183.147 92.8947L183.246 92.8262Z" fill="#767880"/>
<path id="Vector_93" d="M185.856 94.0508L186.274 94.1483L186.402 94.3553C185.861 96.971 184.883 99.275 183.381 101.497C182.044 103.476 180.786 105.217 178.319 105.686C178.036 105.524 177.749 105.343 177.648 105.017C178.093 104.449 178.852 104.094 179.396 103.612C179.927 103.143 180.353 102.516 180.77 101.946C181.825 100.503 182.71 98.9493 183.599 97.4016C184.278 96.2196 184.904 95.041 185.856 94.0508Z" fill="#767880"/>
<path id="Vector_94" d="M157.539 134C158.093 134.027 158.592 134.033 159.08 134.323C160.6 135.228 161.49 137.516 161.934 139.14C162.819 142.373 163.298 146.656 161.566 149.699C161.338 149.847 161.191 149.944 160.918 149.994C160.711 149.929 160.58 149.893 160.418 149.739C160.269 149.597 160.314 149.454 160.363 149.269C160.517 148.694 160.782 148.148 160.931 147.568C161.244 146.348 161.203 145.053 161.184 143.801C161.147 141.372 160.351 138.403 158.894 136.43C158.505 135.903 157.972 135.431 157.502 134.975C157.398 134.643 157.483 134.334 157.539 134Z" fill="#767880"/>
<path id="Vector_95" d="M182.649 86.2773C183.091 86.4637 183.298 86.6121 183.488 87.056C183.43 87.5769 183.251 88.0887 183.038 88.565C181.709 91.5299 178.214 94.5789 175.184 95.6853C173.196 96.4109 171.383 96.4459 169.462 95.5378C169.119 95.2861 168.662 94.9627 168.483 94.5609C168.366 94.2998 168.411 94.242 168.52 94.0048C169.116 93.8955 170.218 94.4683 170.87 94.5723C171.571 94.6838 172.387 94.6449 173.09 94.5489L173.282 94.5207L173.625 94.4704C174.292 94.3503 174.966 94.0062 175.559 93.6831C177.523 92.6139 179.369 90.9117 180.728 89.148C181.427 88.2408 181.982 87.2142 182.649 86.2773Z" fill="#767880"/>
<path id="Vector_96" d="M177.65 65.9397L176.898 66.9229H176.691L176.509 66.6123C176.584 66.1188 176.784 65.7026 176.943 65.236C177.273 64.2613 177.543 63.2982 178.192 62.4717C178.353 62.4053 178.489 62.374 178.665 62.375C179.483 62.3798 180.843 62.7382 181.41 63.3696C181.676 63.6657 181.884 63.8779 181.844 64.2851C181.735 65.3981 181.375 66.5537 181.045 67.6168C180.487 69.4207 180.089 71.0229 178.561 72.2566C177.658 72.9858 176.55 73.5686 175.355 73.3858C174.665 73.2802 174.006 72.781 173.622 72.2115C172.881 71.1138 172.954 69.8457 172.938 68.5806C172.93 67.9777 172.88 67.3233 173.009 66.7318C173.328 65.2716 174.215 63.2439 175.477 62.4175C175.816 62.4034 176.144 62.3568 176.409 62.5752C176.208 63.0307 175.908 63.4214 175.684 63.8638C175.231 64.7577 174.872 65.7022 174.597 66.6641C174.274 67.7951 174.25 70.1397 174.795 71.1904C174.927 71.4457 175.15 71.6254 175.425 71.7061C176.022 71.8811 176.538 71.7225 177.053 71.4144C179.226 70.1149 179.993 66.3001 180.61 64.0244C180.469 63.7756 180.359 63.7385 180.116 63.5957C179.837 63.8723 179.807 64.317 179.711 64.6973C179.565 65.2728 179.4 65.8581 179.166 66.4053C178.817 67.222 178.338 67.8168 177.708 68.4286C177.888 67.7773 177.868 67.0063 178.096 66.3945C178.467 65.3979 179.252 64.4516 179.267 63.3516C179.01 63.2123 178.993 63.2682 178.719 63.3212C178.351 63.6379 178.366 64.0996 178.246 64.542C178.114 65.0337 177.92 65.5078 177.65 65.9397Z" fill="#767880"/>
<path id="Vector_97" d="M116.25 48.4375L116.868 48.469C117.259 48.5404 117.653 48.8197 117.877 49.1416C118.359 49.835 118.626 51.0266 118.451 51.8539C117.952 54.217 115.483 56.125 113.554 57.3442C111.621 58.5655 109.078 59.4793 106.789 58.9617C106.06 58.8435 105.346 58.3359 104.906 57.7541C104.646 57.4109 104.51 56.91 104.581 56.4825C104.87 54.7542 107.069 55.5115 108.239 55.349C109.048 55.2366 109.884 54.8795 110.618 54.5358C112.225 53.7832 113.63 52.68 114.459 51.0803C114.998 50.0379 115.254 49.1426 116.25 48.4375Z" fill="#767880"/>
<path id="Vector_98" d="M98.0523 100.215C98.2978 100.202 98.5931 100.163 98.8262 100.252C99.0347 100.332 99.0655 100.36 99.1535 100.565L98.1173 101.703L105.698 105.039C110.587 106.932 115.683 108.453 120.761 109.746C128.061 111.606 135.359 112.939 142.89 113.356C143.512 113.39 146.313 113.665 146.667 113.349C146.614 113.224 146.552 113.094 146.523 112.96C146.447 112.609 146.439 112.46 146.623 112.158C146.801 112.045 146.942 111.942 147.156 111.917C147.505 111.876 147.668 111.956 147.931 112.196C148.986 113.157 149.559 114.803 149.59 116.204C149.606 116.948 149.532 117.286 149.007 117.837C148.802 117.842 148.842 117.866 148.69 117.803C148.505 117.728 148.341 117.663 148.234 117.484C148.076 117.219 148.064 116.748 148.005 116.436C147.895 115.86 147.752 115.347 147.528 114.803L138.731 114.586C139.591 116.537 139.773 118.222 139.734 120.334C139.6 121.775 139.298 123.191 138.767 124.541C137.602 127.509 135.925 129.933 132.916 131.224C128.516 133.114 122.991 132.209 118.683 130.489C113.037 128.236 109.157 124.123 106.769 118.559C105.13 114.739 104.262 110.849 105.851 106.849C104.281 106.271 102.716 105.669 101.226 104.903C99.9748 104.261 98.7802 103.456 97.572 102.734C97.5018 103.46 97.5523 104.436 97.0764 105.016L96.7838 105.037C96.5954 104.924 96.4662 104.85 96.3449 104.659C95.9988 104.116 96.0002 103.045 96.1911 102.455C96.5675 101.291 96.984 100.771 98.0523 100.215Z" fill="#767880"/>
<path id="Vector_99" d="M123.258 112.283L127.517 113.131L126.541 117.376C124.998 117.461 123.697 117.447 122.164 117.217L123.258 112.283Z" fill="#FEFEFE"/>
<path id="Vector_100" d="M111.348 108.641L116.341 110.442L115.313 114.407C115.263 114.754 115.244 115.09 115.056 115.395L111.193 113.746C111.046 112.09 111.246 110.297 111.348 108.641Z" fill="#FEFEFE"/>
<path id="Vector_101" d="M117.282 110.639L122.082 112.032C122.048 113.646 121.578 115.491 121.218 117.065L116.195 115.832C116.343 114.113 116.825 112.298 117.282 110.639Z" fill="#FEFEFE"/>
<path id="Vector_102" d="M131.088 125.913C132.655 125.646 134.299 126.133 135.598 126.977C134.049 128.875 132.278 129.742 129.939 130.302C128.491 130.627 127.046 130.487 125.586 130.344C125.843 129.588 126.109 128.843 126.589 128.195C127.718 126.671 129.291 126.158 131.088 125.913Z" fill="#FEFEFE"/>
<path id="Vector_103" d="M139.847 56.4536L140.108 56.4257C142.909 56.2282 145.43 56.9012 147.537 58.7937C151.551 62.3987 153.254 68.2904 153.499 73.5381C153.891 81.9117 151.486 91.3096 145.695 97.5897C142.645 100.897 138.54 103.043 133.998 103.176C130.743 103.271 127.439 101.775 125.098 99.5718C122.293 96.9324 120.298 92.8713 119.744 89.0656C119.459 87.1075 119.48 85.096 119.429 83.1193C118 87.0713 115.104 91.0349 112.134 93.9553C110.393 95.602 108.712 96.8545 106.359 97.4429C105.782 97.5872 105.211 97.5524 104.622 97.5077C102.724 97.3634 101.493 96.7686 100.256 95.2999C97.3166 91.8065 97.0021 86.7825 97.3613 82.4274C97.6166 79.3318 98.4222 76.2634 99.5279 73.3712C100.962 69.6206 102.929 65.9715 106.051 63.354C108.114 61.6247 110.585 60.6982 113.294 60.9791C115.27 61.1841 117.125 62.2791 118.35 63.82C121.097 67.277 121.084 72.1495 120.603 76.2986C122.083 72.4603 123.8 68.7393 126.271 65.4224C129.608 60.9427 134.191 57.2629 139.847 56.4536Z" fill="#767880"/>
<path id="Vector_104" d="M111.15 85.2812C111.324 85.3988 111.844 85.7137 111.884 85.9075C111.985 86.3947 111.672 86.8315 111.419 87.2149C111.149 87.0586 110.828 86.7733 110.742 86.4634C110.65 86.1303 110.991 85.562 111.15 85.2812Z" fill="#FEFEFE"/>
<path id="Vector_105" d="M113.257 82.9199C113.689 82.9514 113.907 82.9702 114.215 83.2791C114.272 83.4721 114.291 83.5832 114.246 83.7859C114.126 84.3223 113.508 84.7186 113.089 85.0207C112.864 85.0047 112.68 84.9306 112.468 84.8552C112.265 84.6244 112.172 84.5288 112.133 84.2108C112.364 83.54 112.659 83.2835 113.257 82.9199Z" fill="#FEFEFE"/>
<path id="Vector_106" d="M113.107 75.9766L113.549 75.9906C113.943 76.0246 114.146 76.1536 114.388 76.4467C114.332 77.5425 111.457 80.2969 110.581 81.1929C110.429 81.2308 110.275 81.2006 110.122 81.1685C109.845 81.1105 109.647 80.9728 109.504 80.7277C109.39 80.5313 109.467 80.2799 109.527 80.0698C110.05 78.2462 111.463 76.8252 113.107 75.9766Z" fill="#FEFEFE"/>
<path id="Vector_107" d="M111.953 62.452C112.73 62.4214 113.382 62.4928 114.128 62.7206C115.73 63.2096 117.017 64.4184 117.769 65.8948C119.637 69.5586 119.635 74.6565 118.364 78.5065C117.98 77.6109 117.541 76.6784 116.924 75.9176C116.34 75.1973 115.572 74.7333 114.631 74.6501C113.172 74.5211 111.928 74.9923 110.819 75.9176C108.581 77.7846 106.963 81.1772 106.758 84.0812C106.644 85.6905 106.877 87.726 108.007 88.9715C108.546 89.5663 109.445 90.1497 110.269 90.1677C110.898 90.1816 111.579 89.8352 112.102 89.5166C113.805 88.4781 115.096 86.8743 116.095 85.1698C116.503 84.475 116.809 83.4959 117.386 82.9442L117.55 83.0386C117.39 83.6108 117.117 84.1357 116.862 84.6706L115.056 87.8484C113.541 90.1083 111.689 92.2229 109.569 93.9371C108.528 94.7798 107.285 95.5951 105.944 95.8333C104.714 96.0522 103.534 95.8284 102.511 95.1029C100.615 93.7581 99.5895 91.2136 99.2344 88.9831C98.0765 81.7119 100.289 73.0378 104.671 67.1297C106.488 64.6789 108.903 62.9168 111.953 62.452Z" fill="#FEFEFE"/>
<path id="Vector_108" d="M140.326 57.8999L141.247 57.8672C143.538 57.9192 145.588 59.0787 147.155 60.6886C150.968 64.6034 151.961 70.9017 151.897 76.1545C151.821 82.4283 149.811 89.1564 146.142 94.2571C145.368 95.3326 144.52 96.4392 143.559 97.3565C141.527 99.296 138.836 100.928 136.036 101.402C134.889 101.596 133.736 101.575 132.577 101.555C130.784 101.33 128.989 100.569 127.537 99.5034C124.247 97.0903 122.019 92.8859 121.412 88.901C120.203 80.9626 122.501 73.2811 127.225 66.8459C129.562 63.6626 132.607 60.5739 136.286 58.9858C137.602 58.4179 138.914 58.1171 140.326 57.8999Z" fill="#FEFEFE"/>
<path id="Vector_109" d="M142.734 75.7981C143.798 75.7372 144.798 75.9277 145.743 76.4208C146.776 76.9599 147.473 77.8104 147.8 78.9303C148.66 81.8771 147.394 85.8989 146.004 88.5025C144.737 90.8743 142.976 93.0641 140.316 93.8818C139.925 93.9321 139.518 93.9297 139.125 93.8947C138.064 93.8003 137.133 93.2069 136.476 92.385C135.148 90.725 134.775 88.4978 135.042 86.4258C135.339 84.1151 136.053 81.8821 137.334 79.9186C138.57 78.0237 140.455 76.2631 142.734 75.7981Z" fill="#767880"/>
<path id="Vector_110" d="M140.946 87.832C141.115 87.8625 141.221 87.8854 141.351 88.0128C141.57 88.2266 141.715 88.5407 141.719 88.8411C141.724 89.2972 141.376 89.6195 141.076 89.9168C140.922 89.8843 140.819 89.8514 140.699 89.7409C140.417 89.4819 140.307 89.1322 140.266 88.7651C140.384 88.3444 140.639 88.1308 140.946 87.832Z" fill="#FEFEFE"/>
<path id="Vector_111" d="M143.094 85.0586C143.351 85.1145 143.622 85.1718 143.797 85.3921C143.968 85.6066 143.977 85.8159 143.932 86.0739C143.825 86.6838 143.276 87.1374 142.8 87.4622C142.59 87.4363 142.396 87.3744 142.193 87.3161C141.973 87.0622 141.853 86.9449 141.901 86.5915C141.993 85.9298 142.616 85.4615 143.094 85.0586Z" fill="#FEFEFE"/>
<path id="Vector_112" d="M141.845 77.4385C142.545 77.4131 143.139 77.3352 143.709 77.817C143.881 78.1259 143.855 78.3882 143.785 78.7238C143.653 79.3503 143.237 79.8842 142.872 80.3947C142.046 81.55 141.171 82.5961 139.961 83.3617C139.666 83.4662 139.339 83.5631 139.022 83.5375C138.726 83.5134 138.515 83.4323 138.324 83.1988C138.061 82.8772 138.091 82.4381 138.149 82.0535L138.177 81.881C138.234 81.4982 138.308 81.1601 138.457 80.8005C139.095 79.2631 140.32 78.0764 141.845 77.4385Z" fill="#FEFEFE"/>
<path id="Vector_113" d="M-0.47678 100.584C-0.149091 100.751 0.113661 100.944 0.399676 101.174C0.712092 102.189 -0.112827 103.405 -0.388655 104.399C-0.833332 106.003 -0.716401 107.387 -0.720508 109.013C-0.722007 109.614 -0.806335 109.813 -1.23186 110.223C-2.09497 109.474 -2.21885 107.499 -2.32304 106.402C-2.51891 104.338 -1.79341 102.18 -0.47678 100.584Z" fill="#767880"/>
<path id="Vector_114" d="M9.92921 95.0515C10.2321 95.309 10.3433 95.5164 10.4707 95.8846C9.94125 96.8959 9.02809 97.7829 8.39273 98.759C6.65453 101.428 5.30147 104.713 4.67711 107.84C4.3188 109.636 4.15174 111.393 4.18807 113.227C4.20364 114.012 4.66631 116.901 4.41298 117.372L4.08105 117.306C3.58773 116.734 3.26452 116.119 3.04675 115.4C2.76896 114.482 2.76945 113.443 2.75331 112.491C2.67538 107.879 4.03468 103.524 6.21394 99.4944C6.76269 98.4795 7.38456 97.5068 8.05364 96.5676C8.34602 96.1571 8.6975 95.637 9.12406 95.3616C9.36041 95.2089 9.66144 95.1316 9.92921 95.0515Z" fill="#767880"/>
<path id="Vector_115" d="M38.1148 77.6485L38.0747 79.735C38.0529 81.42 38.0879 82.9757 36.9537 84.351C36.5958 84.0479 36.365 83.7744 36.241 83.3128C35.7615 81.5256 37.256 79.1366 38.1148 77.6485Z" fill="#FEFEFE"/>
<path id="Vector_116" d="M35.1089 41.7204C35.3556 41.8469 35.3998 41.8269 35.4908 42.0834C35.292 42.6511 34.1679 42.7087 33.6046 42.8377C29.4707 43.7845 25.7372 45.7542 22.2164 48.067C18.7032 50.375 15.4922 52.9545 12.4534 55.8567L10.2423 58.1263C9.79491 58.6283 9.3628 59.2153 8.87324 59.6719C8.57178 59.9531 8.18525 59.8637 7.79924 59.8615L7.6459 59.707C7.67311 59.4707 7.66927 58.9661 7.75503 58.7609C7.83976 58.5582 8.20893 58.2123 8.36086 58.0331C9.24865 56.9856 10.2233 55.9997 11.2163 55.0523C14.7282 51.7015 18.5741 48.7164 22.7039 46.1718C26.3777 43.9083 30.6745 41.6214 35.1089 41.7204Z" fill="#767880"/>
<path id="Vector_117" d="M41.1743 36.0445C41.3963 36.1641 41.445 36.2567 41.5517 36.4819C41.4507 37.252 40.1619 37.0874 39.5471 37.128C38.0671 37.2255 36.5909 37.5914 35.1563 37.9562C31.232 38.9545 27.3352 40.5516 23.7884 42.5012C21.0429 44.0103 18.3659 45.6816 15.8888 47.6045C13.7235 49.2855 11.7282 51.1535 9.75123 53.0478C7.24539 55.4491 4.80676 57.9826 2.67496 60.7243C2.06763 61.5054 1.48477 62.3297 0.95785 63.168L-0.359188 65.4742C-0.521657 65.7689 -0.735258 66.2753 -0.999842 66.4773C-1.23764 66.6587 -1.5369 66.5514 -1.8132 66.5197C-1.98673 66.3036 -2.11929 66.1484 -2.11501 65.8572C-2.10756 65.3406 -1.72853 64.7544 -1.49786 64.2943C0.173101 60.9612 2.77454 58.1026 5.34077 55.4361L10.3528 50.4642C16.2836 45.0277 22.9278 40.8437 30.4963 38.0864C33.9493 36.8288 37.4636 35.8813 41.1743 36.0445Z" fill="#767880"/>
<path id="Vector_118" d="M-0.980378 157.756L-0.969914 159.126C-0.990973 161.728 -1.08169 165.387 -3.08287 167.285C-4.92492 169.031 -8.358 168.837 -10.6955 168.772C-10.81 170.275 -10.8663 171.703 -11.2529 173.169L-11.5039 173.982C-12.1876 175.69 -13.3141 177.28 -15.0723 177.995C-16.9271 178.748 -18.5667 178.174 -20.3178 177.457C-21.1972 177.658 -22.1508 177.768 -22.981 177.321C-23.8897 176.833 -24.3943 176.051 -24.6589 175.085L-24.7034 174.92C-24.9258 174.994 -25.1949 175.288 -25.3861 175.441C-26.0661 175.984 -26.8529 176.402 -27.7157 176.551C-29.6655 176.889 -31.5258 176.044 -33.0773 174.925C-34.4678 173.921 -35.7601 172.48 -35.991 170.716C-36.3679 167.839 -33.9317 164.927 -32.3087 162.769L-35.3461 160.965C-37.938 159.176 -40.8625 156.855 -41.4036 153.551C-41.5587 152.603 -41.4065 151.61 -41.1146 150.702C-40.716 149.462 -39.8999 148.461 -38.9338 147.61C-35.7292 144.785 -31.4428 143.96 -27.6053 142.365C-26.8772 142.062 -25.5854 141.515 -25.068 140.909C-24.7576 140.546 -24.6776 139.786 -24.3292 139.354C-23.7106 138.589 -21.8297 138.632 -20.8939 138.549C-20.5427 131.274 -19.3311 124.237 -17.9191 117.112L-16.0078 107.594C-14.516 101.298 -12.2513 95.1035 -9.07649 89.4563C-2.30217 77.4063 8.19314 67.1459 21.1482 62.0066C23.1856 61.1983 25.3196 60.6396 27.4274 60.049C27.9754 59.2627 28.4956 59.0914 29.3946 58.8158C29.4749 58.791 29.7997 58.7253 29.8592 58.6757C29.9639 58.5889 30.2617 57.309 30.3715 57.0512C30.7704 56.1146 31.265 55.2629 31.9335 54.494C36.2639 49.5139 45.7399 48.052 52.0659 47.6085C54.6561 47.4268 57.1744 47.4566 59.7596 47.6504C63.4404 47.9266 67.8776 48.5092 70.7563 51.0576C71.6361 51.8365 71.8876 52.8378 71.9452 53.9628C71.6491 55.5219 70.1134 56.8624 68.8548 57.7271L68.7078 57.8259L68.6202 57.8748C68.0028 58.2375 67.513 58.7728 66.9693 59.2325C66.0227 60.0327 64.7838 60.8032 63.5449 61.0207C63.46 60.7958 63.4883 60.626 63.5083 60.3916L63.6594 60.2251C64.3734 59.4101 64.9653 58.4753 65.6926 57.6499C66.3202 56.9377 66.9874 56.2692 67.6756 55.6162C68.2379 55.0827 68.9089 54.5133 69.2752 53.8253C69.2467 53.4519 69.117 53.2407 68.8329 53.0032C67.9661 52.2784 66.8645 51.8691 65.8061 51.5168C63.4001 50.7165 60.7273 50.4303 58.2046 50.3362C55.1744 50.2231 52.2168 50.3474 49.2078 50.7039C45.5956 51.1318 41.9431 51.8212 38.5899 53.2739C36.6052 54.1338 34.6986 55.2307 33.3557 56.9702C32.8757 57.592 32.4025 58.3257 32.3351 59.1213L33.2609 61.0904C34.3475 59.8665 35.3909 58.6384 36.6647 57.5986C40.5422 54.4332 46.0207 52.8116 50.9483 52.5181C51.9483 52.4584 52.9422 52.4869 53.9427 52.5214C54.5632 52.5427 55.1707 52.4791 55.6981 52.8529C55.7984 53.1784 55.8002 53.2381 55.7254 53.5705C55.6408 53.6443 55.5733 53.7442 55.4718 53.7918C54.9934 54.0164 52.4935 53.8716 51.7917 53.9111L48.8727 54.1969C43.9387 54.8905 38.048 57.2033 35.1857 61.5074L35.0749 61.6705C34.6362 62.3258 34.2832 63.0402 34.14 63.8195L34.1139 63.9568C33.971 64.7832 34.4521 65.7866 34.2181 66.5123L34.3142 66.6082C34.6076 66.9072 34.8308 67.1306 34.8191 67.5687C34.8112 67.8635 34.7799 67.9274 34.5655 68.1297C34.2902 68.3894 33.9829 68.4419 33.6196 68.4678C33.6321 68.8324 34.2028 69.4166 34.4688 69.6585C35.9521 71.0087 37.7531 70.8956 39.6168 70.774C39.9656 70.7511 40.2017 70.651 40.5219 70.5145C40.8941 70.356 41.3214 70.3404 41.7093 70.2105C43.0638 69.7576 44.8378 69.0084 46.0176 68.2051C43.6615 68.7506 40.3995 69.9935 38.1587 68.5238C37.5778 68.1428 37.1764 67.5754 37.0376 66.8905C36.8223 65.8293 37.1827 64.7985 37.7892 63.9365C38.6056 62.7763 39.844 61.9529 41.0369 61.2251C45.4602 58.5267 50.5832 57.2319 55.6461 56.3966C58.5922 55.9104 61.734 55.6975 64.7084 55.9768C64.9842 56.4892 65.1087 56.8991 65.2074 57.465C64.0428 58.4552 62.7191 59.3536 61.7084 60.5004C61.1052 61.0114 60.5038 61.46 59.8346 61.8808L61.6275 61.5156L61.7928 61.6393C61.8158 62.0257 61.8121 62.2453 61.5554 62.561C61.2334 62.9571 60.4887 63.1849 60.017 63.3669L56.684 64.6429C56.1182 64.8626 55.2996 65.1279 54.8488 65.5446L43.8811 72.3945C43.4977 72.51 43.0891 72.6553 42.6884 72.683C41.8048 72.7439 41.1563 72.5826 40.2646 72.8965L39.1581 73.1427C38.8648 73.1886 38.7098 73.286 38.4684 73.4546C35.7801 73.2392 33.2682 72.8325 31.4123 70.6488C30.6621 69.7659 30.3434 68.6246 29.939 67.5574C25.5048 68.7023 21.3807 70.7988 17.5676 73.2937C17.4241 73.818 17.3681 74.3607 16.8402 74.6365C16.4946 74.8169 15.4986 74.6812 15.3758 74.824C14.9669 75.2995 14.4883 75.5212 14.0052 75.9019C13.622 76.204 13.4389 76.5276 12.9644 76.7032C12.6225 76.8297 12.3087 77.162 11.9771 77.3431C11.5685 77.5664 11.0988 77.616 10.7074 77.8384C10.1255 78.169 9.47804 78.9169 8.95726 79.3637C8.51103 79.7464 7.89744 79.8936 7.49126 80.2858C6.61039 81.1364 6.08096 82.3425 5.19072 83.175C4.69434 83.6389 3.91732 83.7775 3.51512 84.2967C2.81778 85.1968 2.24849 86.2773 1.70689 87.278L-1.1534 93.1074C-1.98086 94.8775 -2.90545 96.6826 -3.57397 98.5135C-4.34342 100.621 -4.91207 102.823 -5.51775 104.983C-6.19343 107.402 -6.70621 109.846 -7.03465 112.337L-7.49852 117.133C-7.69366 119.049 -7.97539 121.075 -7.99068 122.998C-8.36838 125.505 -8.25141 128.152 -8.33611 130.685L-8.55129 137.553C-8.58598 139.189 -8.70283 140.789 -8.40824 142.414C-7.93674 142.961 -7.09168 143.155 -6.55808 143.647C-6.20812 143.97 -6.09504 144.414 -5.85991 144.814C-5.6116 145.237 -5.27645 145.609 -5.01475 146.024C-4.68653 146.545 -4.42684 147.113 -4.11734 147.646C-3.29126 149.425 -2.30533 151.163 -1.67238 153.025C-1.45694 153.659 -1.37286 154.363 -1.23562 155.019L-0.980378 157.756Z" fill="#767880"/>
<path id="Vector_119" d="M58.1346 58.0347L58.1885 58.1702C57.9794 58.5945 57.4014 58.7613 57.0556 59.1303C57.0102 59.3279 56.97 59.5188 56.861 59.6932C56.3576 60.4987 55.3859 61.1597 54.6394 61.7212C51.1659 64.333 47.2635 66.3263 42.9532 67.0813C41.6687 67.3066 40.499 67.5062 39.3621 66.7125C39.3281 66.5528 39.3237 66.5571 39.3128 66.3685C39.2761 65.7321 39.5672 65.1556 39.9893 64.7001C41.1672 63.4286 42.7826 62.5069 44.3159 61.737C48.5306 59.6211 53.3999 58.1789 58.1346 58.0347Z" fill="#FEFEFE"/>
<path id="Vector_120" d="M-11.8326 143.746C-10.189 144.252 -8.65675 145.516 -7.64964 146.889C-6.61781 148.297 -5.86157 149.972 -5.21862 151.59C-3.8232 155.102 -2.99517 158.463 -3.62134 162.249C-3.80154 163.338 -4.14968 164.889 -5.12069 165.535C-6.56536 166.496 -9.24665 166.101 -10.8364 165.799C-10.9755 165.419 -10.9477 164.943 -10.9701 164.537C-9.77961 164.451 -8.21416 164.297 -7.25079 163.543C-6.83672 163.219 -6.61141 162.82 -6.57208 162.294C-6.49463 161.258 -7.3204 160.219 -7.97788 159.483C-9.13761 158.184 -10.623 157.213 -12.1461 156.395C-15.5777 154.551 -19.4529 153.496 -23.3413 153.297L-25.7623 153.361C-27.4277 153.504 -30.1698 153.927 -31.2776 155.323C-31.531 155.642 -31.6474 156.128 -31.5849 156.53C-31.3978 157.733 -29.864 158.783 -28.9449 159.43L-29.9516 160.52L-30.8534 160.055C-33.1349 158.794 -35.6667 157.468 -37.2625 155.35C-37.6879 154.786 -38.0688 154.199 -38.2419 153.503C-38.4567 152.639 -38.2698 151.676 -37.7797 150.938L-37.6872 150.803C-36.3723 148.862 -34.1136 147.792 -32.005 146.946C-29.8302 146.074 -27.5685 145.365 -25.478 144.301C-24.7415 143.926 -24.0028 143.507 -23.3371 143.016C-22.8471 142.654 -22.3724 142.112 -21.8227 141.858C-21.2626 141.6 -20.5323 141.667 -19.9302 141.698C-17.1538 141.84 -14.4139 142.77 -11.8326 143.746Z" fill="#FEFEFE"/>
<path id="Vector_121" d="M30.3955 61.5553L30.7569 61.7462C31.0683 61.9904 31.1972 62.5045 31.2349 62.8826C31.4171 64.7077 30.2572 64.7779 28.8919 65.2322C26.8163 65.9227 24.6567 66.5849 22.6567 67.4689C15.2999 70.7214 8.56252 76.1192 3.33677 82.1809C-2.2398 88.6495 -6.15769 96.7154 -8.1004 105.018C-9.68139 111.775 -10.179 118.723 -10.6635 125.626L-11.1891 134.303C-11.2885 136.505 -11.3872 138.686 -11.2235 140.89L-13.7942 139.991L-18.2736 139.058C-18.2084 133.31 -17.0401 127.421 -16.0541 121.766C-14.9633 115.509 -13.9803 109.098 -12.0162 103.042C-10.7219 99.0517 -8.88074 95.1393 -6.88356 91.4574C-3.34847 84.9401 1.24058 79.1522 6.75456 74.2016C9.17999 72.024 11.7784 69.9609 14.5707 68.2726C19.4687 65.3107 24.9208 63.182 30.3955 61.5553Z" fill="#FEFEFE"/>
</g>
<defs>
<clipPath id="clip0_313_123">
<rect width="212" height="212" fill="white"/>
</clipPath>
</defs>
</svg>
