<svg width="212" height="212" viewBox="0 0 212 212" fill="none" xmlns="http://www.w3.org/2000/svg">
<g clip-path="url(#clip0_627_576)">
<path d="M0 0H212V212H0V0Z" fill="#FEFEFE"/>
<path d="M28.3973 44.0185C29.3691 43.963 30.6202 43.827 31.5729 43.9821C31.8648 44.0295 32.0696 44.3121 32.2458 44.5255C32.3104 44.8427 32.407 45.1781 32.2967 45.495C32.1882 45.806 31.9325 45.9072 31.6605 46.0455C30.793 46.2743 29.3954 46.5474 28.5908 46.071L28.4627 45.9876C28.3188 45.8969 28.1406 45.807 28.0281 45.6756C27.7894 45.3963 27.7874 45.0226 27.8385 44.6669C27.8832 44.3541 28.1613 44.1907 28.3973 44.0185Z" fill="#767880"/>
<path d="M35.6663 47.0034C36.0447 47.0601 36.4252 47.1179 36.6714 47.4421C36.9915 47.8638 36.8737 49.2285 36.7888 49.7016L36.7619 49.8428L36.713 50.1016C36.5447 50.8372 36.1331 51.3817 35.5131 51.7858C35.3286 51.7682 35.1648 51.7251 34.9913 51.6622C34.7553 51.5763 34.374 51.3846 34.2922 51.133C34.0433 50.3678 34.374 48.3207 34.7272 47.6098C34.9332 47.1945 35.2555 47.1365 35.6663 47.0034Z" fill="#767880"/>
<path d="M41.5771 42.262C41.9873 42.2048 42.3784 42.1748 42.7926 42.2125C43.2537 42.2545 43.3806 42.368 43.669 42.7003C43.7588 43.0595 43.8568 43.453 43.6158 43.7832C43.2334 44.3077 41.6846 44.6027 41.0674 44.7675C40.4333 44.9074 39.9128 45.0898 39.2694 44.8863C39.0303 44.6538 38.8089 44.4217 38.757 44.0772C38.7075 43.7487 38.7054 43.4886 38.9158 43.2178C39.3518 42.6566 40.908 42.381 41.5771 42.262Z" fill="#767880"/>
<path d="M35.558 37.3629L35.9213 37.3567C36.3437 37.3538 36.8333 37.4153 37.1107 37.7863C37.6254 38.4753 37.6152 40.1195 37.5382 40.9746C37.4917 41.4895 37.1449 41.6938 36.7801 42.0023C36.6507 42.0313 36.5203 42.0654 36.3861 42.0594C36.1348 42.048 35.8029 41.946 35.636 41.7518C34.9652 40.9715 34.7586 39.2531 34.7909 38.249C34.9731 37.8136 35.1847 37.643 35.558 37.3629Z" fill="#767880"/>
<path d="M105.348 23.9182C105.894 23.896 106.587 23.7631 107.064 24.0335C107.692 24.39 108.049 24.815 108.224 25.5235C108.381 26.1607 108.34 26.7493 107.988 27.3097C106.768 29.2513 104.42 28.1271 102.618 28.5271L102.48 28.5602C102.066 28.6503 101.725 28.7445 101.429 29.0743C101.158 29.3769 101.145 29.6844 101.191 30.0688C101.245 30.5225 101.226 31.0075 101.115 31.4526C100.708 33.0756 98.5871 32.8706 97.4016 33.5981C95.4713 34.7832 97.2787 36.5854 96.8242 38.3054L96.7932 38.4145C96.5853 38.8898 96.406 39.1861 96.01 39.5252C95.8288 39.5014 95.6767 39.49 95.5127 39.4014C95.3719 39.3252 95.3872 39.2217 95.3452 39.0772C95.4854 38.5954 95.7491 37.7354 95.6752 37.2387C95.4992 36.0562 94.7639 34.9684 95.409 33.7604C96.1313 32.4073 97.8735 32.0961 99.1656 31.6321C99.2722 31.5938 99.8858 31.3297 99.9239 31.2479C99.9463 31.2003 99.9104 30.8347 99.9084 30.7585C99.8937 30.2167 99.7972 29.4896 100.036 28.9987L100.098 28.8809C100.239 28.5906 100.358 28.3428 100.59 28.1097C101.519 27.1779 103.129 27.1596 104.335 27.1884L104.387 27.0694L104.038 26.7183C103.897 26.4891 103.897 25.9678 103.933 25.7048C104.044 24.9038 104.753 24.3718 105.348 23.9182Z" fill="#767880"/>
<path d="M106.009 25.3069C106.441 25.3525 106.58 25.3912 106.896 25.697L106.929 26.293C106.879 26.7529 106.597 26.9228 106.278 27.2056L106.104 27.2191C105.783 27.0526 105.664 27.0172 105.463 26.7071C105.447 26.0351 105.574 25.8115 106.009 25.3069Z" fill="#FEFEFE"/>
<path d="M63.3633 25.6898C64.014 25.6244 64.5658 25.7229 65.2012 25.8558C65.5958 26.2359 66.0254 26.4991 66.0688 27.0736L66.1945 28.1156C66.7645 28.1827 67.3762 28.4557 67.9195 28.6404C69.1753 29.0677 70.4566 29.4797 71.6241 30.1192C72.753 30.7378 73.5555 31.7012 73.8952 32.9415L73.9431 33.1249C74.3927 34.8066 73.8284 36.537 74.3157 38.1937C74.831 38.5286 75.1871 38.8895 75.591 39.3456C75.2734 39.6162 75.0538 39.882 74.6354 39.9634C74.047 39.8282 73.5859 39.1696 73.2242 38.7114C73.0528 38.3599 72.9516 38.0336 72.8775 37.6492L72.8448 37.4726C72.5605 36.0169 73.1373 34.6509 72.6723 33.1549C72.2982 31.9506 71.6351 31.4633 70.561 30.9256C69.2898 30.2892 67.9514 29.9079 66.6127 29.4482C66.4162 29.3807 65.8597 29.1131 65.6802 29.1207C65.6517 29.122 65.3765 29.2923 65.3277 29.3195C64.9598 29.5228 64.5844 29.7151 64.1803 29.8373C63.4428 30.0602 62.5878 30.0596 61.904 29.6795C61.4576 29.4315 60.9808 28.9702 60.8504 28.4638C60.6941 27.857 60.8113 27.4349 61.1245 26.9071C61.6334 26.0492 62.4708 25.9219 63.3633 25.6898Z" fill="#767880"/>
<path d="M63.4363 26.5016C63.6376 26.4913 63.8119 26.4842 64.0094 26.5329C64.2682 26.5969 64.6601 26.7312 64.7729 27.0026C64.8789 27.2577 64.8505 27.6974 64.7162 27.9386C64.4634 28.3925 63.8723 28.5452 63.4138 28.6871C63.0813 28.6895 62.679 28.7198 62.3687 28.5765C62.0916 28.4486 62.0509 28.3111 61.925 28.0527C61.9527 27.8239 61.9745 27.5687 62.0869 27.3637C62.3751 26.8383 62.9067 26.682 63.4363 26.5016Z" fill="#FEFEFE"/>
<path d="M80.337 16.2694C81.0101 16.2157 81.7519 16.0846 82.2947 16.5669C82.7817 16.9996 83.2947 17.6488 83.3112 18.3288C83.3328 19.2222 83.0918 20.1175 82.4355 20.7526C82.2755 20.9075 82.2529 20.9203 82.163 21.1396C82.3005 21.5516 82.5566 22.5147 82.9075 22.7797C83.2127 23.0103 83.7524 23.1999 84.106 23.3656C85.296 23.9229 86.4569 24.5158 87.1647 25.6827C87.5641 26.3408 87.8181 27.1275 87.8779 27.8948C87.9862 29.2887 87.1608 30.1835 86.2739 31.1236C85.8101 31.6153 85.2716 32.1737 85.1174 32.853C85.0785 33.0246 84.9739 33.3737 84.9987 33.5279C85.023 33.6801 85.2753 33.9728 85.3724 34.0877C85.9983 34.8281 87.0043 35.2562 87.509 36.0752C87.5276 36.4307 87.4262 36.6768 87.2976 37.0048C86.3581 36.7365 85.6227 36.1189 84.9141 35.4684C84.1518 34.7686 83.8696 33.9879 83.8435 32.9735C83.8122 31.753 84.6712 30.9319 85.4519 30.1162C85.9886 29.5556 86.6921 28.736 86.6107 27.8975C86.4972 26.7249 85.7267 25.4435 84.6574 24.9293C83.8737 24.5523 83.0696 24.3283 82.3928 23.7506C82.1481 23.5415 81.9316 23.2962 81.7842 23.0089C81.6718 22.79 81.2374 21.5122 81.1583 21.469C80.867 21.3097 80.4312 21.4663 80.1321 21.2381C79.6236 20.8501 78.7607 20.0414 78.7789 19.3444L78.9543 17.96C79.1665 17.2195 79.7184 16.6773 80.337 16.2694Z" fill="#767880"/>
<path d="M81.0564 17.5952C81.4072 17.6915 81.5736 17.7075 81.8204 17.9909C82.0138 18.2129 82.0736 18.4972 82.0452 18.7857C81.9926 19.3231 81.6254 19.6851 81.2467 20.024L81.0896 20.014C80.7962 19.9804 80.6662 19.9015 80.495 19.6586C80.3012 19.3837 80.184 18.8643 80.2492 18.5354C80.3453 18.0518 80.6782 17.8555 81.0564 17.5952Z" fill="#FEFEFE"/>
<path d="M88.0116 41.7561C92.3102 41.4383 96.5997 42.4609 100.283 44.7036C101.649 45.5357 103.024 46.5855 103.978 47.883C104.447 48.5213 104.717 49.1964 104.963 49.9405C104.979 49.9866 105.124 50.4496 105.13 50.4527C105.226 50.5044 106.246 50.2821 106.465 50.2626L118.259 49.2519L130.121 48.9451L139.041 48.7821L147.415 48.9337L152.967 48.9664L157.809 49.3335L163.916 49.69L167.689 49.8763C168.208 49.9038 169.027 49.8585 169.47 50.1467C169.906 50.4305 170.285 50.8404 170.684 51.1746L172.999 53.0664L177.699 56.7783L181.379 59.9873C182.181 60.6902 183.648 61.6657 184.029 62.6416C184.132 62.9062 184.174 63.1737 184.149 63.4551L183.067 71.4765L180.25 96.8333L177.918 123.546L175.826 151.009L175.247 161.07L175.045 164.02C175.02 164.378 174.915 164.695 174.992 165.054C175.488 164.918 175.754 164.848 176.235 165.087C176.458 165.379 176.532 165.521 176.588 165.884C176.519 166.059 176.462 166.212 176.321 166.343C175.92 166.717 175.08 167.08 174.536 167.032C173.436 166.934 170.252 169.271 169.147 169.96L165.424 172.227C164.677 172.704 163.553 173.683 162.716 173.827C161.954 173.958 161.038 173.822 160.259 173.815L149.321 173.417L133.113 172.84L117.25 171.969L101.4 171.204L97.2522 170.933C96.443 170.88 95.6747 170.928 94.8662 170.796L94.6859 170.766L93.7275 173.41C93.045 175.188 91.7626 176.996 90.1171 177.99C89.0099 178.659 87.6855 179.147 86.4984 179.675L86.9947 183.679C87.0736 184.189 87.0709 184.705 87.0833 185.22C87.8228 185.175 88.4731 184.958 89.2333 185.009L89.4436 185.024C92.5292 185.2 95.1099 186.743 97.4013 188.716C97.9439 189.182 98.5375 189.892 99.2077 190.139C99.4944 190.245 99.671 190.303 99.8952 190.52C100.145 190.763 100.168 191.041 100.182 191.37L99.965 191.71C99.0638 193.03 96.4869 193.667 94.9757 193.916C91.8258 194.434 83.5737 194.247 80.9771 192.384C80.4703 191.449 81.0589 190.853 81.0647 189.898C81.0717 188.75 81.2856 187.486 81.4435 186.344C81.4916 185.998 81.715 185.463 82.0354 185.278C82.2754 185.14 82.5617 185.165 82.812 184.982C82.8464 184.423 82.4907 181.098 82.2108 180.635C82.2021 180.62 82.0858 180.445 82.0354 180.432C81.8607 180.389 81.485 180.445 81.293 180.447L79.4107 180.43C78.2544 180.387 77.2131 180.227 76.079 180.051C75.5881 179.975 75.0359 180.04 74.5306 179.986C73.078 179.83 71.6284 179.571 70.2042 179.25L72.0652 186.006C72.5437 185.862 73.0211 185.675 73.4797 185.941C74.3803 186.465 74.4146 187.585 74.6742 188.488C74.8436 189.076 75.2198 190.176 75.027 190.779C74.9947 190.881 74.7434 191.111 74.743 191.193C74.7407 191.613 75.1403 191.641 74.9268 192.228C74.7243 192.786 73.9519 193.17 73.4441 193.424C72.2959 193.997 70.8994 194.294 69.6506 194.565C66.2141 195.313 62.5517 195.783 59.0506 195.313C58.2072 195.199 57.2917 195.099 56.4865 194.808C55.9994 194.632 55.7133 194.4 55.4847 193.937C55.4663 192.796 56.0408 191.883 56.6702 190.973C58.319 188.59 61.6923 186.942 64.4918 186.462L67.3681 185.811C67.0555 184.981 66.8708 184.089 66.63 183.235L65.4665 179.004C65.3839 178.668 65.2986 177.519 65.1465 177.322C64.9902 177.12 64.2235 176.769 63.9598 176.609C62.9279 175.984 61.8228 175.352 60.9015 174.568C60.4533 174.187 60.0916 173.693 59.7243 173.236C59.0065 172.343 58.2875 171.46 57.8016 170.409C56.9236 168.511 56.475 166.351 55.9234 164.34C55.0096 161.008 54.3744 157.654 53.7835 154.253L52.543 146.804C51.4509 138.586 51.1665 130.246 50.624 121.979L50.5462 121.964C49.5154 122.595 48.5732 123.352 47.5863 124.048C46.4358 124.86 45.2472 125.597 44.187 126.533C45.3731 128.087 47.1712 128.966 48.5165 130.348C49.1777 131.028 49.5665 131.599 49.5106 132.588C49.4895 132.962 49.233 133.335 48.9574 133.577C48.6123 133.879 48.1831 133.917 47.744 133.903L47.5647 133.896C46.1116 133.855 44.5013 133.329 43.2465 132.595C41.7366 131.712 39.5934 129.855 39.2531 128.051C39.0903 127.189 39.1297 126.234 39.4545 125.409C39.6988 124.789 40.2443 124.131 40.7157 123.661C41.8198 122.56 43.1173 121.595 44.3601 120.657L48.1026 117.869C48.6206 117.503 49.1349 116.991 49.7199 116.748C49.8495 116.694 49.9787 116.661 50.0835 116.56C50.222 116.426 50.3116 116.18 50.3189 115.989C50.339 115.45 50.2386 114.879 50.2325 114.331L49.9967 106.415L49.9553 89.9954L50.0456 84.7793C50.3412 80.3213 50.6679 75.9357 51.3445 71.5131C52.3149 65.1693 53.974 58.7702 58.5136 53.9834C59.261 53.195 60.2435 52.5408 61.1483 51.9456C66.1369 48.6631 72.1081 47.7221 77.9785 47.4944C78.1352 47.1184 78.3341 46.8019 78.5851 46.4824C80.9169 43.5157 84.3718 42.2068 88.0116 41.7561Z" fill="#767880"/>
<path d="M84.708 180.009C84.95 180.167 84.898 180.239 84.9413 180.517L85.2721 183.449C85.3181 183.788 85.3316 184.212 85.4835 184.521C85.6672 184.894 85.6332 185.348 85.6539 185.759C85.497 186.056 85.1842 186.103 84.8817 186.233C84.5784 186 84.6148 185.51 84.5722 185.149L84.3391 182.352L83.9981 180.272L84.708 180.009Z" fill="#FEFEFE"/>
<path d="M66.9843 178.082L68.4019 178.723L69.3964 182.777L70.1252 185.303C70.2968 185.833 70.572 186.402 70.5722 186.961C70.2782 187.055 69.9873 187.151 69.6776 187.174C69.3884 187.195 69.2681 187.24 69.041 187.053C69.0619 186.586 69.0652 186.179 68.9536 185.719L67.4282 179.851L66.9843 178.082Z" fill="#FEFEFE"/>
<path d="M108.248 119.01L108.891 119.496C109.68 120.116 111.05 121.472 111.172 122.459C110.792 123.405 109.7 124.027 108.905 124.617L106.898 125.753L108.248 119.01Z" fill="#FEFEFE"/>
<path d="M50.2154 118.076L50.3864 118.118C50.44 118.424 50.6417 120.06 50.5218 120.288C50.4553 120.415 49.4135 120.958 49.208 121.09L47.4496 122.342C46.1988 123.209 44.9282 124.041 43.844 125.118C43.4409 125.518 43.0515 125.906 42.8997 126.473C42.5623 127.733 46.2342 129.973 47.0846 130.844C47.6505 131.424 47.9774 132.055 48.3465 132.768L46.6066 132.459C45.8137 132.26 45.2081 132.071 44.5183 131.622C43.8612 131.194 43.3138 130.672 42.7453 130.138C41.9389 129.379 41.1244 128.732 40.8913 127.59L40.8598 127.428C40.8159 127.211 40.7683 127.008 40.794 126.785C40.8443 126.346 41.0273 125.771 41.276 125.405C42.0971 124.196 43.3724 123.317 44.5144 122.432L50.2154 118.076Z" fill="#FEFEFE"/>
<path d="M108.91 114.703C109.731 115.158 110.317 115.703 110.969 116.375C112.053 117.494 115.296 121.575 115.166 123.112L115.137 123.287C115.14 123.672 115.17 123.875 115.029 124.255C114.139 126.661 109.849 128.782 107.64 129.843L106.052 130.384L106.479 128.223C106.509 128.092 106.558 127.726 106.626 127.625C106.653 127.585 107.058 127.436 107.118 127.409C107.767 127.123 108.432 126.845 109.057 126.508C110.181 125.902 111.608 124.859 112.367 123.823C112.751 123.298 112.864 122.661 112.731 122.034C112.368 120.329 109.993 118.341 108.581 117.42L108.463 117.344L108.91 114.703Z" fill="#FEFEFE"/>
<path d="M88.3536 186.378C88.8832 186.359 89.4215 186.315 89.9494 186.367C89.4749 186.715 88.8573 187.085 88.5015 187.557C88.111 188.076 87.7775 188.904 87.8475 189.558C88.1011 189.758 88.0866 189.797 88.4017 189.76C88.6176 189.617 88.7938 189.507 88.929 189.279C89.5099 188.296 90.3794 187.31 91.3635 186.732L91.7659 186.85C93.634 187.402 95.99 189.002 97.1572 190.549L96.2815 190.712L94.8093 190.957L90.0091 191.416C87.9771 191.453 85.9523 191.379 83.9505 190.996C83.5133 190.912 82.9464 190.883 82.6249 190.572C82.7508 190.218 82.6313 190.001 82.6317 189.643C82.6321 189.07 82.7317 188.503 82.7789 187.933C82.8191 187.447 82.7456 187.075 83.0189 186.643L83.1741 186.675C83.27 187.061 83.3638 187.588 83.729 187.82C84.8501 188.534 86.9504 186.603 88.0942 186.412L88.3536 186.378Z" fill="#FEFEFE"/>
<path d="M66.9797 187.406L67.44 187.386C67.4832 187.503 67.5203 187.62 67.5894 187.726C67.8277 188.09 68.3076 188.246 68.7124 188.313C70.2297 188.564 71.6448 188.142 72.8656 187.243L73.3 189.899C73.3385 190.201 73.4393 190.511 73.384 190.811C69.038 192.171 64.3475 192.633 59.8142 192.667L57.4447 192.587L57.6281 192.22C57.8391 191.79 58.0969 191.451 58.413 191.094C59.4326 189.941 61.1133 188.794 62.6116 188.386C62.9275 188.3 63.2399 188.323 63.5581 188.279C65.503 188.011 64.9815 191.044 66.3013 191.801C66.6454 191.785 66.7611 191.823 67.0367 191.604L66.564 189.434C66.3936 188.653 66.2624 188.163 65.5556 187.723L65.4291 187.647C65.917 187.503 66.4744 187.474 66.9797 187.406Z" fill="#FEFEFE"/>
<path d="M89.0975 43.2129C92.4492 43.0398 96.1848 44.0508 99.1158 45.6592C101.053 46.7225 102.77 48.0871 103.35 50.3054C103.551 51.0716 103.117 51.9084 102.755 52.5596L96.2759 50.365C91.8043 49.1164 87.0452 47.8958 82.3986 47.5653L79.5695 47.4954C79.7741 47.1945 79.9842 46.9076 80.237 46.6451C82.5338 44.2609 85.8575 43.2819 89.0975 43.2129Z" fill="#FEFEFE"/>
<path d="M169.511 52.4978L182.299 63.3798L173.21 165.52C172.478 165.842 171.796 166.324 171.119 166.751L163.158 171.666L163.763 158.327L164.388 139.229L164.669 129.188C164.718 128.051 164.602 126.761 164.79 125.65C164.857 125.25 164.795 124.868 164.812 124.465L164.908 120.648L165.325 110.609L166.431 88.5146L167.55 71.8213L168.759 58.5739L169.511 52.4978Z" fill="#FEFEFE"/>
<path d="M169.368 162.44L170.077 162.379C170.309 162.602 170.272 162.828 170.313 163.141C170.031 163.507 169.597 163.68 169.195 163.891C168.788 163.874 168.613 163.839 168.307 163.555L168.32 163.192C168.633 162.826 168.947 162.657 169.368 162.44Z" fill="#767880"/>
<path d="M168.845 139.458C169.283 139.44 169.726 139.355 170.099 139.621C170.232 139.887 170.281 139.898 170.2 140.178C169.849 140.411 169.582 140.489 169.166 140.547C168.947 140.549 168.745 140.545 168.533 140.616L168.42 140.663C168.017 140.54 167.806 140.519 167.509 140.212L167.602 139.901C167.936 139.598 168.417 139.554 168.845 139.458Z" fill="#767880"/>
<path d="M169.395 127.97L170.853 127.943C171.157 127.995 171.26 128.17 171.413 128.411L171.328 128.67C171.07 128.923 170.856 128.928 170.516 128.967L168.472 128.979C168.246 128.802 168.272 128.804 168.234 128.515C168.574 128.208 168.969 128.11 169.395 127.97Z" fill="#767880"/>
<path d="M169.888 134.087C170.295 134.068 170.873 133.973 171.255 134.11C171.423 134.17 171.404 134.263 171.458 134.415L171.346 134.622C170.858 134.894 170.329 134.997 169.791 135.127C169.304 135.218 168.867 135.305 168.367 135.265L168.185 135.036C168.204 134.813 168.22 134.671 168.359 134.494C168.599 134.188 169.49 134.143 169.888 134.087Z" fill="#767880"/>
<path d="M171.723 144.287L172.095 144.27L172.24 144.404L172.216 144.891C171.293 145.685 170.128 146.103 168.96 146.378C168.689 146.365 168.645 146.375 168.43 146.216L168.449 146.132C168.709 145.443 171.033 144.583 171.723 144.287Z" fill="#767880"/>
<path d="M170.258 113.684C170.99 113.624 172.296 113.493 172.883 113.971C172.905 114.313 172.851 114.425 172.685 114.709C172.313 115.003 171.551 114.904 171.086 114.908C170.857 114.936 170.617 114.931 170.387 114.929L168.99 114.997C168.736 114.791 168.748 114.813 168.711 114.488C169.116 113.939 169.622 113.827 170.258 113.684Z" fill="#767880"/>
<path d="M170.731 150.66C171.018 150.678 171.333 150.656 171.577 150.823C171.677 151.104 171.744 151.175 171.651 151.466C171.325 151.654 170.957 151.684 170.594 151.758C169.801 151.918 169.028 152.066 168.224 152.159C167.828 152.117 167.449 152.12 167.126 151.862C167.084 151.605 167.069 151.561 167.169 151.324C168.234 150.753 169.555 150.74 170.731 150.66Z" fill="#767880"/>
<path d="M171.155 156.539C171.361 156.529 171.486 156.55 171.68 156.622C171.763 156.879 171.756 156.904 171.68 157.165C171.013 157.7 170.036 157.858 169.248 158.169C168.584 158.431 167.934 158.783 167.288 159.087C166.945 158.965 166.768 158.881 166.558 158.586L166.618 158.476C167.088 157.839 170.248 156.664 171.155 156.539Z" fill="#767880"/>
<path d="M171.597 98.3831L171.814 98.3649C172.782 98.3378 175.087 98.6584 175.761 99.3911C175.932 99.5773 175.878 99.6048 175.87 99.8408C175.594 100.111 175.601 100.091 175.212 100.107C174.72 99.8855 174.22 99.6864 173.69 99.5779C172.82 99.4 171.246 99.5499 170.543 99.0526L170.503 98.7539L170.733 98.4835L171.597 98.3831Z" fill="#767880"/>
<path d="M169.988 106.419C170.443 106.345 170.901 106.42 171.356 106.477C172.185 106.582 173.549 106.881 174.083 107.569C174.054 107.961 173.887 108.02 173.611 108.286L171.671 107.816C171.013 107.674 170.195 107.635 169.637 107.216C169.459 107.083 169.504 107.081 169.483 106.88L169.988 106.419Z" fill="#767880"/>
<path d="M171.717 79.1955C172.633 79.3108 173.56 79.629 174.475 79.8129C175.365 79.992 177.837 80.376 178.31 81.2451C178.399 81.4087 178.284 81.5168 178.215 81.6695L177.918 81.664C177.075 81.6232 176.071 81.0847 175.238 80.8464C174.376 80.5998 173.427 80.4957 172.596 80.1737C172.296 80.0576 171.948 79.8756 171.748 79.6181C171.636 79.4734 171.697 79.364 171.717 79.1955Z" fill="#767880"/>
<path d="M169.966 85.7031L170.236 85.6931C171.888 85.702 173.711 86.029 175.294 86.4913C175.844 86.6517 176.398 86.8037 176.817 87.2119L176.759 87.6129C176.637 87.6376 176.402 87.7204 176.287 87.7084C175.814 87.6593 175.192 87.3012 174.691 87.1834C173.504 86.9041 172.297 86.8092 171.113 86.5532C170.863 86.4991 170.466 86.4683 170.26 86.3234C169.991 86.1337 170.021 86.0014 169.966 85.7031Z" fill="#767880"/>
<path d="M169.587 120.229L170.622 120.197C171.313 120.187 172.078 120.028 172.608 120.544C172.658 120.684 172.794 120.917 172.722 121.054C172.496 121.483 171.949 121.592 171.52 121.688C170.951 121.737 170.415 121.786 169.843 121.751C169.306 121.718 168.952 121.698 168.575 121.273C168.589 121.09 168.598 120.908 168.683 120.741C168.864 120.388 169.235 120.303 169.587 120.229Z" fill="#767880"/>
<path d="M170.627 91.5385C171.988 91.6189 173.142 91.9963 174.443 92.3433C174.96 92.4809 175.659 92.5619 176.074 92.9054C176.076 93.2861 176.073 93.3252 175.867 93.6432C174.957 93.5556 170.812 92.7383 170.33 92.1391C170.217 91.9992 170.282 91.8926 170.305 91.7305L170.627 91.5385Z" fill="#767880"/>
<path d="M171.165 66.7886C171.608 66.9149 172.028 67.2828 172.425 67.5209C173.175 67.9697 173.962 68.3958 174.768 68.7353C175.317 68.9668 176.466 69.1775 176.841 69.5699C176.964 69.6993 176.86 70.2928 176.845 70.4907C176.539 70.5119 176.22 70.5328 175.915 70.4858C174.34 70.2433 172.142 68.9535 171.226 67.641C170.99 67.3037 171.092 67.1619 171.165 66.7886Z" fill="#767880"/>
<path d="M170.629 72.2134C170.839 72.2099 171.063 72.2115 171.267 72.2643C171.689 72.373 172.117 72.6152 172.53 72.7639C174.308 73.4036 175.831 73.9551 177.37 75.0855C177.679 75.3126 178.066 75.5367 178.253 75.877L178.031 76.4675L177.843 76.4844C177.393 76.4733 176.938 76.1633 176.557 75.9468C175.852 75.5472 175.158 75.1429 174.42 74.8058C173.373 74.327 172.09 74.1562 171.221 73.3759C170.775 72.9744 170.658 72.8016 170.629 72.2134Z" fill="#767880"/>
<path d="M75.9846 49.2105C77.0955 49.0867 78.229 49.1528 79.3449 49.17C84.2319 49.2451 88.9869 50.154 93.706 51.3817C95.5175 51.8529 97.3533 52.3065 99.1046 52.9764C102.401 54.2375 106.255 55.9119 107.763 59.3627C108.648 61.3892 108.849 63.0721 108.973 65.2666C109.01 65.9244 109.105 66.5778 109.049 67.2367C109.034 67.404 108.999 67.5034 109.068 67.6595C109.218 67.9982 109.064 68.5386 109.11 68.9216C109.127 69.064 109.166 69.169 109.128 69.3135C109.057 69.5791 109.009 70.1159 109.124 70.3673L109.171 70.4424C108.986 70.8215 109.097 71.4039 109.075 71.8277L108.858 76.119C108.821 76.7146 108.844 77.3475 108.751 77.9347C108.451 79.8305 108.442 81.8289 108.25 83.7442L106.69 97.3047L104.835 108.013L100.726 129.602C98.2719 141.255 96.073 153.151 91.6989 164.265C90.8411 166.444 89.983 168.635 88.8561 170.692C87.6582 172.878 85.885 175.141 83.4089 175.864C82.606 176.13 81.8342 176.462 81.0076 176.653C79.9991 176.885 78.9499 176.96 77.9201 177.048C75.0235 177.297 72.1408 177.187 69.2755 176.674C66.0324 176.094 62.2139 174.218 60.3218 171.469C58.7035 169.118 58.1269 166.271 57.4194 163.555C55.5667 156.442 54.3587 149.012 53.6542 141.695L53.0318 132.755L52.0814 118.245L51.5839 101.62C51.4514 96.4132 51.317 91.1708 51.6068 85.9698C51.6511 85.1764 51.5476 84.2365 51.7023 83.4647C51.8973 82.4925 51.7851 81.3919 51.9224 80.3975C52.0565 79.4265 52.0542 78.4498 52.1675 77.4759C53.0285 70.0751 54.0341 62.3543 58.6925 56.25C59.6076 55.0509 60.7591 54.1352 62.006 53.312C62.7437 52.8251 63.4737 52.2905 64.2676 51.8986C67.8269 50.1424 72.1071 49.7337 75.9846 49.2105Z" fill="#FEFEFE"/>
<path d="M78.6049 135.004L79.0672 135.221C79.0622 135.548 79.3266 136.077 79.5243 136.333C79.7371 136.607 80.0936 136.847 80.4508 136.847C81.3903 136.846 81.7325 136.557 82.426 135.968L82.554 136.017C82.719 136.504 82.7432 136.735 82.5432 137.202L82.3242 137.408C82.0138 137.676 81.4499 138.089 81.0162 138.028L80.8977 138.004C80.416 138.001 80.1435 138.091 79.6785 137.838C79.1152 137.533 78.4674 136.898 78.321 136.256C78.186 135.664 78.2871 135.479 78.6049 135.004Z" fill="#767880"/>
<path d="M91.8174 115.76C92.4518 115.983 92.7114 116.456 93.0954 116.973C93.4898 117.079 94.0399 117.295 94.4442 117.278C95.0941 117.25 96.0587 116.865 96.503 116.39C96.6241 116.26 96.7543 116.156 96.8914 116.043C97.1123 116.151 97.1682 116.301 97.2835 116.507C97.2603 116.844 97.0984 117.025 96.9046 117.284L96.2185 117.859C95.5972 118.304 94.7687 118.601 93.9987 118.469L93.8894 118.449C93.4232 118.366 92.9636 118.256 92.5499 118.015C92.0178 117.706 91.5808 117.317 91.4172 116.714C91.48 116.331 91.6162 116.088 91.8174 115.76Z" fill="#767880"/>
<path d="M55.027 117.944C55.1729 117.961 55.4922 117.993 55.5963 118.109C55.7398 118.267 55.8584 118.651 55.9439 118.849C56.2035 119.452 56.5598 119.994 57.1447 120.319C58.5836 121.118 59.3506 120.562 60.763 120.198L60.9613 120.337C61.0352 120.705 60.9222 120.812 60.7621 121.144C60.5963 121.277 60.4265 121.411 60.2336 121.504C59.416 121.894 58.1086 122.034 57.2519 121.695C56.2416 121.295 55.3804 120.536 54.9802 119.509C54.746 118.908 54.7924 118.522 55.027 117.944Z" fill="#767880"/>
<path d="M91.2536 155.875C91.467 156.02 91.5881 156.084 91.6428 156.36C91.6979 156.638 91.6285 156.849 91.456 157.062C90.8035 157.868 89.4532 158.348 88.4305 158.468C87.6032 158.566 86.8012 158.426 86.1548 157.889L85.9616 157.509C85.9809 157.142 85.9919 156.813 86.1148 156.464C86.3695 156.227 86.502 156.125 86.8496 156.074C87.0608 156.13 87.4407 156.22 87.5316 156.455C87.6282 156.704 87.5123 156.776 87.6777 157.048C89.2013 157.056 89.9919 156.701 91.2536 155.875Z" fill="#767880"/>
<path d="M56.9791 91.8341C57.1627 91.8625 57.2693 92.0283 57.4 92.1575C57.56 93.026 56.3079 93.367 56.3126 94.458C56.3143 94.8462 56.3636 95.3421 56.5267 95.7002C56.7756 96.2474 57.4269 97.0774 57.3536 97.667C57.137 97.9948 56.9698 97.9811 56.6031 98.0979C55.7768 97.3387 55.3166 96.3387 54.9872 95.2837C54.77 94.5885 54.9955 93.3587 55.358 92.7478C55.6843 92.1977 56.3917 91.9546 56.9791 91.8341Z" fill="#767880"/>
<path d="M58.9985 144.857C59.7809 144.969 59.9399 145.749 60.4487 146.269C61.9499 147.804 63.2557 146.775 64.9867 146.838C65.2417 146.847 65.226 146.857 65.397 147.044C65.3415 147.424 65.0593 147.624 64.7964 147.876C64.0498 148.401 63.0582 148.619 62.1607 148.487L61.9543 148.455C61.4891 148.387 61.0512 148.279 60.628 148.066C59.8366 147.666 59.0086 146.632 58.7792 145.762C58.6679 145.34 58.8004 145.228 58.9985 144.857Z" fill="#767880"/>
<path d="M102.767 93.6285C103.124 93.7531 103.364 93.7707 103.581 94.1084C104.139 94.9771 104.088 96.5366 103.886 97.5101C103.626 98.7668 102.983 99.8098 101.906 100.504L101.445 100.595L101.187 100.418C100.906 99.2875 102.366 98.4753 102.545 97.338C102.567 97.1981 102.575 97.0724 102.619 96.937C102.767 96.4882 102.628 95.4735 102.519 94.9866L102.487 94.8551C102.364 94.3415 102.496 94.0665 102.767 93.6285Z" fill="#767880"/>
<path d="M72.634 161.789L73.0185 161.776C74.1917 161.814 74.0395 162.614 74.6718 163.289C75.1687 163.818 75.8618 164.065 76.5796 164.074L76.7057 164.074C77.2665 164.1 77.7288 164.129 78.2723 163.944C78.753 163.781 79.1644 163.486 79.6559 163.348C79.9016 163.517 79.9782 163.545 80.0954 163.814L79.7836 164.479C79.4389 164.715 78.9236 164.979 78.5145 165.068C78.2216 165.131 77.7665 165.302 77.4794 165.241L77.3785 165.217C76.461 165.262 75.5115 165.246 74.6724 164.769C73.5607 164.136 72.963 162.977 72.634 161.789Z" fill="#767880"/>
<path d="M67.1159 61.8484C67.8063 61.9067 68.8123 62.0784 69.2622 62.6636C69.482 62.95 69.5671 63.4632 69.4646 63.8102C69.3928 64.0532 69.1071 64.3358 68.887 64.4526C68.5398 64.6369 67.7906 64.4799 67.4123 64.3727C67.0438 64.2683 66.7324 64.323 66.3714 64.441C65.2058 64.8219 64.5232 66.4407 63.9667 67.4376C63.787 67.6552 63.6299 67.861 63.3531 67.9581C63.0529 68.0632 62.6287 68.0142 62.3502 67.8684C62.0699 67.7218 61.8225 67.5084 61.7759 67.1817C61.6513 66.3103 62.1086 65.4799 62.5945 64.7917C63.3119 63.7758 64.3054 62.7251 65.4685 62.2328C65.982 62.0156 66.5687 61.9419 67.1159 61.8484Z" fill="#767880"/>
<path d="M89.737 62.2189C90.0583 62.1987 90.492 62.127 90.7951 62.2287C91.1073 62.3334 91.4114 62.7742 91.5533 63.0665C92.4406 64.8954 93.743 66.4944 95.7396 67.1991C96.217 67.3676 96.9508 67.4867 97.3116 67.8545C97.6915 68.2419 97.6458 68.7075 97.6008 69.2003C97.3938 69.5595 97.1775 69.6932 96.8253 69.9027C96.5862 69.9609 96.3361 69.9795 96.0903 69.959C94.2161 69.8015 92.0538 68.0409 90.8622 66.6654C90.1719 65.8685 88.8863 64.3479 89.0016 63.2469C89.0585 62.7022 89.3154 62.5479 89.737 62.2189Z" fill="#767880"/>
<path d="M74.5298 92.4694L75.3588 92.4581C75.8617 92.4856 76.1561 92.5688 76.4908 92.957C76.4722 93.3402 76.4668 93.3756 76.2389 93.6826L75.2555 93.7145C74.5667 93.6557 74.0501 93.7621 73.4119 94.0439L73.3922 94.1748L73.7545 94.2097C73.975 94.2298 74.2847 94.223 74.4766 94.3437C75.0838 94.7253 74.5652 95.4416 74.6365 95.959C74.6824 96.2929 74.7766 96.4157 75.0484 96.5842C75.2455 96.3492 75.5689 95.7929 75.5834 95.4706L75.5749 95.1826C75.6136 94.8981 75.8971 94.6153 76.1107 94.4487L83.0251 94.7526L83.2082 94.7685L85.4979 94.9938C85.9052 95.0201 86.3546 94.9499 86.7451 95.0252C87.7651 95.2223 88.7754 95.2269 89.794 95.3581L96.4716 96.309C97.2472 96.4246 99.0015 96.4778 99.6034 96.9709C99.8193 97.1477 99.9301 97.444 99.8967 97.7187C99.8632 97.9926 99.727 98.1123 99.5299 98.2858C99.1334 98.4063 98.6962 98.388 98.2877 98.3315C96.8399 98.1315 95.3996 97.7332 93.9494 97.5073L85.1213 96.4362L77.1747 95.8594C76.8979 96.226 76.7662 96.6813 76.4811 97.0467C76.0793 97.5616 75.3855 98.2717 74.7089 98.3286C74.4793 98.3479 74.1539 98.216 73.9965 98.0322C73.5736 97.5382 73.2951 96.56 73.3193 95.9304L73.3245 95.8395C73.1342 95.7509 73.1814 95.7482 73.0121 95.7368C72.8932 95.7287 72.1036 95.6743 72.0479 95.7118C71.9595 95.7718 71.7771 96.12 71.7175 96.2155C71.3962 96.7299 71.2082 97.2715 71.0113 97.8423C70.8821 98.2172 70.8122 98.6112 70.4938 98.8721C70.1021 98.8632 69.9952 98.8715 69.6451 98.6696C69.2745 97.998 69.8658 96.9974 70.1524 96.3805C70.2215 96.2316 70.3582 96.0517 70.3163 95.8908L59.8834 96.2374C59.4892 96.2041 59.2853 96.0076 59.046 95.7157C59.0565 95.6138 59.0629 95.436 59.1093 95.3379C59.4596 94.5996 61.0395 94.7209 61.7599 94.676C62.0011 94.6609 62.2282 94.5824 62.4713 94.5807C63.0208 94.5768 63.8876 94.8215 64.3863 94.6478C64.7356 94.5261 65.1548 94.5642 65.5246 94.5551C66.3115 94.5358 67.1214 94.5358 67.904 94.4588C68.735 94.377 69.6159 94.4882 70.46 94.4764C70.5412 94.4754 70.9256 94.5006 70.9923 94.4679C71.1757 94.3781 71.4877 93.9679 71.6602 93.8151C72.1303 93.3992 72.6566 93.0555 73.2307 92.8017C73.6452 92.6185 74.086 92.5465 74.5298 92.4694Z" fill="#767880"/>
<path d="M66.8482 73.2207C68.6227 73.1248 70.2069 73.3727 71.7385 74.3217C73.2813 75.2778 74.6262 77.2996 75.0189 79.0534C75.1819 79.7809 75.2709 80.408 75.2642 81.1562C75.2522 82.5031 74.6504 84.2642 73.9169 85.3956C72.6811 87.3013 70.9481 88.428 68.7326 88.8954C66.9012 89.1919 65.2516 88.8725 63.7053 87.8557C61.9232 86.6839 60.769 84.6254 60.3789 82.5628L60.3522 82.3984L60.3029 82.1011C60.075 79.7768 60.7054 77.653 62.1453 75.8251C63.3548 74.29 64.933 73.4731 66.8482 73.2207Z" fill="#767880"/>
<path d="M66.4885 74.6402C67.305 74.6183 68.554 74.4667 69.3138 74.7713L69.4596 74.8342L70.5519 75.3377C72.1295 76.1909 73.129 77.648 73.6145 79.3425C74.1346 81.1576 73.6491 83.089 72.7534 84.6995C72.5721 84.1693 72.3537 83.3171 71.9125 82.9482C71.4011 82.5203 70.8467 82.2946 70.1811 82.3323L70.0289 82.3428C69.5662 82.3685 69.2643 82.4654 68.878 82.7352C68.0776 83.2946 67.6888 83.878 67.5396 84.8448L67.5185 84.9877C67.4957 85.1696 67.4754 85.3361 67.4949 85.5199L67.5207 85.6992L67.5476 85.9056C67.6572 86.6153 68.3126 87.0021 68.8443 87.388C67.9002 87.6691 66.1123 87.4811 65.2318 87.0331C63.5412 86.1733 62.2851 84.439 61.8346 82.6165C61.788 82.4281 61.5978 82.0004 61.6104 81.8292C61.6334 81.5201 61.7152 81.5752 61.6015 81.2081C61.6522 81.0303 61.6791 80.8895 61.6882 80.7034C61.7309 79.8305 61.958 78.8018 62.351 78.0262C63.2468 76.2588 64.6291 75.2344 66.4885 74.6402Z" fill="#FEFEFE"/>
<path d="M88.4232 73.3056C90.0822 72.9778 92.2359 73.5043 93.6777 74.312C95.2668 75.202 96.5227 76.7388 97.0063 78.5072C97.144 79.0105 97.1792 79.5426 97.3318 80.0378L97.3752 80.1728C97.2017 80.633 97.3266 81.3792 97.3071 81.8808C97.2634 83.0133 96.7113 84.2122 96.1695 85.1933C95.0817 87.1628 93.4427 88.595 91.2657 89.2379C89.6437 89.6188 87.7437 89.3263 86.3274 88.4567C84.0308 87.0469 82.8855 85.0761 82.31 82.4899C81.833 80.3477 82.5947 77.8331 83.7528 76.0322C84.7515 74.479 86.6812 73.6813 88.4232 73.3056Z" fill="#767880"/>
<path d="M88.8295 74.6637C89.392 74.6443 90.1098 74.5449 90.6481 74.7103C90.7777 74.7502 90.8793 74.7908 91.0156 74.8057C92.2754 74.9434 93.8794 76.0367 94.6608 77.0255C95.5928 78.2052 96.0864 80.2662 95.8924 81.7347L95.8288 82.2767C95.7837 82.6971 95.7415 83.2325 95.3897 83.5157L95.3494 83.4307C95.01 82.7551 94.261 82.1408 93.5343 81.9324C92.8459 81.7349 92.0062 81.9694 91.4027 82.3201C90.7845 82.6793 90.3566 83.5174 90.1883 84.1927C89.9941 84.9714 90.1284 85.897 90.5444 86.5813C90.8781 86.9206 91.2458 87.1719 91.6354 87.4406C91.1479 87.6653 90.3444 87.8241 89.7999 87.863C88.5006 87.9559 86.8474 87.2162 85.8731 86.3622C85.4344 85.9778 84.1655 84.4923 84.1697 83.8838C84.1711 83.6557 84.0307 83.5685 83.8867 83.3955C83.8011 82.9307 83.4842 81.9591 83.5863 81.5345L83.619 81.415C83.613 81.1289 83.5382 80.9753 83.5883 80.6709L83.6925 80.0134C83.8005 79.0401 84.1018 78.0768 84.6841 77.2764C85.7528 75.8071 87.0321 74.9738 88.8295 74.6637Z" fill="#FEFEFE"/>
<path d="M139.837 50.4557C141.811 50.2722 143.933 50.4041 145.917 50.4617L154.27 50.7834L163.029 51.2498C164.619 51.3482 166.283 51.4018 167.856 51.6461L161.695 172.151L95.1778 169.346L99.0847 156.16L102.892 143.557L104.792 136.123L105.518 132.698C105.634 132.163 105.697 131.585 105.9 131.077C106.249 131.083 106.609 131.099 106.953 131.03C110.103 130.401 114.085 128.363 115.848 125.601C116.503 124.575 116.761 123.451 116.445 122.252C116.145 121.116 115.46 120.03 114.83 119.053C113.475 116.953 111.691 114.443 109.502 113.167C109.46 113.142 109.395 113.138 109.374 113.093C109.273 112.877 110.298 107.986 110.395 107.409L114.49 85.1936C115.285 80.3135 116.152 75.4011 115.897 70.4344C115.791 68.3558 115.27 66.118 114.704 64.1139L114.423 63.2514L139.739 62.5214C144.254 62.533 148.853 62.3612 153.306 63.2469C154.209 63.4264 155.406 63.6168 156.11 64.2415C156.332 64.4386 156.63 64.7149 156.739 64.9963C156.91 65.4402 156.789 66.0064 156.72 66.4606L156.171 69.6725C155.098 76.6352 154.665 83.666 154.119 90.6798L152.209 130.013L151.741 145.543C151.577 151.222 151.395 156.889 151.828 162.562C151.886 163.325 151.874 165.248 152.426 165.723C152.638 165.718 152.848 165.774 152.998 165.611C153.172 165.422 153.209 165.283 153.216 165.029C153.275 163.009 152.973 160.917 152.922 158.889L152.943 151.495C152.839 148.566 153.06 145.56 153.089 142.622L153.122 137.236C153.142 136.714 153.094 136.144 153.164 135.631C153.252 134.985 153.206 134.29 153.225 133.636L153.322 129.324L153.58 119.635L154.17 107.216L154.353 102.377L154.964 94.1705L155.592 84.3653L156.714 72.5285L157.25 68.7053C157.389 67.8709 157.599 67.0345 157.673 66.1919C157.718 65.6791 157.726 65.1663 157.52 64.6837C156.83 63.0699 155.191 62.5243 153.631 62.1442C151.166 61.5438 148.486 61.4157 145.959 61.3275L137.264 61.2372L135.035 61.3768L122.071 61.9581L115.64 62.4606C115.476 62.4774 114.206 62.6602 114.157 62.6266C114.111 62.5954 113.98 62.2219 113.958 62.1649C113.732 61.6068 113.51 61.0441 113.24 60.505C111.451 56.9237 108.139 54.6634 104.563 53.11C104.529 52.8318 104.782 52.3618 104.884 52.0935L139.685 50.4762L139.837 50.4557Z" fill="#FEFEFE"/>
<path d="M139.841 103.943C140.928 103.835 142.016 103.925 143.104 103.985C143.737 104.021 144.543 104.004 145.129 104.253C145.352 104.348 145.487 104.51 145.559 104.742C145.711 105.234 145.515 106.23 145.478 106.754C145.267 109.736 145.036 112.75 144.398 115.673C144.258 116.315 144.186 116.988 143.908 117.588C143.386 117.786 142.987 117.845 142.426 117.833C141.133 117.806 139.294 117.735 138.349 116.758C138.094 116.026 138.188 115.142 138.195 114.375L138.531 108.227C138.611 107.159 138.569 105.764 138.906 104.758C139.041 104.354 139.495 104.141 139.841 103.943Z" fill="#767880"/>
<path d="M140.097 105.284L144.346 105.475C144.48 106.865 144.202 108.405 144.028 109.793C143.773 111.837 143.536 113.894 143.114 115.911C143.06 116.098 143.012 116.176 142.904 116.332C141.744 116.378 140.705 116.183 139.589 115.882C139.288 113.162 139.576 110.309 139.82 107.594C139.889 106.832 139.839 106.009 140.097 105.284Z" fill="#FEFEFE"/>
<path d="M142.074 107.098C142.407 107.14 142.592 107.207 142.796 107.486C143.438 108.36 143.143 110.128 143.064 111.15C143.012 111.825 142.998 112.524 142.881 113.19C142.766 113.852 142.444 114.708 141.885 115.114C141.506 115.054 140.975 115.035 140.784 114.643C140.604 114.277 140.631 113.701 140.622 113.299C140.589 111.772 140.76 110.256 141.034 108.756C141.19 107.905 141.352 107.595 142.074 107.098Z" fill="#767880"/>
</g>
<defs>
<clipPath id="clip0_627_576">
<rect width="212" height="212" fill="white"/>
</clipPath>
</defs>
</svg>
