<svg width="213" height="212" viewBox="0 0 213 212" fill="none" xmlns="http://www.w3.org/2000/svg">
<g clip-path="url(#clip0_313_368)">
<path d="M0.382812 0H212.383V212H0.382812V0Z" fill="#FEFEFE"/>
<path d="M28.7808 44.0184C29.7526 43.9629 31.0037 43.8269 31.9565 43.982C32.2484 44.0294 32.4532 44.312 32.6293 44.5254C32.6939 44.8426 32.7906 45.178 32.6803 45.495C32.5718 45.8059 32.3161 45.9072 32.0441 46.0455C31.1766 46.2742 29.7789 46.5473 28.9744 46.0709L28.8463 45.9875C28.7024 45.8968 28.5241 45.807 28.4117 45.6755C28.173 45.3962 28.1709 45.0225 28.2221 44.6668C28.2668 44.354 28.5448 44.1907 28.7808 44.0184Z" fill="#767880"/>
<path d="M36.0468 47.0029C36.4252 47.0597 36.8057 47.1174 37.0519 47.4416C37.372 47.8634 37.2542 49.2281 37.1693 49.7012L37.1424 49.8424L37.0935 50.1012C36.9252 50.8367 36.5136 51.3812 35.8935 51.7853C35.7091 51.7678 35.5453 51.7247 35.3718 51.6618C35.1358 51.5758 34.7545 51.3841 34.6727 51.1326C34.4238 50.3674 34.7545 48.3203 35.1077 47.6093C35.3137 47.194 35.636 47.1361 36.0468 47.0029Z" fill="#767880"/>
<path d="M41.9571 42.2615C42.3672 42.2044 42.7583 42.1744 43.1726 42.212C43.6337 42.2541 43.7606 42.3675 44.049 42.6998C44.1388 43.059 44.2367 43.4526 43.9958 43.7828C43.6134 44.3072 42.0646 44.6022 41.4474 44.767C40.8133 44.907 40.2928 45.0894 39.6493 44.8859C39.4102 44.6534 39.1889 44.4213 39.1369 44.0768C39.0875 43.7482 39.0854 43.4882 39.2957 43.2174C39.7317 42.6561 41.288 42.3806 41.9571 42.2615Z" fill="#767880"/>
<path d="M35.9421 37.3628L36.3055 37.3565C36.7278 37.3536 37.2174 37.4151 37.4949 37.7861C38.0095 38.4751 37.9994 40.1194 37.9224 40.9744C37.8758 41.4893 37.529 41.6936 37.1642 42.0021C37.0348 42.0311 36.9044 42.0653 36.7703 42.0593C36.5189 42.0479 36.1871 41.9458 36.0202 41.7516C35.3494 40.9713 35.1428 39.2529 35.1751 38.2488C35.3573 37.8135 35.5689 37.6429 35.9421 37.3628Z" fill="#767880"/>
<path d="M105.731 23.9184C106.277 23.8962 106.97 23.7633 107.446 24.0337C108.075 24.3902 108.431 24.8152 108.606 25.5237C108.764 26.1609 108.723 26.7495 108.37 27.3099C107.15 29.2515 104.802 28.1273 103 28.5273L102.862 28.5604C102.449 28.6505 102.108 28.7447 101.812 29.0745C101.54 29.3771 101.528 29.6846 101.574 30.069C101.628 30.5226 101.609 31.0077 101.497 31.4528C101.091 33.0758 98.9697 32.8708 97.7842 33.5983C95.8539 34.7834 97.6613 36.5856 97.2068 38.3056L97.1758 38.4147C96.9679 38.89 96.7886 39.1863 96.3926 39.5254C96.2114 39.5016 96.0593 39.4902 95.8953 39.4016C95.7545 39.3254 95.7698 39.2219 95.7278 39.0774C95.868 38.5956 96.1317 37.7356 96.0578 37.2389C95.8818 36.0564 95.1465 34.9686 95.7916 33.7606C96.5139 32.4075 98.2561 32.0963 99.5481 31.6323C99.6548 31.594 100.268 31.3299 100.307 31.2481C100.329 31.2005 100.293 30.8349 100.291 30.7587C100.276 30.2169 100.18 29.4898 100.419 28.9989L100.481 28.8811C100.622 28.5908 100.74 28.343 100.973 28.1099C101.901 27.1781 103.511 27.1598 104.717 27.1886L104.769 27.0696L104.42 26.7184C104.279 26.4893 104.28 25.968 104.316 25.705C104.427 24.904 105.136 24.372 105.731 23.9184Z" fill="#767880"/>
<path d="M106.391 25.3066C106.823 25.3522 106.962 25.3909 107.278 25.6967L107.311 26.2927C107.262 26.7525 106.979 26.9225 106.66 27.2053L106.486 27.2188C106.165 27.0523 106.046 27.0169 105.845 26.7068C105.829 26.0348 105.957 25.8112 106.391 25.3066Z" fill="#FEFEFE"/>
<path d="M63.7459 25.6897C64.3966 25.6243 64.9484 25.7228 65.5838 25.8557C65.9784 26.2358 66.4079 26.499 66.4514 27.0735L66.5771 28.1155C67.147 28.1826 67.7588 28.4556 68.3021 28.6403C69.5579 29.0676 70.8392 29.4796 72.0067 30.1191C73.1356 30.7377 73.9381 31.7011 74.2778 32.9414L74.3257 33.1248C74.7753 34.8065 74.211 36.5369 74.6983 38.1936C75.2136 38.5285 75.5697 38.8894 75.9736 39.3455C75.656 39.6161 75.4364 39.8819 75.018 39.9633C74.4296 39.8281 73.9685 39.1695 73.6068 38.7113C73.4354 38.3598 73.3342 38.0335 73.2601 37.6491L73.2274 37.4725C72.9431 36.0168 73.5199 34.6508 73.0549 33.1548C72.6808 31.9505 72.0177 31.4632 70.9436 30.9255C69.6724 30.2891 68.334 29.9078 66.9953 29.4481C66.7988 29.3806 66.2423 29.113 66.0628 29.1206C66.0343 29.1219 65.7591 29.2922 65.7103 29.3194C65.3424 29.5227 64.967 29.715 64.5629 29.8372C63.8254 30.0601 62.9704 30.0595 62.2866 29.6794C61.8402 29.4314 61.3634 28.9701 61.233 28.4637C61.0767 27.8569 61.1939 27.4348 61.5071 26.907C62.016 26.0491 62.8534 25.9218 63.7459 25.6897Z" fill="#767880"/>
<path d="M63.816 26.5016C64.0173 26.4913 64.1916 26.4842 64.3891 26.5329C64.6479 26.5969 65.0398 26.7312 65.1526 27.0026C65.2586 27.2577 65.2302 27.6974 65.0959 27.9386C64.8431 28.3925 64.252 28.5452 63.7935 28.6871C63.461 28.6895 63.0587 28.7198 62.7484 28.5765C62.4713 28.4486 62.4306 28.3111 62.3047 28.0527C62.3324 27.8239 62.3542 27.5687 62.4666 27.3637C62.7548 26.8383 63.2864 26.682 63.816 26.5016Z" fill="#FEFEFE"/>
<path d="M80.7225 16.2694C81.3955 16.2157 82.1373 16.0846 82.6802 16.5669C83.1671 16.9996 83.6801 17.6488 83.6967 18.3288C83.7182 19.2222 83.4772 20.1175 82.8209 20.7526C82.6609 20.9075 82.6383 20.9203 82.5485 21.1396C82.6859 21.5515 82.942 22.5147 83.293 22.7797C83.5981 23.0103 84.1379 23.1999 84.4915 23.3656C85.6815 23.9229 86.8423 24.5158 87.5501 25.6827C87.9495 26.3408 88.2035 27.1275 88.2634 27.8948C88.3716 29.2887 87.5462 30.1835 86.6593 31.1236C86.1955 31.6153 85.6571 32.1737 85.5028 32.853C85.4639 33.0246 85.3593 33.3737 85.3842 33.5279C85.4084 33.6801 85.6608 33.9728 85.7579 34.0877C86.3837 34.828 87.3897 35.2562 87.8944 36.0752C87.9131 36.4307 87.8116 36.6768 87.6831 37.0048C86.7436 36.7365 86.0082 36.1189 85.2995 35.4684C84.5372 34.7686 84.255 33.9879 84.2289 32.9735C84.1977 31.753 85.0567 30.9319 85.8374 30.1162C86.374 29.5556 87.0775 28.7359 86.9961 27.8975C86.8827 26.7248 86.1121 25.4435 85.0428 24.9293C84.2592 24.5523 83.4551 24.3283 82.7783 23.7506C82.5336 23.5415 82.317 23.2962 82.1696 23.0088C82.0572 22.79 81.6228 21.5122 81.5438 21.4689C81.2525 21.3097 80.8167 21.4663 80.5175 21.2381C80.009 20.8501 79.1461 20.0414 79.1643 19.3444L79.3397 17.96C79.5519 17.2195 80.1039 16.6773 80.7225 16.2694Z" fill="#767880"/>
<path d="M81.4426 17.5957C81.7933 17.692 81.9597 17.7079 82.2065 17.9914C82.3999 18.2134 82.4597 18.4977 82.4313 18.7861C82.3787 19.3236 82.0115 19.6856 81.6328 20.0244L81.4757 20.0145C81.1823 19.9809 81.0523 19.902 80.8811 19.659C80.6873 19.3842 80.5701 18.8648 80.6353 18.5359C80.7314 18.0523 81.0643 17.856 81.4426 17.5957Z" fill="#FEFEFE"/>
<path d="M88.391 41.7559C92.6896 41.4381 96.9791 42.4607 100.663 44.7034C102.029 45.5355 103.404 46.5853 104.357 47.8828C104.827 48.5211 105.097 49.1962 105.343 49.9403C105.358 49.9865 105.503 50.4494 105.509 50.4525C105.605 50.5042 106.625 50.2819 106.845 50.2624L118.639 49.2517L130.5 48.9449L139.42 48.782L147.795 48.9335L153.346 48.9662L158.188 49.3333L164.296 49.6898L168.068 49.8761C168.587 49.9036 169.407 49.8583 169.849 50.1465C170.286 50.4303 170.664 50.8403 171.064 51.1744L173.378 53.0663L178.078 56.7781L181.758 59.9871C182.56 60.69 184.027 61.6655 184.408 62.6415C184.512 62.906 184.553 63.1735 184.528 63.4549L183.446 71.4763L180.629 96.8331L178.297 123.546L176.205 151.009L175.627 161.07L175.425 164.02C175.399 164.378 175.295 164.695 175.372 165.054C175.867 164.918 176.134 164.848 176.614 165.087C176.837 165.379 176.912 165.521 176.968 165.884C176.898 166.059 176.842 166.212 176.701 166.343C176.299 166.717 175.46 167.08 174.915 167.032C173.815 166.934 170.632 169.271 169.527 169.96L165.804 172.227C165.057 172.703 163.932 173.683 163.096 173.827C162.333 173.958 161.417 173.821 160.638 173.814L149.7 173.417L133.492 172.84L117.63 171.969L101.779 171.203L97.6317 170.933C96.8224 170.88 96.0541 170.928 95.2456 170.796L95.0653 170.766L94.107 173.41C93.4244 175.187 92.142 176.996 90.4965 177.99C89.3893 178.658 88.065 179.147 86.8778 179.675L87.3741 183.679C87.453 184.188 87.4503 184.705 87.4627 185.22C88.2022 185.174 88.8525 184.958 89.6127 185.009L89.8231 185.024C92.9087 185.199 95.4893 186.743 97.7807 188.715C98.3234 189.182 98.9169 189.892 99.5871 190.139C99.8738 190.245 100.05 190.303 100.275 190.52C100.524 190.763 100.548 191.04 100.562 191.37L100.344 191.71C99.4432 193.03 96.8663 193.667 95.3552 193.915C92.2052 194.434 83.9531 194.247 81.3565 192.384C80.8497 191.448 81.4383 190.853 81.4441 189.897C81.4511 188.75 81.665 187.485 81.823 186.344C81.871 185.997 82.0944 185.463 82.4149 185.278C82.6548 185.14 82.9411 185.164 83.1914 184.982C83.2258 184.423 82.8701 181.098 82.5902 180.635C82.5815 180.62 82.4652 180.445 82.4149 180.432C82.2401 180.389 81.8644 180.445 81.6725 180.447L79.7901 180.429C78.6339 180.387 77.5925 180.227 76.4584 180.051C75.9675 179.975 75.4154 180.04 74.91 179.986C73.4575 179.83 72.0078 179.571 70.5837 179.25L72.4447 186.005C72.9231 185.862 73.4005 185.675 73.8591 185.941C74.7597 186.465 74.7941 187.585 75.0537 188.488C75.223 189.076 75.5992 190.175 75.4065 190.779C75.3742 190.88 75.1228 191.11 75.1224 191.193C75.1201 191.613 75.5197 191.64 75.3062 192.228C75.1038 192.786 74.3313 193.17 73.8235 193.424C72.6753 193.997 71.2789 194.293 70.0301 194.565C66.5935 195.313 62.9312 195.783 59.4301 195.312C58.5866 195.199 57.6711 195.099 56.866 194.808C56.3788 194.632 56.0927 194.4 55.8642 193.936C55.8457 192.795 56.4202 191.882 57.0496 190.973C58.6984 188.59 62.0718 186.942 64.8712 186.462L67.7475 185.811C67.4349 184.981 67.2502 184.089 67.0095 183.235L65.846 179.004C65.7633 178.667 65.6781 177.519 65.5259 177.322C65.3696 177.119 64.6029 176.769 64.3392 176.609C63.3073 175.984 62.2022 175.352 61.2809 174.568C60.8327 174.186 60.471 173.693 60.1037 173.236C59.386 172.343 58.6669 171.46 58.181 170.409C57.303 168.51 56.8544 166.351 56.3028 164.339C55.389 161.008 54.7538 157.654 54.163 154.252L52.9224 146.804C51.8304 138.585 51.5459 130.246 51.0035 121.979L50.9256 121.964C49.8948 122.595 48.9526 123.352 47.9657 124.048C46.8152 124.86 45.6267 125.597 44.5665 126.532C45.7525 128.087 47.5506 128.965 48.8959 130.348C49.5572 131.027 49.946 131.599 49.8901 132.588C49.8689 132.962 49.6124 133.335 49.3369 133.577C48.9917 133.879 48.5626 133.917 48.1235 133.903L47.9442 133.896C46.491 133.855 44.8807 133.329 43.6259 132.595C42.116 131.712 39.9728 129.854 39.6325 128.051C39.4698 127.189 39.5091 126.234 39.8339 125.409C40.0782 124.789 40.6238 124.131 41.0952 123.661C42.1993 122.559 43.4967 121.595 44.7395 120.657L48.482 117.868C49 117.502 49.5143 116.991 50.0994 116.748C50.229 116.694 50.3582 116.661 50.4629 116.56C50.6014 116.426 50.6911 116.18 50.6983 115.989C50.7184 115.45 50.618 114.878 50.612 114.331L50.3762 106.414L50.3348 89.9952L50.425 84.7791C50.7207 80.3211 51.0474 75.9355 51.7239 71.5129C52.6943 65.1691 54.3534 58.77 58.893 53.9832C59.6404 53.1948 60.623 52.5406 61.5277 51.9454C66.5163 48.6629 72.4875 47.722 78.3579 47.4942C78.5146 47.1182 78.7136 46.8017 78.9645 46.4822C81.2963 43.5155 84.7512 42.2066 88.391 41.7559Z" fill="#767880"/>
<path d="M85.0927 180.009C85.3347 180.167 85.2828 180.239 85.326 180.517L85.6569 183.449C85.7028 183.788 85.7163 184.212 85.8683 184.521C86.0519 184.894 86.0179 185.348 86.0386 185.759C85.8817 186.056 85.5689 186.104 85.2664 186.233C84.9631 186 84.9996 185.51 84.9569 185.149L84.7238 182.353L84.3828 180.273L85.0927 180.009Z" fill="#FEFEFE"/>
<path d="M67.3672 178.082L68.7847 178.723L69.7793 182.777L70.5081 185.303C70.6797 185.833 70.9548 186.402 70.955 186.961C70.6611 187.055 70.3702 187.151 70.0605 187.174C69.7712 187.195 69.6509 187.24 69.4238 187.053C69.4447 186.586 69.4481 186.179 69.3365 185.719L67.8111 179.851L67.3672 178.082Z" fill="#FEFEFE"/>
<path d="M108.632 119.011L109.275 119.496C110.063 120.117 111.433 121.473 111.555 122.459C111.176 123.406 110.084 124.028 109.289 124.617L107.281 125.754L108.632 119.011Z" fill="#FEFEFE"/>
<path d="M50.6005 118.076L50.7715 118.118C50.8251 118.424 51.0268 120.06 50.9069 120.288C50.8404 120.415 49.7986 120.958 49.5931 121.09L47.8347 122.343C46.5839 123.209 45.3133 124.042 44.2291 125.118C43.826 125.518 43.4366 125.907 43.2848 126.473C42.9474 127.733 46.6193 129.974 47.4697 130.845C48.0356 131.424 48.3625 132.056 48.7316 132.768L46.9917 132.459C46.1988 132.261 45.5932 132.071 44.9034 131.622C44.2463 131.195 43.6989 130.673 43.1304 130.138C42.324 129.379 41.5095 128.732 41.2764 127.59L41.2449 127.428C41.201 127.211 41.1534 127.008 41.1791 126.785C41.2294 126.347 41.4124 125.771 41.6611 125.405C42.4822 124.196 43.7575 123.317 44.8995 122.433L50.6005 118.076Z" fill="#FEFEFE"/>
<path d="M109.296 114.703C110.117 115.158 110.703 115.703 111.354 116.375C112.439 117.493 115.682 121.575 115.552 123.112L115.523 123.287C115.525 123.672 115.555 123.875 115.415 124.255C114.525 126.661 110.235 128.781 108.026 129.843L106.438 130.384L106.864 128.223C106.895 128.092 106.943 127.726 107.012 127.625C107.039 127.585 107.443 127.436 107.504 127.409C108.153 127.123 108.818 126.845 109.442 126.508C110.567 125.902 111.994 124.859 112.752 123.822C113.136 123.298 113.25 122.661 113.116 122.034C112.754 120.329 110.379 118.341 108.966 117.42L108.848 117.344L109.296 114.703Z" fill="#FEFEFE"/>
<path d="M88.7366 186.378C89.2662 186.359 89.8044 186.315 90.3324 186.367C89.8579 186.715 89.2403 187.086 88.8844 187.558C88.4939 188.076 88.1604 188.904 88.2304 189.558C88.484 189.758 88.4695 189.797 88.7846 189.761C89.0005 189.617 89.1767 189.508 89.3119 189.279C89.8928 188.297 90.7624 187.31 91.7464 186.732L92.1489 186.85C94.0169 187.402 96.3729 189.002 97.5402 190.549L96.6644 190.713L95.1922 190.957L90.392 191.416C88.36 191.453 86.3352 191.379 84.3334 190.996C83.8962 190.912 83.3293 190.883 83.0078 190.572C83.1337 190.219 83.0142 190.001 83.0146 189.644C83.0151 189.07 83.1146 188.503 83.1618 187.933C83.202 187.447 83.1285 187.076 83.4018 186.644L83.5571 186.675C83.6529 187.062 83.7467 187.588 84.1119 187.821C85.233 188.534 87.3333 186.604 88.4772 186.412L88.7366 186.378Z" fill="#FEFEFE"/>
<path d="M67.3632 187.407L67.8234 187.386C67.8667 187.503 67.9037 187.62 67.9729 187.726C68.2112 188.091 68.6911 188.247 69.0958 188.314C70.6131 188.564 72.0282 188.142 73.2491 187.243L73.6834 189.9C73.7219 190.201 73.8227 190.511 73.7675 190.811C69.4215 192.171 64.731 192.634 60.1976 192.668L57.8281 192.587L58.0116 192.221C58.2225 191.791 58.4803 191.452 58.7964 191.094C59.816 189.942 61.4967 188.794 62.995 188.386C63.3109 188.3 63.6233 188.324 63.9415 188.28C65.8864 188.011 65.3649 191.044 66.6847 191.801C67.0288 191.786 67.1445 191.824 67.4201 191.605L66.9474 189.434C66.7771 188.654 66.6458 188.163 65.939 187.723L65.8125 187.647C66.3005 187.503 66.8578 187.475 67.3632 187.407Z" fill="#FEFEFE"/>
<path d="M89.4811 43.2126C92.8327 43.0395 96.5684 44.0504 99.4994 45.6589C101.437 46.7222 103.154 48.0867 103.734 50.305C103.934 51.0713 103.501 51.9081 103.138 52.5592L96.6595 50.3647C92.1878 49.1161 87.4288 47.8954 82.7822 47.565L79.9531 47.495C80.1577 47.1942 80.3678 46.9072 80.6206 46.6447C82.9174 44.2606 86.2411 43.2815 89.4811 43.2126Z" fill="#FEFEFE"/>
<path d="M169.891 52.498L182.679 63.38L173.591 165.52C172.858 165.842 172.177 166.325 171.499 166.751L163.539 171.666L164.144 158.327L164.768 139.229L165.049 129.188C165.098 128.051 164.982 126.761 165.17 125.65C165.238 125.25 165.176 124.868 165.192 124.465L165.288 120.648L165.706 110.61L166.811 88.5149L167.93 71.8215L169.139 58.5742L169.891 52.498Z" fill="#FEFEFE"/>
<path d="M169.748 162.44L170.458 162.379C170.689 162.602 170.653 162.828 170.694 163.141C170.412 163.507 169.978 163.68 169.576 163.891C169.169 163.874 168.994 163.839 168.688 163.555L168.701 163.193C169.014 162.827 169.328 162.657 169.748 162.44Z" fill="#767880"/>
<path d="M169.227 139.457C169.665 139.44 170.108 139.355 170.481 139.621C170.613 139.886 170.663 139.898 170.581 140.177C170.23 140.411 169.963 140.489 169.547 140.546C169.328 140.549 169.126 140.545 168.915 140.616L168.802 140.663C168.398 140.54 168.188 140.519 167.891 140.212L167.983 139.901C168.317 139.598 168.798 139.554 169.227 139.457Z" fill="#767880"/>
<path d="M169.778 127.97L171.236 127.943C171.54 127.996 171.643 128.17 171.796 128.411L171.711 128.67C171.453 128.923 171.239 128.928 170.899 128.967L168.855 128.979C168.629 128.802 168.655 128.804 168.617 128.515C168.957 128.208 169.352 128.11 169.778 127.97Z" fill="#767880"/>
<path d="M170.273 134.086C170.68 134.068 171.258 133.973 171.64 134.11C171.808 134.17 171.789 134.263 171.843 134.415L171.731 134.622C171.243 134.894 170.714 134.996 170.176 135.127C169.688 135.217 169.251 135.304 168.752 135.265L168.57 135.036C168.589 134.812 168.604 134.671 168.744 134.493C168.984 134.188 169.875 134.143 170.273 134.086Z" fill="#767880"/>
<path d="M172.106 144.287L172.478 144.271L172.623 144.405L172.599 144.891C171.676 145.686 170.511 146.104 169.343 146.378C169.072 146.365 169.028 146.375 168.812 146.216L168.832 146.132C169.092 145.443 171.416 144.584 172.106 144.287Z" fill="#767880"/>
<path d="M170.64 113.684C171.373 113.624 172.678 113.493 173.266 113.971C173.287 114.313 173.234 114.424 173.068 114.709C172.696 115.003 171.934 114.904 171.469 114.908C171.24 114.936 171 114.931 170.77 114.929L169.372 114.997C169.119 114.791 169.13 114.813 169.094 114.488C169.498 113.939 170.004 113.827 170.64 113.684Z" fill="#767880"/>
<path d="M171.114 150.659C171.401 150.678 171.716 150.655 171.96 150.823C172.06 151.104 172.127 151.174 172.034 151.466C171.708 151.654 171.34 151.684 170.977 151.757C170.184 151.918 169.411 152.066 168.606 152.159C168.211 152.117 167.832 152.12 167.509 151.862C167.467 151.604 167.452 151.561 167.552 151.324C168.617 150.753 169.938 150.74 171.114 150.659Z" fill="#767880"/>
<path d="M171.534 156.539C171.741 156.53 171.865 156.551 172.059 156.622C172.143 156.879 172.135 156.904 172.059 157.165C171.392 157.7 170.415 157.858 169.627 158.169C168.963 158.432 168.313 158.783 167.667 159.088C167.324 158.965 167.147 158.882 166.938 158.586L166.998 158.476C167.467 157.84 170.627 156.664 171.534 156.539Z" fill="#767880"/>
<path d="M171.977 98.3831L172.194 98.3649C173.161 98.3377 175.466 98.6584 176.14 99.3911C176.311 99.5772 176.257 99.6048 176.25 99.8408C175.974 100.111 175.981 100.091 175.592 100.107C175.1 99.8855 174.6 99.6863 174.07 99.5779C173.199 99.4 171.625 99.5499 170.922 99.0526L170.883 98.7539L171.113 98.4835L171.977 98.3831Z" fill="#767880"/>
<path d="M170.373 106.419C170.828 106.345 171.286 106.419 171.74 106.477C172.57 106.581 173.933 106.88 174.468 107.569C174.439 107.961 174.272 108.02 173.995 108.286L172.055 107.815C171.398 107.673 170.579 107.635 170.022 107.216C169.844 107.082 169.889 107.08 169.867 106.88L170.373 106.419Z" fill="#767880"/>
<path d="M172.097 79.1953C173.014 79.3106 173.941 79.6288 174.855 79.8127C175.745 79.9918 178.218 80.3758 178.69 81.2449C178.779 81.4085 178.664 81.5165 178.595 81.6693L178.299 81.6637C177.455 81.623 176.451 81.0845 175.618 80.8462C174.756 80.5996 173.808 80.4955 172.976 80.1735C172.676 80.0574 172.328 79.8754 172.128 79.6179C172.016 79.4732 172.077 79.3638 172.097 79.1953Z" fill="#767880"/>
<path d="M170.352 85.7033L170.621 85.6934C172.274 85.7023 174.096 86.0292 175.68 86.4915C176.229 86.6519 176.783 86.8039 177.203 87.2121L177.144 87.6132C177.023 87.6378 176.787 87.7206 176.673 87.7086C176.2 87.6595 175.577 87.3014 175.076 87.1836C173.889 86.9043 172.683 86.8095 171.499 86.5534C171.249 86.4993 170.851 86.4685 170.646 86.3236C170.377 86.1339 170.406 86.0016 170.352 85.7033Z" fill="#767880"/>
<path d="M169.973 120.229L171.007 120.197C171.699 120.187 172.464 120.027 172.994 120.544C173.044 120.684 173.18 120.917 173.108 121.054C172.881 121.483 172.335 121.592 171.906 121.688C171.337 121.737 170.801 121.786 170.229 121.751C169.692 121.717 169.338 121.698 168.961 121.273C168.975 121.09 168.983 120.908 169.069 120.74C169.25 120.388 169.62 120.303 169.973 120.229Z" fill="#767880"/>
<path d="M171.01 91.5381C172.371 91.6184 173.525 91.9958 174.826 92.3428C175.343 92.4805 176.042 92.5614 176.457 92.9049C176.459 93.2856 176.456 93.3248 176.25 93.6428C175.34 93.5552 171.195 92.7378 170.713 92.1387C170.6 91.9987 170.665 91.8921 170.688 91.73L171.01 91.5381Z" fill="#767880"/>
<path d="M171.547 66.7891C171.99 66.9154 172.41 67.2832 172.807 67.5213C173.557 67.9702 174.344 68.3962 175.15 68.7358C175.699 68.9672 176.848 69.178 177.223 69.5703C177.346 69.6997 177.242 70.2933 177.227 70.4912C176.921 70.5123 176.602 70.5332 176.297 70.4862C174.722 70.2438 172.524 68.954 171.608 67.6414C171.372 67.3042 171.474 67.1623 171.547 66.7891Z" fill="#767880"/>
<path d="M171.016 72.213C171.226 72.2095 171.449 72.2112 171.653 72.264C172.075 72.3727 172.503 72.6149 172.916 72.7635C174.695 73.4033 176.217 73.9548 177.756 75.0852C178.065 75.3123 178.452 75.5363 178.639 75.8767L178.417 76.4671L178.229 76.4841C177.779 76.4729 177.325 76.163 176.943 75.9464C176.239 75.5469 175.544 75.1425 174.807 74.8055C173.759 74.3266 172.476 74.1558 171.608 73.3755C171.161 72.9741 171.045 72.8012 171.016 72.213Z" fill="#767880"/>
<path d="M76.3705 49.2103C77.4815 49.0865 78.615 49.1525 79.7309 49.1697C84.6178 49.2449 89.3729 50.1537 94.092 51.3814C95.9035 51.8526 97.7393 52.3062 99.4906 52.9762C102.787 54.2372 106.641 55.9117 108.149 59.3625C109.034 61.3889 109.235 63.0719 109.359 65.2664C109.396 65.9241 109.491 66.5775 109.435 67.2365C109.42 67.4038 109.385 67.5032 109.454 67.6593C109.604 67.998 109.45 68.5383 109.496 68.9213C109.513 69.0638 109.552 69.1687 109.514 69.3132C109.443 69.5789 109.395 70.1157 109.51 70.367L109.557 70.4422C109.372 70.8212 109.483 71.4036 109.461 71.8274L109.244 76.1188C109.207 76.7144 109.23 77.3473 109.137 77.9344C108.837 79.8302 108.828 81.8287 108.636 83.7439L107.076 97.3045L105.221 108.013L101.112 129.601C98.6579 141.255 96.459 153.151 92.0848 164.265C91.2271 166.444 90.369 168.635 89.2421 170.691C88.0442 172.878 86.271 175.141 83.7949 175.863C82.992 176.13 82.2202 176.462 81.3935 176.653C80.3851 176.885 79.3359 176.96 78.3061 177.048C75.4095 177.297 72.5268 177.186 69.6615 176.674C66.4183 176.094 62.5999 174.217 60.7078 171.469C59.0894 169.118 58.5129 166.271 57.8054 163.554C55.9527 156.442 54.7447 149.012 54.0402 141.695L53.4178 132.755L52.4673 118.245L51.9698 101.62C51.8373 96.413 51.703 91.1706 51.9928 85.9695C52.0371 85.1762 51.9336 84.2362 52.0883 83.4644C52.2833 82.4922 52.1711 81.3916 52.3083 80.3973C52.4425 79.4263 52.4402 78.4495 52.5535 77.4756C53.4145 70.0749 54.4201 62.3541 59.0785 56.2498C59.9935 55.0506 61.1451 54.1349 62.392 53.3118C63.1297 52.8248 63.8597 52.2903 64.6536 51.8984C68.2129 50.1421 72.4931 49.7335 76.3705 49.2103Z" fill="#FEFEFE"/>
<path d="M78.9906 135.004L79.4529 135.222C79.448 135.548 79.7124 136.078 79.9101 136.333C80.1229 136.608 80.4794 136.848 80.8365 136.847C81.776 136.846 82.1183 136.557 82.8118 135.968L82.9398 136.017C83.1048 136.504 83.129 136.735 82.929 137.202L82.71 137.408C82.3996 137.676 81.8357 138.089 81.4019 138.028L81.2835 138.004C80.8017 138.001 80.5293 138.091 80.0643 137.839C79.501 137.533 78.8532 136.898 78.7068 136.256C78.5718 135.664 78.6728 135.479 78.9906 135.004Z" fill="#767880"/>
<path d="M92.1971 115.76C92.8314 115.983 93.091 116.456 93.4751 116.973C93.8695 117.079 94.4195 117.294 94.8239 117.278C95.4738 117.25 96.4383 116.865 96.8826 116.39C97.0037 116.26 97.1339 116.156 97.271 116.043C97.4919 116.151 97.5478 116.301 97.6631 116.507C97.6399 116.844 97.478 117.025 97.2842 117.284L96.5981 117.859C95.9768 118.304 95.1483 118.601 94.3784 118.469L94.269 118.449C93.8028 118.366 93.3432 118.256 92.9295 118.015C92.3975 117.706 91.9604 117.317 91.7969 116.714C91.8596 116.331 91.9958 116.088 92.1971 115.76Z" fill="#767880"/>
<path d="M55.4118 117.943C55.5578 117.961 55.877 117.993 55.9812 118.108C56.1246 118.267 56.2433 118.65 56.3288 118.849C56.5884 119.451 56.9447 119.994 57.5296 120.319C58.9684 121.118 59.7355 120.562 61.1478 120.198L61.3462 120.337C61.4201 120.705 61.307 120.812 61.147 121.143C60.9812 121.277 60.8114 121.411 60.6185 121.504C59.8009 121.894 58.4935 122.033 57.6368 121.695C56.6265 121.295 55.7652 120.536 55.365 119.509C55.1309 118.908 55.1773 118.522 55.4118 117.943Z" fill="#767880"/>
<path d="M91.6357 155.875C91.8491 156.02 91.9702 156.084 92.0249 156.36C92.08 156.638 92.0106 156.849 91.8382 157.062C91.1856 157.868 89.8353 158.348 88.8126 158.468C87.9853 158.566 87.1833 158.425 86.5369 157.889L86.3438 157.509C86.363 157.142 86.374 156.813 86.497 156.464C86.7516 156.227 86.8841 156.125 87.2317 156.074C87.4429 156.13 87.8228 156.22 87.9137 156.454C88.0104 156.704 87.8944 156.776 88.0598 157.048C89.5834 157.056 90.374 156.701 91.6357 155.875Z" fill="#767880"/>
<path d="M57.3582 91.834C57.5419 91.8623 57.6485 92.0282 57.7791 92.1574C57.9391 93.0259 56.687 93.3668 56.6918 94.4579C56.6934 94.8461 56.7427 95.3419 56.9059 95.7001C57.1547 96.2473 57.806 97.0773 57.7327 97.6669C57.5162 97.9946 57.3489 97.981 56.9823 98.0977C56.156 97.3385 55.6958 96.3386 55.3664 95.2835C55.1492 94.5883 55.3747 93.3586 55.7372 92.7476C56.0634 92.1975 56.7709 91.9545 57.3582 91.834Z" fill="#767880"/>
<path d="M59.3848 144.856C60.1672 144.968 60.3262 145.748 60.8351 146.269C62.3363 147.804 63.642 146.775 65.373 146.838C65.6281 146.847 65.6123 146.857 65.7833 147.044C65.7279 147.423 65.4457 147.624 65.1828 147.876C64.4362 148.401 63.4445 148.618 62.547 148.487L62.3406 148.455C61.8754 148.387 61.4376 148.279 61.0144 148.065C60.2229 147.666 59.395 146.632 59.1656 145.762C59.0542 145.34 59.1867 145.228 59.3848 144.856Z" fill="#767880"/>
<path d="M103.147 93.6289C103.504 93.7535 103.745 93.7711 103.961 94.1088C104.519 94.9775 104.468 96.5371 104.267 97.5105C104.006 98.7672 103.363 99.8102 102.286 100.504L101.826 100.595L101.567 100.418C101.286 99.2879 102.747 98.4757 102.925 97.3385C102.947 97.1985 102.955 97.0729 103 96.9375C103.147 96.4886 103.008 95.474 102.9 94.987L102.867 94.8556C102.744 94.3419 102.876 94.067 103.147 93.6289Z" fill="#767880"/>
<path d="M73.0156 161.79L73.4001 161.776C74.5733 161.815 74.4212 162.615 75.0534 163.289C75.5503 163.819 76.2434 164.066 76.9612 164.074L77.0873 164.075C77.6482 164.101 78.1105 164.129 78.6539 163.944C79.1346 163.781 79.546 163.486 80.0375 163.348C80.2832 163.517 80.3598 163.545 80.477 163.814L80.1652 164.48C79.8205 164.715 79.3052 164.98 78.8961 165.069C78.6032 165.132 78.1481 165.303 77.861 165.241L77.7602 165.217C76.8426 165.263 75.8931 165.247 75.054 164.769C73.9423 164.137 73.3446 162.978 73.0156 161.79Z" fill="#767880"/>
<path d="M67.5013 61.8486C68.1918 61.907 69.1977 62.0786 69.6476 62.6639C69.8675 62.9502 69.9526 63.4635 69.8501 63.8105C69.7783 64.0535 69.4926 64.3361 69.2725 64.4529C68.9253 64.6371 68.176 64.4802 67.7978 64.373C67.4293 64.2686 67.1179 64.3233 66.7569 64.4413C65.5913 64.8222 64.9087 66.441 64.3522 67.4379C64.1725 67.6554 64.0153 67.8612 63.7385 67.9583C63.4383 68.0635 63.0141 68.0144 62.7357 67.8687C62.4554 67.7221 62.208 67.5087 62.1614 67.182C62.0367 66.3106 62.4941 65.4802 62.98 64.792C63.6973 63.7761 64.6909 62.7254 65.854 62.2331C66.3674 62.0159 66.9542 61.9422 67.5013 61.8486Z" fill="#767880"/>
<path d="M90.1176 62.2192C90.439 62.199 90.8727 62.1273 91.1758 62.229C91.488 62.3337 91.7921 62.7745 91.9339 63.0668C92.8213 64.8957 94.1237 66.4947 96.1203 67.1994C96.5977 67.3679 97.3314 67.4869 97.6923 67.8548C98.0722 68.2422 98.0264 68.7078 97.9815 69.2005C97.7745 69.5597 97.5581 69.6935 97.206 69.903C96.9669 69.9612 96.7168 69.9798 96.471 69.9593C94.5968 69.8018 92.4345 68.0412 91.2429 66.6657C90.5526 65.8688 89.2669 64.3481 89.3823 63.2472C89.4392 62.7025 89.6961 62.5482 90.1176 62.2192Z" fill="#767880"/>
<path d="M74.9136 92.4694L75.7425 92.458C76.2454 92.4855 76.5398 92.5688 76.8746 92.957C76.8559 93.3402 76.8505 93.3756 76.6226 93.6826L75.6392 93.7145C74.9504 93.6557 74.4339 93.7621 73.7956 94.0439L73.7759 94.1747L74.1382 94.2097C74.3587 94.2298 74.6684 94.2229 74.8604 94.3436C75.4676 94.7252 74.949 95.4415 75.0202 95.9589C75.0661 96.2928 75.1603 96.4156 75.4322 96.5841C75.6293 96.3492 75.9527 95.7929 75.9671 95.4705L75.9587 95.1825C75.9974 94.8981 76.2808 94.6153 76.4944 94.4486L83.4089 94.7525L83.5919 94.7685L85.8817 94.9937C86.2889 95.02 86.7384 94.9498 87.1288 95.0252C88.1489 95.2223 89.1592 95.2268 90.1778 95.3581L96.8554 96.309C97.6309 96.4245 99.3853 96.4777 99.9871 96.9709C100.203 97.1477 100.314 97.4439 100.28 97.7187C100.247 97.9926 100.111 98.1122 99.9136 98.2857C99.5172 98.4062 99.0799 98.388 98.6714 98.3315C97.2237 98.1315 95.7833 97.7332 94.3331 97.5073L85.5051 96.4361L77.5584 95.8593C77.2816 96.226 77.1499 96.6812 76.8648 97.0466C76.463 97.5615 75.7692 98.2717 75.0926 98.3286C74.863 98.3478 74.5376 98.216 74.3802 98.0321C73.9573 97.5381 73.6788 96.5599 73.703 95.9303L73.7082 95.8395C73.518 95.7508 73.5652 95.7481 73.3958 95.7368C73.277 95.7287 72.4874 95.6742 72.4317 95.7117C72.3433 95.7718 72.1609 96.12 72.1012 96.2154C71.7799 96.7299 71.5919 97.2715 71.3951 97.8423C71.2659 98.2172 71.1959 98.6112 70.8775 98.872C70.4858 98.8631 70.379 98.8714 70.0289 98.6696C69.6583 97.998 70.2496 96.9974 70.5361 96.3804C70.6052 96.2316 70.7419 96.0517 70.7001 95.8908L60.2671 96.2374C59.8729 96.204 59.669 96.0076 59.4297 95.7156C59.4402 95.6138 59.4467 95.4359 59.493 95.3378C59.8433 94.5995 61.4232 94.7209 62.1437 94.6759C62.3849 94.6608 62.612 94.5824 62.855 94.5807C63.4045 94.5768 64.2713 94.8215 64.7701 94.6478C65.1193 94.526 65.5386 94.5641 65.9083 94.555C66.6952 94.5358 67.5052 94.5358 68.2877 94.4588C69.1188 94.377 69.9997 94.4882 70.8437 94.4764C70.9249 94.4753 71.3093 94.5006 71.376 94.4679C71.5594 94.378 71.8714 93.9679 72.0439 93.8151C72.5141 93.3992 73.0403 93.0555 73.6144 92.8017C74.0289 92.6185 74.4697 92.5464 74.9136 92.4694Z" fill="#767880"/>
<path d="M67.2314 73.2203C69.0059 73.1245 70.5901 73.3723 72.1217 74.3213C73.6645 75.2774 75.0094 77.2993 75.4021 79.053C75.5651 79.7805 75.6541 80.4076 75.6475 81.1559C75.6354 82.5028 75.0336 84.2638 74.3001 85.3952C73.0643 87.301 71.3313 88.4276 69.1158 88.8951C67.2844 89.1916 65.6348 88.8721 64.0885 87.8554C62.3064 86.6836 61.1522 84.6251 60.7621 82.5624L60.7354 82.398L60.6861 82.1007C60.4582 79.7764 61.0886 77.6527 62.5285 75.8248C63.738 74.2897 65.3162 73.4727 67.2314 73.2203Z" fill="#767880"/>
<path d="M66.8713 74.64C67.6879 74.6181 68.9369 74.4665 69.6967 74.7711L69.8425 74.834L70.9347 75.3375C72.5123 76.1907 73.5119 77.6478 73.9974 79.3423C74.5174 81.1574 74.0319 83.0888 73.1363 84.6993C72.955 84.1691 72.7365 83.3169 72.2954 82.948C71.784 82.5201 71.2296 82.2944 70.564 82.3321L70.4118 82.3426C69.9491 82.3683 69.6472 82.4652 69.2609 82.735C68.4605 83.2944 68.0717 83.8778 67.9224 84.8446L67.9013 84.9875C67.8786 85.1694 67.8583 85.3359 67.8777 85.5197L67.9036 85.699L67.9305 85.9054C68.04 86.6151 68.6955 87.0019 69.2272 87.3878C68.2831 87.6689 66.4952 87.4809 65.6147 87.0329C63.9241 86.1731 62.668 84.4388 62.2175 82.6163C62.1709 82.4279 61.9806 82.0002 61.9933 81.829C62.0163 81.5199 62.098 81.575 61.9844 81.2079C62.0351 81.0301 62.062 80.8893 62.0711 80.7032C62.1138 79.8303 62.3409 78.8016 62.7338 78.026C63.6297 76.2586 65.012 75.2342 66.8713 74.64Z" fill="#FEFEFE"/>
<path d="M88.8046 73.3058C90.4635 72.9781 92.6172 73.5046 94.059 74.3122C95.6482 75.2022 96.904 76.739 97.3877 78.5075C97.5253 79.0108 97.5605 79.5429 97.7131 80.0381L97.7566 80.1731C97.5831 80.6333 97.7079 81.3794 97.6885 81.8811C97.6448 83.0135 97.0926 84.2124 96.5508 85.1936C95.4631 87.1631 93.824 88.5953 91.6471 89.2381C90.025 89.6191 88.1251 89.3265 86.7088 88.457C84.4122 87.0471 83.2669 85.0764 82.6913 82.4901C82.2143 80.348 82.976 77.8334 84.1341 76.0324C85.1329 74.4793 87.0626 73.6816 88.8046 73.3058Z" fill="#767880"/>
<path d="M89.2086 74.6636C89.7711 74.6441 90.4889 74.5447 91.0272 74.7101C91.1568 74.7501 91.2584 74.7907 91.3947 74.8056C92.6544 74.9433 94.2585 76.0366 95.0399 77.0254C95.9719 78.205 96.4655 80.266 96.2715 81.7345L96.2079 82.2765C96.1628 82.697 96.1206 83.2324 95.7688 83.5156L95.7284 83.4305C95.3891 82.755 94.6401 82.1407 93.9134 81.9322C93.225 81.7347 92.3853 81.9693 91.7818 82.32C91.1636 82.6792 90.7357 83.5172 90.5674 84.1926C90.3732 84.9712 90.5075 85.8969 90.9235 86.5811C91.2572 86.9204 91.6249 87.1718 92.0145 87.4405C91.5269 87.6651 90.7235 87.8239 90.179 87.8628C88.8796 87.9558 87.2265 87.2161 86.2522 86.3621C85.8135 85.9776 84.5446 84.4922 84.5488 83.8837C84.5502 83.6555 84.4098 83.5684 84.2657 83.3953C84.1802 82.9305 83.8633 81.9589 83.9653 81.5343L83.998 81.4148C83.992 81.1287 83.9173 80.9751 83.9674 80.6708L84.0715 80.0132C84.1796 79.04 84.4809 78.0767 85.0632 77.2763C86.1319 75.807 87.4112 74.9737 89.2086 74.6636Z" fill="#FEFEFE"/>
<path d="M140.221 50.4552C142.195 50.2718 144.318 50.4037 146.301 50.4612L154.655 50.783L163.413 51.2494C165.003 51.3477 166.668 51.4014 168.241 51.6457L162.08 172.15L95.5625 169.345L99.4694 156.16L103.277 143.557L105.176 136.123L105.902 132.698C106.019 132.163 106.082 131.585 106.285 131.076C106.634 131.083 106.994 131.099 107.338 131.03C110.487 130.401 114.469 128.362 116.232 125.601C116.887 124.575 117.146 123.45 116.83 122.252C116.53 121.116 115.845 120.029 115.215 119.053C113.86 116.953 112.076 114.442 109.887 113.167C109.844 113.142 109.779 113.138 109.759 113.093C109.658 112.877 110.683 107.986 110.78 107.408L114.874 85.1932C115.669 80.3131 116.537 75.4006 116.282 70.4339C116.176 68.3554 115.654 66.1176 115.088 64.1135L114.808 63.251L140.124 62.521C144.639 62.5326 149.238 62.3608 153.691 63.2464C154.593 63.4259 155.791 63.6164 156.494 64.241C156.716 64.4381 157.015 64.7145 157.123 64.9959C157.294 65.4397 157.174 66.006 157.105 66.4602L156.556 69.6721C155.482 76.6347 155.05 83.6655 154.504 90.6793L152.594 130.013L152.126 145.543C151.962 151.221 151.78 156.888 152.212 162.561C152.271 163.325 152.259 165.247 152.811 165.723C153.023 165.718 153.232 165.773 153.383 165.61C153.557 165.422 153.594 165.283 153.601 165.029C153.659 163.009 153.358 160.916 153.306 158.889L153.327 151.495C153.224 148.566 153.445 145.56 153.474 142.622L153.506 137.235C153.527 136.714 153.479 136.143 153.549 135.631C153.637 134.984 153.59 134.29 153.609 133.635L153.706 129.324L153.965 119.634L154.554 107.216L154.738 102.377L155.349 94.1701L155.976 84.3649L157.098 72.5281L157.635 68.7048C157.773 67.8705 157.984 67.0341 158.058 66.1915C158.103 65.6786 158.111 65.1658 157.904 64.6832C157.214 63.0694 155.576 62.5239 154.016 62.1438C151.551 61.5434 148.87 61.4153 146.343 61.3271L137.649 61.2368L135.42 61.3763L122.455 61.9577L116.025 62.4601C115.86 62.4769 114.591 62.6597 114.542 62.6262C114.496 62.5949 114.365 62.2214 114.342 62.1645C114.117 61.6063 113.894 61.0436 113.625 60.5045C111.836 56.9233 108.523 54.6629 104.948 53.1096C104.913 52.8313 105.167 52.3614 105.269 52.0931L140.07 50.4757L140.221 50.4552Z" fill="#FEFEFE"/>
<path d="M140.224 103.943C141.311 103.835 142.399 103.925 143.486 103.985C144.119 104.021 144.925 104.004 145.512 104.253C145.735 104.348 145.87 104.51 145.941 104.742C146.094 105.234 145.897 106.23 145.86 106.754C145.65 109.736 145.419 112.75 144.781 115.674C144.64 116.316 144.568 116.988 144.29 117.588C143.768 117.786 143.37 117.845 142.808 117.833C141.515 117.806 139.676 117.735 138.732 116.758C138.476 116.026 138.57 115.142 138.577 114.375L138.914 108.227C138.993 107.159 138.951 105.764 139.288 104.758C139.423 104.354 139.877 104.141 140.224 103.943Z" fill="#767880"/>
<path d="M140.481 105.283L144.729 105.475C144.864 106.865 144.586 108.405 144.412 109.792C144.157 111.836 143.92 113.893 143.498 115.911C143.444 116.098 143.396 116.176 143.287 116.332C142.128 116.377 141.089 116.183 139.973 115.881C139.672 113.162 139.96 110.309 140.204 107.594C140.273 106.832 140.223 106.008 140.481 105.283Z" fill="#FEFEFE"/>
<path d="M142.457 107.099C142.789 107.14 142.974 107.208 143.178 107.487C143.82 108.361 143.525 110.129 143.446 111.15C143.394 111.825 143.38 112.524 143.264 113.19C143.148 113.853 142.826 114.709 142.267 115.115C141.888 115.054 141.358 115.035 141.166 114.644C140.986 114.277 141.013 113.702 141.004 113.299C140.971 111.773 141.142 110.256 141.416 108.756C141.572 107.905 141.734 107.595 142.457 107.099Z" fill="#767880"/>
</g>
<defs>
<clipPath id="clip0_313_368">
<rect width="212" height="212" fill="white" transform="translate(0.382812)"/>
</clipPath>
</defs>
</svg>
