<svg width="311" height="311" viewBox="0 0 311 311" fill="none" xmlns="http://www.w3.org/2000/svg">
<g clip-path="url(#clip0_388_2)">
<path d="M0 0H311V311H0V0Z" fill="#FEFEFE"/>
<path d="M263.709 185.234L264.385 185.268C264.758 185.334 264.988 185.448 265.168 185.795C265.268 185.989 265.285 186.098 265.281 186.326C265.273 186.757 265.042 187.345 264.929 187.766L264.198 190.617L258.309 212.749L256.021 219.886C255.797 220.569 255.592 221.05 255.147 221.621L253.982 221.526C253.612 221.186 253.487 221.013 253.463 220.494C253.43 219.805 253.902 218.762 254.117 218.105L255.803 212.853L260.949 194.192L262.302 188.908C262.563 187.875 262.737 186.31 263.457 185.496L263.709 185.234Z" fill="#767880"/>
<path d="M29.7679 128.457C30.2324 128.465 30.612 128.388 30.998 128.697C31.6987 129.26 32.4352 135.979 32.7462 137.581L37.2933 159.107L39.2614 167.986C39.4898 169.02 39.9414 170.245 39.9903 171.293C40.0246 172.028 39.7437 172.179 39.2705 172.677C38.7435 172.682 38.4933 172.639 38.0408 172.363C37.6137 171.836 37.5609 170.916 37.4297 170.26L36.5432 166.025L32.7158 149.178L31.135 140.922C30.3915 137.259 29.5715 133.493 29.1643 129.777C29.1005 129.195 29.4278 128.884 29.7679 128.457Z" fill="#767880"/>
<path d="M43.8613 188.098L44.7934 188.121C45.2596 188.201 45.4157 188.474 45.6745 188.832C45.7146 190.937 46.3059 193.29 46.763 195.35L47.9815 201.126L51.025 214.724L54.3755 227.148C54.777 228.686 55.3246 230.201 55.8163 231.713C56.0641 232.474 56.4547 233.358 56.4951 234.161C56.5303 234.853 56.2849 234.961 55.8376 235.446C55.549 235.444 55.2183 235.467 54.9583 235.314C54.1337 234.829 53.6019 232.174 53.3219 231.266L48.6642 214.507L44.4533 195.275C44.0949 193.4 43.4471 191.216 43.3526 189.329C43.331 188.898 43.6463 188.453 43.8613 188.098Z" fill="#767880"/>
<path d="M231.194 259.506C232.182 259.47 233.031 259.554 233.978 259.845C239.914 261.667 247.15 265.523 249.982 271.326C251.469 274.374 252.046 278.134 250.927 281.389C248.498 288.451 239.594 292.226 233.418 295.193C233.161 295.27 232.906 295.31 232.642 295.356C232.206 295.143 232.057 294.985 231.774 294.59C231.74 294.297 231.691 294.027 231.768 293.737C231.899 293.247 232.136 293.042 232.566 292.783C233.294 292.345 234.249 292.069 235.031 291.709C237.098 290.757 239.206 289.747 241.129 288.53C244.758 286.232 248.208 283.576 249.127 279.126C249.407 277.771 249.129 276.235 248.83 274.899C247.385 268.444 240.742 264.718 235.01 262.635C233.977 262.259 231.532 261.85 230.961 260.964C230.931 260.402 230.985 260.03 231.194 259.506Z" fill="#767880"/>
<path d="M279.535 111.891C279.97 111.887 280.552 111.837 280.933 112.078C281.115 112.193 281.316 112.367 281.36 112.585C281.468 113.109 281.217 113.877 281.114 114.404L280.357 118.374L276.507 137.031L271.408 160.739C270.632 164.165 270.052 167.742 269.007 171.094C268.881 171.498 268.682 171.815 268.43 172.151C267.922 172.212 267.599 172.237 267.114 172.059C266.95 171.889 266.756 171.713 266.697 171.473C266.55 170.875 266.93 169.883 267.085 169.284L268.028 165.408L270.266 155.272L276.893 124.095L278.519 115.976C278.789 114.633 278.904 113.116 279.535 111.891Z" fill="#767880"/>
<path d="M67.168 258.301L67.7016 258.534C67.9431 258.971 67.9018 259.11 67.8787 259.597C67.203 260.673 66.1427 260.896 65.0581 261.424L61.7097 263.169C58.3149 265.14 54.7232 268.216 53.7823 272.224C53.2699 274.407 54.646 277.437 55.7561 279.242C58.5536 283.792 62.9288 286.61 67.6865 288.812C73.2377 291.382 78.9432 292.934 84.9108 294.205C91.6818 295.649 98.3664 296.642 105.249 297.418L125.97 299.23L137.986 299.947C139.536 300.032 141.399 299.852 142.894 300.207C143.061 300.375 143.218 300.526 143.325 300.742C143.489 301.075 143.534 301.392 143.35 301.737C143.108 302.189 142.938 302.192 142.477 302.328C141.087 302.328 139.785 302.161 138.414 302.086L125.698 301.286C110.334 300.181 94.5928 299.047 79.649 295.133C76.0437 294.189 72.3515 293.16 68.9299 291.662C62.4906 288.843 55.2282 284.681 52.5881 277.725C51.5643 275.028 51.3432 272.13 52.5817 269.472C53.6714 267.134 55.4557 265.42 57.4262 263.822C60.4068 261.406 63.5569 259.622 67.168 258.301Z" fill="#767880"/>
<path d="M226.719 263.15L226.98 263.144C229.618 263.106 232.473 263.918 234.382 265.844C236.231 267.71 236.932 269.795 236.886 272.396C236.837 275.17 235.82 277.615 233.796 279.52C228.962 284.071 222.315 286.287 216.111 288.293C207.537 291.066 198.787 292.979 189.9 294.432L179.798 295.917L164.196 296.882C163.871 296.891 163.628 297.003 163.322 297.03C161.757 297.164 160.086 297.058 158.512 297.06L150.18 297.01L132.158 295.915L109.185 293.092C99.8205 291.937 90.3274 291.216 81.1978 288.664C75.7605 287.145 69.5736 285.151 65.636 280.897C64.0542 279.189 62.7607 276.652 62.9011 274.274C63.0116 272.396 63.9051 270.628 65.2849 269.374C66.0891 268.868 67.0197 268.355 67.9694 268.215C68.49 268.137 68.8939 268.209 69.3233 268.531C69.4539 268.868 69.5329 269.064 69.4594 269.427C69.2167 270.626 67.4209 270.423 66.5899 271.085C65.6017 271.873 65.0583 273.092 64.986 274.337C64.8715 276.314 65.923 278.175 67.2238 279.596C69.8731 282.49 73.793 284.159 77.4476 285.365C87.5919 288.712 98.3356 289.71 108.88 290.99L133.096 293.887L150.985 294.893C155.266 295.105 159.434 294.95 163.702 294.807L181.317 293.661L188.431 292.564C198.701 290.947 208.754 288.665 218.587 285.264C223.065 283.715 228.439 281.976 231.975 278.731C233.51 277.323 235.161 274.829 235.216 272.697L235.22 272.429C235.264 270.566 234.656 268.53 233.376 267.12C231.962 265.563 229.215 264.635 227.136 264.552C226.846 264.54 226.803 264.416 226.592 264.229C226.468 263.711 226.536 263.632 226.719 263.15Z" fill="#767880"/>
<path d="M135.543 11.1614L135.566 11.1582C136.202 11.2886 136.825 11.2049 137.443 11.319C138.165 11.4523 139.003 11.3727 139.743 11.3765L144.238 11.4271L160.714 12.2668L189.363 14.5848L200.834 16.1251C213.76 17.827 226.818 19.9834 239.323 23.7348L245.2 25.6501C246.228 25.9855 247.391 26.2528 248.358 26.7384C249.346 27.2343 249.939 28.5059 250.492 29.4245C253.034 33.6495 254.818 38.3343 256.534 42.9419L261.001 55.5738L266.96 76.1563C267.244 77.2421 267.843 78.682 267.837 79.8036C267.832 80.5878 267.609 81.4297 267.496 82.2075L266.257 89.0522L263.259 104.619L256.528 138.525L253.239 155.294L251.113 164.604L248.177 178.243L235.283 227.961L232.011 239.392L226.429 259.666L223.947 268.329C223.427 270.022 222.955 271.665 222.159 273.254L206.645 280.568C201.192 283.045 195.529 285.655 189.722 287.178C186.751 287.957 183.852 288.368 180.793 288.644C177.706 288.733 174.516 288.169 171.428 287.969L151.93 286.855L96.1234 283.419L79.0135 282.408C78.3165 282.345 77.6756 282.274 77.1602 281.746C76.3581 280.925 74.7236 269.21 74.354 267.103L57.2098 153.071L55.1859 138.768L50.6502 101.918L48.1067 76.8512C48.0365 75.7339 47.8634 74.4741 48.0335 73.3658C48.3007 71.6243 49.1207 69.7939 49.7434 68.1517C51.9781 62.2588 55.0838 56.5609 58.4343 51.2365C62.0491 45.4925 65.96 40.1417 70.4622 35.0545C76.1173 28.6642 82.2939 22.6454 88.6931 17.0113C89.6926 16.1312 90.8941 14.7918 92.081 14.2143C94.169 13.1985 97.419 13.2966 99.7402 13.0736L125.051 11.4582C127.581 11.3831 130.182 11.5629 132.697 11.3884C133.153 11.3567 133.688 11.4288 134.124 11.3302C134.585 11.2261 135.072 11.2045 135.543 11.1614Z" fill="#767880"/>
<path d="M210.055 269.189L216.708 270.355C216.108 270.815 215.448 271.178 214.796 271.558C213.526 272.176 212.247 272.752 210.891 273.153C210.434 271.965 210.303 270.443 210.055 269.189Z" fill="#FEFEFE"/>
<path d="M191.844 265.946C192.319 266.05 192.863 266.118 193.279 266.38C193.071 267.441 193.91 269.325 194.23 270.379L196.304 277.24L195.14 277.442C194.24 276.8 192.363 267.698 191.844 265.946Z" fill="#FEFEFE"/>
<path d="M188.757 265.437L190.446 265.697C190.794 268.405 191.238 271.06 191.914 273.714L192.949 277.136L192.815 277.165C191.878 275.805 190.788 274.002 190.299 272.434C189.985 271.429 189.847 270.082 189.345 269.18C189.067 268.68 188.726 268.562 188.203 268.446L188.069 268.418C187.827 267.641 188.469 266.205 188.757 265.437Z" fill="#FEFEFE"/>
<path d="M190.933 255.83L193.235 261.633C193.444 262.193 193.952 263.148 193.848 263.739L192.988 263.69L189.641 263.087C189.758 260.737 190.454 258.141 190.933 255.83Z" fill="#FEFEFE"/>
<path d="M199.492 267.315L202.05 268.048L203.94 275.921L202.131 276.495L199.492 267.315Z" fill="#FEFEFE"/>
<path d="M204.445 268.276L208.193 268.981L208.435 273.871L207.886 274.232L205.711 275.031C205.458 274.441 205.506 273.584 205.396 272.94L204.445 268.276Z" fill="#FEFEFE"/>
<path d="M194.664 266.388L197.914 267.107C198.111 270.382 199.33 273.761 200.219 276.906L199.085 277.118C198.62 276.756 198.352 275.637 198.149 275.065C197.502 273.242 196.948 271.32 196.195 269.544C195.741 268.473 195.178 267.431 194.664 266.388Z" fill="#FEFEFE"/>
<path d="M187.021 270.017C187.911 271.124 188.371 272.493 189.016 273.746C189.785 275.24 190.695 276.638 191.687 277.992L189.186 278.486L186.897 278.863C185.976 278.562 185.169 277.702 184.5 277.032C185.078 276.104 185.859 275.355 186.392 274.39L186.532 274.135C187.167 273.011 186.925 271.304 187.021 270.017Z" fill="#FEFEFE"/>
<path d="M88.93 24.0625C87.9645 26.2596 86.4155 28.2581 85.2444 30.3611L73.2788 51.5625L66.4897 64.1723L65.0883 66.9497C64.9945 67.1301 64.7719 67.6862 64.6373 67.8037C64.5578 67.8733 64.0861 67.9817 63.9625 68.0203L61.455 68.6784C59.1147 69.3265 56.8396 70.4478 54.5781 71.3371C55.5327 67.9568 57.2392 64.6342 58.8765 61.5394C65.3061 49.3846 73.9637 38.2839 83.9011 28.7996L88.93 24.0625Z" fill="#FEFEFE"/>
<path d="M142.021 74.3262L142.256 74.4091L143.055 86.9359C142.207 87.1677 141.298 87.2974 140.473 87.5935C139.402 87.9777 138.354 88.5684 137.312 89.0391C133.928 90.5686 130.575 92.1856 127.672 94.5436C126.341 95.6239 125.02 96.8011 123.898 98.0979C123.582 98.4624 122.866 99.6223 122.468 99.772L121.802 96.764L117.805 80.1453C121.072 78.8958 124.373 78.0123 127.757 77.1492C132.461 75.9492 137.203 74.9409 142.021 74.3262Z" fill="#FEFEFE"/>
<path d="M235.062 67.1426L245.977 71.1224C251.176 72.8709 256.642 74.435 261.523 76.9606C261.966 77.8353 262.13 79.9355 261.823 80.8828C260.873 83.8157 260.521 87.131 259.985 90.1666L257.812 101.576L256.986 105.506C254.724 98.6043 251.214 92.1814 247.528 85.9508L241.194 75.4992L238.935 71.9783C238.396 71.127 237.889 70.218 237.183 69.4903C236.783 69.0778 236.498 69.0143 235.951 69.0077L235.814 69.0083C235.364 68.6235 235.227 67.7047 235.062 67.1426Z" fill="#FEFEFE"/>
<path d="M246.286 35.2998L246.559 35.434C247.896 37.6083 248.919 40.0164 249.919 42.3608L253.807 52.0498L258.9 66.7594C259.68 69.2711 260.497 71.7521 261.055 74.3251L251.221 70.3954L238.256 65.9312C236.231 65.1613 234.217 64.4363 232.32 63.3724L246.286 35.2998Z" fill="#FEFEFE"/>
<path d="M159.676 58.6663L159.807 58.6408C162.045 58.44 164.344 58.9013 166.435 59.6612C170.083 60.9857 172.898 63.7337 173.884 67.5635C174.253 69.0003 174.433 70.6364 175.18 71.939C175.811 73.0379 176.755 73.7996 177.692 74.6263L177.625 75.1104C177.428 76.4164 177.08 77.0933 175.989 77.8705C175.603 78.146 174.173 78.836 173.7 78.7783C173.167 78.713 172.519 78.0218 171.826 77.9136C171.417 78.0886 171.301 78.2277 171.095 78.6265C170.554 79.6746 170.215 80.8508 169.783 81.9472C168.609 84.9291 167.481 88.0263 165.807 90.767L163.025 89.4802L168.789 71.7535C168.729 71.2508 168.667 71.0659 168.355 70.668C167.944 70.4818 167.915 70.4442 167.479 70.5371C166.788 71.393 166.463 72.6576 166.073 73.682C164.203 78.597 162.75 83.8643 161.595 88.9967L158.332 88.06C159.066 83.1214 160.042 78.2985 161.723 73.5842L163.951 67.5C163.806 66.9895 163.726 66.9202 163.361 66.5646C162.855 66.5254 162.828 66.4959 162.411 66.7747C161.92 67.6825 161.738 68.6991 161.399 69.6664C159.323 75.5906 157.939 81.7413 156.991 87.9416C155.635 87.6366 154.305 87.6424 152.925 87.6518C152.876 82.555 153.56 77.0575 154.766 72.1134L155.748 68.6079C155.995 67.8629 156.366 67.2276 156.48 66.437C156.247 66.0507 155.973 65.9605 155.578 65.7925C155.068 65.8912 154.99 65.9441 154.595 66.2852C154.191 67.2838 153.977 68.3534 153.705 69.3933C152.811 72.8101 152.375 76.0662 151.999 79.5622C151.705 82.3008 151.372 84.9928 151.435 87.7521L148.085 87.9552C148.099 86.4264 147.872 84.9406 147.788 83.4202C147.445 77.2315 146.964 68.8843 150.823 63.6362C152.952 60.7403 156.183 59.1847 159.676 58.6663Z" fill="#FEFEFE"/>
<path d="M204.648 22.2656L219.965 25.0557C225.41 26.2454 230.821 27.9249 236.102 29.6986L241.148 31.5738C242.533 32.146 243.779 32.5971 244.874 33.6558L235.421 51.5489L230.659 61.3536L204.648 22.2656Z" fill="#FEFEFE"/>
<path d="M90.519 258.631L104.629 259.785L155.857 263.248L178.393 264.395C181.266 264.571 184.324 264.551 187.155 265.027C187.135 265.927 186.367 267.426 186.043 268.31C184.65 272.119 183.138 276.074 180.755 279.396C179.873 280.626 178.786 281.756 177.784 282.89C177.241 283.036 176.595 282.918 176.036 282.879L172.409 282.611L155.98 281.758L145.103 281.324L112.528 279.231L82.2274 277.071L81.3906 273.365C84.3214 268.299 86.4617 262.972 90.519 258.631Z" fill="#FEFEFE"/>
<path d="M128.813 266.256C130.078 267.027 129.276 268.746 129.073 269.927C128.926 270.779 128.822 271.978 129.081 272.809C129.194 273.172 129.284 273.348 129.611 273.539C130.618 272.528 131.102 271.504 131.678 270.227C131.83 269.89 131.824 269.713 132.192 269.574L132.553 269.924C132.619 270.659 132.493 271.274 132.337 271.985C132.009 272.878 131.669 273.707 130.996 274.401C130.5 274.912 130.043 275.15 129.307 275.111C128.798 275.084 128.35 274.787 128.047 274.39C127.11 273.164 127 271.945 127.148 270.472C127.275 269.208 127.81 267.062 128.813 266.256Z" fill="#767880"/>
<path d="M152.09 267.104C152.716 267.093 153.429 267.04 154.041 267.178C154.763 267.339 155.501 267.843 155.881 268.478C156.358 269.276 156.527 270.416 156.263 271.312C155.775 272.97 154.604 273.953 153.15 274.723C152.432 274.964 151.337 275.193 150.577 274.974C150.068 274.827 149.547 274.265 149.294 273.819C148.742 272.851 148.889 271.564 149.191 270.529C149.683 268.84 150.575 267.918 152.09 267.104Z" fill="#767880"/>
<path d="M152.584 269.225C153.077 269.226 153.293 269.257 153.724 269.494C153.989 269.839 154.054 270.023 154.103 270.454C153.8 271.444 153.392 271.985 152.543 272.578C152.161 272.667 151.787 272.7 151.398 272.74L151.133 272.504L151.243 271.593C151.446 270.548 151.692 269.835 152.584 269.225Z" fill="#FEFEFE"/>
<path d="M107.589 265.465C108.222 265.394 108.779 265.373 109.412 265.455C109.98 265.79 110.323 266.144 110.55 266.777C111.07 268.229 110.393 270.821 109.73 272.181C109.092 273.491 108.448 274.021 107.082 274.481C106.654 274.462 106.17 274.467 105.764 274.314C105.051 274.046 104.486 273.429 104.17 272.752C103.567 271.457 103.528 270.035 104.059 268.708C104.724 267.046 106.032 266.167 107.589 265.465Z" fill="#767880"/>
<path d="M108.371 267.58C108.519 267.701 108.607 267.868 108.714 268.025C108.725 268.721 108.7 269.345 108.497 270.021C108.13 271.248 107.648 271.968 106.514 272.551L106.486 272.49C106.075 271.619 105.834 270.921 106.089 269.962L106.143 269.771C106.237 269.424 106.322 269.068 106.484 268.744C106.859 267.991 107.623 267.802 108.371 267.58Z" fill="#FEFEFE"/>
<path d="M64.2353 70.0205C64.4336 70.0372 64.3164 70.0111 64.5691 70.1575L78.1292 181.885C78.8086 188.786 89.0032 256.985 88.8796 257.245C88.698 257.628 88.0578 258.197 87.7641 258.536C87.1199 259.28 86.5468 260.039 86.0089 260.864C83.9701 263.988 82.2724 267.385 80.639 270.732L80.2257 268.496L53.5547 74.1318C55.0031 73.1976 56.5875 72.6667 58.1969 72.0864L64.2353 70.0205Z" fill="#FEFEFE"/>
<path d="M67.0975 69.7695C77.8501 69.6683 88.9407 70.8886 99.3622 73.599C104.594 74.9593 109.615 76.7861 114.714 78.5467C117.162 84.7102 118.467 91.4031 119.809 97.8715C120.059 99.0751 120.331 100.247 120.481 101.471C120.517 101.762 120.679 102.413 120.622 102.683C120.515 103.182 119.789 103.868 119.467 104.286C118.937 104.972 118.493 105.698 118.059 106.447C116.205 109.649 114.786 112.892 113.583 116.384C111.089 123.624 109.636 131.186 108.384 138.721L106.161 154.412L104.893 166.242L104.697 166.075C103.974 165.341 103.321 164.226 102.722 163.373L98.2066 156.764C97.8947 156.31 96.6932 154.937 96.6094 154.507C96.5435 154.17 97.0343 153.264 97.1792 152.925C97.9172 151.196 99.5223 148.422 99.4998 146.57C99.4853 145.372 98.5847 144.704 97.8057 143.919C97.2013 143.997 96.422 143.977 95.8656 144.229C93.9109 145.116 94.0704 147.755 93.4542 149.562C92.266 147.262 91.4879 144.041 88.8119 143.067C88.0651 142.796 87.1813 142.783 86.4609 143.141C85.8316 143.453 85.3919 143.835 85.2008 144.529C84.5481 146.9 87.3632 149.646 88.5772 151.464L85.9625 150.441C84.9545 150.113 83.7928 150.073 82.742 150.206C81.8314 150.321 80.9956 150.866 80.4845 151.618C80.1097 152.17 79.7213 152.95 79.8865 153.626L79.9372 153.818C80.2087 154.984 80.3928 155.594 81.3862 156.324C84.2466 158.427 88.2704 158.615 91.6292 158.051C92.8738 160.607 94.3875 162.978 95.9085 165.373C98.1098 168.837 100.441 172.326 103.18 175.394L102.308 184.835L99.1554 218.217C98.5188 231.512 98.8043 244.741 103.058 257.479C102.531 257.758 92.3812 256.78 90.8629 256.684C90.7487 255.22 90.4292 253.769 90.2436 252.312L87.7477 235.293L83.6164 205.952L77.6563 161.606L76.5366 154.286L70.9185 106.603L67.6937 78.2755L67.0003 72.7996C66.8795 71.825 66.672 70.9187 66.7282 69.9301L67.0975 69.7695Z" fill="#FEFEFE"/>
<path d="M108.071 84.5273C108.392 84.5984 108.564 84.6522 108.804 84.8885C109.225 85.3021 109.214 85.7753 109.24 86.3302C108.738 86.7238 108.287 87.1803 107.755 87.5359C106.911 88.0999 105.99 88.581 105.196 89.2154C104.115 90.0786 103.282 91.1607 102.141 91.9698C101.934 91.8787 101.7 91.7894 101.521 91.6451C101.115 91.3177 101.006 90.9244 100.977 90.4303C101.509 88.7037 106.514 85.6899 108.071 84.5273Z" fill="#767880"/>
<path d="M92.8019 184.672C93.191 184.648 93.6068 184.607 93.9937 184.66C94.4903 184.728 95.0643 185.091 95.3613 185.491C95.7236 185.979 95.7528 186.833 95.6046 187.397C95.2034 188.925 94.1094 189.718 92.7995 190.412C92.5174 190.442 92.268 190.445 91.9898 190.39C91.2807 190.252 90.7434 189.892 90.371 189.264C90.0242 188.679 89.9707 188.24 90.1706 187.591C90.5943 186.214 91.5537 185.31 92.8019 184.672Z" fill="#767880"/>
<path d="M93.0551 186.538L93.4673 186.768L93.549 187.086C93.3983 187.714 93.1717 188.033 92.7584 188.524C92.5886 188.473 92.4131 188.371 92.2524 188.294L92.1953 187.921C92.3939 187.348 92.6539 186.99 93.0551 186.538Z" fill="#FEFEFE"/>
<path d="M95.1339 100.887C95.9251 100.922 96.7139 100.95 97.4707 101.208C98.3044 101.492 98.7265 101.966 99.0977 102.734C99.6094 103.792 99.5496 104.193 99.1186 105.312C98.4113 107.15 96.1906 108.882 94.4612 109.7C93.6613 109.829 93.1088 109.847 92.3826 109.461C91.3051 108.888 90.4611 107.594 90.2053 106.407C89.966 105.296 90.8179 103.823 91.4654 102.938C92.4315 101.618 93.5629 101.118 95.1339 100.887Z" fill="#767880"/>
<path d="M96.0903 102.558C96.3254 102.579 96.5802 102.596 96.8065 102.665C97.1961 102.786 97.4039 103.069 97.5882 103.413C97.5582 103.7 97.5071 103.91 97.3863 104.176C96.7193 105.645 95.3162 107.097 93.8022 107.685L93.5644 107.616C92.9132 107.43 92.6341 107.18 92.1843 106.678C92.1227 105.894 92.2891 105.494 92.7125 104.842C93.6379 103.418 94.4728 102.877 96.0903 102.558Z" fill="#FEFEFE"/>
<path d="M231.523 65.373C231.891 65.5689 232.938 65.9717 233.169 66.2505C233.293 66.4011 233.453 67.3857 233.525 67.6402L235.018 72.5312L240.312 86.2183L244.949 97.6256C245.874 99.7477 246.717 102.341 247.983 104.249L248.356 104.321L248.601 104.097L236.516 71.6216C237.439 72.8358 238.177 74.1758 238.991 75.4632L243.829 83.3895L253.365 99.6936C254.54 101.797 255.523 104.058 256.791 106.098L256.9 106.271C256.453 110.01 255.36 113.743 254.716 117.463L246.386 159.319L244.7 167.976L232.275 217.873L227.73 234.109C226.938 236.853 226.341 239.527 225.329 242.216C224.554 239.411 223.239 236.657 222.253 233.906L213.277 208.984L211.328 203.241C211.004 202.304 210.693 201.111 210.088 200.317L209.557 200.322L209.28 200.489C208.559 200.923 209.283 202.078 209.531 202.693L212.011 209.46L220.967 234.681L223.707 242.092C224.006 242.899 224.603 244.039 224.686 244.868C224.72 245.212 224.336 246.139 224.233 246.505L221.678 254.609C221.458 253.311 220.942 252.016 220.523 250.77L218.302 244.411L213.431 231.222L207.074 216.447C206.568 215.258 205.991 212.379 205.001 211.657C204.515 211.7 204.482 211.75 204.103 212.067C203.996 213.153 205.243 215.088 205.684 216.148L208.982 224.271L214.012 236.443L218.288 247.674L220.089 252.356C220.456 253.24 220.813 254.184 221.411 254.942L221.501 255.051L219.766 260.892C219.014 258.554 217.838 256.339 216.759 254.141L211.277 243.045L202.824 224.78C202.632 224.353 202.563 224.037 202.116 223.864C201.64 223.99 201.496 223.956 201.201 224.367C201.09 225.664 202.159 227.562 202.655 228.81C207.386 240.735 213.638 252.047 218.982 263.698C218.518 265.112 218.08 266.631 217.389 267.949L217.265 267.924C216.965 267.829 216.636 267.615 216.433 267.377C215.891 266.739 215.457 265.451 215.087 264.677L211.477 256.676C210.718 254.855 210.069 252.919 209.181 251.161C208.849 250.503 208.611 250.014 207.886 249.785C207.408 249.934 207.36 249.944 207.051 250.333C207.136 251.92 208.339 253.89 208.964 255.371L214.222 267.488L212.379 267.027C212.105 265.95 211.771 264.806 211.066 263.92C210.812 263.602 210.77 263.687 210.392 263.649L209.976 264.001C209.672 264.74 210.153 266.023 210.371 266.775L207.295 266.404C207.293 266.404 206.847 266.34 206.847 266.34C206.794 266.295 206.67 265.718 206.632 265.59L205.809 263.003C204.518 259.072 203.219 254.898 201.499 251.137C200.93 249.893 200.262 248.766 199.367 247.731L204.923 265.672C204.107 265.478 203.349 265.439 202.514 265.416L199.33 258.803C198.358 256.541 197.597 254.106 196.156 252.094C196.157 252.907 196.079 253.844 196.233 254.64C196.421 255.613 196.845 256.605 197.179 257.539L200.159 264.921L195.905 264.19L191.43 253.884L228.781 76.5019L246.044 115.448C246.035 113.585 244.915 111.268 244.285 109.535L238.716 95.3657L233.584 82.8923C232.311 79.898 231.083 76.8354 229.329 74.0841L231.523 65.373Z" fill="#FEFEFE"/>
<path d="M198.561 234.418C199.415 234.874 199.853 236.626 200.198 237.492L203.635 247.145C204.213 249.002 204.515 250.923 205.325 252.687L205.231 252.824L204.941 252.437L199.762 240.75C199.095 239.234 198.154 237.67 197.596 236.135C197.493 235.852 197.478 235.54 197.486 235.242C197.778 234.726 198.04 234.679 198.561 234.418Z" fill="#767880"/>
<path d="M225.132 114.688L225.329 114.775C225.651 114.95 225.816 115.177 225.971 115.501C227.389 118.456 228.308 121.889 229.439 124.977C230.891 128.94 232.634 132.858 233.844 136.897L233.667 137.076C232.841 135.846 232.247 134.351 231.602 133.014L226.207 120.312C225.701 118.973 224.99 117.549 224.643 116.163C224.483 115.524 224.814 115.211 225.132 114.688Z" fill="#767880"/>
<path d="M229.087 105.898C229.214 105.942 229.282 105.954 229.391 106.059C230.02 106.661 230.461 107.796 230.787 108.591L234.742 119.683L239.315 131.836C239.904 133.48 240.685 135.185 241.014 136.898L240.826 137.103L236.898 127.938L230.502 112.361C229.874 110.649 228.946 108.739 228.601 106.967C228.513 106.514 228.834 106.265 229.087 105.898Z" fill="#767880"/>
<path d="M221.453 128.71L222.171 128.756C222.257 128.82 222.367 128.862 222.429 128.948C222.832 129.507 223.004 131.408 223.158 132.114L225.131 140.424L231.483 161.123C230.115 158.893 229.229 156.401 228.292 153.963L225.064 145.017C223.787 141.046 222.59 137.002 221.725 132.921C221.466 131.701 220.865 129.856 221.453 128.71Z" fill="#767880"/>
<path d="M218.749 143.7L219.235 143.867C219.551 144.052 219.602 144.256 219.7 144.576L223.884 158.511C225.599 163.734 227.659 169.055 228.896 174.406L228.681 174.672C227.496 172.474 226.741 170.133 225.846 167.812L219.863 150.326C219.379 148.675 218.719 146.935 218.398 145.25C218.253 144.49 218.318 144.294 218.749 143.7Z" fill="#767880"/>
<path d="M230.411 94.4961L230.896 94.5766C232.554 96.0739 233.687 98.8613 234.74 100.828C239.44 109.606 243.96 118.757 247.436 128.09L247.179 128.073C245.517 125.199 244.137 122.108 242.627 119.147L234.26 103.184L231.5 98.0155C231.035 97.1897 229.937 96.0271 229.781 95.1369L230.411 94.4961Z" fill="#767880"/>
<path d="M217.08 156.77C217.28 156.825 217.448 156.908 217.635 156.997C218.175 157.842 218.309 158.889 218.568 159.847L220.264 166.271L226.851 191.849L228.023 196.422C228.363 197.647 228.84 199.087 228.914 200.353L228.56 200.405C227.318 197.137 226.526 193.648 225.583 190.283L221.329 175.319L217.704 162.579L216.837 159.552C216.63 158.843 216.337 158.146 216.352 157.398L217.08 156.77Z" fill="#767880"/>
<path d="M214.01 172.473L214.803 172.494C214.919 172.575 215.059 172.628 215.149 172.736C215.427 173.07 215.659 174.32 215.789 174.777L217.548 180.862L227.021 215.953C226.611 215.205 226.121 214.459 225.817 213.663C224.696 210.722 223.825 207.605 222.912 204.591L218.847 190.882L215.237 178.129C214.841 176.676 214.327 175.236 213.996 173.77C213.89 173.3 213.924 172.943 214.01 172.473Z" fill="#767880"/>
<path d="M210.747 183.048L211.43 183.213C211.679 183.451 211.881 183.644 212.009 183.971C212.622 185.537 212.991 187.265 213.518 188.874L218.729 205.923L222.03 216.708L225.065 226.332C225.731 228.767 226.306 231.095 226.423 233.624C224.902 229.956 223.787 226.005 222.559 222.222L215.734 200.785L211.82 188.46C211.407 187.127 210.737 185.686 210.486 184.343C210.382 183.784 210.543 183.547 210.747 183.048Z" fill="#767880"/>
<path d="M217.812 64.6064L229.637 64.6532L187.614 262.892L158.984 261.263L172.979 209.289L177.316 183.63C177.389 183.271 177.494 182.449 177.679 182.153C177.701 182.117 177.755 182.118 177.793 182.1C179.337 181.37 180.812 180.482 182.316 179.673L186.744 177.389L190.378 175.459C190.657 175.325 191.113 175.035 191.425 175.022C192.067 174.996 192.883 175.264 193.535 175.346C194.988 175.529 196.453 175.582 197.914 175.642C199.648 175.714 201.652 175.993 203.142 174.891C203.749 174.441 204.158 173.962 204.23 173.193C204.286 172.591 204.134 171.869 203.727 171.405C202.396 169.884 199.295 170.153 197.449 170.094C199.138 168.904 201.655 167.387 202.764 165.618C203.156 164.992 203.336 163.944 203.138 163.232C202.971 162.634 202.719 162.394 202.197 162.083C200.36 161.82 198.593 163.189 197.037 164.053C198.162 162.085 200.305 159.737 199.784 157.293C199.679 156.802 199.137 156.277 198.703 156.062C197.992 155.711 197.138 155.761 196.402 156.002C195.724 156.224 195.181 156.804 194.731 157.335C192.931 159.458 192.123 162.211 190.867 164.656C190.52 163.612 190.841 162.437 190.312 161.45C189.555 160.039 188.668 159.612 187.212 159.152C186.835 159.463 186.463 159.782 186.18 160.185C185.19 161.597 185.424 163.528 185.562 165.143C185.716 166.953 185.875 168.669 186.202 170.461C185.3 171.393 183.758 171.943 182.621 172.553L178.08 175.034L179.166 167.835L182.244 145.417C183.444 135.754 184.454 126.361 182.758 116.672C181.099 107.194 177.092 98.2294 169.018 92.5627C171.219 89.3756 172.143 86.0557 173.446 82.4722C174.403 82.4416 175.488 82.1719 176.381 81.8429C178.1 81.2094 179.659 79.8208 180.425 78.1559C181.081 76.7303 181.413 74.6948 180.858 73.1942C180.194 71.3974 178.862 69.9481 178.2 68.1252L217.812 64.6064Z" fill="#FEFEFE"/>
<path d="M176.353 231.771C176.613 231.792 176.889 231.812 177.139 231.891C177.769 232.092 178.309 232.726 178.574 233.315C178.863 233.958 178.812 234.851 178.518 235.482L178.42 235.68C178.186 236.156 177.94 236.55 177.567 236.932C176.713 237.807 176.11 237.942 174.939 237.965C173.993 237.719 173.502 237.418 172.805 236.73C172.579 235.719 172.325 234.917 172.887 233.954C173.591 232.746 175.056 232.109 176.353 231.771Z" fill="#767880"/>
<path d="M176.043 234.09L176.434 234.237L176.455 234.693C176.151 235.243 175.852 235.478 175.335 235.827L174.866 235.594L174.781 235.072C175.09 234.55 175.531 234.388 176.043 234.09Z" fill="#FEFEFE"/>
<path d="M196.357 97.4014C196.775 97.4478 197.115 97.484 197.457 97.7485C197.985 98.1558 198.542 98.8452 198.568 99.5389C198.612 100.682 198.173 102.168 197.381 103.011C196.54 103.904 195.018 104.152 193.852 104.189C193.065 104.017 192.416 103.841 191.757 103.356C191.493 103.161 191.377 102.826 191.347 102.507C191.225 101.164 192.108 99.8341 192.973 98.8625C193.981 97.73 194.901 97.504 196.357 97.4014Z" fill="#767880"/>
<path d="M187.119 194.249L187.256 194.237L187.483 194.225C188.368 194.172 189.123 194.359 189.946 194.665C190.895 195.018 191.555 195.713 191.933 196.645C192.24 197.402 192.178 198.347 191.829 199.076L191.72 199.292C191.135 200.477 190.243 201.308 189.113 201.966C188.283 202.224 187.369 202.333 186.51 202.163C185.734 202.008 185.203 201.402 184.817 200.743C184.318 199.892 184.333 198.677 184.588 197.749C184.978 196.325 185.823 194.954 187.119 194.249Z" fill="#767880"/>
<path d="M187.989 196.296C188.383 196.323 188.871 196.419 189.211 196.635C189.646 196.91 189.804 197.168 189.95 197.639C189.645 198.794 189.282 199.295 188.356 200.052C188.152 200.11 187.909 200.197 187.693 200.21C187.271 200.235 187.084 200.126 186.799 199.841C186.716 199.487 186.644 199.133 186.669 198.767C186.743 197.727 187.215 196.96 187.989 196.296Z" fill="#FEFEFE"/>
<path d="M213.975 70.4784C214.886 70.4608 215.511 70.4699 216.339 70.9157C217.57 71.5784 217.984 72.3192 218.353 73.6488C218.804 75.2712 218.298 77.1078 217.45 78.5216C216.409 80.257 214.933 81.1061 213.007 81.5541C212.183 81.5483 211.166 81.436 210.435 81.0302C209.608 80.571 208.852 79.4545 208.599 78.5553C208.094 76.7573 208.51 75.2797 209.466 73.7174C210.542 71.9593 211.974 70.971 213.975 70.4784Z" fill="#767880"/>
<path d="M214.231 72.4463C214.605 72.4223 214.987 72.4311 215.33 72.6048C215.808 72.8472 216.238 73.4103 216.385 73.9169C216.729 75.0971 216.171 76.8945 215.482 77.8518C214.737 78.8871 213.852 79.2941 212.629 79.5203C212.298 79.4304 211.96 79.3396 211.65 79.1926C211.086 78.926 210.637 78.464 210.443 77.863C210.137 76.9112 210.443 75.7698 210.924 74.927C211.703 73.5609 212.749 72.8408 214.231 72.4463Z" fill="#FEFEFE"/>
<path d="M124.29 16.9287L142.891 16.8789L147.263 17.0465C147.781 17.0773 148.617 17.2549 149.081 17.0857L149.193 17.0281C149.973 17.2874 150.947 17.2275 151.772 17.2667L157.265 17.5227L169.45 18.3819L179.412 19.2853C186.829 19.9338 194.268 20.5433 201.617 21.7842C202.3 22.4931 202.75 23.3377 203.299 24.146L205.663 27.4102C214.149 38.8306 221.299 51.1895 229.078 63.0853C220.473 62.7712 211.817 62.8554 203.228 63.4895L190.226 64.8665C186.027 65.361 181.713 65.771 177.601 66.7638C177.163 65.4652 176.865 64.1273 176.308 62.8693C175.129 60.2028 172.584 57.3266 170.076 55.819C166.384 53.6004 162.044 52.8739 157.849 53.8913C155.662 54.4213 153.604 55.2918 151.699 56.4896C147.619 59.0541 145.149 62.6306 143.724 67.1924C143.225 68.7881 142.93 70.4597 142.559 72.0894L126.147 75.4132L117.082 78.1654L113.447 65.6574L112.073 61.1853C111.852 60.5696 111.685 59.9057 111.229 59.4219C110.739 59.3767 110.451 59.3457 109.998 59.5868C109.766 59.9832 109.663 60.1867 109.709 60.6665C109.878 62.4129 110.798 64.3293 111.315 66.0073L114.186 76.2001C110.38 74.5804 106.389 73.4114 102.398 72.3463C95.5017 70.5055 88.5756 69.1379 81.4718 68.3783C76.6458 67.8623 71.7406 67.6974 66.8906 67.5972L93.042 21.3414L103.322 44.052C103.541 44.578 103.759 45.3978 104.316 45.6328C104.773 45.8254 105.175 45.6538 105.593 45.4667C106.009 44.9404 106.095 44.3934 105.94 43.7155C105.742 42.8551 105.212 41.9218 104.845 41.1188L101.74 34.8508L100.268 31.68L95.8905 22.9163C95.5448 22.2161 94.4879 20.4995 94.614 19.7415C95.3007 19.2296 96.1128 19.1832 96.9361 19.0547L101.66 18.5338L124.29 16.9287Z" fill="#FEFEFE"/>
<path d="M107.934 52.5293C108.519 52.5527 109.008 52.6219 109.45 53.0262C109.906 53.4432 109.924 53.8614 109.94 54.4405C109.766 54.9769 109.358 55.2099 108.927 55.5318L108.202 55.5603C107.701 55.099 107.07 54.4648 107.008 53.7572C107.213 53.216 107.523 52.9269 107.934 52.5293Z" fill="#767880"/>
<path d="M130.44 36.7412L130.632 36.8135C131.479 37.2296 133.29 38.0062 133.627 38.9367C133.973 39.8949 133.537 41.0776 133.067 41.9216C132.223 43.438 131.096 44.1278 129.473 44.5642C129.008 44.4792 128.5 44.4054 128.059 44.2301C127.282 43.9206 126.587 43.1753 126.273 42.4088C125.882 41.4575 125.785 40.6141 126.241 39.6726C127.019 38.0666 128.863 37.304 130.44 36.7412Z" fill="#767880"/>
<path d="M130.578 38.5898L130.624 38.6032C131.04 38.68 131.292 38.7016 131.649 38.9513C131.844 39.3986 131.945 39.525 131.808 40.0142C131.567 40.8716 130.182 42.1041 129.404 42.5007C129.052 42.372 128.742 42.2493 128.463 41.9902C128.119 41.6707 128.057 41.2944 128.023 40.8495C128.442 39.9435 129.78 39.1824 130.578 38.5898Z" fill="#FEFEFE"/>
<path d="M169.92 28.2371C170.197 28.1967 170.397 28.1885 170.676 28.248C171.78 28.4836 172.763 29.6741 173.338 30.5876L173.469 30.8011L173.643 31.0969C173.919 31.7113 173.751 33.0963 173.536 33.7073C173.038 35.1226 171.318 36.318 170.025 36.9498C169.439 37.0202 168.885 37.033 168.314 36.8541C167.498 36.5984 166.716 36.0237 166.324 35.2578C165.875 34.3819 165.788 33.3857 166.096 32.4491C166.789 30.3487 167.959 29.2048 169.92 28.2371Z" fill="#767880"/>
<path d="M170.832 29.9287L171.676 30.9707C171.805 31.5735 171.718 32.1545 171.468 32.7197C170.947 33.8963 170.254 34.4481 169.097 34.9107L168.379 34.6987C168.075 34.3789 167.911 34.1806 167.941 33.7116C168.037 32.1727 169.747 30.8309 170.832 29.9287Z" fill="#FEFEFE"/>
<path d="M153.495 89.8086C156.994 90.0279 159.903 90.5907 163.179 91.9048C170.012 94.6461 174.851 100.428 177.752 107.041C180.509 113.329 181.78 121.06 181.783 127.9C181.784 131.764 181.365 135.723 180.952 139.562L177.666 163.499L176.204 173.575C176.137 174.063 176.101 175.9 175.886 176.244C175.67 176.589 174.332 177.158 173.943 177.374L169.995 179.71C168.5 180.577 165.115 182.006 164.547 183.783C164.339 184.434 164.465 185.192 164.757 185.796C165.103 186.513 165.941 187.067 166.682 187.306C167.091 187.437 167.516 187.438 167.929 187.324C170.355 186.658 172.981 184.869 175.175 183.662L156.675 260.864L156.629 261.057L140.812 260.174L106.176 257.859C105.926 257.419 105.89 256.861 105.797 256.366L105.14 252.713C103.972 246.074 103.655 239.141 103.412 232.415L103.109 218.036L103.953 198.303C104.372 191.631 104.776 184.83 105.921 178.241C106.55 179.006 107.182 179.713 108.187 179.924C108.954 180.085 109.633 179.992 110.295 179.569C111.085 179.065 111.507 178.287 111.694 177.382C112.204 174.919 108.808 171.249 107.459 169.297C107.541 168.09 107.806 166.875 107.968 165.675L108.876 158.689C110.204 149.459 111.743 140.117 113.94 131.052C115.45 124.819 117.139 118.526 119.745 112.648C120.679 110.542 121.771 108.312 123.072 106.408C124.022 105.018 125.182 103.712 126.28 102.435C128.13 100.286 130.318 98.0741 132.631 96.4328C134.436 95.1518 136.529 94.1079 138.522 93.1534C140.651 92.1332 142.952 91.2063 145.264 90.7088C147.966 90.1275 150.748 90.0175 153.495 89.8086Z" fill="#FEFEFE"/>
<path d="M133.865 195.964L134.167 196.186C134.185 196.345 134.2 196.397 134.171 196.577C134.081 197.134 133.769 197.795 133.576 198.331C133.091 199.676 132.624 201.344 131.519 202.297C131.284 202.087 131.162 201.959 131.047 201.664C131.354 199.984 132.565 197.035 133.865 195.964Z" fill="#767880"/>
<path d="M138.081 214.013L138.626 214.273C138.719 214.483 138.772 214.666 138.76 214.898C138.722 215.701 138.369 216.516 138.137 217.279C137.74 218.583 137.634 219.619 136.599 220.586L136.024 220.222C135.949 220.044 135.931 220.031 135.91 219.811C135.872 219.405 136.141 218.752 136.261 218.353C136.66 217.029 137.193 215.057 138.081 214.013Z" fill="#767880"/>
<path d="M127.84 155.251C127.939 155.328 128.382 155.616 128.417 155.7C128.468 155.822 128.319 156.634 128.299 156.809L127.635 161.636C127.486 162.806 127.142 164.251 127.874 165.294L128.09 165.267C129.01 164.124 129.181 162.522 129.933 161.269C130.241 160.757 130.543 160.184 131.127 160.026L131.361 160.207C131.394 160.741 131.225 161.261 131.096 161.775L130.762 162.891C130.379 164.065 129.731 166.348 128.434 166.813C128.048 166.951 127.699 166.926 127.331 166.746C126.797 166.487 126.55 165.985 126.357 165.446C125.62 163.394 126.398 160.484 126.909 158.416C127.18 157.321 127.388 156.292 127.84 155.251Z" fill="#767880"/>
<path d="M115.105 205.632L115.863 205.638C116.451 206.014 116.954 206.529 117.235 207.179C117.566 207.944 117.426 209.129 117.088 209.865C116.498 211.148 115.627 211.754 114.346 212.232C113.893 212.194 113.304 212.186 112.908 211.942C112.318 211.578 111.986 210.95 111.829 210.291C111.597 209.323 111.764 208.342 112.275 207.496C112.988 206.316 113.847 205.977 115.105 205.632Z" fill="#767880"/>
<path d="M114.935 207.64C115.25 207.748 115.288 207.786 115.504 208.042C115.441 208.926 114.941 209.603 114.484 210.329L114.15 210.211C114.024 209.985 113.823 209.688 113.828 209.415C113.841 208.745 114.513 208.099 114.935 207.64Z" fill="#FEFEFE"/>
<path d="M124.141 234.569C124.566 234.602 124.638 234.581 124.963 234.845C124.954 235.622 124.475 236.044 124.089 236.692C123.666 237.402 123.33 238.135 123.121 238.936C122.873 239.887 122.499 241.931 123.018 242.81C123.448 243.058 123.503 243.111 123.992 243.081C125.568 241.675 126.285 240.155 127.422 238.433L127.712 238.393L128.114 238.762C128.22 239.75 127.78 240.655 127.407 241.547C126.905 242.682 126.139 244.035 125.231 244.895C124.766 245.336 123.938 245.57 123.308 245.512C122.553 245.443 121.551 244.648 121.148 244.041C120.409 242.928 120.511 240.619 120.817 239.364C121.278 237.469 122.459 235.583 124.141 234.569Z" fill="#767880"/>
<path d="M151.937 203.659C152.411 203.607 152.981 203.563 153.448 203.654C154.127 203.787 154.962 204.546 155.294 205.134C155.75 205.943 155.684 207.015 155.444 207.88C154.915 209.784 153.416 211.133 151.756 212.08C150.956 212.326 150.41 212.538 149.598 212.258C149.231 211.882 148.808 211.488 148.593 210.999C148.116 209.911 148.269 208.317 148.671 207.23C149.343 205.417 150.206 204.464 151.937 203.659Z" fill="#767880"/>
<path d="M152.536 205.728C153.027 205.903 153.257 205.987 153.539 206.447C153.287 208.065 152.585 208.903 151.366 209.901L150.791 210.003L150.486 209.712C150.46 209.338 150.453 208.985 150.542 208.617C150.898 207.147 151.238 206.506 152.536 205.728Z" fill="#FEFEFE"/>
<path d="M162.013 171.525C162.26 171.629 162.134 171.547 162.355 171.824L161.847 174.102L161.952 174.376C161.676 174.73 161.557 175.062 161.468 175.501L161.416 175.772C160.487 179.949 157.999 184.73 154.35 187.101C153.281 185.434 152.657 183.641 151.255 182.192C150.953 182.378 150.746 182.789 150.545 183.079L148.952 185.525C148.392 186.341 147.792 187.003 147.058 187.665C146.781 187.763 146.564 187.785 146.27 187.791C145.882 187.533 145.799 187.51 145.625 187.086C145.7 186.206 149.077 181.618 149.922 180.887C150.232 180.619 150.848 180.221 151.276 180.298C153.043 180.615 154.078 182.531 154.939 183.911C155.779 183.359 156.55 182.051 157.032 181.174C157.959 179.487 158.721 177.777 159.486 176.014C160.201 174.366 160.744 172.836 162.013 171.525Z" fill="#767880"/>
<path d="M155.296 97.9751C155.799 97.9 156.461 97.7579 156.932 98.0227C158.001 98.6229 158.738 100.584 159.615 101.519C160.493 102.455 161.62 103.23 162.699 103.916C164.351 104.966 166.601 105.223 168.146 106.308C168.79 106.76 168.941 107.392 169.103 108.121C168.868 108.657 168.431 108.929 167.978 109.28C167.586 109.393 167.192 109.504 166.781 109.469C165.708 109.377 164.583 108.998 163.565 108.651C160.841 107.724 158.133 106.364 156.267 104.115C155.224 102.858 154.03 100.992 154.285 99.281C154.38 98.6411 154.8 98.3295 155.296 97.9751Z" fill="#767880"/>
<path d="M142.412 98.5801C142.798 98.6414 143.074 98.7049 143.403 98.9269C143.822 99.2103 144.123 99.5608 144.202 100.071C144.313 100.78 143.178 102.226 142.708 102.765C139.686 106.229 133.756 108.045 129.3 108.365L128.63 108.244C128.187 108.146 127.806 107.882 127.585 107.481C127.363 107.076 127.331 106.47 127.455 106.03C127.586 105.564 127.892 105.283 128.299 105.044C129.431 104.378 130.858 104.088 132.113 103.731C133.989 103.198 135.821 102.639 137.565 101.752C139.315 100.862 140.752 99.5972 142.412 98.5801Z" fill="#767880"/>
<path d="M159.309 110.134C160.492 110.212 161.583 110.629 162.486 111.406C164.278 112.949 165.23 115.504 165.408 117.813C165.675 121.285 165.015 125.69 162.632 128.402C161.161 130.077 159.083 131.314 156.826 131.449C155.551 131.381 154.263 131.139 153.2 130.381C151.454 129.137 150.742 127.395 150.387 125.361C149.685 121.336 151.057 116.904 153.398 113.625C154.878 111.553 156.846 110.529 159.309 110.134Z" fill="#767880"/>
<path d="M159.047 112.371C159.962 112.536 160.807 112.926 161.488 113.568C163.082 115.071 163.432 117.713 163.474 119.799C163.526 122.418 162.72 125.661 160.838 127.585C159.679 128.77 158.246 129.531 156.556 129.506C155.159 129.485 154.332 128.954 153.412 127.986C152.331 126.34 152.076 124.95 151.844 123.039C152.618 123.62 153.374 124.175 154.326 124.421C155.424 124.704 156.253 124.477 157.198 123.912C158.941 122.871 159.948 120.481 160.37 118.586C160.64 117.379 160.586 116.09 159.849 115.048C159.293 114.262 158.487 113.815 157.551 113.653L157.393 113.628L157.281 113.435C157.817 112.982 158.428 112.692 159.047 112.371Z" fill="#FEFEFE"/>
<path d="M138.069 108.158C139.503 108.042 141.112 108.361 142.293 109.215C144.31 110.675 145.546 113.608 145.901 116.023C146.54 120.364 145.109 126.117 142.313 129.546C140.728 131.491 138.653 132.968 136.136 133.279C135.272 133.247 134.361 133.264 133.535 132.979L133.332 132.904C132.891 132.744 132.515 132.558 132.125 132.294C130.122 130.94 128.868 128.695 128.419 126.345C127.571 121.909 128.416 116.505 131.016 112.756C132.678 110.36 135.205 108.689 138.069 108.158Z" fill="#767880"/>
<path d="M137.751 110.442C138.838 110.372 139.797 110.432 140.751 111.047C142.143 111.943 143.167 114.043 143.521 115.627C144.368 119.412 143.918 123.7 141.81 127.027C140.603 128.931 138.948 130.828 136.648 131.297C135.345 131.563 134.13 131.336 133.05 130.558C131.123 129.168 130.428 126.943 130.024 124.713C129.885 123.245 129.977 121.776 130.077 120.31C130.331 121.349 130.56 122.398 131.084 123.342C131.393 123.898 131.959 124.81 132.644 124.937C133.754 125.142 135.14 124.88 136.023 124.16C137.549 122.915 138.828 120.002 139.046 118.067C139.207 116.641 139.091 115.323 138.114 114.201C137.526 113.525 136.84 113.155 135.94 113.117C134.279 113.047 133.341 114.247 132.217 115.288C133.525 112.98 135.182 111.283 137.751 110.442Z" fill="#FEFEFE"/>
<path d="M155.279 134.448L156.628 134.419C160.659 134.626 164.75 136.112 167.483 139.184C169.648 141.618 171.526 145.098 171.278 148.456L171.248 148.895L171.369 149.165C171.057 151.788 170.597 155.335 169.106 157.566C168.317 157.899 168.174 157.6 167.667 157.034C164.101 153.054 158.973 151.552 153.896 150.669C149.344 150.106 143.598 150.106 139.247 151.76C137.729 152.336 136.307 153.382 134.772 153.828C134.34 153.622 134.033 153.504 133.781 153.071C134.097 150.849 135.475 148.451 136.616 146.546C140.211 140.544 146.203 136.525 152.91 134.794C153.692 134.593 154.478 134.527 155.279 134.448Z" fill="#767880"/>
<path d="M146.448 140.129L146.707 140.239C147.92 142.367 147.859 145.41 147.67 147.784C146.556 147.964 145.422 147.962 144.304 148.124C142.404 148.4 140.49 149.067 138.689 149.718C138.337 149.877 138.054 150.031 137.656 150.003C137.973 149.097 138.597 148.251 139.135 147.464C141.199 144.442 143.522 142.28 146.448 140.129Z" fill="#FEFEFE"/>
<path d="M164.169 139.408C166.532 141.527 168.215 144.212 168.722 147.381L168.756 147.604C169.093 149.662 168.765 152.203 168.017 154.128L166.213 152.493C164.484 151.032 162.483 150.116 160.363 149.381C160.198 147.425 160.236 145.668 160.525 143.727C160.799 141.886 162.779 140.45 164.169 139.408Z" fill="#FEFEFE"/>
<path d="M154.507 136.863C155.558 136.808 156.623 136.754 157.664 136.926C159.45 137.222 160.796 137.55 162.426 138.379L161.211 139.404C160.461 140.093 159.724 140.861 159.269 141.784C158.264 143.824 158.338 146.495 158.239 148.72L156.442 148.374C154.11 147.97 151.934 147.704 149.565 147.699C149.597 145.711 149.723 143.62 149.208 141.679C148.96 140.741 148.417 139.96 148.211 138.986C149.891 137.8 152.498 137.221 154.507 136.863Z" fill="#FEFEFE"/>
</g>
<defs>
<clipPath id="clip0_388_2">
<rect width="311" height="311" fill="white"/>
</clipPath>
</defs>
</svg>
