<svg width="32" height="24" viewBox="0 0 32 24" fill="none" xmlns="http://www.w3.org/2000/svg">
<g clip-path="url(#clip0_1_123)">
<path d="M26.7926 2.00165C24.7679 1.05428 22.6258 0.381129 20.4231 0C20.1487 0.49604 19.8282 1.16322 19.6071 1.69399C17.2322 1.33688 14.8791 1.33688 12.5479 1.69399C12.3269 1.16334 11.9991 0.49604 11.7222 0C9.51734 0.381305 7.37346 1.05617 5.34774 2.00659C1.3167 8.09813 0.223915 14.0382 0.770247 19.8942C3.4439 21.8908 6.03493 23.1037 8.58231 23.8974C9.2154 23.0268 9.77503 22.105 10.2554 21.1417C9.34081 20.7935 8.45909 20.3644 7.62074 19.8595C7.84136 19.6959 8.05678 19.5255 8.26669 19.3485C13.3467 21.7246 18.8665 21.7246 23.886 19.3485C24.0968 19.5243 24.3122 19.6947 24.5318 19.8595C23.6921 20.3657 22.8088 20.7957 21.8923 21.1442C22.3754 22.1115 22.9341 23.0341 23.5654 23.8998C26.1152 23.1062 28.7087 21.8933 31.3823 19.8942C32.0234 13.1057 30.2872 7.22014 26.7926 2.00165ZM10.9476 16.2929C9.42255 16.2929 8.1719 14.8691 8.1719 13.1355C8.1719 11.4018 9.3959 9.97568 10.9476 9.97568C12.4994 9.97568 13.7499 11.3993 13.7233 13.1355C13.7257 14.8691 12.4994 16.2929 10.9476 16.2929ZM21.205 16.2929C19.68 16.2929 18.4294 14.8691 18.4294 13.1355C18.4294 11.4018 19.6533 9.97568 21.205 9.97568C22.7568 9.97568 24.0073 11.3993 23.9807 13.1355C23.9807 14.8691 22.7568 16.2929 21.205 16.2929Z" fill="#242424"/>
</g>
<defs>
<clipPath id="clip0_1_123">
<rect width="30.88" height="24" fill="white" transform="translate(0.637207)"/>
</clipPath>
</defs>
</svg>
