<svg width="32" height="24" viewBox="0 0 32 24" fill="none" xmlns="http://www.w3.org/2000/svg">
<g clip-path="url(#clip0_782_2225)">
<path d="M26.7941 2.00165C24.7693 1.05428 22.6273 0.381129 20.4246 0C20.1502 0.49604 19.8296 1.16322 19.6086 1.69399C17.2337 1.33688 14.8806 1.33688 12.5493 1.69399C12.3284 1.16334 12.0006 0.49604 11.7237 0C9.5188 0.381305 7.37492 1.05617 5.3492 2.00659C1.31816 8.09813 0.22538 14.0382 0.771712 19.8942C3.44536 21.8908 6.0364 23.1037 8.58377 23.8974C9.21686 23.0268 9.77649 22.105 10.2569 21.1417C9.34228 20.7935 8.46055 20.3644 7.62221 19.8595C7.84282 19.6959 8.05825 19.5255 8.26816 19.3485C13.3482 21.7246 18.868 21.7246 23.8875 19.3485C24.0983 19.5243 24.3136 19.6947 24.5333 19.8595C23.6936 20.3657 22.8102 20.7957 21.8938 21.1442C22.3769 22.1115 22.9355 23.0341 23.5669 23.8998C26.1167 23.1062 28.7101 21.8933 31.3838 19.8942C32.0249 13.1057 30.2887 7.22014 26.7941 2.00165ZM10.949 16.2929C9.42401 16.2929 8.17336 14.8691 8.17336 13.1355C8.17336 11.4018 9.39736 9.97568 10.949 9.97568C12.5008 9.97568 13.7514 11.3993 13.7247 13.1355C13.7271 14.8691 12.5008 16.2929 10.949 16.2929ZM21.2064 16.2929C19.6814 16.2929 18.4309 14.8691 18.4309 13.1355C18.4309 11.4018 19.6548 9.97568 21.2064 9.97568C22.7582 9.97568 24.0088 11.3993 23.9821 13.1355C23.9821 14.8691 22.7582 16.2929 21.2064 16.2929Z" fill="#808080"/>
</g>
<defs>
<clipPath id="clip0_782_2225">
<rect width="30.88" height="24" fill="white" transform="translate(0.640625)"/>
</clipPath>
</defs>
</svg>
