<svg width="16" height="16" viewBox="0 0 16 16" fill="none" xmlns="http://www.w3.org/2000/svg">
<path d="M10.6667 4.66663C10.2985 4.66663 10 4.96511 10 5.33329C10 5.70148 10.2985 5.99996 10.6667 5.99996H12.6667C13.0349 5.99996 13.3333 5.70148 13.3333 5.33329C13.3333 4.96511 13.0349 4.66663 12.6667 4.66663H10.6667Z" fill="#878794"/>
<path d="M10 8.00004C10 7.63184 10.2985 7.33337 10.6667 7.33337H12.6667C13.0349 7.33337 13.3333 7.63184 13.3333 8.00004C13.3333 8.36824 13.0349 8.66671 12.6667 8.66671H10.6667C10.2985 8.66671 10 8.36824 10 8.00004Z" fill="#878794"/>
<path d="M10.6667 10C10.2985 10 10 10.2985 10 10.6667C10 11.0349 10.2985 11.3333 10.6667 11.3333H12.6667C13.0349 11.3333 13.3333 11.0349 13.3333 10.6667C13.3333 10.2985 13.0349 10 12.6667 10H10.6667Z" fill="#878794"/>
<path fill-rule="evenodd" clip-rule="evenodd" d="M2 2C0.895433 2 0 2.89543 0 4V12C0 13.1046 0.895433 14 2 14H14C15.1046 14 16 13.1046 16 12V4C16 2.89543 15.1046 2 14 2H2ZM14 3.33333H8.66667V12.6667H14C14.3682 12.6667 14.6667 12.3682 14.6667 12V4C14.6667 3.63181 14.3682 3.33333 14 3.33333ZM2 3.33333H7.33333V12.6667H2C1.63181 12.6667 1.33333 12.3682 1.33333 12V4C1.33333 3.63181 1.63181 3.33333 2 3.33333Z" fill="#878794"/>
</svg>
