<svg width="27" height="24" viewBox="0 0 27 24" fill="none" xmlns="http://www.w3.org/2000/svg">
<g clip-path="url(#clip0_1_125)">
<path d="M5.076 0.0605469H22.116V3.44951H26.9615L25.9461 6.83931H25.0862V20.5524C25.5174 20.5524 25.8674 20.8967 25.8674 21.3221V22.2465H26.0239C26.4559 22.2465 26.8059 22.5916 26.8059 23.017V23.9414H18.0509V23.017C18.0509 22.5916 18.401 22.2465 18.833 22.2465H18.9894V21.3221C18.9894 20.9521 19.2542 20.6434 19.6068 20.569L19.5902 13.0023C19.3138 9.97917 16.7359 7.60979 13.596 7.60979C10.4561 7.60979 7.8782 9.97917 7.60179 13.0023L7.58524 20.5623C8.00234 20.6236 8.51545 20.9405 8.51545 21.3221V22.2465H8.67186C9.10303 22.2465 9.4531 22.5916 9.4531 23.017V23.9414H0.698894V23.017C0.698894 22.5916 1.04896 22.2465 1.48014 22.2465H1.63655V21.3221C1.63655 20.8967 1.98662 20.5524 2.41862 20.5524V6.83931H1.55876L0.54248 3.44951H5.076V0.0605469Z" fill="#242424"/>
<path d="M22.114 0.0601821H22.1711V0.00390625H22.114V0.0601821ZM5.07401 0.0601821V0.00390625H5.01691V0.0601821H5.07401ZM22.114 3.44915H22.0569V3.50542H22.114V3.44915ZM26.9595 3.44915L27.015 3.4657L27.0365 3.39287H26.9595V3.44915ZM25.9441 6.83894V6.89522H25.9863L25.9987 6.85466L25.9441 6.83894ZM25.0842 6.83894V6.78266H25.0271V6.83894H25.0842ZM25.0842 20.552H25.0271V20.6083H25.0842V20.552ZM25.8655 22.2461H25.8084V22.3024H25.8655V22.2461ZM26.8039 23.941V23.9973H26.8602V23.941H26.8039ZM18.0489 23.941H17.9918V23.9973H18.0489V23.941ZM18.9874 22.2461V22.3024H19.0445V22.2461H18.9874ZM19.6048 20.5686L19.6172 20.6232L19.6619 20.6141V20.5686H19.6048ZM19.5882 13.002H19.6453V12.9995L19.6445 12.997L19.5882 13.002ZM7.5998 13.002L7.5427 12.997V12.9995V13.002H7.5998ZM7.58325 20.562H7.52615L7.52532 20.6108L7.57415 20.6182L7.58325 20.562ZM8.51346 22.2461H8.45636V22.3024H8.51346V22.2461ZM9.45111 23.941V23.9973H9.50822V23.941H9.45111ZM0.696907 23.941H0.639804V23.9973H0.696907V23.941ZM1.63456 22.2461V22.3024H1.69167V22.2461H1.63456ZM2.41663 20.552V20.6083H2.47373V20.552H2.41663ZM2.41663 6.83894H2.47373V6.78266H2.41663V6.83894ZM1.55677 6.83894L1.50215 6.85466L1.51373 6.89522H1.55677V6.83894ZM0.540493 3.44915V3.3937H0.464355L0.485873 3.4657L0.540493 3.44915ZM5.07401 3.44915V3.50542H5.13111V3.44915H5.07401ZM22.114 0.00390625H5.07401V0.11563H22.114V0.00390625ZM22.1711 3.44915V0.0601821H22.0569V3.44915H22.1711ZM26.9595 3.39287H22.114V3.50542H26.9595V3.39287ZM25.9987 6.85466L27.015 3.4657L26.9049 3.43342L25.8886 6.82322L25.9987 6.85466ZM25.0842 6.89522H25.9441V6.78266H25.0842V6.89522ZM25.1413 20.552V6.83894H25.0271V20.552H25.1413ZM25.9226 21.3217C25.9226 20.8657 25.5468 20.4958 25.0842 20.4958V20.6083C25.4839 20.6083 25.8084 20.9278 25.8084 21.3217H25.9226ZM25.9226 22.2461V21.3217H25.8084V22.2461H25.9226ZM26.0219 22.1907H25.8655V22.3024H26.0219V22.1907ZM26.8602 23.0166C26.8602 22.5606 26.4853 22.1907 26.0219 22.1907V22.3024C26.4224 22.3024 26.7468 22.6227 26.7468 23.0166H26.8602ZM26.8602 23.941V23.0166H26.7468V23.941H26.8602ZM22.114 23.9973H26.8039V23.8847H22.114V23.9973ZM19.6122 23.9973H22.114V23.8847H19.6122V23.9973ZM18.0489 23.9973H19.6122V23.8847H18.0489V23.9973ZM17.9918 23.0166V23.941H18.106V23.0166H17.9918ZM18.831 22.1907C18.3675 22.1907 17.9918 22.5606 17.9918 23.0166H18.106C18.106 22.6227 18.4304 22.3024 18.831 22.3024V22.1907ZM18.9874 22.1907H18.831V22.3024H18.9874V22.1907ZM18.9303 21.3217V22.2461H19.0445V21.3217H18.9303ZM19.5932 20.514C19.2141 20.5934 18.9303 20.9253 18.9303 21.3217H19.0445C19.0445 20.9791 19.2895 20.6927 19.6172 20.6232L19.5932 20.514ZM19.5311 13.002L19.5477 20.5686H19.6619L19.6453 13.002H19.5311ZM13.594 7.6657C16.7033 7.6657 19.2572 10.0127 19.5311 13.0069L19.6445 12.997C19.3656 9.94487 16.7637 7.55315 13.594 7.55315V7.6657ZM7.65691 13.0069C7.93084 10.0127 10.4839 7.6657 13.594 7.6657V7.55315C10.4244 7.55315 7.82242 9.94487 7.5427 12.997L7.65691 13.0069ZM7.64036 20.562L7.65691 13.002H7.5427L7.52615 20.562H7.64036ZM8.57056 21.3217C8.57056 21.1057 8.42573 20.9162 8.2387 20.7771C8.05084 20.6365 7.80918 20.5388 7.59153 20.5065L7.57415 20.6182C7.7736 20.648 7.99705 20.7374 8.17001 20.8665C8.34463 20.9965 8.45636 21.1562 8.45636 21.3217H8.57056ZM8.57056 22.2461V21.3217H8.45636V22.2461H8.57056ZM8.66987 22.1907H8.51346V22.3024H8.66987V22.1907ZM9.50822 23.0166C9.50822 22.5606 9.13249 22.1907 8.66987 22.1907V22.3024C9.0696 22.3024 9.39401 22.6227 9.39401 23.0166H9.50822ZM9.50822 23.941V23.0166H9.39401V23.941H9.50822ZM7.57498 23.9973H9.45111V23.8847H7.57498V23.9973ZM7.44504 23.9973H7.57498V23.8847H7.44504V23.9973ZM5.07401 23.9973H7.44504V23.8847H5.07401V23.9973ZM0.696907 23.9973H5.07401V23.8847H0.696907V23.9973ZM0.639804 23.0166V23.941H0.754011V23.0166H0.639804ZM1.47815 22.1907C1.01553 22.1907 0.639804 22.5606 0.639804 23.0166H0.754011C0.754011 22.6227 1.07842 22.3024 1.47815 22.3024V22.1907ZM1.63456 22.1907H1.47815V22.3024H1.63456V22.1907ZM1.57746 21.3217V22.2461H1.69167V21.3217H1.57746ZM2.41663 20.4958C1.95318 20.4958 1.57746 20.8657 1.57746 21.3217H1.69167C1.69167 20.9278 2.01608 20.6083 2.41663 20.6083V20.4958ZM2.35953 6.83894V20.552H2.47373V6.83894H2.35953ZM1.55677 6.89522H2.41663V6.78266H1.55677V6.89522ZM0.485873 3.4657L1.50215 6.85466L1.61139 6.82322L0.595114 3.43342L0.485873 3.4657ZM5.07401 3.39287L0.540493 3.3937V3.50542H5.07401V3.39287ZM5.01691 0.0601821V3.44915H5.13111V0.0601821H5.01691Z" fill="#242424"/>
</g>
<defs>
<clipPath id="clip0_1_125">
<rect width="26.4828" height="24" fill="white" transform="translate(0.51709)"/>
</clipPath>
</defs>
</svg>
