<svg width="175" height="24" viewBox="0 0 175 24" fill="none" xmlns="http://www.w3.org/2000/svg">
<g clip-path="url(#clip0_722_3247)">
<path d="M74.5998 2.01879V5.69146C72.5795 3.39319 69.6203 1.93994 66.3194 1.93994C60.2396 1.93994 55.2902 6.88937 55.2902 12.9691C55.2902 19.049 60.2396 23.9984 66.3194 23.9984C69.6203 23.9984 72.5795 22.5451 74.5998 20.2469V23.9196H78.3551V2.01879H74.5998ZM66.3194 20.2469C62.305 20.2469 59.0455 16.9798 59.0455 12.9691C59.0455 8.95853 62.305 5.69146 66.3194 5.69146C70.3338 5.69146 73.5972 8.95853 73.5972 12.9691C73.5972 16.9798 70.3338 20.2469 66.3194 20.2469Z" fill="#FF7600"/>
<path d="M122 2.01879V5.69146C119.987 3.39319 117.02 1.93994 113.723 1.93994C107.643 1.93994 102.694 6.88937 102.694 12.9691C102.694 19.049 107.643 23.9984 113.723 23.9984C117.02 23.9984 119.987 22.5451 122 20.2469V23.9196H125.755V2.01879H122ZM113.723 20.2469C109.712 20.2469 106.445 16.9798 106.445 12.9691C106.445 8.95853 109.712 5.69146 113.723 5.69146C117.737 5.69146 120.997 8.95853 120.997 12.9691C120.997 16.9798 117.737 20.2469 113.723 20.2469Z" fill="#FF7600"/>
<path d="M140.832 2.58937V6.34278C136.73 6.34278 133.395 9.68331 133.395 13.7853V23.9195H129.642V2.021H133.395V5.43123C135.374 3.66177 137.98 2.58937 140.832 2.58937Z" fill="#FF7600"/>
<path d="M152.364 1.93994C146.285 1.93994 141.335 6.88561 141.335 12.9691C141.335 19.0527 146.285 23.9984 152.364 23.9984C158.448 23.9984 163.394 19.0527 163.394 12.9691C163.394 6.88561 158.448 1.93994 152.364 1.93994ZM152.364 20.2469C148.354 20.2469 145.087 16.9798 145.087 12.9691C145.087 8.95853 148.354 5.69146 152.364 5.69146C156.379 5.69146 159.642 8.95853 159.642 12.9691C159.642 16.9798 156.379 20.2469 152.364 20.2469Z" fill="#FF7600"/>
<path d="M170.641 7.96708V18.1971C170.641 19.3264 171.558 20.2478 172.688 20.2478H174.693V24H172.688C169.488 24 166.887 21.4007 166.887 18.1971V7.96708H165.241V4.21289H166.887V0H170.641V4.21289H174.693V7.96708H170.641Z" fill="#FF7600"/>
<path d="M54.3209 23.9189H50.5473C49.9087 18.8146 45.533 14.846 40.2509 14.846H38.633V23.9189H34.8787V2.021H38.633V11.0939H40.2509C45.533 11.0939 49.9087 7.12535 50.5473 2.021H54.3209C53.8923 6.70745 51.1623 10.7382 47.2751 12.9689C51.1623 15.1996 53.8923 19.2325 54.3209 23.9189Z" fill="#FF7600"/>
<path d="M21.8992 2.02393V5.83179C16.7949 6.51325 12.8414 10.9061 12.8414 16.2011V16.3511H9.05708V16.2011C9.05708 10.9061 5.10351 6.51325 -0.000778198 5.83179V2.02393C4.68565 2.48253 8.71423 5.22325 10.9492 9.119C13.1842 5.22325 17.2128 2.48253 21.8992 2.02393Z" fill="#0DAB0C"/>
<path d="M9.05846 15.4785H9.0801C9.06387 15.7164 9.05846 15.9597 9.05846 16.203V15.4785Z" fill="#0DAB0C"/>
<path d="M12.8202 15.4785H12.8418V16.203C12.8418 15.9597 12.8364 15.7164 12.8202 15.4785Z" fill="#0DAB0C"/>
<path d="M21.8998 20.1382H-0.000190735V23.924H21.8998V20.1382Z" fill="#FF7600"/>
<path d="M101.701 23.9189H97.9275C97.2889 18.8146 92.9132 14.846 87.6311 14.846H86.0132V23.9189H82.2589V2.021H86.0132V11.0939H87.6311C92.9132 11.0939 97.2889 7.12535 97.9275 2.021H101.701C101.272 6.70745 98.5425 10.7382 94.6553 12.9689C98.5425 15.1996 101.272 19.2325 101.701 23.9189Z" fill="#FF7600"/>
</g>
<defs>
<clipPath id="clip0_722_3247">
<rect width="174.694" height="24" fill="white"/>
</clipPath>
</defs>
</svg>
