<svg width="137" height="40" viewBox="0 0 137 40" fill="none" xmlns="http://www.w3.org/2000/svg">
<path d="M28.7974 10.1995H11.1982L19.9978 3.2998L28.7974 10.1995Z" fill="#F54400"/>
<path d="M11.1977 29.9979H28.7969L19.9973 36.8976L11.1977 29.9979Z" fill="#F54400"/>
<path d="M10.197 11.3977V28.9968L3.29736 20.1973L10.197 11.3977Z" fill="#F54400"/>
<path d="M29.9973 28.7997V11.2006L36.897 20.0001L29.9973 28.7997Z" fill="#F54400"/>
<path d="M5.59863 13.5989V5.59924L13.5982 5.59963L5.59863 13.5989Z" fill="#F54400"/>
<path d="M13.5982 34.3988H5.59863L5.59902 26.3992L13.5982 34.3988Z" fill="#F54400"/>
<path d="M26.3969 5.59924L34.3965 5.59924L34.3961 13.5989L26.3969 5.59924Z" fill="#F54400"/>
<path d="M34.3965 26.3992V34.3988L26.3969 34.3984L34.3965 26.3992Z" fill="#F54400"/>
<path d="M12.6455 25.801V13.1136L15.9285 16.7496V22.2424L12.6455 25.801Z" fill="#F54400"/>
<path d="M23.166 12.9589L16.5254 20.2309L23.0168 27.0388H27.3444L20.3307 19.5347L26.3744 12.9589H23.166Z" fill="#F54400"/>
<path d="M47.7015 28.999V10.6879H50.7493V19.1355H51.1333C51.1333 18.8475 51.2133 18.5675 51.3733 18.2955C51.5333 18.0076 51.7253 17.7196 51.9493 17.4316L57.589 10.6879H61.3568L53.7972 19.5195L61.6448 28.999H57.805L51.9493 21.8954C51.5493 21.3994 51.1173 20.7834 50.6533 20.0475L50.3413 20.3114C50.5173 20.5194 50.6293 20.7274 50.6773 20.9354C50.7253 21.1434 50.7493 21.5274 50.7493 22.0874V28.999H47.7015ZM67.0991 29.263C65.7872 29.263 64.7312 28.919 63.9312 28.2311C63.1313 27.5431 62.7313 26.5831 62.7313 25.3512C62.7313 24.1033 63.2193 23.1193 64.1952 22.3993C64.8992 21.8874 65.9391 21.4954 67.3151 21.2234L71.5629 20.4314C71.5469 19.5355 71.3069 18.8475 70.8429 18.3675C70.3469 17.8716 69.675 17.6236 68.827 17.6236C68.139 17.6236 67.5391 17.8236 67.0271 18.2235C66.5151 18.6075 66.1951 19.1355 66.0671 19.8075H63.2353C63.4593 18.3675 64.0992 17.2636 65.1552 16.4956C66.2271 15.7277 67.4591 15.3437 68.851 15.3437C69.651 15.3437 70.3949 15.4557 71.0829 15.6797C71.7869 15.9037 72.3868 16.2396 72.8828 16.6876C73.5388 17.2956 73.9468 18.0076 74.1067 18.8235C74.2827 19.6395 74.3707 20.6074 74.3707 21.7274V28.999H71.5389V28.543C71.5389 28.1751 71.6349 27.7351 71.8269 27.2231L71.4909 27.0551C71.1549 27.6471 70.7229 28.1351 70.1949 28.519C69.459 29.015 68.427 29.263 67.0991 29.263ZM67.7231 26.9591C68.379 26.9591 68.995 26.8231 69.571 26.5511C70.2269 26.2152 70.6909 25.8072 70.9629 25.3272C71.1229 25.0392 71.2429 24.7672 71.3229 24.5112C71.4029 24.2553 71.4909 23.9113 71.5869 23.4793C71.6349 23.2713 71.6989 23.1193 71.7789 23.0233C71.8589 22.9113 71.9709 22.8473 72.1148 22.8313L72.0428 22.4473C70.7469 22.7353 69.851 22.9193 69.355 22.9993L68.011 23.2633C67.0831 23.4553 66.4271 23.7273 66.0431 24.0793C65.7232 24.3992 65.5632 24.7992 65.5632 25.2792C65.5632 25.8072 65.7552 26.2232 66.1391 26.5271C66.5391 26.8151 67.0671 26.9591 67.7231 26.9591ZM77.3451 28.999V10.6879H80.177V18.4635C80.177 18.8635 80.161 19.2155 80.129 19.5195C80.113 19.8235 80.049 20.1755 79.937 20.5754L80.225 20.7194C80.7849 20.0955 81.1929 19.6715 81.4489 19.4475L85.4087 15.5837H89.1045L83.8488 20.5754C83.5448 20.8634 83.1768 21.0954 82.7448 21.2714V21.6074C83.1288 21.7834 83.4968 22.0634 83.8488 22.4473L89.5845 28.999H85.9847L81.4489 23.7193C81.2089 23.4473 80.8009 22.9593 80.225 22.2554L79.937 22.3753C80.049 22.8073 80.113 23.1833 80.129 23.5033C80.161 23.8233 80.177 24.1993 80.177 24.6312V28.999H77.3451ZM95.0821 29.263C93.7702 29.263 92.7142 28.919 91.9143 28.2311C91.1143 27.5431 90.7143 26.5831 90.7143 25.3512C90.7143 24.1033 91.2023 23.1193 92.1782 22.3993C92.8822 21.8874 93.9222 21.4954 95.2981 21.2234L99.5459 20.4314C99.5299 19.5355 99.2899 18.8475 98.8259 18.3675C98.3299 17.8716 97.658 17.6236 96.81 17.6236C96.1221 17.6236 95.5221 17.8236 95.0101 18.2235C94.4981 18.6075 94.1781 19.1355 94.0502 19.8075H91.2183C91.4423 18.3675 92.0822 17.2636 93.1382 16.4956C94.2101 15.7277 95.4421 15.3437 96.834 15.3437C97.634 15.3437 98.3779 15.4557 99.0659 15.6797C99.7699 15.9037 100.37 16.2396 100.866 16.6876C101.522 17.2956 101.93 18.0076 102.09 18.8235C102.266 19.6395 102.354 20.6074 102.354 21.7274V28.999H99.5219V28.543C99.5219 28.1751 99.6179 27.7351 99.8099 27.2231L99.4739 27.0551C99.1379 27.6471 98.7059 28.1351 98.178 28.519C97.442 29.015 96.41 29.263 95.0821 29.263ZM95.7061 26.9591C96.362 26.9591 96.978 26.8231 97.554 26.5511C98.2099 26.2152 98.6739 25.8072 98.9459 25.3272C99.1059 25.0392 99.2259 24.7672 99.3059 24.5112C99.3859 24.2553 99.4739 23.9113 99.5699 23.4793C99.6179 23.2713 99.6819 23.1193 99.7619 23.0233C99.8419 22.9113 99.9539 22.8473 100.098 22.8313L100.026 22.4473C98.7299 22.7353 97.834 22.9193 97.338 22.9993L95.9941 23.2633C95.0661 23.4553 94.4101 23.7273 94.0262 24.0793C93.7062 24.3992 93.5462 24.7992 93.5462 25.2792C93.5462 25.8072 93.7382 26.2232 94.1221 26.5271C94.5221 26.8151 95.0501 26.9591 95.7061 26.9591ZM105.328 28.999V15.5837H108.16V16.1596C108.16 16.3996 108.136 16.5996 108.088 16.7596C108.04 16.9196 107.952 17.0876 107.824 17.2636L108.16 17.4796C108.656 16.7116 109.216 16.1676 109.84 15.8477C110.464 15.5117 111.232 15.3437 112.144 15.3437H112.456V18.1036H111.736C110.664 18.1036 109.84 18.3915 109.264 18.9675C108.528 19.6555 108.16 20.8394 108.16 22.5193V28.999H105.328ZM120.379 29.263C119.067 29.263 117.899 28.967 116.875 28.3751C115.851 27.7831 115.051 26.9591 114.475 25.9032C113.915 24.8312 113.635 23.6073 113.635 22.2314C113.635 20.9034 113.915 19.7195 114.475 18.6795C115.051 17.6236 115.851 16.8076 116.875 16.2316C117.899 15.6397 119.067 15.3437 120.379 15.3437C121.691 15.3437 122.859 15.6397 123.883 16.2316C124.907 16.8076 125.706 17.6236 126.282 18.6795C126.858 19.7195 127.146 20.9034 127.146 22.2314C127.146 23.5913 126.858 24.8072 126.282 25.8792C125.722 26.9351 124.931 27.7671 123.907 28.3751C122.883 28.967 121.707 29.263 120.379 29.263ZM120.379 26.7911C121.115 26.7911 121.779 26.5991 122.371 26.2152C122.963 25.8152 123.419 25.2712 123.739 24.5832C124.075 23.8953 124.243 23.1113 124.243 22.2314C124.243 21.3994 124.075 20.6474 123.739 19.9755C123.419 19.2875 122.963 18.7515 122.371 18.3675C121.779 17.9836 121.115 17.7916 120.379 17.7916C119.643 17.7916 118.979 17.9836 118.387 18.3675C117.795 18.7355 117.331 19.2635 116.995 19.9515C116.675 20.6234 116.515 21.3834 116.515 22.2314C116.515 23.1273 116.683 23.9193 117.019 24.6072C117.355 25.2952 117.811 25.8312 118.387 26.2152C118.979 26.5991 119.643 26.7911 120.379 26.7911ZM133.714 28.999C132.674 28.999 131.89 28.759 131.362 28.2791C130.834 27.7991 130.57 27.0071 130.57 25.9032V17.9356H128.554V15.5837H130.57V10.6879H133.402V15.5837H136.138V17.9356H133.402V25.1112C133.402 25.6232 133.482 26.0072 133.642 26.2632C133.802 26.5031 134.154 26.6231 134.698 26.6231H136.114V28.999H133.714Z" fill="#F54400"/>
</svg>
