<svg width="145" height="44" viewBox="0 0 145 44" fill="none" xmlns="http://www.w3.org/2000/svg">
<path d="M5.89844 15.2578V6.82812L14.3281 6.82854L5.89844 15.2578Z" fill="#FF6B1A"/>
<path d="M14.3281 37.1719H5.89844L5.89885 28.7422L14.3281 37.1719Z" fill="#FF6B1A"/>
<path d="M27.8164 6.82813L36.2461 6.82812L36.2457 15.2578L27.8164 6.82813Z" fill="#FF6B1A"/>
<path d="M36.2461 28.7422V37.1719L27.8164 37.1715L36.2461 28.7422Z" fill="#FF6B1A"/>
<path d="M13.3281 28.1146V14.7451L16.7876 18.5766V24.3646L13.3281 28.1146Z" fill="#FFA500"/>
<path d="M24.4142 14.582L17.4166 22.2451L24.257 29.419H28.8172L21.4265 21.5114L27.7951 14.582H24.4142Z" fill="#FFA500"/>
<path d="M11.4684 13.059L2.52734 22L11.4684 30.941V13.059Z" fill="#FFA500"/>
<path d="M30.0153 12.3942L21.0742 3.45312L12.1332 12.3942H30.0153Z" fill="#FF6B1A"/>
<path d="M12.1332 31.6058L21.0742 40.5469L30.0153 31.6058H12.1332Z" fill="#FF6B1A"/>
<path d="M30.6762 31.3512L39.6172 22.4102L30.6762 13.4691V31.3512Z" fill="#FFA500"/>
<path d="M50.2683 12.2033H53.4802V21.1056H53.8848C53.8848 20.8021 53.9691 20.507 54.1378 20.2204C54.3064 19.9169 54.5087 19.6134 54.7447 19.3099L60.688 12.2033H64.6586L56.6921 21.5102L64.9621 31.5H60.9156L54.7447 24.014C54.3232 23.4913 53.868 22.8422 53.379 22.0666L53.0503 22.3448C53.2357 22.564 53.3537 22.7832 53.4043 23.0024C53.4549 23.2215 53.4802 23.6262 53.4802 24.2163V31.5H50.2683V12.2033ZM70.71 31.7782C69.3275 31.7782 68.2147 31.4157 67.3717 30.6907C66.5286 29.9657 66.1071 28.9541 66.1071 27.6558C66.1071 26.3407 66.6214 25.3038 67.6499 24.5451C68.3917 24.0056 69.4876 23.5925 70.9376 23.3058L75.4141 22.4713C75.3972 21.5271 75.1443 20.8021 74.6553 20.2963C74.1327 19.7736 73.4245 19.5123 72.5309 19.5123C71.8059 19.5123 71.1737 19.723 70.6341 20.1445C70.0946 20.5492 69.7574 21.1056 69.6225 21.8137H66.6382C66.8743 20.2963 67.5487 19.1329 68.6615 18.3236C69.7911 17.5143 71.0894 17.1096 72.5562 17.1096C73.3992 17.1096 74.1833 17.2277 74.9083 17.4637C75.6501 17.6998 76.2824 18.0538 76.8051 18.5259C77.4963 19.1666 77.9263 19.9169 78.0949 20.7768C78.2803 21.6367 78.3731 22.6567 78.3731 23.8369V31.5H75.3888V31.0195C75.3888 30.6317 75.4899 30.168 75.6923 29.6285L75.3382 29.4515C74.9841 30.0753 74.5289 30.5895 73.9725 30.9942C73.1969 31.5169 72.1094 31.7782 70.71 31.7782ZM71.3676 29.3503C72.0588 29.3503 72.708 29.207 73.3149 28.9204C74.0062 28.5663 74.4952 28.1363 74.7818 27.6305C74.9504 27.327 75.0769 27.0404 75.1612 26.7707C75.2455 26.5009 75.3382 26.1384 75.4394 25.6832C75.4899 25.464 75.5574 25.3038 75.6417 25.2026C75.726 25.0846 75.844 25.0172 75.9958 25.0003L75.9199 24.5957C74.5542 24.8992 73.61 25.093 73.0873 25.1773L71.6711 25.4555C70.6932 25.6579 70.0019 25.9445 69.5972 26.3154C69.26 26.6526 69.0914 27.0741 69.0914 27.58C69.0914 28.1363 69.2937 28.5747 69.6984 28.8951C70.1199 29.1986 70.6763 29.3503 71.3676 29.3503ZM81.5075 12.2033H84.4918V20.3974C84.4918 20.8189 84.475 21.1899 84.4412 21.5102C84.4244 21.8306 84.3569 22.2015 84.2389 22.623L84.5424 22.7747C85.1325 22.1172 85.5624 21.6704 85.8322 21.4343L90.0052 17.3626H93.8999L88.3613 22.623C88.0409 22.9265 87.6531 23.171 87.1979 23.3564V23.7105C87.6026 23.896 87.9903 24.191 88.3613 24.5957L94.4057 31.5H90.6121L85.8322 25.9361C85.5793 25.6494 85.1494 25.1352 84.5424 24.3933L84.2389 24.5198C84.3569 24.975 84.4244 25.3712 84.4412 25.7085C84.475 26.0457 84.4918 26.4419 84.4918 26.8971V31.5H81.5075V12.2033ZM100.199 31.7782C98.8167 31.7782 97.7039 31.4157 96.8609 30.6907C96.0179 29.9657 95.5964 28.9541 95.5964 27.6558C95.5964 26.3407 96.1106 25.3038 97.1391 24.5451C97.881 24.0056 98.9769 23.5925 100.427 23.3058L104.903 22.4713C104.886 21.5271 104.634 20.8021 104.145 20.2963C103.622 19.7736 102.914 19.5123 102.02 19.5123C101.295 19.5123 100.663 19.723 100.123 20.1445C99.5839 20.5492 99.2466 21.1056 99.1118 21.8137H96.1275C96.3635 20.2963 97.0379 19.1329 98.1507 18.3236C99.2804 17.5143 100.579 17.1096 102.045 17.1096C102.888 17.1096 103.672 17.2277 104.397 17.4637C105.139 17.6998 105.772 18.0538 106.294 18.5259C106.986 19.1666 107.416 19.9169 107.584 20.7768C107.77 21.6367 107.862 22.6567 107.862 23.8369V31.5H104.878V31.0195C104.878 30.6317 104.979 30.168 105.182 29.6285L104.827 29.4515C104.473 30.0753 104.018 30.5895 103.462 30.9942C102.686 31.5169 101.599 31.7782 100.199 31.7782ZM100.857 29.3503C101.548 29.3503 102.197 29.207 102.804 28.9204C103.495 28.5663 103.984 28.1363 104.271 27.6305C104.44 27.327 104.566 27.0404 104.65 26.7707C104.735 26.5009 104.827 26.1384 104.929 25.6832C104.979 25.464 105.047 25.3038 105.131 25.2026C105.215 25.0846 105.333 25.0172 105.485 25.0003L105.409 24.5957C104.043 24.8992 103.099 25.093 102.577 25.1773L101.16 25.4555C100.182 25.6579 99.4911 25.9445 99.0865 26.3154C98.7493 26.6526 98.5807 27.0741 98.5807 27.58C98.5807 28.1363 98.783 28.5747 99.1876 28.8951C99.6091 29.1986 100.166 29.3503 100.857 29.3503ZM110.997 17.3626H113.981V17.9695C113.981 18.2224 113.956 18.4332 113.905 18.6018C113.855 18.7704 113.762 18.9474 113.627 19.1329L113.981 19.3605C114.504 18.5512 115.094 17.978 115.751 17.6407C116.409 17.2867 117.218 17.1096 118.179 17.1096H118.508V20.0181H117.749C116.62 20.0181 115.751 20.3216 115.144 20.9285C114.369 21.6535 113.981 22.9012 113.981 24.6715V31.5H110.997V17.3626ZM126.858 31.7782C125.475 31.7782 124.244 31.4663 123.165 30.8424C122.086 30.2186 121.243 29.3503 120.636 28.2375C120.046 27.1079 119.751 25.818 119.751 24.368C119.751 22.9686 120.046 21.721 120.636 20.625C121.243 19.5123 122.086 18.6524 123.165 18.0454C124.244 17.4216 125.475 17.1096 126.858 17.1096C128.24 17.1096 129.471 17.4216 130.55 18.0454C131.629 18.6524 132.472 19.5123 133.079 20.625C133.686 21.721 133.989 22.9686 133.989 24.368C133.989 25.8012 133.686 27.0826 133.079 28.2122C132.489 29.325 131.654 30.2017 130.575 30.8424C129.496 31.4663 128.257 31.7782 126.858 31.7782ZM126.858 29.1733C127.633 29.1733 128.333 28.9709 128.957 28.5663C129.58 28.1448 130.061 27.5715 130.398 26.8465C130.752 26.1215 130.929 25.2954 130.929 24.368C130.929 23.4913 130.752 22.6989 130.398 21.9907C130.061 21.2657 129.58 20.7009 128.957 20.2963C128.333 19.8916 127.633 19.6893 126.858 19.6893C126.082 19.6893 125.382 19.8916 124.758 20.2963C124.135 20.6841 123.646 21.2404 123.292 21.9654C122.954 22.6736 122.786 23.4744 122.786 24.368C122.786 25.3122 122.963 26.1468 123.317 26.8718C123.671 27.5968 124.151 28.1616 124.758 28.5663C125.382 28.9709 126.082 29.1733 126.858 29.1733ZM140.911 31.5C139.815 31.5 138.989 31.2471 138.432 30.7413C137.876 30.2355 137.598 29.4009 137.598 28.2375V19.841H135.473V17.3626H137.598V12.2033H140.582V17.3626H143.465V19.841H140.582V27.4029C140.582 27.9425 140.666 28.3471 140.835 28.6169C141.004 28.8698 141.374 28.9962 141.948 28.9962H143.44V31.5H140.911Z" fill="#F54400"/>
</svg>
