<svg width="25" height="24" viewBox="0 0 25 24" fill="none" xmlns="http://www.w3.org/2000/svg">
<g id="bitcoin-icons:mining-filled">
<path id="Vector" d="M12.561 2.90004C12.6747 2.83206 12.8106 2.81192 12.939 2.84404L16.336 3.69104C16.4588 3.72197 16.5652 3.79831 16.6339 3.90465C16.7026 4.011 16.7284 4.13943 16.706 4.26404C19.071 5.37104 20.831 7.19404 21.521 9.24704C21.5566 9.35304 21.5556 9.4679 21.5182 9.57326C21.4808 9.67863 21.4092 9.76843 21.3148 9.8283C21.2203 9.88818 21.1086 9.91468 20.9973 9.90357C20.8861 9.89247 20.7818 9.8444 20.701 9.76704C19.491 8.60704 17.907 7.59604 16.059 6.86504L16.034 6.96504C16.0019 7.09365 15.92 7.20424 15.8064 7.2725C15.6928 7.34075 15.5567 7.36109 15.428 7.32904L14.943 7.20904L14.036 10.847C14.1647 10.8792 14.2752 10.961 14.3435 11.0747C14.4118 11.1883 14.4321 11.3244 14.4 11.453L12.102 20.671C12.0699 20.7996 11.988 20.9102 11.8744 20.9785C11.7608 21.0468 11.6247 21.0671 11.496 21.035L9.07004 20.43C8.94143 20.3979 8.83084 20.316 8.76258 20.2024C8.69432 20.0888 8.67399 19.9527 8.70604 19.824L11.004 10.606C11.0362 10.4774 11.118 10.3668 11.2317 10.2986C11.3453 10.2303 11.4814 10.21 11.61 10.242L12.517 6.60404L12.032 6.48304C11.9683 6.46714 11.9082 6.43881 11.8554 6.39969C11.8026 6.36056 11.758 6.3114 11.7242 6.25502C11.6903 6.19864 11.668 6.13615 11.6584 6.07112C11.6487 6.00609 11.652 5.93979 11.668 5.87604L11.693 5.77604C9.71904 5.55404 7.84604 5.70304 6.23304 6.15904C6.12546 6.18944 6.0108 6.18292 5.90736 6.14051C5.80392 6.0981 5.71769 6.02224 5.66242 5.92507C5.60715 5.82789 5.58605 5.715 5.60247 5.60442C5.6189 5.49384 5.67191 5.39195 5.75304 5.31504C7.32504 3.82704 9.73504 3.04304 12.343 3.17504C12.3803 3.06041 12.4577 2.96211 12.561 2.90004Z" fill="#FF4409"/>
</g>
</svg>
