<svg width="195" height="195" viewBox="0 0 195 195" fill="none" xmlns="http://www.w3.org/2000/svg">
<g id="Frame" clip-path="url(#clip0_782_1841)">
<path id="Vector" d="M0 0H195V195H0V0Z" fill="#FEFEFE"/>
<path id="Vector_2" d="M117.895 167.501C118.639 167.466 119.502 167.343 120.127 167.858C120.284 167.988 120.274 167.993 120.295 168.206C120.273 168.228 120.255 168.252 120.231 168.271C119.914 168.534 119.419 168.418 119.04 168.378C118.331 168.289 117.529 168.427 116.814 168.484C116.659 168.318 116.669 168.326 116.668 168.098C116.947 167.691 117.442 167.593 117.895 167.501Z" fill="#231F20"/>
<path id="Vector_3" d="M140.604 36.6422C141.305 36.1537 141.949 35.7247 142.852 35.8769C143.422 35.9728 143.903 36.3261 144.21 36.8105C144.698 37.5816 144.666 38.3488 144.606 39.216C145.233 39.6862 145.774 40.2745 145.889 41.0878C145.971 41.6772 145.754 42.2229 145.387 42.6777C144.819 43.3828 144.134 43.436 143.689 43.8509C143.513 44.016 143.968 46.4467 141.471 46.6676C140.727 46.7335 139.96 46.5249 139.389 46.0355C139.289 45.95 139.202 45.8558 139.112 45.7596C138.577 46.3261 137.95 46.8759 137.12 46.8947C136.147 46.9168 135.165 46.0443 134.516 45.3886C134.294 45.1649 134.086 44.8581 133.784 44.7537C131.397 44.3744 128.38 44.2798 126.179 45.4471C125.492 45.811 124.92 46.3572 124.236 46.7392L124.265 46.7095L124 46.6683C124.341 46.1743 124.806 45.7278 125.304 45.3938C127.806 43.7195 131.062 43.985 133.864 44.5083C133.876 44.4795 133.891 44.4523 133.899 44.4224C133.97 44.1446 133.831 43.7321 133.789 43.4472C133.622 42.2964 133.927 40.9554 134.922 40.2514C135.362 39.9406 136.103 39.8791 136.459 39.531C136.992 39.0113 136.745 35.5324 139.645 36.1006C140.041 36.1781 140.327 36.3522 140.604 36.6422Z" fill="#231F20"/>
<path id="Vector_4" d="M141.732 36.7702C142.283 36.7157 142.837 36.6891 143.301 37.0507C143.546 37.2413 143.665 37.5047 143.686 37.8122C143.749 38.7366 143.13 39.3812 142.588 40.0418C143.088 39.9546 143.638 39.7986 144.131 39.9854C144.424 40.0964 144.699 40.3063 144.824 40.5996C144.975 40.9545 144.921 41.3659 144.783 41.7151C144.581 42.2228 144.162 42.7297 143.64 42.9264C142.882 43.2119 141.935 42.3883 141.256 42.0615C141.269 42.0918 141.281 42.1224 141.294 42.1525L141.359 42.3028C141.649 42.9801 142.166 43.3341 142.54 43.9327C142.691 44.1741 142.79 44.4628 142.683 44.7435C142.455 45.3455 141.566 45.6638 141.003 45.8575C140.612 45.7646 140.14 45.6319 139.815 45.3898C139.366 45.0547 139.679 44.2227 139.586 43.6923L139.445 43.6068C139.359 43.6196 139.245 43.6316 139.168 43.6685C138.82 43.8336 138.765 44.1644 138.629 44.4933C138.287 45.1057 137.918 45.5606 137.231 45.7836C136.788 45.9272 136.366 45.9038 135.959 45.6698C135.309 45.2969 134.868 44.4899 134.672 43.7902C134.44 42.9605 134.462 42.0981 134.921 41.352C135.93 39.7124 136.769 41.0966 137.653 40.8801C137.842 40.4661 137.107 39.0898 137.39 38.2759C137.547 37.8225 138.001 37.1701 138.451 36.9684C140.052 36.2507 140.23 38.3102 141.032 38.6155C141.054 38.5953 141.078 38.5778 141.096 38.5549C141.249 38.3658 141.265 38.0771 141.232 37.8471C141.208 37.6768 141.176 37.5072 141.152 37.3364C141.287 37.0427 141.472 36.9384 141.732 36.7702Z" fill="#FEFEFE"/>
<path id="Vector_5" d="M100.765 45.4434C100.66 43.2875 100.543 41.1385 100.614 38.9792C100.86 31.5424 102.792 23.4341 107.939 17.8001C110.126 15.4059 112.79 13.779 116.093 13.6541C119.191 13.5369 122.658 14.7841 124.918 16.9141C127.189 19.0546 128.146 21.7648 128.231 24.8451C128.38 30.2648 124.655 38.629 122.218 43.4867C121.017 45.88 119.585 48.2686 118.605 50.7602C122.113 52.1191 125.137 54.8812 126.647 58.3442C127.883 61.1768 128.045 63.5694 126.891 66.4459C125.197 70.6671 123.369 74.8194 121.846 79.1108C120.316 83.4244 119.117 87.9018 118.137 92.3709C125.823 96.1959 130.518 99.474 134.07 107.633C135.39 107.292 136.543 107.439 137.723 108.142C138.363 108.524 138.937 109.013 139.449 109.552C141.018 108.187 142.449 106.648 144.054 105.333C147.173 107.558 150.416 109.42 153.643 111.466C156.437 113.237 159.094 115.169 162.048 116.671C162.007 116.969 161.693 117.202 161.467 117.374C161.345 117.468 161.218 117.557 161.091 117.646C162.212 120.428 163.496 123.158 164.566 125.956C163.206 127.184 161.81 128.377 160.471 129.628C156.485 133.355 152.643 137.233 148.745 141.051C148.278 141.017 147.866 140.761 147.485 140.506C146.147 139.61 144.915 138.451 143.648 137.451C140.903 135.287 138.118 133.135 135.449 130.879C132.657 128.521 129.995 125.944 127.062 123.762C127.257 121.84 127.819 119.915 127.927 117.997C127.473 117.495 127.446 117.051 127.37 116.409C123.042 118.523 119.175 118.788 114.455 118.667C114.074 123.421 114.018 128.259 114.098 133.025C114.136 135.324 114.618 141.638 114.195 143.435C113.791 145.147 112.82 146.621 111.493 147.755C110.424 148.669 109.179 149.344 107.909 149.936C110.016 154.092 112.694 157.121 115.709 160.597C116.604 159.97 117.567 159.61 118.681 159.785C119.322 159.886 120.028 160.234 120.403 160.781C120.512 160.94 120.59 161.116 120.677 161.286C120.713 161.358 120.752 161.429 120.789 161.5C121.261 161.489 121.7 161.478 122.167 161.575C123.195 161.648 126.073 162.044 126.864 162.553C127.626 163.807 126.924 167.165 126.582 168.553C125.665 172.275 123.731 175.529 121.214 178.383C122.311 178.47 125.293 178.565 125.97 179.496C126.113 179.692 126.103 179.74 126.061 179.961C125.22 180.847 122.793 180.916 121.648 180.944C120.561 180.971 116.809 180.628 115.856 180.252C115.476 180.102 115.152 179.847 114.863 179.563C113.521 178.246 113.075 176.07 113.1 174.255C113.111 173.409 113.178 171.999 113.838 171.403C114.704 170.621 116.424 170.582 117.538 170.674C118.471 170.752 119.342 171.019 120.211 171.357C120.781 171.579 121.991 172.52 122.218 173.094C122.267 173.219 122.261 173.226 122.269 173.341C122.136 173.499 122.189 173.495 121.963 173.52C120.017 172.171 117.901 171.215 115.47 171.689C115.017 171.777 114.674 171.871 114.405 172.273C113.711 173.309 113.939 175.243 114.21 176.401C114.441 177.388 114.89 178.658 115.802 179.198C116.207 179.438 116.663 179.483 117.112 179.35C119.074 178.773 121.594 174.959 122.49 173.201C123.852 170.525 125.005 165.843 124.107 162.884C123.207 162.58 122.296 162.49 121.356 162.4C121.011 162.406 120.783 162.334 120.526 162.6C119.964 163.182 119.841 164.689 119.077 164.924C118.214 164.84 118.085 164.09 117.584 163.911C117.257 163.795 116.98 164.156 116.64 163.984C116.228 163.775 115.67 162.916 115.29 162.57C114.353 163.155 113.447 164.002 113.16 165.109C113.062 165.485 113.008 166.056 113.245 166.396C113.401 166.62 113.586 166.73 113.854 166.767C114.637 166.877 116.244 166.095 116.837 165.611C116.947 165.521 117.038 165.416 117.127 165.305L116.99 165.164C116.716 165.161 116.381 165.184 116.118 165.107C115.927 165.051 115.924 165.059 115.828 164.876C115.861 164.77 115.868 164.726 115.933 164.622C116.073 164.395 116.246 164.274 116.488 164.193C116.851 164.246 117.092 164.488 117.37 164.71C117.472 164.823 117.573 164.938 117.647 165.071C117.78 165.309 117.773 165.5 117.672 165.748C117.285 166.697 114.736 167.581 113.788 168.031C113.472 167.81 113.15 167.555 112.89 167.271C112.422 166.76 112.143 166.139 112.185 165.438C112.271 163.994 113.481 162.838 114.477 161.925C110.876 158.461 108.407 154.938 106.237 150.431C105.648 150.58 105.048 150.709 104.448 150.809C99.6408 151.611 95.5495 150.538 91.6464 147.71C90.3378 152.271 90.4703 161.303 90.9677 166.133C91.9326 166.274 92.8541 166.469 93.6739 167.03C94.261 167.431 94.8009 168.025 94.914 168.751C95.0242 169.459 94.7295 170.043 94.3334 170.602C94.886 172.899 95.3162 175.152 95.4318 177.519C96.6766 177.612 100.562 177.896 101.483 178.521C101.695 178.664 101.724 178.756 101.754 179C101.573 179.303 101.334 179.43 101.011 179.55C99.1952 180.229 94.7053 180.322 92.6502 180.338C92.0153 180.343 91.3653 180.19 90.7346 180.236C90.1009 180.282 89.3628 180.575 88.741 180.738C87.6735 181.018 86.5739 181.215 85.4715 181.285C84.28 181.36 83.0759 181.327 81.8863 181.235C80.3501 181.117 78.852 180.804 77.3251 180.631C75.2982 180.401 70.7627 180.309 69.1228 179.509C68.8219 179.362 68.5543 179.171 68.442 178.846C68.4782 178.699 68.4679 178.659 68.5827 178.547C69.6937 177.459 74.2663 177.471 75.831 177.496C75.9906 176.608 76.2208 175.803 76.6072 174.984C77.4967 173.097 79.071 171.219 81.1 170.525C82.4616 170.059 83.5926 170.348 84.8231 170.979L85.8202 170.167C85.5288 169.644 85.3133 169.126 85.2855 168.52C85.2588 167.938 85.4481 167.387 85.8535 166.965C86.7082 166.075 87.9768 166.051 89.1223 166.05C88.9771 159.804 88.1297 152.488 90.1936 146.485C83.2144 139.552 78.7343 127.708 76.7744 118.192C74.2246 118.627 71.6934 118.909 69.111 119.077C68.2274 119.134 67.2823 119.247 66.4002 119.156C66.0942 119.125 65.835 119.071 65.6394 118.822C65.8335 118.683 65.9247 118.665 66.1572 118.633C66.7664 118.547 67.3876 118.569 68.0004 118.484C70.8357 118.088 73.6441 117.558 76.4427 116.958C75.9413 115.17 75.6383 113.31 75.3191 111.484C74.4744 106.651 73.9376 101.788 73.492 96.9047C70.6226 97.0826 67.6938 97.9757 65.1384 99.2795C61.3422 101.217 58.2119 104.454 56.8838 108.55C57.7141 109.003 58.4075 109.715 58.934 110.495C59.6239 111.517 60.1427 112.794 59.9044 114.037C60.7488 115.192 63.7266 119.006 63.7601 120.157C63.7658 120.355 63.7881 120.28 63.6496 120.423C63.07 120.221 62.7161 119.306 62.4381 118.803C58.6057 119.726 54.8436 121.686 51.2763 123.333C49.188 124.298 47.0405 125.197 44.9965 126.247C44.9186 127.133 44.8077 128.016 44.7074 128.899C49.1246 126.015 54.1815 123.993 59.1229 122.216C60.5504 121.703 62.0466 121.308 63.4541 120.754C63.789 120.622 63.969 120.333 64.2813 120.203C64.4285 120.142 64.489 120.208 64.6277 120.262L64.5892 120.348L64.6621 120.493L64.6656 120.49C64.4976 122.073 64.0813 123.662 63.758 125.222C63.4908 126.51 63.3158 127.995 62.814 129.213C60.2889 129.918 57.8322 131.16 55.4126 132.175L42.1572 137.785C40.942 136.09 40.0523 134.072 39.0838 132.225C37.7607 129.702 36.3578 127.216 34.954 124.738C33.5631 122.282 32.1748 119.687 30.3555 117.512C30.4002 116.852 31.5879 108.829 31.6875 108.614C31.8734 108.21 36.7608 107.388 37.5046 107.216C42.1583 106.135 46.7983 104.969 51.3711 103.585C52.6521 105.007 53.6917 106.618 55.01 108.015C55.873 105.686 57.1988 103.493 58.911 101.688C62.5204 97.8803 68.0232 95.2531 73.2998 95.0884C72.2563 84.2962 72.9262 65.492 77.2408 55.6877C78.7669 52.2198 81.3754 48.9147 84.6712 46.9822C85.7016 46.3782 86.7891 45.9385 87.8972 45.5035C87.6 45.0551 87.2915 44.615 86.9822 44.1747C86.7032 43.7992 86.4399 43.4332 86.2131 43.0222C85.0686 41.5249 84.2876 39.5892 83.6354 37.8296C83.4166 37.0058 83.1092 36.5128 82.5646 35.8642C81.9113 35.9801 81.1193 36.1304 80.4874 35.8693C79.8879 35.6216 79.1881 34.9261 78.9594 34.3141C78.4458 32.9388 79.7493 32.3869 80.3101 31.4395C80.4219 31.2506 79.9677 30.2406 79.9466 29.9121C79.919 29.4819 80.1496 28.8844 80.3358 28.4997C80.7045 27.7383 81.3171 27.1514 82.1247 26.8799C82.8421 26.6388 83.6158 26.6716 84.2945 27.0151C85.2748 27.5112 85.7109 28.3757 86.0272 29.3739C86.4812 29.4671 86.9474 29.5411 87.3768 29.7215C89.7269 30.7075 88.4554 31.7747 88.7503 32.7158C88.8846 33.1435 89.3951 33.4705 89.5553 33.9365C89.7356 34.4615 89.6475 35.1026 89.399 35.5896C88.8528 36.6602 87.1517 37.6186 85.9268 37.5323C85.3704 37.4931 84.3708 37.0879 83.8708 37.2478L83.9544 37.6017C84.6553 39.3094 85.4828 40.9561 86.414 42.5502C86.7385 42.9771 87.0226 43.4172 87.3061 43.8717C87.7184 44.3524 88.0884 44.8694 88.4672 45.3767C92.4637 44.4558 96.752 44.6394 100.765 45.4434Z" fill="#231F20"/>
<path id="Vector_6" d="M117.694 160.643C118.239 160.628 119.006 160.67 119.431 161.056C119.625 161.231 119.723 161.477 119.732 161.735C119.749 162.271 119.388 163.08 119.016 163.459L118.858 163.385C118.05 162.566 117.14 161.858 116.25 161.13C116.729 160.927 117.191 160.775 117.694 160.643Z" fill="#FEFEFE"/>
<path id="Vector_7" d="M124.947 162.885C125.38 162.968 125.809 163.068 126.239 163.163C126.258 163.39 126.268 163.617 126.27 163.845C126.321 168.886 124.099 174.238 120.565 177.833C120.384 177.997 120.263 178.12 120.027 178.2C120.919 177.031 121.821 175.913 122.594 174.656C124.611 171.376 125.85 166.696 124.947 162.885Z" fill="#FEFEFE"/>
<path id="Vector_8" d="M94.3583 177.393L94.6027 177.403L94.6059 177.505C94.5566 177.545 94.4893 177.603 94.4336 177.64C93.5494 178.221 92.2826 178.561 91.2821 178.912C85.6557 180.889 82.4531 180.665 76.7583 179.45C76.6863 179.418 76.6288 179.348 76.5716 179.294C76.5473 178.998 76.5358 178.787 76.6329 178.498C77.0412 178.473 80.2722 179.257 81.1671 179.373C85.7404 179.967 90.0571 178.762 94.3583 177.393Z" fill="#FEFEFE"/>
<path id="Vector_9" d="M87.7179 166.939C88.1983 166.902 88.6839 166.929 89.1652 166.939C89.2865 167.445 89.375 167.939 89.4422 168.454C89.1594 168.243 88.917 168.034 88.5689 167.951C88.3151 168 88.3162 167.988 88.1599 168.192C88.1641 168.291 88.1614 168.38 88.1972 168.477C88.3505 168.891 88.8734 169.182 89.2703 169.302C89.9844 169.519 91.0727 169.477 91.7215 169.082C91.9372 168.951 91.9833 168.848 92.0454 168.612C91.9723 168.373 91.914 168.288 91.7221 168.127C91.6388 168.111 91.4686 168.079 91.3917 168.057C91.1426 167.986 91.1371 167.895 91.0135 167.676C91.0319 167.442 91.0546 167.436 91.2127 167.258C91.5284 167.145 91.7457 167.171 92.0702 167.249C92.9701 167.467 93.4885 167.859 93.9674 168.645C93.9952 169.053 94.0104 169.371 93.7621 169.722C93.0825 170.682 91.3926 170.747 90.3157 170.903C90.3091 171.281 90.358 171.742 90.1746 172.08C89.9947 172.151 89.9017 172.142 89.7128 172.109L89.5953 171.918C89.6033 171.663 89.642 171.377 89.5323 171.14C89.3573 170.76 87.9095 170.393 87.4915 170.227C86.9638 170.018 86.4685 169.703 86.2581 169.152C86.1048 168.749 86.1124 168.21 86.3192 167.83C86.5972 167.32 87.2035 167.109 87.7179 166.939Z" fill="#FEFEFE"/>
<path id="Vector_10" d="M136.868 121.19C137.012 121.182 137.126 121.184 137.27 121.209C137.61 121.27 138.421 122.257 138.711 122.542C139.956 123.767 142.64 125.636 143.454 126.777C143.384 127.02 143.31 127.267 143.212 127.501C142.94 128.147 142.435 128.376 141.822 128.625C141.658 128.601 141.494 128.568 141.336 128.514C140.091 128.086 136.888 125.585 135.983 124.584C135.588 124.148 135.327 123.709 135.078 123.183C135.664 122.51 136.268 121.852 136.868 121.19Z" fill="#FEFEFE"/>
<path id="Vector_11" d="M119.465 15.3828C121.291 15.7233 123.398 16.9815 124.652 18.3417C126.592 20.448 127.112 23.1946 126.991 25.9737C125.756 25.6106 124.219 24.5929 122.826 24.1144L122.814 23.7766C122.681 20.6562 121.823 17.5413 119.465 15.3828Z" fill="#FEFEFE"/>
<path id="Vector_12" d="M118.024 40.6113C119.101 41.2815 120.193 41.8948 121.333 42.4513C120.086 45.0541 118.769 47.6384 117.341 50.1469C116.282 49.6289 115.165 49.2088 114.074 48.7608C115.553 46.1307 116.798 43.3651 118.024 40.6113Z" fill="#FEFEFE"/>
<path id="Vector_13" d="M82.8157 27.5274C83.204 27.5145 83.5961 27.5628 83.9609 27.7036C84.7939 28.025 85.1231 28.814 85.4638 29.5681C85.1151 29.7187 84.7025 29.8682 84.4199 30.1232C84.2652 30.2626 84.1388 30.3416 84.1357 30.5524C85.133 30.7169 85.97 30.0087 87.2337 30.5137C87.5833 30.6535 87.8704 30.8889 88.0182 31.2412C88.1445 31.543 88.209 31.8742 88.0658 32.1794C87.8724 32.5913 86.3363 32.9937 85.8822 33.1862C86.4957 33.2961 87.1539 33.2578 87.7769 33.2586C87.8417 33.2984 87.9064 33.3382 87.9697 33.3801C88.3585 33.6368 88.711 34.0266 88.7554 34.5137C88.7935 34.9307 88.5312 35.2992 88.241 35.5689C87.3723 36.3763 86.2377 36.5246 85.1075 36.505C84.3062 36.3304 83.8126 36.0798 83.2257 35.4977C83.716 35.2025 84.1725 34.9022 84.5419 34.459C84.4138 34.3568 82.26 34.9382 81.8226 34.9757C81.2658 35.0233 80.6269 34.9702 80.1958 34.5731C79.8951 34.2962 79.7073 33.9615 79.7193 33.545C79.7543 32.316 81.675 31.7222 82.444 31.0246L82.4082 30.9163C81.755 30.8348 81.2949 31.0035 80.6852 31.2077C80.6257 30.4195 80.5475 29.6564 80.9055 28.9183C81.2917 28.1219 82.0225 27.7908 82.8157 27.5274Z" fill="#FEFEFE"/>
<path id="Vector_14" d="M51.213 108.678C52.2482 108.537 53.4765 108.524 54.513 108.686C55.9319 108.909 56.7917 109.804 57.5962 110.921C58.1199 111.649 58.8567 112.816 58.6583 113.74C58.5876 114.069 58.3147 114.421 58.01 114.567C57.1417 114.984 56.6587 113.386 56.0141 113.168C54.9744 114.123 53.3043 116.001 52.0698 116.555C51.7809 116.685 51.5899 116.67 51.2976 116.571C50.6606 115.51 52.204 114.369 52.109 113.283C51.5625 113.413 50.986 114.18 50.6141 114.573C50.2523 114.975 49.7587 115.647 49.193 115.733C48.9722 115.767 48.7702 115.694 48.5933 115.565C48.3722 115.404 48.1458 115.139 48.138 114.854C48.1126 113.921 49.9851 112.816 50.554 112.15L50.5361 112.002C49.2352 111.894 48.0862 113.217 46.6839 113.078C46.5098 112.93 46.5167 112.99 46.4883 112.738C47.0122 111.559 49.2577 111.151 50.2506 110.292L50.1921 110.324L50.3546 110.096L50.2712 110.009C49.3664 109.798 48.631 110.415 47.775 110.599C47.4793 110.662 47.2304 110.687 46.9655 110.515C46.9367 110.282 46.9821 110.189 47.1312 110.016C47.9367 109.077 50.0611 108.828 51.213 108.678Z" fill="#FEFEFE"/>
<path id="Vector_15" d="M122.764 25.1758C124.156 25.7238 125.49 26.4745 126.852 27.1024C126.07 31.8222 124.103 36.597 122.056 40.8971C121.941 41.1547 121.858 41.3402 121.64 41.532C120.674 41.2162 119.351 40.3367 118.391 39.853C120.615 34.8403 122.15 30.671 122.764 25.1758Z" fill="#FEFEFE"/>
<path id="Vector_16" d="M134.709 108.56C134.745 108.558 134.781 108.555 134.817 108.553C136.182 108.486 137.178 108.97 138.162 109.886C139.431 111.066 141.16 113.189 141.178 115.013C141.186 115.792 140.916 116.199 140.371 116.728C140.134 115.675 139.815 114.654 139.343 113.681C138.947 112.865 138.245 111.47 137.342 111.161C137.092 111.189 137.046 111.187 136.852 111.341C136.881 111.492 137.988 112.836 138.23 113.268C139.048 114.727 139.792 116.979 139.263 118.641C139.173 118.922 139.046 119.117 138.772 119.243C138.463 119.385 138.168 119.41 137.855 119.268C136.933 118.85 136.423 116.466 136.111 115.566C136.064 115.452 136.015 115.338 135.961 115.226C135.735 114.759 135.361 113.985 134.862 113.81C134.241 114.414 134.784 117.626 134.569 118.773C134.481 119.243 134.343 119.595 133.909 119.843C133.68 119.973 133.548 119.939 133.306 119.876C131.787 118.587 132.304 115.532 132.025 113.785L132.003 113.655C131.338 114.743 130.972 116.109 129.909 116.905C129.734 117.036 129.487 117.167 129.262 117.113C129.018 117.054 128.893 116.9 128.779 116.685C128.612 116.368 128.663 116.048 128.778 115.727C129.254 114.394 130.804 111.005 131.716 110.043C132.019 109.722 132.388 109.537 132.779 109.345C132.898 109.622 133.029 110.032 133.224 110.262C133.38 110.445 133.583 110.558 133.829 110.55C134.17 110.539 134.606 110.29 134.836 110.047C135.139 109.727 134.499 109.177 134.498 108.772L134.709 108.56Z" fill="#FEFEFE"/>
<path id="Vector_17" d="M86.5179 170.658C87.3029 171.062 88.1423 171.339 88.9777 171.618C89.0438 171.912 89.1061 172.308 89.2845 172.558C89.4062 172.729 89.5591 172.825 89.7642 172.864C90.034 172.915 90.4282 172.817 90.6423 172.653C90.8315 172.508 90.8652 172.323 90.8993 172.104C90.9239 171.947 90.953 171.792 90.9806 171.635C91.3773 171.406 92.9158 171.353 93.5434 171.202C94.0043 172.882 94.2324 174.602 94.4609 176.325C93.2965 176.874 92.0842 177.223 90.8437 177.551C86.4532 178.711 82.3687 178.762 77.9063 178.05L76.6445 177.8C76.7775 177.289 76.9197 176.783 77.0932 176.283C77.7669 174.345 79.2058 172.347 81.1143 171.471C81.8817 171.119 82.7215 171.001 83.5225 171.315C85.0432 171.912 86.1748 173.943 86.5772 175.462C86.7371 176.065 86.7712 176.831 87.0532 177.388C87.1534 177.585 87.2383 177.703 87.4486 177.784C87.4998 177.712 87.5325 177.676 87.5581 177.582C88.017 175.898 86.2778 173.196 85.5064 171.81C85.9969 171.492 86.2241 171.154 86.5179 170.658Z" fill="#FEFEFE"/>
<path id="Vector_18" d="M144.146 106.34C147.416 108.341 150.629 110.5 153.843 112.593C155.569 113.717 159.17 116.399 161.001 116.85C159.529 118.137 158.122 119.494 156.726 120.864L155.872 121.732C154.424 120.41 152.881 119.178 151.383 117.912C150.088 116.818 148.81 115.658 147.463 114.631C145.213 112.916 142.865 111.358 140.648 109.59C141.722 108.446 142.886 107.278 144.146 106.34Z" fill="#FEFEFE"/>
<path id="Vector_19" d="M146.829 109.85C147.047 109.898 146.952 109.844 147.108 110.02C146.961 110.365 146.323 110.68 146.003 110.92C146.026 111.183 146.43 111.187 146.599 111.445C146.51 111.681 146.442 111.941 146.267 112.127L146.259 111.907C146.249 111.771 146.225 111.68 146.184 111.553C145.756 111.364 145.201 111.422 144.734 111.408C145.415 110.861 146.082 110.307 146.829 109.85Z" fill="#231F20"/>
<path id="Vector_20" d="M150.008 113.395C150.146 113.399 150.284 113.401 150.421 113.415C151.009 113.477 151.658 113.922 152.009 114.387C152.198 114.638 152.248 114.839 152.207 115.154C152.051 115.449 151.902 115.52 151.615 115.656C151.302 115.616 151.036 115.576 150.751 115.433C150.556 115.336 150.359 115.244 150.163 115.15C150.001 115.243 149.946 115.267 149.754 115.293C149.617 115.021 149.62 114.271 149.649 113.948C149.674 113.665 149.82 113.583 150.008 113.395Z" fill="#231F20"/>
<path id="Vector_21" d="M150.365 113.856C150.409 113.855 150.454 113.853 150.498 113.854C150.886 113.856 151.34 113.944 151.597 114.271C151.858 114.604 151.879 114.867 151.813 115.272C151.784 115.275 151.755 115.279 151.726 115.28C151.345 115.298 150.871 115.257 150.591 114.968C150.278 114.645 150.333 114.266 150.365 113.856Z" fill="#FEFEFE"/>
<path id="Vector_22" d="M148.348 113.495C148.271 113.597 148.201 113.636 148.095 113.703C148.031 113.682 147.966 113.662 147.905 113.635C147.594 113.502 147.211 113.536 146.962 113.32C146.778 112.846 147.164 112.398 147.253 111.942C147.311 111.644 146.925 111.42 146.785 111.164C146.957 110.986 146.923 111.029 147.149 111.018L147.415 111.296L147.553 111.294C147.705 111.098 147.826 110.911 148.058 110.805C148.283 110.843 148.285 110.797 148.43 110.99C148.375 111.345 148.006 111.625 147.819 111.939L147.885 112.031C148.413 112.057 148.877 111.706 149.387 111.703C149.514 111.703 149.593 111.784 149.671 111.88C149.779 112.013 149.913 112.253 149.882 112.42C149.608 112.259 149.36 112.123 149.057 112.026C148.859 112.127 148.875 112.082 148.773 112.306L149.083 112.651C149.079 112.691 149.074 112.731 149.072 112.771C149.058 113.009 149.083 113.088 149.22 113.281C149.329 113.436 149.341 113.483 149.347 113.668C149.043 113.767 148.872 113.67 148.593 113.529C148.552 113.508 148.511 113.485 148.47 113.463L148.348 113.495Z" fill="#231F20"/>
<path id="Vector_23" d="M148.234 112.902C147.898 112.927 147.683 113.133 147.347 113.154L147.301 112.964C147.36 112.691 147.385 112.513 147.606 112.318C148.052 112.254 148.428 112.545 148.816 112.753C148.606 112.85 148.471 112.936 148.234 112.902Z" fill="#FEFEFE"/>
<path id="Vector_24" d="M32.1682 109.564C34.821 113.074 37.3498 116.653 39.9006 120.236C41.3457 122.266 42.876 124.26 44.2307 126.351C44.1005 127.198 44.0533 128.109 43.8234 128.934C43.7524 129.19 43.7023 129.307 43.4759 129.443L43.2085 129.287C42.2476 127.514 41.0292 125.971 39.9781 124.263C38.9052 122.521 38.0025 120.654 36.959 118.886C36.5781 118.173 36.2192 117.468 35.6921 116.848L35.7481 116.93L35.4327 116.84L35.6142 116.775L35.4321 116.89C35.6344 117.781 36.1087 118.539 36.5547 119.325C37.0399 120.239 37.5185 121.157 38.0319 122.055C37.8805 122.565 37.7597 123.048 37.6826 123.575C37.9222 123.281 38.1739 122.991 38.3903 122.679C39.4831 124.605 40.684 126.407 41.9224 128.238C42.2428 128.712 42.5098 129.266 42.8617 129.709C42.8947 129.78 42.9587 129.926 43.0009 129.987C43.1434 130.193 43.3864 130.186 43.612 130.233C43.5818 131.612 42.6875 134.982 42.2979 136.431C38.5626 129.963 35.4727 122.973 30.957 116.997C31.6871 114.59 31.8484 112.049 32.1682 109.564Z" fill="#FEFEFE"/>
<path id="Vector_25" d="M63.6827 121.215C63.7515 121.214 63.8172 121.244 63.8835 121.263C63.9726 121.85 62.5274 127.56 62.2772 128.667C60.6292 129.365 58.931 129.956 57.2685 130.621C52.5443 132.512 47.828 134.421 43.1811 136.496L43.1024 136.497C42.9423 136.174 44.3591 130.435 44.5244 129.623C50.5145 125.881 57.0543 123.544 63.6827 121.215Z" fill="#FEFEFE"/>
<path id="Vector_26" d="M56.7379 128.932C56.9769 128.9 57.1323 128.871 57.3673 128.945L57.3625 129.043C57.063 129.346 50.1066 132.088 48.9412 132.627C48.782 132.675 48.6751 132.686 48.5114 132.692L48.4062 132.569C48.9756 131.81 55.3935 129.381 56.7379 128.932Z" fill="#231F20"/>
<path id="Vector_27" d="M56.8371 126.809C57.0296 126.848 56.9455 126.821 57.1468 126.911C57.3467 127 57.2795 126.931 57.3557 127.136C56.5282 127.651 55.4822 128.002 54.5866 128.397C52.6079 129.27 50.6245 130.131 48.681 131.08L48.5134 131.132C48.3059 131.013 48.2906 131.063 48.2227 130.817C48.5264 130.5 55.6926 127.356 56.8371 126.809Z" fill="#231F20"/>
<path id="Vector_28" d="M57.7186 125.311C57.9379 125.345 57.9838 125.307 58.1369 125.48C57.7534 125.936 50.0682 128.772 48.8708 129.255C48.6791 129.313 48.6444 129.304 48.4566 129.265L48.4414 129.104C49.0249 128.497 56.6084 125.565 57.7186 125.311Z" fill="#231F20"/>
<path id="Vector_29" d="M160.594 118.178C160.952 118.676 161.179 119.783 161.406 120.391C162.079 122.19 162.788 124.175 163.741 125.846C162.746 126.74 161.686 127.562 160.695 128.462C156.688 132.102 152.789 135.887 148.951 139.704C148.756 139.875 148.552 140.061 148.294 140.118C148.125 140.156 148.078 140.082 147.94 140.001C147.22 138.944 146.601 134.229 146.332 132.752C149.24 129.644 152.252 126.659 155.214 123.606C156.999 121.764 158.581 119.796 160.594 118.178Z" fill="#FEFEFE"/>
<path id="Vector_30" d="M157.753 124.164C158 124.464 158.695 126.185 158.966 126.693C157.731 127.942 156.376 129.074 155.116 130.299C154.043 131.342 153.05 132.505 151.932 133.494C151.703 133.697 151.505 133.822 151.225 133.942C151.238 133.801 151.254 133.658 151.257 133.516C151.275 132.7 150.556 131.84 150.012 131.286C151.444 130.085 152.797 128.816 154.127 127.503C155.293 126.352 156.416 125.122 157.753 124.164Z" fill="#231F20"/>
<path id="Vector_31" d="M157.503 125.096C157.846 125.368 158.123 126.028 158.345 126.421C157.316 127.371 156.221 128.248 155.209 129.216C153.999 130.373 152.885 131.628 151.685 132.796C151.46 132.658 151.394 132.399 151.279 132.165C152.485 131.241 153.584 130.117 154.697 129.081C154.907 128.895 155.076 128.721 155.243 128.495L155.182 128.536L155.213 128.341C153.842 128.557 152.248 131.041 151.103 131.781L150.934 131.584C151.226 130.961 156.646 125.905 157.503 125.096Z" fill="#FEFEFE"/>
<path id="Vector_32" d="M50.9502 104.365L51.1 104.367C51.8279 104.94 53.2224 107.039 53.8491 107.857C52.1219 107.844 50.4899 107.935 48.7993 108.327C47.8829 108.539 46.7236 108.846 46.2231 109.72C45.9537 110.191 46.1601 110.695 46.2989 111.17C46.1407 111.632 45.6737 111.802 45.4886 112.216C44.9558 113.407 46.3604 113.705 46.8378 114.234C47.0772 114.5 47.1831 115.126 47.3109 115.465C47.4744 115.898 47.7321 116.241 48.1727 116.413C48.7696 116.647 49.5393 116.604 50.1166 116.35C50.149 116.336 50.1808 116.321 50.213 116.306C50.3168 116.393 50.2909 116.354 50.3518 116.463C50.4714 116.675 50.5864 116.979 50.7567 117.152C50.9818 117.381 51.3007 117.469 51.6151 117.474C53.1426 117.499 54.9073 115.587 55.8958 114.588C56.4898 115.053 57.0235 115.326 57.7432 115.529C58.4904 115.368 58.8953 115.236 59.4441 114.666C60.3515 115.846 61.2141 117.052 62.0671 118.272C58.9118 119.053 55.8762 120.456 52.9209 121.778L44.7218 125.525C40.5169 120.227 36.8938 114.452 32.8047 109.059C34.3715 108.698 35.9635 108.465 37.5302 108.085C40.1448 107.45 42.7225 106.656 45.3094 105.919C47.1856 105.385 49.0784 104.915 50.9502 104.365Z" fill="#FEFEFE"/>
<path id="Vector_33" d="M117.74 94.3457C124.499 97.1721 129.31 101.579 132.288 108.312C129.459 109.809 130.199 111.39 128.675 113.249C128.226 113.795 127.615 114.153 127.03 114.535C123.348 116.707 118.771 116.845 114.625 116.815C115.374 109.27 116.158 101.774 117.74 94.3457Z" fill="#FEFEFE"/>
<path id="Vector_34" d="M140.127 110.129C140.819 110.369 141.524 111.259 142.148 111.706C143.829 112.909 145.65 113.93 147.288 115.191C148.651 116.24 149.906 117.42 151.202 118.548C152.62 119.782 154.083 120.973 155.524 122.181C153.885 123.812 152.329 125.537 150.722 127.2C148.985 128.996 147.179 130.751 145.514 132.611C145.998 134.682 146.079 136.85 146.527 138.943C143.254 136.067 139.71 133.491 136.322 130.754C134.488 129.273 132.705 127.682 130.972 126.083C129.936 125.175 128.891 124.283 127.762 123.492C128.158 121.797 128.512 120.104 128.68 118.37C129.625 118.306 130.302 118.07 131.125 117.631C131.29 118.467 131.48 119.295 131.98 120.005C132.366 120.55 132.922 120.978 133.599 121.063C134.05 121.119 134.492 121.002 134.846 120.716C135.616 120.095 135.809 119.108 135.914 118.182C136.185 118.69 137.372 120.316 137.424 120.639C137.225 120.525 137.129 120.468 136.896 120.49C136.21 121.026 134.705 122.133 134.559 123.03C134.455 123.674 134.978 124.445 135.355 124.917C136.349 126.157 140.149 129.256 141.634 129.387C142.292 129.445 142.941 129.245 143.442 128.812C143.93 128.39 144.349 127.782 144.383 127.121C144.412 126.562 144.165 126.043 143.816 125.62C143.066 124.714 141.896 124.089 141 123.323C140.082 122.538 139.258 121.622 138.426 120.747C138.883 120.591 139.351 120.438 139.728 120.124C140.266 119.674 140.5 118.847 140.553 118.178C141.41 117.642 142.034 116.957 142.249 115.942C142.699 113.822 141.201 111.806 140.127 110.129Z" fill="#706C6D"/>
<path id="Vector_35" d="M115.266 14.9802C116.217 14.909 117.19 15.0853 118.047 15.5061C119.697 16.3169 120.536 17.9148 121.086 19.5855C121.749 21.603 121.949 23.7293 121.777 25.8413C121.198 32.928 116.508 42.1377 113.279 48.5013C112.16 48.1075 111.024 47.7617 109.892 47.4071C107.331 46.6224 104.702 46.0913 102.08 45.5542C101.292 36.8615 102.341 27.1486 107.783 20.0117C109.697 17.5023 112.034 15.4139 115.266 14.9802Z" fill="#FEFEFE"/>
<path id="Vector_36" d="M110.001 35.1507C110.408 35.1099 110.826 35.0905 111.215 35.2346C111.722 35.4222 112.11 35.7873 112.332 36.2797C112.731 37.1662 112.591 38.2461 112.272 39.1354C111.864 40.2727 111.163 41.1808 110.061 41.6952C109.779 41.7258 109.46 41.7426 109.183 41.6744C108.625 41.5373 108.145 41.1762 107.874 40.6703C107.408 39.7992 107.501 38.6628 107.805 37.7559C108.201 36.5722 108.876 35.6932 110.001 35.1507Z" fill="#231F20"/>
<path id="Vector_37" d="M110.309 35.5197C110.525 35.5136 110.729 35.5058 110.939 35.5669C111.352 35.6869 111.717 35.9887 111.912 36.3713C112.31 37.1524 112.134 38.2325 111.837 39.0146C111.465 39.9919 110.873 40.8296 109.904 41.263C109.655 41.2644 109.38 41.2749 109.14 41.2015C108.688 41.0635 108.296 40.7093 108.11 40.2774C107.783 39.5189 107.959 38.502 108.24 37.7574C108.652 36.6625 109.25 35.9942 110.309 35.5197Z" fill="#FEFEFE"/>
<path id="Vector_38" d="M114.74 20.5835C115.436 20.5284 116.099 20.5791 116.724 20.92C117.491 21.3383 117.988 22.0875 118.234 22.9105C118.637 24.2546 118.502 26.2927 117.785 27.5172C117.411 28.1536 116.834 28.6398 116.473 29.2941C116.499 29.351 116.518 29.4114 116.55 29.4649C116.933 30.0992 116.931 30.5629 116.982 31.2959C116.215 32.3221 115.461 33.2967 114.254 33.8317C113.312 34.2493 112.274 34.3211 111.312 33.9261C110.132 33.442 109.323 32.3909 108.868 31.2298C108.031 29.0922 108.499 26.8539 109.378 24.8196C109.713 24.2247 110.091 23.658 110.59 23.187C111.387 23.8724 112.056 24.7146 112.77 25.4849L116.03 28.9458C116.098 28.8811 116.165 28.8165 116.23 28.7493C117.433 27.4997 118.172 26.0539 118.121 24.2803C118.092 23.2975 117.766 22.2552 117.009 21.5897C116.452 21.1009 115.746 20.9038 115.013 20.9584C113.285 21.087 112.144 22.2855 111.106 23.5279C111.199 23.3121 111.303 23.1093 111.426 22.9082C112.195 21.6426 113.31 20.9146 114.74 20.5835Z" fill="#231F20"/>
<path id="Vector_39" d="M110.535 23.8418C111.02 24.0446 115.652 29.1536 116.179 29.8737C116.4 30.177 116.605 30.4301 116.53 30.8235C116.329 31.8859 115.28 32.7623 114.423 33.3381C114.163 33.4598 113.903 33.5682 113.625 33.6461C112.738 33.8946 111.81 33.7883 111.014 33.3172C109.97 32.6989 109.27 31.5864 108.975 30.4278C108.368 28.0484 109.341 25.8543 110.535 23.8418Z" fill="#FEFEFE"/>
<path id="Vector_40" d="M91.7413 46.1224C94.8621 45.6663 100.171 46.4665 103.28 47.1271C108.461 48.228 116.577 50.4084 120.979 53.4955C122.342 54.4516 123.544 55.6839 124.444 57.0862C125.547 58.8031 126.588 61.5442 126.333 63.6153C126.133 65.2448 125.19 67.0352 124.569 68.555C123.487 71.2033 122.348 73.8286 121.361 76.5148C119.505 81.5646 118.109 86.6712 116.953 91.9202C115.786 91.4047 111.067 89.3669 109.931 89.7849C109.682 89.8763 109.535 90.0111 109.443 90.2633C109.361 90.4895 109.376 90.7264 109.48 90.9431C109.611 91.2165 109.837 91.3735 110.104 91.4951C110.924 91.8691 111.886 92.0636 112.752 92.3351C114.058 92.7445 115.336 93.2275 116.597 93.7592C116.13 95.5271 115.832 97.376 115.508 99.1756C114.46 105.005 113.847 110.868 113.339 116.765C110.187 116.331 107.131 115.924 104.159 114.694C103.078 114.247 102.133 113.449 101.044 113.042C100.725 112.922 100.438 112.923 100.132 113.085C99.8449 113.236 99.5948 113.52 99.5429 113.848C99.4941 114.156 99.6409 114.446 99.839 114.671C100.384 115.288 101.361 115.637 102.098 115.963C105.902 117.64 109.084 118.242 113.203 118.553C112.732 124.005 112.734 129.546 112.836 135.013C112.882 137.547 113.178 140.201 113.006 142.724C112.964 143.353 112.747 143.888 112.505 144.461C111.415 146.64 109.338 147.962 107.133 148.807C106.731 147.881 105.892 145.145 105.363 144.504C105.196 144.301 105.083 144.34 104.838 144.326C104.699 144.407 104.609 144.422 104.543 144.579C104.205 145.383 105.481 148.281 105.827 149.181C101.944 150.08 97.8892 149.836 94.3946 147.8C91.393 146.052 88.97 143.24 87.0499 140.389C82.2859 133.316 80.0948 126.173 77.9445 118.027C80.299 117.658 82.5219 116.987 84.8285 116.43C85.5985 116.244 86.5274 116.206 87.2546 115.919C87.4529 115.84 87.5926 115.709 87.713 115.534C87.8872 115.28 87.9577 114.997 87.8811 114.691C87.821 114.45 87.6469 114.182 87.4239 114.061C87.1465 113.91 86.9158 113.898 86.6127 113.95C85.4989 114.141 84.3555 114.622 83.2754 114.972C81.4136 115.576 79.547 116.155 77.6473 116.629C76.2642 110.896 75.5708 104.931 75.0064 99.0666C73.8377 86.9269 73.5612 67.084 78.6021 56.0023C79.363 54.3296 80.375 52.7351 81.5493 51.3223C84.1506 48.193 87.7208 46.4968 91.7413 46.1224Z" fill="#FEFEFE"/>
<path id="Vector_41" d="M78.0869 89.1116C78.1632 89.1112 78.2398 89.111 78.3163 89.1124C78.6543 89.1188 78.9927 89.1265 79.241 89.382C79.3248 89.6875 79.2757 89.7448 79.1734 90.035C78.8173 89.9584 78.2828 89.9139 78.0619 89.5985C77.9674 89.4639 78.056 89.266 78.0869 89.1116Z" fill="#231F20"/>
<path id="Vector_42" d="M83.6258 121.602C83.7259 121.596 83.8263 121.589 83.9269 121.588C84.2883 121.584 84.5648 121.628 84.8198 121.903C84.9373 122.03 84.9019 122.078 84.9034 122.238C84.7356 122.506 84.5707 122.579 84.2965 122.706C84.1491 122.721 84.0025 122.731 83.8543 122.732C83.5321 122.735 83.2108 122.72 82.9821 122.459C82.8863 122.35 82.924 122.29 82.9317 122.156C83.1097 121.858 83.3247 121.76 83.6258 121.602Z" fill="#231F20"/>
<path id="Vector_43" d="M108.785 109.803C109.282 109.832 109.786 109.878 110.234 110.114C110.448 110.227 110.512 110.309 110.589 110.533C110.444 110.772 110.369 110.802 110.122 110.942C109.561 110.834 108.602 110.855 108.195 110.439L108.199 110.245C108.359 110.024 108.552 109.93 108.785 109.803Z" fill="#231F20"/>
<path id="Vector_44" d="M109.93 57.7953C110.224 57.793 110.49 57.7978 110.769 57.901C111.065 58.0109 111.416 58.1838 111.509 58.5136C111.568 58.7235 111.53 58.8781 111.424 59.0584L111.215 59.1057C110.775 59.0139 110.132 58.9415 109.753 58.704C109.531 58.5654 109.52 58.526 109.473 58.2889C109.567 58.0396 109.724 57.9444 109.93 57.7953Z" fill="#231F20"/>
<path id="Vector_45" d="M105.136 120.445C105.383 120.452 105.63 120.475 105.873 120.524C106.303 120.61 106.941 120.758 107.193 121.151C107.11 121.389 107.056 121.397 106.845 121.541C106.223 121.48 105.347 121.485 104.778 121.211C104.594 121.123 104.591 121.091 104.535 120.909C104.657 120.644 104.888 120.568 105.136 120.445Z" fill="#231F20"/>
<path id="Vector_46" d="M111.146 81.627C111.305 81.6332 111.453 81.6443 111.61 81.6681C112.066 81.7365 112.572 81.9787 112.839 82.3708C112.964 82.5547 112.99 82.5833 112.956 82.8078C112.794 82.9533 112.666 82.9809 112.456 83.0295C111.871 82.7882 110.919 82.6482 110.481 82.1813C110.376 82.0701 110.415 82.0863 110.429 81.913C110.643 81.7008 110.863 81.6808 111.146 81.627Z" fill="#231F20"/>
<path id="Vector_47" d="M119.04 65.1896C119.303 65.1883 119.558 65.1923 119.809 65.2786C120.267 65.4359 120.746 65.7299 120.941 66.193C121.073 66.5074 120.996 66.7211 120.872 67.0109C120.754 66.9972 120.635 66.9814 120.519 66.9524C120.004 66.8231 119.183 66.361 118.965 65.8567C118.841 65.5678 118.936 65.4578 119.04 65.1896Z" fill="#231F20"/>
<path id="Vector_48" d="M105.818 135.126C106.039 135.103 106.252 135.089 106.475 135.099C106.817 135.116 107.076 135.18 107.307 135.44L107.242 135.659C106.745 136.158 106.277 136.153 105.614 136.23L105.253 136.261C105.039 136.28 104.809 136.317 104.595 136.302C104.361 136.286 104.233 136.223 104.094 136.042L104.166 135.838C104.678 135.368 105.16 135.281 105.818 135.126Z" fill="#231F20"/>
<path id="Vector_49" d="M90.7251 136.279C90.9018 136.269 91.0781 136.261 91.2552 136.259C91.6687 136.253 92.0183 136.261 92.3207 136.559L92.2632 136.762C91.7639 137.309 91.1939 137.152 90.5234 137.324L90.4284 137.349L90.0197 137.495C89.8687 137.549 89.7009 137.625 89.5414 137.645C89.318 137.674 89.2045 137.611 89.0421 137.473C89.0329 137.266 89.0377 137.213 89.1597 137.032C89.5248 136.493 90.1271 136.384 90.7251 136.279Z" fill="#231F20"/>
<path id="Vector_50" d="M87.1877 54.5626C87.9938 54.5432 88.508 54.6537 89.1749 55.1364C89.4704 55.3503 89.5967 55.5525 89.6481 55.9113C89.4782 56.2306 89.4279 56.2472 89.1259 56.4161C88.6245 56.2959 88.1073 55.9996 87.6348 55.7854C87.3067 55.6367 86.9162 55.4415 86.7852 55.0852C86.8623 54.8016 86.9704 54.7525 87.1877 54.5626Z" fill="#231F20"/>
<path id="Vector_51" d="M90.4766 109.35C90.7915 109.395 91.1027 109.588 91.3937 109.713C92.2036 110.063 93.0398 110.313 93.9247 110.351C94.6405 110.381 95.3845 110.307 96.0862 110.167C96.5682 110.071 97.1951 109.815 97.6763 109.849C97.8597 109.862 97.8416 109.898 97.9566 110.026L97.9395 110.264C97.7931 110.328 97.6491 110.388 97.499 110.443C95.8008 111.067 93.3075 111.427 91.618 110.597C91.0124 110.299 90.7028 109.982 90.4766 109.35Z" fill="#231F20"/>
<path id="Vector_52" d="M88.3759 64.3613C88.4989 64.3731 88.622 64.3855 88.744 64.4053C89.1291 64.468 89.5 64.643 89.7224 64.9751C89.9333 65.2904 90.0568 65.8061 89.9451 66.1769C89.8636 66.4467 89.7221 66.6132 89.5054 66.7885C88.72 67.4234 87.6854 67.8209 86.7917 68.2836C85.8316 68.781 84.8882 69.3091 83.9248 69.8006C83.7557 69.8198 83.6234 69.8198 83.4533 69.7901C83.041 69.7177 82.6691 69.3466 82.4694 68.9956C82.3185 68.7302 82.3098 68.4561 82.4098 68.1724C82.5074 67.8953 82.7916 67.6316 83.0247 67.4659C83.7923 66.9207 84.7659 66.5916 85.5875 66.1198C86.5425 65.5711 87.391 64.8635 88.3759 64.3613Z" fill="#231F20"/>
<path id="Vector_53" d="M100.568 65.2227C100.755 65.2248 100.93 65.2307 101.114 65.2699C101.147 65.2769 101.179 65.2876 101.21 65.299C101.968 65.5727 103.105 67.2351 103.768 67.8451C104.528 68.5445 106.101 69.275 106.542 70.1822C106.678 70.4619 106.688 70.8104 106.565 71.0967C106.359 71.5771 105.903 71.7969 105.455 72.0023C105.281 72.0122 105.099 72.017 104.927 71.9844C104.228 71.8529 99.9201 67.9477 99.5105 67.21C99.361 66.9405 99.3692 66.5983 99.4606 66.31C99.6329 65.7658 100.088 65.4715 100.568 65.2227Z" fill="#231F20"/>
<path id="Vector_54" d="M103.381 93.6562C103.429 93.6911 103.48 93.7218 103.524 93.7608C104.436 94.5617 105.124 95.8666 105.173 97.0695C105.292 99.9875 103.743 103.424 101.78 105.527C99.2547 108.232 95.324 108.916 91.7824 108.99C91.3513 108.999 90.5484 109.032 90.2258 108.722L90.2851 108.593C91.1081 108.049 92.4295 108.005 93.3883 107.912C93.5802 106.326 93.5418 104.905 93.2636 103.332L91.9883 103.053C91.2694 102.454 90.6922 101.682 90.1003 100.962C88.5381 101.172 86.9939 101.296 85.4175 101.178C84.1772 101.085 82.4559 100.897 81.5898 99.885L81.6371 99.7713C82.5201 99.5819 83.7404 100.019 84.6455 100.129C85.4074 100.222 86.1784 100.241 86.9449 100.221C93.0177 100.068 99.1229 98.1211 103.381 93.6562Z" fill="#231F20"/>
<path id="Vector_55" d="M103.344 95.2188C103.77 95.6552 103.961 96.1364 104.152 96.7022C101.534 99.0692 98.8052 100.673 95.4459 101.766C94.68 102.015 93.3987 102.455 92.6437 102.068C92.1193 101.735 91.7218 101.31 91.3086 100.854C95.7374 99.8942 99.9789 98.3685 103.344 95.2188Z" fill="#FEFEFE"/>
<path id="Vector_56" d="M86.9763 71.7144C87.0618 71.7066 87.1473 71.6986 87.2328 71.6922C88.6104 71.5876 90.1559 72.1488 91.1857 73.0678C93.333 74.9839 93.8668 78.2665 94.0148 80.9885C94.6335 78.2894 95.8562 75.5491 98.1861 73.9051C99.3986 73.0493 100.936 72.5674 102.42 72.8488C103.745 73.1004 104.696 74.0554 105.424 75.1296C107.215 77.771 107.451 81.3024 106.831 84.3578C106.213 87.4074 104.757 90.3167 102.116 92.0723C101.446 92.4497 100.802 92.7453 100.028 92.846C98.8043 93.0054 97.6428 92.6537 96.6855 91.8857C94.3813 90.0372 93.7765 87.1787 93.5019 84.3988C93.3164 84.8811 93.1315 85.3652 92.9261 85.8394C92.017 87.9375 90.5236 90.1705 88.2843 90.9958C87.1475 91.415 85.8857 91.4151 84.7831 90.888C83.336 90.196 82.3349 88.5804 81.8054 87.1158C80.5952 83.7679 81.065 79.407 82.5602 76.2238C83.5386 74.1411 84.7654 72.5188 86.9763 71.7144Z" fill="#231F20"/>
<path id="Vector_57" d="M88.3622 72.8554C89.2174 72.7743 89.8788 72.9716 90.5609 73.5135C92.0459 74.6935 92.636 76.9849 92.8327 78.7841C93.1801 81.9635 92.4463 85.6293 90.3872 88.1536C89.4741 89.2733 88.3273 90.0569 86.8614 90.2083C86.1658 90.202 85.5815 90.0718 84.9742 89.7151C83.6727 88.9505 82.9439 87.5351 82.5676 86.1221C81.7189 82.9354 82.0182 79.1049 83.7254 76.2437C84.8072 74.4305 86.3271 73.3629 88.3622 72.8554Z" fill="#FEFEFE"/>
<path id="Vector_58" d="M85.2889 76.7524C85.567 76.7313 85.8244 76.7258 86.0842 76.8372C86.5551 77.0392 86.9034 77.3685 87.09 77.8491C87.5255 78.9705 87.1904 80.4789 86.6823 81.5379C86.1935 82.5567 85.5736 83.2129 84.5053 83.5925C84.1705 83.6005 83.8468 83.5793 83.5358 83.4405C83.0689 83.2318 82.748 82.825 82.5955 82.3431C82.2262 81.1765 82.6719 79.4179 83.2673 78.3892C83.7584 77.541 84.3394 76.9986 85.2889 76.7524Z" fill="#231F20"/>
<path id="Vector_59" d="M83.7146 78.3379C84.0124 78.3767 84.3125 78.4 84.5425 78.618C84.7884 78.8511 84.8741 79.1152 84.851 79.4466C84.8219 79.8619 84.5863 80.1156 84.2942 80.3825C84.0335 80.3949 83.729 80.4208 83.4986 80.2727C83.3044 80.1479 83.1604 79.9396 83.1437 79.705C83.1063 79.1805 83.4209 78.7387 83.7146 78.3379Z" fill="#FEFEFE"/>
<path id="Vector_60" d="M100.918 73.6176C101.963 73.5161 102.88 73.5911 103.766 74.2114C105.116 75.1561 105.777 76.9979 106.059 78.5591C106.683 82.0184 105.866 86.1745 103.816 89.0518C102.831 90.4341 101.581 91.475 99.8671 91.76C99.0995 91.7838 98.402 91.6336 97.7267 91.2609C96.312 90.4802 95.4918 88.9885 95.0418 87.4895C94.1228 84.4285 94.4614 80.4702 95.9972 77.6555C97.1175 75.6025 98.6868 74.2868 100.918 73.6176Z" fill="#FEFEFE"/>
<path id="Vector_61" d="M98.3231 76.8281C98.5189 76.8352 98.7032 76.847 98.8828 76.9348C99.4271 77.2012 99.8666 77.691 100.054 78.2653C100.473 79.5457 100.189 81.0878 99.5489 82.2565C99.0285 83.2077 98.3658 83.7811 97.3302 84.0881C97.0492 84.0879 96.7702 84.0681 96.5021 83.9755C96.0363 83.8144 95.664 83.4037 95.4756 82.9575C95.0354 81.9135 95.2898 80.3414 95.7228 79.3161C96.245 78.0791 97.1149 77.3411 98.3231 76.8281Z" fill="#231F20"/>
<path id="Vector_62" d="M96.5434 78.707C96.5782 78.7095 96.6131 78.7105 96.6479 78.7146C97 78.7556 97.2824 78.8982 97.4827 79.1945C97.6564 79.4516 97.7006 79.7521 97.6374 80.0507C97.5469 80.4778 97.3241 80.6816 96.9638 80.9012C96.6559 80.8884 96.3501 80.8745 96.1162 80.646C95.9262 80.4603 95.8563 80.2449 95.8483 79.9848C95.8313 79.4331 96.1598 79.0517 96.5434 78.707Z" fill="#FEFEFE"/>
</g>
<defs>
<clipPath id="clip0_782_1841">
<rect width="195" height="195" fill="white"/>
</clipPath>
</defs>
</svg>
