<svg width="212" height="212" viewBox="0 0 212 212" fill="none" xmlns="http://www.w3.org/2000/svg">
<g clip-path="url(#clip0_485_29)">
<path d="M0 0H212V212H0V0Z" fill="#FEFEFE"/>
<path d="M111.133 132.805C112.121 132.788 113.288 133.261 114.267 133.473C115.167 133.667 116.159 133.65 117.023 133.898L116.843 134.128L116.51 134.247L116.23 134.343C114.677 134.822 112.502 133.518 111.133 132.805Z" fill="#92949C"/>
<path d="M105.434 126.484C106.63 126.671 107.877 127.243 109.053 127.576C110.389 127.954 111.746 128.164 113.09 128.495L113.071 128.703C112.733 128.853 112.425 128.93 112.054 128.948C109.633 129.066 107.214 128.083 105.434 126.484Z" fill="#92949C"/>
<path d="M138.741 150.789L138.807 150.994C138.313 152.56 137.875 154.156 137.279 155.686C137.066 156.232 136.872 156.812 136.556 157.308C136.102 158.021 135.629 158.171 134.844 158.363L134.832 158.281C134.826 157.579 136.298 155.38 136.675 154.624C137.186 153.6 137.595 152.468 138.176 151.487C138.329 151.229 138.535 151.007 138.741 150.789Z" fill="#92949C"/>
<path d="M82.8162 53.0547L83.07 53.1423C83.2903 53.4008 83.3236 53.5042 83.3536 53.8273C82.9298 54.1542 82.4621 54.4105 82.0377 54.7418C80.9874 55.562 80.0351 56.4672 79.1399 57.4529C78.3716 58.2986 77.7555 59.2861 76.9182 60.0615C76.6094 59.776 76.4135 59.6782 76.3164 59.2619C77.199 57.5458 79.0368 56.0384 80.4995 54.8271C81.2467 54.2083 81.9744 53.5433 82.8162 53.0547Z" fill="#92949C"/>
<path d="M47.9174 157.727L48.3372 157.774L48.5561 158.121C48.3884 158.521 47.4155 158.965 47.0495 159.253C44.3322 161.395 42.6807 164.295 42.2509 167.703C42.0004 167.658 41.7723 167.636 41.5632 167.479C41.4394 166.911 41.6029 166.291 41.7559 165.739C42.6815 162.404 44.8842 159.441 47.9174 157.727Z" fill="#92949C"/>
<path d="M85.0068 54.9609L85.6082 54.9721L85.8515 55.2452C85.8728 55.3419 85.9298 55.4373 85.9153 55.5352C85.8774 55.794 82.9512 58.5053 82.5313 58.9564C80.3633 61.2853 78.5756 63.7575 77.1984 66.6278L77.0318 66.7149C76.7804 66.6265 76.6486 66.6263 76.4844 66.4044C77.5821 63.1418 80.402 60.058 82.6467 57.4904C83.3945 56.6352 84.1178 55.6723 85.0068 54.9609Z" fill="#92949C"/>
<path d="M136.337 142.59L136.532 142.748L136.538 142.9C136.688 146.804 134.72 150.9 132.705 154.135C131.974 155.308 131.177 156.498 130.225 157.505C129.34 158.441 128.546 159.305 127.188 159.337C127.138 159.242 127.042 159.159 127.039 159.052C127.03 158.669 128.041 157.674 128.323 157.386C128.978 156.719 129.692 156.092 130.298 155.379C133.386 151.747 135.473 147.266 136.337 142.59Z" fill="#92949C"/>
<path d="M91.7527 93.0963L92.0752 93.0781C92.604 93.086 93.2096 93.1829 93.5735 93.6003C93.7663 93.8214 93.8555 94.0474 93.835 94.3363C92.9777 94.3282 92.163 94.2323 91.2989 94.312C90.2368 94.41 89.1412 94.742 88.1095 95.0097C88.2756 95.9174 88.4449 96.8602 88.829 97.7047C89.3865 98.9311 90.2335 100.02 91.539 100.49L91.702 100.546C92.6102 100.868 93.5625 100.728 94.4735 100.494L94.5569 100.465L94.6049 100.564C94.1052 100.993 93.6224 101.37 92.9696 101.544C91.9061 101.829 90.7018 101.597 89.7648 101.049C88.3845 100.242 87.6207 98.7493 87.2346 97.251C86.9796 96.2612 87.0042 95.1917 86.9609 94.1733C88.587 93.8485 90.0859 93.2957 91.7527 93.0963Z" fill="#92949C"/>
<path d="M54.7063 158.816C54.9862 158.772 55.2006 158.744 55.4837 158.803L55.6549 159.122C55.6437 159.194 55.6627 159.278 55.6215 159.338C55.4391 159.605 53.2454 160.457 52.7506 160.736C51.0296 161.708 49.4858 162.961 48.2819 164.54C46.6523 166.678 45.0663 170.06 45.9039 172.788C46.0039 173.113 46.1169 173.455 46.2857 173.753C46.4935 174.119 46.8977 174.532 46.9264 174.962L46.93 175.155C46.6708 175.257 46.5937 175.314 46.324 175.265C45.6915 174.729 45.3141 173.775 45.0269 173.009C44.2922 171.051 44.9596 168.528 45.7963 166.7C47.5221 162.93 50.888 160.258 54.7063 158.816Z" fill="#92949C"/>
<path d="M114.573 70.7202C115.345 70.6964 116.066 70.6777 116.813 70.9216C118.256 71.3932 119.321 72.3387 120.013 73.6927C120.544 74.7287 120.999 76.5645 120.586 77.6936C120.394 78.2201 120.113 78.4749 119.623 78.724C119.448 78.7155 119.262 78.7076 119.093 78.6582C118.227 78.4033 118.07 77.2787 117.717 76.5663C117.476 76.0823 117.176 75.6264 116.846 75.1991C116.522 74.7794 116.169 74.3979 115.748 74.0741C115.184 73.641 113.873 73.0816 113.591 72.4503C113.481 72.204 113.433 71.8535 113.525 71.605C113.713 71.0957 114.103 70.9276 114.573 70.7202Z" fill="#92949C"/>
<path d="M99.5449 67.3121C99.7188 67.2959 99.8807 67.2922 100.056 67.303C101.067 67.3647 102.1 67.6237 102.772 68.4365C103.036 68.7551 103.255 69.2561 103.192 69.6739C102.926 71.438 100.851 70.6246 99.7217 70.7451C98.4652 70.879 97.2652 71.379 96.2334 72.0962L96.1154 72.1792C95.7094 72.4949 95.2987 72.8421 94.8434 73.0841C94.4473 73.2949 94.0033 73.4355 93.5664 73.2373C93.2805 73.1075 93.0712 72.8133 92.989 72.5127C92.8383 71.9602 93.0658 71.3612 93.3857 70.912C94.7482 68.9986 97.2727 67.6914 99.5449 67.3121Z" fill="#92949C"/>
<path d="M118.553 133.7L120.384 133.633C117.264 140.233 113.514 146.742 108.843 152.375C106.335 155.398 103.481 158.225 100.19 160.386C99.0179 161.156 97.867 161.87 96.5538 162.378C95.0698 162.953 93.6059 163.214 92.025 163.359C91.821 163.217 91.8126 163.165 91.7148 162.933C92.0324 162.534 94.551 161.788 95.2064 161.476C97.7655 160.254 99.8911 158.629 102.075 156.851C103.588 155.535 105.16 154.033 106.365 152.428L105.741 152.296C104.362 152.04 103.239 151.373 102.103 150.588C102.957 150.762 103.82 150.965 104.683 151.086C105.526 151.205 106.313 151.269 107.136 151.507L110.181 147.518C106.218 147.177 101.195 146.36 98.1239 143.644C99.6549 143.963 101.133 144.481 102.644 144.881C105.304 145.586 108.16 146.093 110.903 146.285L118.553 133.7Z" fill="#92949C"/>
<path d="M98.1861 77.6797C98.4968 77.6938 98.8144 77.7018 99.1202 77.7629C99.9458 77.9277 100.639 78.2911 101.1 79.0138C101.869 80.2212 101.75 82.9201 101.399 84.2964L100.956 85.8129C99.9821 88.6331 97.8602 90.8997 95.1843 92.1961L94.3715 92.4168C93.784 92.5108 93.0817 92.5329 92.5971 92.1429C92.0582 91.7092 91.8596 91.0701 91.7958 90.4084C91.5143 87.4917 92.5443 81.8292 94.4819 79.5154C95.5303 78.2633 96.5855 77.8151 98.1861 77.6797Z" fill="#92949C"/>
<path d="M97.3933 79.0974C97.8622 79.0666 98.4073 79.1349 98.8719 79.207C99.2326 79.2629 99.6417 79.4622 99.8365 79.7829C100.525 80.9166 99.9762 83.0979 99.6121 84.2892C99.4112 83.5863 99.2719 82.9284 98.7659 82.3752C98.5518 82.3143 98.5241 82.2864 98.2908 82.3371C97.861 82.4304 97.5345 82.7505 97.3055 83.1132C96.0799 85.0535 95.8716 87.4758 96.348 89.6743L96.3675 89.9022C96.0182 90.315 95.4673 90.6423 94.9717 90.8556C94.517 91.0512 94.029 91.0833 93.5676 90.9115C93.3196 90.6883 93.1483 90.4916 93.049 90.1666C92.8521 89.5227 92.9152 88.771 92.9632 88.106C93.1384 85.6792 93.8748 82.8743 95.1116 80.7659C95.6447 79.857 96.3737 79.349 97.3933 79.0974Z" fill="#FEFEFE"/>
<path d="M111.985 79.4009C113.041 79.2711 114 79.5206 114.905 80.069C115.585 80.4806 116.069 81.1013 116.25 81.8772L116.284 82.0346C116.513 83.0165 116.535 84.1689 116.395 85.168C116.066 87.5226 115.35 89.8434 114.069 91.8673C113.172 93.2863 112.144 94.0393 110.491 94.4163C109.871 94.4165 109.259 94.4341 108.657 94.2641L108.485 94.2126L107.813 93.9805C106.937 93.5848 106.301 92.9743 106.003 92.0543C105.739 91.2383 105.792 90.2634 105.862 89.4185C106.031 87.4097 106.432 85.4224 107.363 83.6186C108.343 81.7191 109.931 80.063 111.985 79.4009Z" fill="#92949C"/>
<path d="M111.51 80.6562C112.093 80.627 112.574 80.6434 113.134 80.8127C113.856 81.0309 114.513 81.4527 114.867 82.1369C115.583 83.5195 114.806 86.1024 114.312 87.4889C114.179 86.809 114.096 85.674 113.607 85.1709C113.348 84.9039 113.309 84.9155 112.934 84.9063C112.458 85.1146 112.095 85.3796 111.784 85.8016C110.693 87.2787 110.294 89.5306 110.586 91.3123C110.705 91.6806 110.849 91.9342 111.089 92.2394C111.198 92.3783 111.162 92.2903 111.175 92.4901C111.036 92.5969 110.903 92.6984 110.74 92.7665C109.746 93.1804 108.889 93.017 107.928 92.6574L107.468 92.1278C106.799 91.2171 106.801 89.8115 106.997 88.7399C107.22 87.5209 107.478 86.3413 107.914 85.1769C108.599 83.3457 109.666 81.4918 111.51 80.6562Z" fill="#FEFEFE"/>
<path d="M93.7109 164.557L97.9006 163.402C97.4526 166.155 97.9673 169.034 99.5173 171.369C100.679 173.118 102.668 174.517 104.742 174.932C106.419 175.267 107.639 175.12 109.261 174.638C109.736 174.497 110.232 174.389 110.648 174.112L110.682 173.335C110.957 173.171 111.009 173.164 111.331 173.163L111.917 172.766C112.552 172.422 113.488 172.384 114.178 172.61C114.607 172.75 114.944 173.072 115.12 173.481C115.194 173.653 115.242 173.786 115.372 173.923L115.477 174.028C115.93 173.743 116.488 173.556 117.025 173.699C117.693 173.878 118.13 174.327 118.452 174.921C119.484 176.82 118.694 179.836 118.066 181.763C117.121 184.662 115.686 188.081 113.722 190.449C112.3 192.164 110.392 193.601 108.409 194.608C106.98 195.333 104.986 196.218 103.359 195.753C102.698 195.564 102.01 195.114 101.689 194.492C101.022 193.199 101.262 191.471 101.741 190.153C102.276 188.678 103.233 187.409 104.106 186.123C104.739 185.19 105.302 184.227 105.81 183.221C106.061 182.724 106.985 180.227 107.242 180.028L107.433 180.168C107.229 181.858 106.666 183.413 105.88 184.919C104.667 187.241 102.15 189.718 102.27 192.499C102.293 193.043 102.413 193.603 102.766 194.036C103.106 194.454 103.656 194.531 104.164 194.556C106.375 194.664 109.333 192.541 110.862 191.119C113.291 188.859 114.935 185.889 116.219 182.859C116.828 181.419 117.432 179.833 117.488 178.252C117.536 176.944 117.428 175.733 116.506 174.712C116.21 174.386 115.934 174.222 115.523 174.075C115.349 174.418 115.5 174.837 115.49 175.214C115.45 176.685 115.16 178.189 114.582 179.545C113.962 180.999 112.857 183.249 111.273 183.813C110.545 184.073 109.845 183.923 109.173 183.579C108.622 183.296 108.245 182.888 108.076 182.291C107.984 181.964 107.893 181.385 108.002 181.057C108.139 180.645 108.942 180.188 109.267 179.899C109.518 179.676 109.674 179.393 109.833 179.102L109.908 178.963C108.787 179.034 107.584 179.13 106.464 179.011C103.905 178.74 101.587 178.024 99.4662 176.539C96.5785 174.519 94.9765 171.137 94.2281 167.796C93.9888 166.727 93.9004 165.635 93.7109 164.557Z" fill="#92949C"/>
<path d="M112.368 173.894C112.619 173.886 112.927 173.856 113.165 173.946C113.644 174.127 113.91 174.677 114.049 175.133C114.179 175.555 114.105 176.135 114.042 176.57C113.823 178.067 113.289 179.405 112.526 180.702C112.023 181.556 111.62 182.224 110.615 182.48L110.437 182.4C109.926 182.17 109.625 181.933 109.23 181.545L110.383 181.195C111.078 180.382 111.622 179.561 112.017 178.563C112.545 177.225 112.642 175.748 112.044 174.415L111.977 174.27L112.368 173.894Z" fill="#FEFEFE"/>
<path d="M111.447 97.6016L112.106 97.6018C112.929 98.0825 113.659 99.3042 114.241 100.072C114.584 100.525 114.994 100.975 115.29 101.456C115.512 101.818 115.467 101.985 115.394 102.373C115.145 102.604 115.014 102.646 114.694 102.715C114.028 102.518 113.37 101.605 112.908 101.11C112.49 102.83 111.876 104.504 111.236 106.152C110.255 108.679 109.206 111.09 107.364 113.125C105.564 115.113 103.3 116.266 100.606 116.384C97.7033 116.511 95.4592 115.536 93.3502 113.585C91.6076 111.634 90.7207 109.524 90.2006 106.976C89.3406 106.851 87.9995 106.609 87.3103 106.069C87.096 105.901 87.1026 105.839 87.0664 105.585L87.2763 105.308C87.8622 105.367 88.4587 105.618 89.0311 105.767C89.9214 105.997 90.8224 106.107 91.7403 106.143C97.5196 106.371 104.042 105.15 109.104 102.286C110.211 101.659 111.269 101.042 112.206 100.173C111.808 99.6154 111.323 99.0377 111.093 98.3908C111.128 98.0417 111.239 97.8794 111.447 97.6016Z" fill="#92949C"/>
<path d="M153.01 109.54C153.449 109.51 153.902 109.517 154.294 109.747C154.716 109.995 155.053 110.443 155.175 110.915L155.208 111.054C155.438 111.912 155.373 112.785 155.355 113.666C156.596 112.27 158.5 110.556 160.454 110.373C160.977 110.323 161.531 110.352 161.938 110.726C162.237 111.002 162.398 111.337 162.401 111.747C162.412 112.92 161.292 113.836 160.532 114.593C161.632 114.579 162.978 114.445 163.946 115.038C164.389 115.31 164.802 115.773 164.896 116.302C164.993 116.848 164.825 117.287 164.5 117.715C163.549 118.968 161.901 119.083 160.472 119.295C161.279 119.9 162.075 120.553 162.345 121.579C162.488 122.121 162.428 122.64 162.112 123.107C160.928 124.851 158.024 122.819 156.631 122.244C156.176 122.056 155.665 121.928 155.172 121.907C153.845 121.849 152.285 122.866 150.934 123.11C150.591 122.842 150.306 122.521 150.009 122.205C144.83 126.019 138.808 128.259 132.661 129.978C129.313 130.87 125.898 131.592 122.458 132.012C121.177 132.168 119.868 132.361 118.576 132.37C116.999 132.381 115.832 132.193 114.665 131.065C114.517 130.588 114.349 130.056 114.412 129.552C114.508 128.793 115.047 128.197 115.652 127.779C116.22 127.387 116.982 127.083 117.684 127.256C118.024 127.34 118.056 127.489 118.209 127.779L118.265 127.888C119.958 128.036 121.673 128.122 123.372 128.031C127.191 127.826 131.143 126.914 134.831 125.939C139.727 124.645 144.58 122.946 149.175 120.812C149.196 120.2 149.217 119.568 149.407 118.983C149.867 117.562 150.75 116.314 151.116 114.839C151.475 113.396 151.109 111.898 151.798 110.513C152.095 109.917 152.394 109.758 153.01 109.54Z" fill="#92949C"/>
<path d="M153.329 110.504C154.802 110.991 154.275 113.05 154.035 114.213C153.925 114.745 153.723 115.264 153.981 115.763C154.05 115.797 154.112 115.873 154.188 115.865C154.778 115.803 156.755 113.621 157.38 113.138C158.183 112.517 159.304 111.796 160.292 111.537C160.608 111.455 160.765 111.451 161.048 111.609C161.097 112.016 160.912 112.295 160.662 112.606C159.776 113.707 156.812 115.339 156.526 116.558L156.673 116.708C158.414 116.62 160.036 115.724 161.793 115.726C162.437 115.726 163.156 115.799 163.626 116.278C163.702 116.652 163.715 116.712 163.581 117.09C162.739 117.889 161.564 117.891 160.476 117.976C159.609 118.035 157.309 118.097 156.736 118.732C156.749 118.833 156.729 118.944 156.776 119.034C156.855 119.187 157.545 119.318 157.708 119.363C158.763 119.656 160.131 120.173 160.887 120.989C161.121 121.241 161.358 121.655 161.317 122.01C161.28 122.328 161.199 122.344 160.962 122.531C158.947 122.842 157.721 121.099 155.953 120.697C154.112 120.28 152.582 121.181 151.086 122.122C150.782 121.402 150.32 120.465 150.29 119.686C150.253 118.726 151.3 117.583 151.656 116.667C151.981 115.834 152.182 114.957 152.321 114.077C152.517 112.836 152.454 111.502 153.329 110.504Z" fill="#FEFEFE"/>
<path d="M57.8538 72.3643C58.1709 72.3268 58.5314 72.3038 58.8486 72.3498C59.1657 72.3959 59.4798 72.7017 59.6574 72.9508C60.4653 74.083 59.5127 76.3877 59.2158 77.6088C58.9879 78.5466 58.7937 79.4936 58.5906 80.4372C59.4222 79.8383 60.7394 78.7452 61.8354 78.7653C62.2621 78.7729 62.6258 78.9617 62.8997 79.2861C63.1432 79.575 63.2326 79.9275 63.1962 80.3C63.0426 81.8655 60.9646 83.0897 59.8388 83.9599L59.6823 86.1099C59.5326 87.0742 59.0763 87.569 58.3233 88.1127C59.1129 89.9704 59.8889 91.8304 60.8369 93.615C65.1926 101.814 71.4342 108.646 78.8616 114.169C78.5515 114.631 78.1449 115.136 78.2602 115.729C78.2906 115.885 78.3728 116.061 78.5167 116.137C78.7757 116.273 79.0736 116.244 79.3504 116.184C80.2361 115.993 81.3959 116.141 82.1909 116.592C82.7362 116.902 83.1648 117.437 83.3244 118.045C83.5047 118.731 83.455 119.424 83.0615 120.035C82.9118 120.268 82.7317 120.413 82.4551 120.468C81.8706 120.585 81.4251 120.163 80.9638 119.859L81.4015 132.568C82.694 133.973 84.5627 135.174 86.3305 135.896C87.1901 136.247 88.1006 136.469 88.9706 136.795L88.8621 136.996C88.1662 137.274 87.2334 137.214 86.5158 137.02L86.332 136.966C84.6051 136.479 82.9948 135.311 81.4723 134.394C82.0131 137.076 82.21 139.844 82.7155 142.54C83.6762 147.663 84.9769 152.744 86.7168 157.658C87.253 159.173 87.907 160.628 88.4946 162.121L91.6487 158.162C91.8914 157.901 92.068 157.799 92.434 157.79L92.6197 158.016C92.4058 160.312 91.4657 162.636 90.4645 164.692C89.2395 167.209 87.6257 169.494 86.1133 171.838C84.5074 174.328 82.9615 176.878 81.5684 179.494C80.7183 181.09 79.9055 182.696 79.1517 184.341C78.5347 185.687 77.9712 187.048 77.3114 188.375C76.9913 189.019 76.6866 189.719 76.2263 190.276C76.2932 191.466 76.3112 192.582 75.8984 193.721C75.4222 195.035 74.549 196.326 73.2635 196.947C72.2766 196.746 71.345 196.52 70.4442 196.056C68.6475 195.132 66.965 193.571 65.4783 192.215C64.204 191.053 62.9347 189.918 61.7325 188.68C58.7641 185.388 56.1335 182.091 54.1632 178.095C53.5177 176.786 52.9519 175.368 52.584 173.954C52.4724 173.525 52.3614 172.901 52.5416 172.484C52.8966 171.661 54.0694 170.906 54.8427 170.572C56.9998 169.641 59.5046 169.943 61.6306 170.827C67.6372 173.326 71.3793 178.369 73.8233 184.211C77.8799 179.572 80.873 174.123 84.0509 168.881C85.404 166.65 86.8609 164.488 88.3393 162.338C87.6938 161.409 87.2617 160.379 86.8067 159.349C86.1686 157.905 85.5707 156.446 85.026 154.965C84.0492 152.308 83.0965 149.601 82.3911 146.857C80.0771 137.859 79.5968 128.598 79.3788 119.353C77.0723 117.04 74.2954 115.183 71.9149 112.928C68.425 109.62 65.5042 105.804 62.9498 101.746C60.2831 97.5099 58.0964 93.2272 56.4221 88.5067C55.6247 88.4057 54.9597 88.2659 54.2939 87.7705C53.1005 86.8823 52.7097 85.5457 52.5546 84.135C51.1907 83.6506 49.98 82.8318 49.1491 81.6227C48.6841 80.9459 48.473 80.1002 48.6732 79.2919C48.7678 78.9104 48.9937 78.6605 49.3319 78.4744C49.6773 78.2845 50.4992 78.281 50.8718 78.4133L50.9814 78.4555C51.6524 78.7075 52.2438 79.0505 52.86 79.4139C52.2811 78.21 51.341 76.533 51.57 75.1476C51.6294 74.7886 51.8229 74.3901 52.1306 74.1803C52.4256 73.9793 52.8403 73.8903 53.1889 73.9681C54.9197 74.3547 55.3141 76.1827 56.1296 77.503C56.1315 76.7676 56.1248 75.9689 56.247 75.2441C56.4478 74.0509 56.8546 73.0804 57.8538 72.3643Z" fill="#92949C"/>
<path d="M64.8398 189.309C65.4286 189.425 65.9607 189.717 66.4994 189.974C68.1211 190.746 69.8011 191.678 71.1444 192.879C70.5438 192.749 69.9554 192.381 69.4078 192.104C67.824 191.303 66.1928 190.467 64.8398 189.309Z" fill="#FEFEFE"/>
<path d="M61.6602 186.238C63.41 186.928 65.1619 187.947 66.8471 188.801C67.6593 189.213 68.4471 189.661 69.3253 189.916C69.6727 190.336 69.9588 190.743 70.2339 191.213C69.0572 190.784 67.9297 189.921 66.813 189.335C65.4554 188.623 63.892 188.134 62.6241 187.28C62.1881 186.986 61.9326 186.684 61.6602 186.238Z" fill="#FEFEFE"/>
<path d="M58.875 183.109L59.0243 183.146C59.4791 183.266 59.9557 183.599 60.3642 183.833C61.3422 184.392 62.2894 185.007 63.2728 185.555C64.1787 186.061 65.1224 186.51 66.0534 186.967C66.5799 187.226 67.1904 187.47 67.6655 187.814C67.9902 188.049 68.1819 188.391 68.3813 188.73C66.653 187.985 65.0199 187.089 63.3328 186.265C62.3353 185.779 61.0439 185.356 60.1741 184.684C59.6551 184.284 59.2532 183.641 58.875 183.109Z" fill="#FEFEFE"/>
<path d="M55.6523 178.113C56.3892 178.428 57.061 179.026 57.7233 179.475C58.3854 179.923 59.1191 180.302 59.8172 180.694C60.054 180.826 60.441 181.068 60.7112 181.08C60.8513 181.086 60.9861 181.024 61.1238 180.997C62.0817 181.566 62.9991 182.712 63.7369 183.544C62.2366 182.872 60.9043 181.876 59.4766 181.07C58.8127 180.695 58.0208 180.236 57.2521 180.15L57.2303 180.324C57.4672 180.723 57.8096 180.834 58.2044 181.06C58.8386 181.424 59.4652 181.802 60.0934 182.175C61.0995 182.743 62.1086 183.307 63.1233 183.859C63.7216 184.185 64.41 184.499 64.9487 184.912C65.4259 185.278 65.8644 185.804 66.2795 186.242C64.1236 185.213 62.055 184.024 59.9613 182.879C59.3058 182.521 58.3019 182.164 57.7854 181.631C57.3856 181.218 57.2825 180.707 57.0279 180.22C56.6533 179.505 56.0581 178.842 55.6523 178.113Z" fill="#FEFEFE"/>
<path d="M58.3397 73.2227C58.6192 73.2783 58.7263 73.2978 58.9068 73.5469C59.1047 73.8197 59.1266 74.2607 59.0908 74.582C59.0246 75.177 58.7648 75.841 58.5911 76.4163C58.2279 77.6188 57.8497 78.8334 57.6872 80.0833C57.6201 80.5998 57.5791 81.1892 57.9066 81.6211C57.996 81.6658 58.0749 81.7623 58.1747 81.7554C58.3577 81.743 58.8857 81.3012 59.0579 81.1824C59.7188 80.7267 60.3753 80.258 61.1614 80.0408C61.5359 79.9375 61.6982 79.987 62.034 80.1719C62.2375 80.8762 59.9809 82.5258 59.5082 83.1378C59.2225 83.5078 58.966 83.9434 58.9153 84.416C58.8445 85.0762 59.0654 85.8629 58.8271 86.4886C58.6948 86.8356 58.3519 87.108 58.0194 87.2511C57.3247 87.55 56.5868 87.548 55.8974 87.2554C54.1424 86.511 54.0008 84.4878 53.2405 82.9997C53.0633 82.6529 52.6114 82.6337 52.2574 82.5374C51.3704 82.2898 50.4994 81.4081 50.0972 80.5859C49.9626 80.311 49.8993 80.1406 50.0094 79.8613C51.5499 79.0876 52.7958 81.4329 54.0859 81.8066C54.3152 81.4035 54.6573 81.1414 55.003 80.8424C54.4639 79.709 52.4495 76.4114 52.6366 75.3269C52.8927 75.1265 52.9368 75.0984 53.2577 75.0576C53.6925 75.2863 53.9666 75.7569 54.1923 76.1822C54.8589 77.438 55.1618 79.204 56.1562 80.2327L56.5702 80.2286C56.9657 80.1396 57.1389 79.7203 57.2139 79.3421C57.4487 78.1587 57.0766 76.7658 57.283 75.5263C57.4311 74.6385 57.8145 73.9355 58.3397 73.2227Z" fill="#FEFEFE"/>
<path d="M57.0636 171.243C59.0743 171.145 60.9007 171.882 62.6278 172.864C66.9866 175.343 69.6811 179.073 71.8645 183.478C72.8293 185.425 73.6831 187.383 74.2565 189.483C74.7849 191.418 74.7948 193.139 73.7733 194.916C72.3253 190.86 69.8971 187.865 66.9539 184.792C65.9061 183.71 64.7921 182.694 63.7182 181.637C61.5721 179.525 59.4128 177.417 56.9483 175.675C56.4028 175.289 55.6372 174.637 54.9641 174.545C54.7558 174.517 54.7726 174.562 54.6211 174.684C54.6391 174.788 54.6389 174.896 54.6747 174.995C54.8312 175.425 55.7709 176.01 56.1299 176.32C56.7197 176.83 57.2661 177.403 57.8164 177.955C56.8415 177.469 55.9436 176.989 54.8705 176.752C55.531 177.221 56.2204 177.682 56.9705 177.997C57.482 178.212 58.1948 178.382 58.6462 178.689C59.2198 179.081 59.8165 179.776 60.2351 180.33L56.498 178.206C56.0357 177.936 55.4529 177.593 55.1109 177.181C54.2565 176.154 53.8035 174.512 53.4727 173.238C54.3834 171.97 55.5856 171.513 57.0636 171.243Z" fill="#FEFEFE"/>
<path d="M114.86 25.5979C116.664 23.4423 118.399 21.2111 120.41 19.2414C123.76 15.9586 128.304 13.2452 133.053 12.8308C136.26 12.5511 139.954 13.2762 142.474 15.3979C144.083 16.7524 145.293 19.1379 145.434 21.2513C145.488 22.0544 145.47 22.839 145.271 23.6201L145.225 23.8052C144.361 27.1639 141.625 29.5377 139.619 32.2144C145.201 30.4816 151.616 31.5405 156.737 34.222C160.346 36.1118 163.242 38.6564 164.463 42.6546C165.056 44.5988 165.218 46.5869 164.215 48.4415C162.94 50.7975 160.478 52.2314 157.974 52.9664C154.642 53.9444 151.184 53.7473 147.754 53.9815C144.948 54.173 142.198 54.6452 139.46 55.2729C135.098 56.2729 130.994 58.0875 126.887 59.8249C125.291 60.5005 123.753 61.3218 122.074 61.783C127.156 63.6896 131.831 68.7318 134.047 73.5993C135.533 76.8634 136.416 80.4384 136.306 84.0451C136.169 88.4851 134.741 92.7195 133.419 96.9231C132.707 99.1861 132.043 101.465 131.349 103.733C129.29 110.464 127.357 117.202 124.874 123.793L123.755 126.541L121.735 126.636L126.447 112.523C123.883 112.392 121.179 112.02 118.772 111.098C121.371 110.628 124.127 111.007 126.737 111.307C128.09 106.835 129.381 102.354 130.588 97.8398C132.081 92.257 133.926 86.3636 133.427 80.5281C133.176 77.5994 132.183 74.8622 130.804 72.2847C129.07 69.0442 126.414 66.3158 123.494 64.1225C121.357 62.5178 119.124 61.1806 116.543 60.417C110.634 58.6695 103.581 60.1162 98.2946 63.0414C91.5395 66.7793 88.0554 74.2353 86.0313 81.3674C84.4752 86.8504 83.6465 92.6464 82.9084 98.2878C82.2323 103.455 81.6093 108.718 81.405 113.928L79.9648 113.894C80.0321 104.956 81.1867 96.0231 83.1299 87.3081C84.0216 83.3089 85.0201 79.2496 86.6764 75.4868C88.2931 71.8135 90.5694 68.2155 93.4343 65.3833C96.546 62.307 99.9065 60.8746 104.004 59.5755C103.164 58.7817 102.476 57.7977 101.8 56.8625C98.9747 52.956 97.0081 48.6606 96.2052 43.8827C95.9549 42.3927 95.7398 40.7708 95.7682 39.2564C95.8448 35.1596 97.1979 31.1331 99.5815 27.8177C100.879 26.0134 102.518 24.4547 104.316 23.1566C105.343 22.4152 106.495 21.6738 107.774 21.4881C108.178 21.4291 108.555 21.4395 108.953 21.5359C109.45 21.6564 109.906 21.9993 110.374 22.2038C111.374 22.6407 112.399 22.6568 113.306 23.3415C114.151 23.8764 114.513 24.6996 114.86 25.5979Z" fill="#92949C"/>
<path d="M107.426 51.6328C107.719 51.8204 107.884 52.1496 108.07 52.4361C108.314 52.8125 108.622 53.1907 108.811 53.5969C109.116 54.2549 109.194 55.2099 109.354 55.9316C109.573 56.9245 109.85 57.8951 110.122 58.8739C109.856 58.8864 109.734 58.9263 109.489 58.8002C109.413 57.8493 109.012 56.9299 108.705 56.0331C108.227 54.6327 107.683 53.0899 107.426 51.6328Z" fill="#FEFEFE"/>
<path d="M99.3828 50.293C99.8141 50.4164 100.262 50.4692 100.705 50.5369L105.196 51.1379L108.233 58.8738C107.366 58.9866 106.505 59.1137 105.645 59.2694C105.305 59.3309 104.835 59.4775 104.508 59.3485C104.026 58.5316 103.361 57.7753 102.831 56.9788C101.436 54.8835 100.252 52.6554 99.3828 50.293Z" fill="#FEFEFE"/>
<path d="M100.516 49.1446C100.132 49.146 99.6943 49.1456 99.3709 49.3775C99.1927 49.5054 99.3337 49.4559 99.1167 49.4957C98.0745 46.8885 97.5188 43.6582 97.4259 40.8567C97.3073 37.2868 98.5321 33.3079 100.404 30.2776C101.002 29.3103 101.799 28.4342 102.501 27.5408C103.106 26.7711 103.68 25.9749 104.357 25.2652C105.674 23.8849 107.315 22.6785 109.295 22.6419C110.74 22.6152 111.671 23.0201 112.693 23.9929C113.243 24.8351 113.627 25.7063 114.019 26.6287C112.279 29.1617 111.207 31.7245 110.227 34.6163C109.138 37.8272 108.288 40.9979 108.008 44.3892C107.921 45.4377 107.963 46.5113 107.97 47.563C107.733 47.8106 107.522 47.999 107.433 48.3421C107.482 48.676 107.57 48.8054 107.766 49.0667L107.871 51.1565C107.123 49.9369 106.646 48.57 106.194 47.2196C105.808 46.0635 105.409 44.8592 105.171 43.6628C105.942 42.9433 106.511 42.1171 107.151 41.2863C107.673 40.6105 108.395 40.058 108.418 39.14C108.425 38.8518 108.416 38.7723 108.276 38.5203C108.052 38.4249 107.878 38.368 107.638 38.4698C107.252 38.6332 106.964 39.0791 106.728 39.4091C106.072 40.3246 105.455 41.2778 104.904 42.2599C104.684 39.3418 104.536 36.6807 105.01 33.7698C105.996 33.176 107.007 32.6907 108.107 32.345C108.542 32.2084 109.447 32.2649 109.779 32.0887C109.873 32.0388 109.905 31.9171 109.968 31.8314C109.863 31.5107 109.769 31.463 109.468 31.3051C108.743 30.9241 107.54 31.1823 106.823 31.4475C106.278 31.649 105.767 31.9939 105.298 32.3315C105.475 31.39 105.656 30.4747 106.092 29.6122C106.344 29.1135 106.812 28.5476 106.941 28.0185C106.984 27.8419 106.853 27.6468 106.784 27.4837C106.494 27.3201 106.366 27.3021 106.034 27.3802C105.434 27.521 105.108 28.0133 104.832 28.5228C104.033 29.9975 103.632 31.7678 103.319 33.404C103.128 32.5878 102.76 31.8668 102.426 31.1034C102.238 30.673 102.157 30.2836 101.764 29.9896C101.494 29.9182 101.362 29.8958 101.093 29.9761C100.914 30.2621 100.909 30.407 100.98 30.7405C101.275 32.1334 102.28 33.5586 103.072 34.7201C102.924 36.5664 102.794 38.4286 102.899 40.2815C102.961 41.3921 103.153 42.4943 103.247 43.6029C102.468 43.0574 101.694 42.5075 100.927 41.9467C100.26 41.4593 99.5393 40.8265 98.7026 40.6819L98.5412 40.7855C98.5625 41.1492 98.7482 41.2705 99.0101 41.5065L103.465 44.864L104.842 49.9638C103.718 49.4346 102.798 49.2027 101.557 49.1309C101.218 49.1112 100.847 49.0568 100.516 49.1446Z" fill="#FEFEFE"/>
<path d="M111.92 58.8877C111.862 56.9396 111.615 54.9955 111.492 53.0507C111.084 46.6199 111.246 40.3156 113.312 34.1504C113.772 32.7774 114.202 31.3455 114.846 30.0452C117.78 24.1137 123.221 19.1037 129.528 17.0179C132.73 15.9588 136.906 15.6193 139.984 17.193C141.491 17.9639 142.521 19.2005 143.025 20.8194C143.205 21.3983 143.419 22.1813 143.313 22.7916C143.086 24.0881 142.175 25.4284 141.569 26.5689C140.516 28.5494 139.433 30.5112 138.379 32.4892L137.881 32.6151C129.649 35.0067 124.087 41.5029 120.184 48.7999C119.094 50.8357 118.242 53.0101 117.145 55.0266L117.1 55.108C117.451 53.1799 117.76 51.2398 117.995 49.2941C118.147 48.0291 118.177 46.5822 118.49 45.3615C118.703 44.5301 119.249 43.6304 119.627 42.8561C121.048 39.9413 122.526 37.125 124.377 34.4533C124.766 34.4756 125.222 34.5359 125.608 34.4657C126.618 34.2819 127.742 33.7191 128.714 33.3593C129.757 32.9732 131.178 32.6604 132.089 32.0389C132.039 31.7786 132.021 31.5687 131.825 31.3722C129.367 31.5867 127.305 32.8177 125.032 33.6732C127.31 30.8429 129.38 27.8923 132.483 25.8745C133.304 25.3406 134.19 24.9578 135.064 24.5232L135.104 24.1717L134.983 24.0485C131.653 24.9489 128.975 27.2252 126.857 29.8882L126.591 29.7386C126.44 28.4088 126.081 27.1093 125.898 25.7807C125.764 24.8127 125.791 23.7891 125.578 22.8366C125.519 22.5749 125.451 22.5537 125.247 22.3898L124.942 22.3718C124.598 22.7527 124.711 24.0682 124.734 24.5675C124.809 26.1557 125.011 28.9003 125.956 30.1853L126.082 30.4642C126.156 30.6611 126.239 30.7367 126.099 30.8988C123.326 34.12 120.765 37.7411 118.86 41.5472L118.322 39.4353C118.047 38.2063 118.026 36.8631 118.157 35.6102C118.227 34.9413 118.448 34.3075 118.548 33.6434C118.567 33.5185 118.637 33.1933 118.607 33.074C118.582 32.9701 118.517 32.8798 118.472 32.783C118.214 32.7875 118.077 32.8196 117.876 32.9954C117.262 33.5347 116.928 34.7239 116.866 35.4969C116.744 37.0256 116.781 38.4989 117.067 40.0096C117.176 40.5868 117.276 41.2433 117.555 41.7675C117.741 42.1165 118.037 42.435 118.295 42.7335C117.955 43.4809 117.548 44.2519 117.288 45.0293C117.101 45.5864 117.039 46.2396 116.919 46.8178C116.619 48.2712 116.348 49.7245 116.111 51.1893C115.674 50.6752 115.233 50.1574 114.849 49.6024C114.464 49.0459 114.114 48.338 113.598 47.8923C113.321 47.6523 113.064 47.6925 112.727 47.7265C112.508 47.9033 112.494 47.918 112.416 48.1873C112.689 49.8823 114.631 51.7652 115.767 53.0087L115.381 59.2345L111.92 58.8877Z" fill="#FEFEFE"/>
<path d="M146.514 33.3802C149.709 33.2307 153.325 33.8997 156.34 34.9139C158.523 35.6483 160.061 37.1739 161.067 39.2255C162.077 41.2841 162.695 44.0473 161.884 46.2725C161.462 47.4267 160.7 48.4227 159.773 49.2144C159.032 49.8477 158.254 50.4135 157.333 50.7578C156.242 51.1661 155.139 51.1626 153.989 51.1934C152.729 51.2271 151.468 51.24 150.209 51.2946C147.566 51.4095 144.983 51.6288 142.374 52.0884C137.595 52.9302 133.051 54.5759 128.644 56.569L120.609 61.0605L116.945 59.7589C117.506 58.7941 117.941 57.7526 118.446 56.7574C120.914 51.8882 123.424 46.5238 127.186 42.5223C130.632 38.857 135.011 35.7857 139.869 34.3527C142.054 33.7082 144.249 33.4552 146.514 33.3802Z" fill="#FEFEFE"/>
<path d="M145.214 34.6172L145.495 34.6874C145.655 34.76 145.685 34.8257 145.723 34.9874C145.93 35.8807 145.878 36.3703 145.39 37.1494C145.123 36.9628 144.809 36.7262 144.757 36.3821C144.679 35.8643 144.922 35.0368 145.214 34.6172Z" fill="#92949C"/>
<path d="M137.435 39.0898L137.926 39.1789L138.018 39.3859C137.886 39.9623 136.708 40.8192 136.28 41.2949C135.061 42.6533 134.064 44.2139 133.29 45.8639L138.568 43.6714C142.44 42.4077 146.707 41.8311 150.468 43.7671C151.744 44.4238 153.462 45.7335 153.923 47.1496C153.798 47.4123 153.763 47.4185 153.506 47.5636C153.405 47.5438 153.294 47.5516 153.203 47.5038C152.89 47.3394 152.474 46.7107 152.219 46.4405C151.302 45.4699 150.235 44.6919 149.011 44.1522C144.799 42.2961 140.277 43.781 136.247 45.3679C137.696 45.7531 139.009 46.1287 140.308 46.9144C140.839 47.2359 141.958 47.9806 142.108 48.5988L141.808 48.9377C141.709 48.9365 141.604 48.9694 141.512 48.9338C141.026 48.7464 140.379 48.1294 139.907 47.8317C139.117 47.334 138.311 46.9285 137.466 46.5334C136.76 46.2554 135.992 46.0101 135.227 46.0041C133.785 45.9925 128.341 49.5869 127.122 50.7581C128.251 50.7358 129.379 50.6919 130.507 50.6559C130.902 50.6432 131.459 50.5327 131.796 50.7167L131.839 50.9796L131.636 51.1945C130.554 51.3844 129.422 51.3848 128.324 51.4065C127.654 51.4198 126.953 51.4784 126.298 51.3159C123.255 53.8541 121.225 56.92 119.508 60.459C119.515 60.0888 119.488 59.6412 119.581 59.2833C119.795 58.4644 120.314 57.5678 120.745 56.8419C122.725 53.5073 125.56 50.7418 128.724 48.523C129.939 47.6705 131.238 47.01 132.502 46.2419C133.303 43.0986 134.835 41.0281 137.435 39.0898Z" fill="#92949C"/>
<path d="M106.44 111.235C106.93 111.247 107.37 111.392 107.837 111.528L107.299 112.036C105.13 113.938 102.553 115.624 99.5712 115.447L98.1005 115.092C98.2376 114.908 98.3868 114.739 98.5543 114.583C100.584 112.685 103.615 111.143 106.44 111.235Z" fill="#FEFEFE"/>
<path d="M95.013 106.773C96.281 106.96 97.534 107.162 98.8204 107.12C101.853 107.022 104.824 105.595 107.318 103.963L106.52 105.619C105.895 106.512 105.162 107.275 104.244 107.873C102.293 109.147 99.2338 109.958 96.921 109.38C96.3863 109.247 95.9173 108.948 95.6509 108.46L95.5848 108.334C95.311 107.825 95.1643 107.326 95.013 106.773Z" fill="#FEFEFE"/>
</g>
<defs>
<clipPath id="clip0_485_29">
<rect width="212" height="212" fill="white"/>
</clipPath>
</defs>
</svg>
