<svg width="212" height="212" viewBox="0 0 212 212" fill="none" xmlns="http://www.w3.org/2000/svg">
<g clip-path="url(#clip0_627_668)">
<path d="M0 0H212V212H0V0Z" fill="#FEFEFE"/>
<path d="M111.133 132.804C112.121 132.787 113.289 133.26 114.268 133.472C115.167 133.666 116.159 133.649 117.023 133.897L116.843 134.127L116.511 134.246L116.231 134.342C114.678 134.822 112.503 133.517 111.133 132.804Z" fill="#1A1A1A"/>
<path d="M105.434 126.485C106.63 126.672 107.877 127.244 109.054 127.577C110.39 127.955 111.746 128.165 113.091 128.496L113.071 128.704C112.734 128.854 112.425 128.931 112.055 128.949C109.633 129.067 107.215 128.084 105.434 126.485Z" fill="#1A1A1A"/>
<path d="M138.739 150.791L138.806 150.995C138.311 152.562 137.873 154.157 137.277 155.688C137.064 156.233 136.87 156.814 136.554 157.31C136.1 158.023 135.627 158.173 134.842 158.364L134.83 158.282C134.824 157.58 136.297 155.382 136.674 154.625C137.184 153.601 137.593 152.47 138.174 151.489C138.328 151.23 138.533 151.008 138.739 150.791Z" fill="#FFA500"/>
<path d="M82.8175 53.0555L83.0713 53.1431C83.2916 53.4016 83.3249 53.5049 83.3549 53.8281C82.9312 54.155 82.4635 54.4113 82.0391 54.7426C80.9888 55.5628 80.0364 56.468 79.1412 57.4537C78.3729 58.2994 77.7568 59.2869 76.9196 60.0622C76.6107 59.7767 76.4148 59.679 76.3177 59.2627C77.2003 57.5466 79.0381 56.0392 80.5008 54.8279C81.248 54.2091 81.9757 53.5441 82.8175 53.0555Z" fill="#FFA500"/>
<path d="M47.9157 157.726L48.3356 157.773L48.5544 158.12C48.3867 158.52 47.4139 158.964 47.0478 159.252C44.3306 161.394 42.6791 164.294 42.2493 167.702C41.9988 167.657 41.7706 167.635 41.5615 167.478C41.4377 166.91 41.6013 166.29 41.7543 165.738C42.6799 162.403 44.8825 159.44 47.9157 157.726Z" fill="#FFA500"/>
<path d="M85.006 54.9619L85.6074 54.973L85.8506 55.2461C85.872 55.3428 85.9289 55.4382 85.9144 55.5362C85.8765 55.7949 82.9504 58.5062 82.5305 58.9573C80.3625 61.2862 78.5747 63.7584 77.1976 66.6287L77.0309 66.7158C76.7796 66.6274 76.6477 66.6272 76.4835 66.4053C77.5812 63.1427 80.4012 60.059 82.6458 57.4914C83.3936 56.6361 84.117 55.6732 85.006 54.9619Z" fill="#FFA500"/>
<path d="M136.336 142.59L136.53 142.748L136.537 142.9C136.687 146.805 134.719 150.901 132.704 154.135C131.973 155.308 131.176 156.498 130.224 157.505C129.339 158.441 128.545 159.305 127.187 159.337C127.137 159.242 127.041 159.159 127.038 159.052C127.029 158.669 128.04 157.674 128.322 157.387C128.977 156.719 129.691 156.092 130.297 155.379C133.385 151.747 135.472 147.266 136.336 142.59Z" fill="#FFA500"/>
<path d="M91.7546 93.0982L92.0771 93.08C92.6059 93.0879 93.2114 93.1848 93.5754 93.6022C93.7682 93.8233 93.8574 94.0493 93.8369 94.3381C92.9796 94.3301 92.1649 94.2342 91.3008 94.3139C90.2387 94.4118 89.1431 94.7439 88.1114 95.0116C88.2775 95.9192 88.4468 96.8621 88.8309 97.7065C89.3884 98.933 90.2354 100.022 91.5409 100.492L91.7038 100.548C92.6121 100.87 93.5644 100.729 94.4754 100.495L94.5588 100.467L94.6068 100.565C94.1071 100.995 93.6243 101.372 92.9715 101.546C91.908 101.831 90.7037 101.599 89.7667 101.051C88.3864 100.244 87.6226 98.7512 87.2365 97.2529C86.9815 96.2631 87.0061 95.1936 86.9628 94.1752C88.5889 93.8504 90.0878 93.2976 91.7546 93.0982Z" fill="#1A1A1A"/>
<path d="M54.7055 158.815C54.9854 158.771 55.1999 158.742 55.4829 158.802L55.6541 159.12C55.643 159.193 55.662 159.276 55.6208 159.337C55.4384 159.604 53.2447 160.455 52.7499 160.735C51.0289 161.706 49.485 162.959 48.2811 164.539C46.6516 166.676 45.0655 170.059 45.9032 172.786C46.0032 173.112 46.1162 173.453 46.2849 173.751C46.4928 174.118 46.8969 174.53 46.9257 174.961L46.9292 175.153C46.67 175.255 46.593 175.312 46.3232 175.263C45.6908 174.728 45.3133 173.773 45.0262 173.008C44.2914 171.049 44.9589 168.527 45.7955 166.699C47.5213 162.929 50.8872 160.256 54.7055 158.815Z" fill="#FFA500"/>
<path d="M114.574 70.7183C115.346 70.6945 116.068 70.6759 116.814 70.9198C118.257 71.3914 119.322 72.3369 120.015 73.6909C120.545 74.7269 121.001 76.5626 120.587 77.6918C120.395 78.2182 120.115 78.4731 119.624 78.7222C119.45 78.7137 119.263 78.7058 119.095 78.6563C118.228 78.4015 118.072 77.2769 117.718 76.5645C117.477 76.0804 117.177 75.6246 116.847 75.1973C116.523 74.7776 116.17 74.396 115.749 74.0722C115.186 73.6391 113.875 73.0797 113.592 72.4485C113.482 72.2021 113.434 71.8516 113.526 71.6032C113.714 71.0939 114.104 70.9258 114.574 70.7183Z" fill="#1A1A1A"/>
<path d="M99.5444 67.3121C99.7183 67.2959 99.8802 67.2922 100.055 67.303C101.067 67.3647 102.099 67.6237 102.772 68.4365C103.036 68.7551 103.255 69.2561 103.192 69.6739C102.926 71.438 100.851 70.6246 99.7212 70.7451C98.4647 70.879 97.2648 71.379 96.2329 72.0962L96.1149 72.1792C95.7089 72.4949 95.2982 72.8421 94.8429 73.0841C94.4469 73.2949 94.0028 73.4355 93.5659 73.2373C93.28 73.1075 93.0707 72.8133 92.9885 72.5127C92.8378 71.9602 93.0653 71.3612 93.3852 70.912C94.7477 68.9986 97.2722 67.6914 99.5444 67.3121Z" fill="#1A1A1A"/>
<path d="M118.554 133.701L120.385 133.634C117.265 140.234 113.515 146.743 108.843 152.375C106.335 155.399 103.482 158.226 100.191 160.387C99.0183 161.157 97.8674 161.871 96.5542 162.379C95.0702 162.954 93.6063 163.215 92.0254 163.36C91.8215 163.218 91.813 163.166 91.7153 162.934C92.0329 162.535 94.5514 161.789 95.2069 161.477C97.766 160.255 99.8916 158.629 102.075 156.852C103.589 155.536 105.161 154.034 106.366 152.429L105.741 152.297C104.363 152.041 103.24 151.374 102.104 150.589C102.957 150.763 103.821 150.966 104.683 151.087C105.527 151.206 106.313 151.269 107.137 151.508L110.181 147.518C106.218 147.178 101.195 146.361 98.1243 143.645C99.6553 143.964 101.133 144.482 102.644 144.882C105.305 145.587 108.16 146.094 110.903 146.286L118.554 133.701Z" fill="#1A1A1A"/>
<path d="M87.4999 74.5C75.8999 102.5 81.5 154 89.5 162.5L92 163C97.8333 162.167 112.8 151.6 126 116L134.5 83.5C134 61.5 103.5 46.9 87.4999 74.5Z" fill="#D7A060"/>
<path d="M124 63.9566C115.6 56.7566 105.833 58.9566 102 60.9566L94 64.9566L108.5 66.4566C123.7 64.4566 126.167 80.2899 125.5 88.4566C130.3 100.057 102.333 146 92 162C96.4 165.6 106.333 154 105.5 154L112.5 143.957C118.9 137.557 125.167 119.29 127.5 110.957C140.7 80.9566 130.667 67.1233 124 63.9566Z" fill="#CE5D11"/>
<path d="M98.1852 77.679C98.496 77.693 98.8136 77.7011 99.1193 77.7622C99.945 77.927 100.639 78.2903 101.099 79.0131C101.868 80.2205 101.749 82.9193 101.398 84.2957L100.956 85.8122C99.9812 88.6324 97.8594 90.8989 95.1835 92.1954L94.3707 92.4161C93.7831 92.51 93.0809 92.5322 92.5962 92.1422C92.0573 91.7084 91.8588 91.0693 91.795 90.4076C91.5134 87.491 92.5434 81.8285 94.481 79.5147C95.5294 78.2626 96.5847 77.8144 98.1852 77.679Z" fill="#1A1A1A"/>
<path d="M97.3927 79.0985C97.8616 79.0677 98.4067 79.136 98.8713 79.2081C99.232 79.264 99.6411 79.4633 99.8359 79.784C100.524 80.9177 99.9756 83.099 99.6114 84.2903C99.4106 83.5874 99.2713 82.9295 98.7653 82.3763C98.5512 82.3154 98.5235 82.2875 98.2902 82.3382C97.8604 82.4315 97.5339 82.7516 97.3049 83.1143C96.0793 85.0546 95.871 87.4769 96.3474 89.6754L96.3669 89.9033C96.0176 90.3161 95.4667 90.6434 94.971 90.8567C94.5164 91.0523 94.0284 91.0844 93.567 90.9126C93.3189 90.6894 93.1477 90.4927 93.0484 90.1677C92.8515 89.5238 92.9146 88.7721 92.9626 88.1071C93.1378 85.6803 93.8742 82.8754 95.111 80.767C95.6441 79.8581 96.3731 79.3501 97.3927 79.0985Z" fill="#FEFEFE"/>
<path d="M111.984 79.4025C113.04 79.2727 113.999 79.5222 114.904 80.0706C115.584 80.4822 116.068 81.1029 116.249 81.8788L116.283 82.0362C116.512 83.0181 116.534 84.1704 116.394 85.1696C116.065 87.5241 115.349 89.845 114.068 91.8689C113.171 93.2879 112.143 94.0409 110.49 94.4179C109.87 94.4181 109.258 94.4357 108.656 94.2657L108.484 94.2141L107.812 93.9821C106.936 93.5864 106.3 92.9759 106.002 92.0558C105.737 91.2399 105.79 90.265 105.861 89.4201C106.03 87.4113 106.431 85.424 107.362 83.6202C108.342 81.7206 109.93 80.0646 111.984 79.4025Z" fill="#1A1A1A"/>
<path d="M111.512 80.6573C112.095 80.6281 112.576 80.6445 113.136 80.8138C113.857 81.032 114.515 81.4538 114.869 82.138C115.585 83.5205 114.808 86.1035 114.313 87.49C114.181 86.8101 114.098 85.6751 113.609 85.172C113.35 84.905 113.31 84.9166 112.936 84.9074C112.46 85.1157 112.097 85.3807 111.785 85.8027C110.695 87.2798 110.296 89.5317 110.588 91.3134C110.707 91.6817 110.851 91.9353 111.09 92.2405C111.199 92.3794 111.164 92.2914 111.177 92.4912C111.037 92.598 110.905 92.6995 110.741 92.7676C109.747 93.1815 108.89 93.0181 107.93 92.6585L107.469 92.1289C106.801 91.2182 106.802 89.8126 106.999 88.741C107.222 87.522 107.48 86.3424 107.915 85.178C108.601 83.3468 109.667 81.4929 111.512 80.6573Z" fill="#FEFEFE"/>
<path d="M93.7108 164.559L97.9005 163.404C97.4525 166.156 97.9672 169.035 99.5172 171.37C100.678 173.119 102.667 174.518 104.742 174.933C106.419 175.268 107.639 175.121 109.261 174.64C109.735 174.499 110.232 174.39 110.648 174.113L110.682 173.337C110.957 173.173 111.009 173.165 111.331 173.164L111.917 172.767C112.552 172.424 113.487 172.386 114.178 172.611C114.607 172.751 114.944 173.073 115.12 173.483C115.193 173.654 115.241 173.787 115.372 173.925L115.477 174.029C115.93 173.744 116.488 173.558 117.024 173.701C117.693 173.879 118.13 174.328 118.452 174.922C119.484 176.821 118.693 179.837 118.066 181.764C117.121 184.664 115.686 188.083 113.722 190.451C112.3 192.165 110.392 193.602 108.409 194.609C106.98 195.335 104.986 196.219 103.359 195.754C102.698 195.566 102.01 195.115 101.689 194.493C101.022 193.2 101.262 191.472 101.741 190.154C102.275 188.68 103.233 187.411 104.106 186.124C104.739 185.192 105.302 184.229 105.81 183.223C106.061 182.725 106.985 180.228 107.242 180.029L107.433 180.169C107.229 181.859 106.666 183.414 105.879 184.921C104.667 187.242 102.15 189.72 102.27 192.5C102.293 193.044 102.413 193.605 102.766 194.038C103.106 194.455 103.656 194.532 104.164 194.557C106.375 194.666 109.333 192.543 110.862 191.12C113.29 188.86 114.935 185.89 116.219 182.86C116.828 181.421 117.431 179.834 117.488 178.254C117.536 176.945 117.428 175.734 116.506 174.714C116.21 174.387 115.934 174.223 115.523 174.076C115.349 174.42 115.5 174.838 115.489 175.215C115.45 176.687 115.16 178.191 114.582 179.546C113.962 181 112.857 183.25 111.273 183.814C110.545 184.074 109.845 183.924 109.173 183.58C108.622 183.298 108.245 182.89 108.076 182.292C107.984 181.965 107.893 181.386 108.002 181.059C108.138 180.647 108.941 180.19 109.267 179.9C109.518 179.677 109.674 179.395 109.833 179.103L109.908 178.964C108.787 179.036 107.584 179.131 106.464 179.013C103.905 178.741 101.587 178.025 99.4661 176.541C96.5784 174.52 94.9764 171.139 94.228 167.797C93.9887 166.728 93.9002 165.636 93.7108 164.559Z" fill="#1A1A1A"/>
<path d="M112.368 173.893C112.619 173.884 112.927 173.854 113.165 173.944C113.644 174.125 113.91 174.675 114.049 175.131C114.179 175.553 114.105 176.133 114.042 176.568C113.823 178.065 113.289 179.404 112.526 180.7C112.023 181.554 111.621 182.222 110.615 182.479L110.438 182.398C109.926 182.169 109.625 181.931 109.231 181.543L110.383 181.193C111.078 180.381 111.622 179.56 112.017 178.561C112.545 177.223 112.642 175.746 112.044 174.414L111.977 174.269L112.368 173.893Z" fill="#FEFEFE"/>
<path d="M111.448 97.6024L112.107 97.6026C112.93 98.0834 113.661 99.305 114.243 100.073C114.586 100.525 114.995 100.975 115.291 101.457C115.514 101.819 115.468 101.986 115.395 102.374C115.146 102.605 115.015 102.647 114.695 102.715C114.029 102.519 113.371 101.605 112.91 101.111C112.492 102.831 111.877 104.505 111.237 106.153C110.256 108.68 109.207 111.091 107.366 113.125C105.565 115.114 103.301 116.267 100.607 116.385C97.7045 116.512 95.4605 115.537 93.3514 113.586C91.6089 111.635 90.7219 109.525 90.2019 106.977C89.3419 106.852 88.0007 106.61 87.3115 106.07C87.0972 105.902 87.1039 105.84 87.0676 105.586L87.2776 105.309C87.8635 105.368 88.4599 105.619 89.0324 105.768C89.9226 105.998 90.8236 106.108 91.7416 106.144C97.5208 106.372 104.043 105.151 109.105 102.286C110.213 101.66 111.27 101.042 112.207 100.174C111.809 99.6162 111.324 99.0386 111.094 98.3916C111.13 98.0426 111.24 97.8803 111.448 97.6024Z" fill="#1A1A1A"/>
<path d="M153.011 109.538C153.451 109.508 153.903 109.515 154.295 109.745C154.717 109.993 155.054 110.441 155.176 110.913L155.209 111.052C155.439 111.91 155.374 112.783 155.357 113.664C156.597 112.268 158.501 110.554 160.455 110.371C160.978 110.322 161.533 110.35 161.939 110.724C162.238 111 162.399 111.335 162.403 111.745C162.414 112.918 161.293 113.834 160.533 114.591C161.633 114.577 162.979 114.443 163.947 115.036C164.39 115.308 164.804 115.771 164.898 116.3C164.994 116.846 164.826 117.285 164.501 117.713C163.55 118.966 161.903 119.081 160.473 119.293C161.28 119.898 162.076 120.551 162.346 121.577C162.489 122.119 162.43 122.638 162.113 123.105C160.93 124.85 158.025 122.817 156.632 122.242C156.178 122.054 155.666 121.926 155.173 121.905C153.846 121.847 152.286 122.864 150.936 123.108C150.593 122.841 150.307 122.519 150.01 122.203C144.832 126.017 138.81 128.257 132.662 129.976C129.314 130.868 125.899 131.59 122.459 132.01C121.178 132.166 119.87 132.359 118.577 132.368C117 132.379 115.834 132.192 114.666 131.063C114.518 130.586 114.35 130.054 114.414 129.55C114.509 128.791 115.048 128.195 115.653 127.777C116.221 127.385 116.983 127.081 117.685 127.254C118.025 127.338 118.057 127.487 118.21 127.777L118.267 127.886C119.96 128.034 121.674 128.12 123.373 128.029C127.193 127.825 131.145 126.912 134.833 125.937C139.728 124.643 144.581 122.944 149.176 120.81C149.197 120.199 149.218 119.567 149.408 118.981C149.869 117.56 150.751 116.312 151.117 114.837C151.476 113.394 151.11 111.896 151.799 110.511C152.096 109.915 152.395 109.756 153.011 109.538Z" fill="#1A1A1A"/>
<path d="M153.327 110.505C154.8 110.992 154.273 113.051 154.033 114.214C153.923 114.745 153.722 115.265 153.979 115.764C154.048 115.798 154.11 115.874 154.187 115.866C154.777 115.803 156.753 113.621 157.378 113.138C158.182 112.517 159.302 111.797 160.29 111.538C160.607 111.455 160.763 111.452 161.046 111.61C161.096 112.017 160.91 112.296 160.66 112.607C159.775 113.708 156.81 115.339 156.524 116.559L156.671 116.708C158.412 116.62 160.035 115.725 161.791 115.727C162.435 115.727 163.154 115.8 163.624 116.279C163.7 116.653 163.713 116.713 163.579 117.09C162.737 117.889 161.562 117.892 160.474 117.977C159.607 118.036 157.307 118.098 156.734 118.732C156.748 118.833 156.727 118.945 156.774 119.035C156.854 119.187 157.544 119.319 157.706 119.364C158.762 119.657 160.129 120.174 160.885 120.99C161.119 121.242 161.356 121.656 161.315 122.011C161.278 122.329 161.198 122.345 160.96 122.532C158.945 122.843 157.719 121.099 155.951 120.698C154.111 120.28 152.58 121.181 151.085 122.123C150.78 121.403 150.318 120.465 150.288 119.687C150.251 118.726 151.298 117.584 151.655 116.667C151.979 115.835 152.18 114.958 152.319 114.078C152.515 112.837 152.452 111.502 153.327 110.505Z" fill="#FEFEFE"/>
<path d="M57.8538 72.3653C58.171 72.3278 58.5314 72.3048 58.8486 72.3508C59.1658 72.397 59.4799 72.7028 59.6575 72.9518C60.4653 74.0841 59.5128 76.3887 59.2159 77.6098C58.9879 78.5477 58.7938 79.4946 58.5907 80.4383C59.4223 79.8393 60.7394 78.7462 61.8355 78.7663C62.2621 78.774 62.6259 78.9628 62.8998 79.2872C63.1433 79.576 63.2327 79.9286 63.1963 80.301C63.0427 81.8666 60.9647 83.0908 59.8388 83.9609L59.6823 86.1109C59.5326 87.0753 59.0764 87.5701 58.3234 88.1138C59.113 89.9714 59.8889 91.8314 60.8369 93.616C65.1927 101.815 71.4342 108.647 78.8617 114.171C78.5516 114.632 78.145 115.137 78.2603 115.73C78.2907 115.886 78.3729 116.062 78.5168 116.138C78.7758 116.274 79.0737 116.245 79.3505 116.185C80.2362 115.994 81.396 116.142 82.191 116.593C82.7363 116.903 83.1648 117.438 83.3245 118.046C83.5048 118.732 83.4551 119.425 83.0615 120.036C82.9119 120.269 82.7317 120.414 82.4551 120.469C81.8707 120.586 81.4252 120.164 80.9639 119.86L81.4016 132.569C82.6941 133.974 84.5627 135.175 86.3306 135.897C87.1902 136.248 88.1007 136.47 88.9706 136.796L88.8621 136.997C88.1663 137.275 87.2334 137.215 86.5159 137.021L86.332 136.968C84.6052 136.48 82.9949 135.312 81.4724 134.395C82.0131 137.077 82.21 139.845 82.7156 142.541C83.6762 147.664 84.977 152.745 86.7169 157.659C87.2531 159.174 87.9071 160.629 88.4947 162.122L91.6488 158.163C91.8914 157.902 92.068 157.8 92.4341 157.791L92.6198 158.017C92.4059 160.313 91.4658 162.637 90.4646 164.693C89.2396 167.21 87.6258 169.495 86.1134 171.839C84.5074 174.329 82.9615 176.879 81.5684 179.495C80.7184 181.091 79.9056 182.697 79.1518 184.342C78.5348 185.688 77.9713 187.049 77.3115 188.376C76.9914 189.02 76.6866 189.72 76.2264 190.277C76.2933 191.467 76.3113 192.583 75.8985 193.722C75.4223 195.036 74.549 196.327 73.2636 196.948C72.2767 196.747 71.345 196.521 70.4442 196.057C68.6476 195.133 66.9651 193.572 65.4784 192.216C64.2041 191.054 62.9348 189.92 61.7326 188.681C58.7641 185.389 56.1336 182.092 54.1633 178.096C53.5178 176.787 52.9519 175.369 52.5841 173.955C52.4725 173.526 52.3615 172.902 52.5416 172.485C52.8967 171.662 54.0695 170.907 54.8428 170.573C56.9998 169.642 59.5047 169.944 61.6307 170.829C67.6373 173.327 71.3794 178.37 73.8234 184.212C77.88 179.573 80.873 174.124 84.0509 168.882C85.4041 166.651 86.861 164.489 88.3394 162.339C87.6939 161.41 87.2618 160.38 86.8067 159.35C86.1687 157.906 85.5708 156.448 85.0261 154.966C84.0493 152.309 83.0965 149.602 82.3912 146.858C80.0772 137.86 79.5969 128.599 79.3789 119.354C77.0723 117.041 74.2954 115.185 71.915 112.929C68.4251 109.621 65.5043 105.805 62.9499 101.747C60.2831 97.5109 58.0965 93.2283 56.4222 88.5077C55.6247 88.4067 54.9597 88.267 54.2939 87.7715C53.1006 86.8834 52.7097 85.5468 52.5547 84.1361C51.1907 83.6516 49.98 82.8328 49.1492 81.6237C48.6842 80.947 48.473 80.1012 48.6732 79.293C48.7678 78.9114 48.9937 78.6615 49.332 78.4754C49.6773 78.2856 50.4992 78.282 50.8719 78.4143L50.9814 78.4566C51.6524 78.7085 52.2439 79.0516 52.86 79.4149C52.2812 78.211 51.341 76.5341 51.57 75.1486C51.6294 74.7896 51.823 74.3911 52.1307 74.1814C52.4257 73.9804 52.8404 73.8913 53.189 73.9692C54.9198 74.3557 55.3142 76.1838 56.1297 77.504C56.1315 76.7687 56.1249 75.9699 56.2471 75.2451C56.4479 74.052 56.8547 73.0814 57.8538 72.3653Z" fill="#1A1A1A"/>
<path d="M64.8383 189.31C65.4271 189.427 65.9591 189.719 66.4978 189.975C68.1195 190.748 69.7996 191.68 71.1428 192.88C70.5422 192.751 69.9538 192.383 69.4062 192.106C67.8224 191.305 66.1912 190.469 64.8383 189.31Z" fill="#FEFEFE"/>
<path d="M61.6608 186.239C63.4106 186.928 65.1625 187.948 66.8477 188.802C67.6599 189.214 68.4477 189.661 69.3259 189.917C69.6733 190.337 69.9594 190.743 70.2346 191.214C69.0578 190.785 67.9303 189.921 66.8136 189.336C65.4561 188.624 63.8926 188.135 62.6247 187.28C62.1887 186.987 61.9332 186.685 61.6608 186.239Z" fill="#FEFEFE"/>
<path d="M58.8754 183.111L59.0246 183.148C59.4795 183.268 59.9561 183.601 60.3645 183.835C61.3426 184.393 62.2897 185.009 63.2731 185.557C64.1791 186.063 65.1227 186.512 66.0538 186.969C66.5802 187.228 67.1908 187.472 67.6659 187.816C67.9905 188.051 68.1822 188.392 68.3816 188.732C66.6533 187.986 65.0203 187.09 63.3332 186.267C62.3357 185.781 61.0442 185.358 60.1745 184.686C59.6555 184.286 59.2536 183.643 58.8754 183.111Z" fill="#FEFEFE"/>
<path d="M55.6531 178.114C56.3899 178.428 57.0617 179.026 57.724 179.475C58.3861 179.923 59.1198 180.302 59.8179 180.694C60.0548 180.827 60.4417 181.068 60.7119 181.08C60.852 181.086 60.9868 181.025 61.1245 180.997C62.0824 181.566 62.9998 182.713 63.7376 183.544C62.2373 182.873 60.905 181.876 59.4774 181.07C58.8134 180.695 58.0215 180.236 57.2528 180.15L57.2311 180.324C57.4679 180.724 57.8103 180.834 58.2051 181.061C58.8393 181.424 59.466 181.802 60.0941 182.175C61.1003 182.743 62.1093 183.307 63.124 183.86C63.7223 184.185 64.4107 184.499 64.9494 184.912C65.4266 185.278 65.8651 185.805 66.2802 186.243C64.1244 185.213 62.0557 184.024 59.962 182.88C59.3066 182.521 58.3027 182.165 57.7861 181.631C57.3863 181.218 57.2832 180.707 57.0286 180.221C56.6541 179.506 56.0589 178.842 55.6531 178.114Z" fill="#FEFEFE"/>
<path d="M58.3408 73.2236C58.6203 73.2793 58.7273 73.2988 58.9078 73.5478C59.1057 73.8207 59.1277 74.2617 59.0919 74.583C59.0256 75.178 58.7658 75.842 58.5921 76.4173C58.229 77.6197 57.8507 78.8344 57.6882 80.0842C57.6211 80.6008 57.5801 81.1902 57.9076 81.6221C57.9971 81.6668 58.076 81.7633 58.1758 81.7564C58.3588 81.744 58.8867 81.3022 59.059 81.1834C59.7198 80.7277 60.3763 80.259 61.1624 80.0418C61.5369 79.9385 61.6992 79.988 62.035 80.1728C62.2385 80.8772 59.9819 82.5268 59.5092 83.1388C59.2235 83.5087 58.967 83.9443 58.9163 84.417C58.8455 85.0772 59.0664 85.8639 58.8281 86.4896C58.6958 86.8366 58.353 87.109 58.0205 87.2521C57.3257 87.551 56.5878 87.549 55.8984 87.2564C54.1434 86.5119 54.0018 84.4888 53.2416 83.0007C53.0644 82.6539 52.6124 82.6347 52.2584 82.5384C51.3715 82.2908 50.5005 81.409 50.0982 80.5869C49.9637 80.312 49.9003 80.1416 50.0104 79.8623C51.551 79.0886 52.7969 81.4339 54.0869 81.8076C54.3163 81.4045 54.6583 81.1424 55.004 80.8434C54.4649 79.7099 52.4505 76.4123 52.6377 75.3279C52.8938 75.1275 52.9379 75.0993 53.2588 75.0586C53.6935 75.2873 53.9676 75.7579 54.1933 76.1831C54.8599 77.439 55.1628 79.205 56.1572 80.2337L56.5713 80.2296C56.9667 80.1405 57.14 79.7213 57.2149 79.3431C57.4497 78.1597 57.0777 76.7668 57.2841 75.5273C57.4321 74.6395 57.8155 73.9364 58.3408 73.2236Z" fill="#FEFEFE"/>
<path d="M57.0628 171.241C59.0734 171.143 60.8999 171.88 62.6269 172.862C66.9858 175.341 69.6803 179.071 71.8636 183.476C72.8284 185.423 73.6822 187.381 74.2557 189.481C74.784 191.416 74.794 193.137 73.7725 194.914C72.3245 190.858 69.8962 187.863 66.9531 184.79C65.9053 183.708 64.7912 182.692 63.7174 181.635C61.5713 179.524 59.4119 177.415 56.9474 175.673C56.4019 175.288 55.6363 174.635 54.9633 174.544C54.755 174.515 54.7718 174.56 54.6202 174.683C54.6382 174.786 54.638 174.894 54.6738 174.993C54.8303 175.423 55.7701 176.008 56.1291 176.318C56.7189 176.828 57.2652 177.401 57.8155 177.954C56.8406 177.467 55.9427 176.987 54.8697 176.75C55.5301 177.219 56.2195 177.68 56.9696 177.995C57.4812 178.21 58.194 178.38 58.6453 178.688C59.219 179.079 59.8157 179.774 60.2343 180.329L56.4972 178.205C56.0348 177.934 55.4521 177.591 55.11 177.179C54.2556 176.152 53.8026 174.511 53.4718 173.236C54.3825 171.968 55.5848 171.511 57.0628 171.241Z" fill="#FEFEFE"/>
<path d="M114.86 25.5981C116.664 23.4425 118.4 21.2114 120.41 19.2417C123.76 15.9589 128.304 13.2454 133.054 12.8311C136.261 12.5513 139.955 13.2765 142.475 15.3981C144.084 16.7527 145.293 19.1382 145.435 21.2515C145.488 22.0546 145.47 22.8392 145.272 23.6204L145.226 23.8055C144.362 27.1641 141.625 29.5379 139.619 32.2147C145.202 30.4818 151.617 31.5408 156.737 34.2222C160.346 36.112 163.243 38.6566 164.463 42.6548C165.056 44.5991 165.218 46.5872 164.215 48.4418C162.941 50.7978 160.479 52.2317 157.975 52.9666C154.642 53.9447 151.185 53.7476 147.754 53.9817C144.949 54.1732 142.199 54.6455 139.461 55.2732C135.098 56.2731 130.995 58.0878 126.888 59.8252C125.291 60.5007 123.753 61.322 122.075 61.7833C127.157 63.6898 131.831 68.7321 134.048 73.5996C135.534 76.8636 136.417 80.4387 136.306 84.0453C136.17 88.4853 134.741 92.7197 133.419 96.9233C132.708 99.1864 132.043 101.465 131.349 103.734C129.291 110.464 127.358 117.202 124.875 123.793L123.756 126.541L121.736 126.636L126.447 112.523C123.884 112.392 121.18 112.02 118.772 111.098C121.372 110.628 124.127 111.007 126.737 111.307C128.09 106.835 129.382 102.354 130.589 97.84C132.081 92.2572 133.927 86.3639 133.427 80.5283C133.176 77.5996 132.184 74.8625 130.804 72.2849C129.07 69.0445 126.414 66.316 123.494 64.1227C121.358 62.518 119.125 61.1808 116.543 60.4173C110.634 58.6697 103.581 60.1165 98.2951 63.0416C91.5401 66.7796 88.056 74.2356 86.0318 81.3676C84.4758 86.8506 83.647 92.6467 82.909 98.2881C82.2328 103.456 81.6098 108.718 81.4055 113.928L79.9654 113.894C80.0327 104.957 81.1873 96.0233 83.1305 87.3084C84.0222 83.3091 85.0207 79.2499 86.6769 75.4871C88.2936 71.8137 90.57 68.2157 93.4349 65.3835C96.5465 62.3073 99.9071 60.8748 104.004 59.5757C103.164 58.7819 102.477 57.7979 101.801 56.8628C98.9752 52.9563 97.0086 48.6608 96.2058 43.8829C95.9555 42.3929 95.7403 40.7711 95.7687 39.2566C95.8453 35.1599 97.1985 31.1333 99.582 27.8179C100.879 26.0137 102.519 24.4549 104.317 23.1568C105.343 22.4155 106.496 21.6741 107.774 21.4884C108.179 21.4294 108.556 21.4397 108.954 21.5362C109.451 21.6567 109.906 21.9995 110.374 22.2041C111.374 22.6409 112.399 22.6571 113.307 23.3417C114.152 23.8767 114.514 24.6998 114.86 25.5981Z" fill="#678F2C"/>
<path d="M84.5 81C80.9 90.6 80 107 80 114L81.5 114C81.1 112 84 95.5 85 87C86.5 80 91 68.3889 95 65.5C104 59 112.667 59.1667 116 60.5C122.4 62.1 127.167 67.5 129 70C134.5 79 133.5 86 132.5 89C132.5 89.4 128.333 103.667 126.5 111C126 110.5 124 110.5 118 111C118.5 112 124 112.333 126.5 112.5L121.5 126.5H124C128 112.5 140.5 90.5 134.5 74.5C128.5 61 116.333 59 111.5 59C93.5 58.2 86 73.3333 84.5 81Z" fill="#A22604"/>
<path d="M107.427 51.6344C107.721 51.822 107.885 52.1511 108.071 52.4377C108.316 52.8141 108.624 53.1923 108.813 53.5985C109.118 54.2564 109.196 55.2115 109.355 55.9332C109.574 56.9261 109.852 57.8967 110.124 58.8755C109.858 58.8879 109.736 58.9279 109.491 58.8018C109.415 57.8509 109.014 56.9315 108.707 56.0346C108.228 54.6343 107.685 53.0915 107.427 51.6344Z" fill="#7FAB56"/>
<path d="M99.3812 50.2918C99.8125 50.4152 100.26 50.468 100.703 50.5357L105.195 51.1367L108.231 58.8726C107.364 58.9855 106.504 59.1126 105.643 59.2683C105.303 59.3298 104.834 59.4763 104.506 59.3474C104.025 58.5304 103.359 57.7741 102.829 56.9777C101.434 54.8823 100.251 52.6542 99.3812 50.2918Z" fill="#7FAB56"/>
<path d="M100.516 49.1442C100.132 49.1457 99.6938 49.1453 99.3705 49.3772C99.1922 49.5051 99.3332 49.4556 99.1162 49.4954C98.074 46.8882 97.5184 43.6579 97.4254 40.8564C97.3068 37.2865 98.5316 33.3076 100.404 30.2773C101.001 29.31 101.799 28.4339 102.501 27.5405C103.105 26.7708 103.68 25.9746 104.357 25.2648C105.674 23.8846 107.315 22.6782 109.294 22.6416C110.74 22.6148 111.67 23.0198 112.692 23.9926C113.243 24.8348 113.627 25.706 114.019 26.6284C112.278 29.1614 111.206 31.7242 110.226 34.616C109.138 37.8269 108.287 40.9976 108.007 44.3889C107.92 45.4374 107.963 46.511 107.969 47.5627C107.732 47.8103 107.522 47.9987 107.432 48.3418C107.482 48.6757 107.57 48.8051 107.766 49.0664L107.871 51.1562C107.123 49.9366 106.646 48.5697 106.194 47.2193C105.807 46.0632 105.408 44.8589 105.171 43.6625C105.942 42.943 106.51 42.1168 107.151 41.286C107.672 40.6102 108.394 40.0576 108.418 39.1397C108.425 38.8515 108.415 38.772 108.275 38.52C108.052 38.4246 107.878 38.3676 107.637 38.4695C107.252 38.6329 106.964 39.0788 106.728 39.4088C106.072 40.3243 105.455 41.2775 104.903 42.2596C104.683 39.3415 104.535 36.6803 105.01 33.7695C105.995 33.1757 107.007 32.6904 108.107 32.3447C108.542 32.2081 109.446 32.2646 109.778 32.0884C109.872 32.0385 109.904 31.9168 109.967 31.8311C109.862 31.5104 109.768 31.4627 109.468 31.3048C108.742 30.9238 107.54 31.182 106.823 31.4472C106.277 31.6487 105.767 31.9936 105.297 32.3312C105.475 31.3897 105.656 30.4744 106.092 29.6119C106.343 29.1131 106.811 28.5473 106.941 28.0182C106.984 27.8416 106.853 27.6465 106.784 27.4834C106.494 27.3198 106.366 27.3018 106.033 27.3799C105.434 27.5207 105.107 28.013 104.831 28.5225C104.033 29.9972 103.632 31.7675 103.319 33.4037C103.127 32.5875 102.76 31.8665 102.426 31.1031C102.237 30.6727 102.156 30.2833 101.763 29.9893C101.493 29.9179 101.362 29.8955 101.092 29.9758C100.913 30.2618 100.909 30.4067 100.98 30.7402C101.274 32.1331 102.28 33.5583 103.071 34.7198C102.924 36.5661 102.794 38.4283 102.898 40.2812C102.961 41.3918 103.153 42.494 103.246 43.6026C102.468 43.0571 101.694 42.5072 100.926 41.9464C100.26 41.459 99.5388 40.8261 98.7022 40.6816L98.5407 40.7852C98.562 41.1489 98.7477 41.2702 99.0096 41.5062L103.464 44.8637L104.842 49.9635C103.718 49.4343 102.797 49.2024 101.556 49.1306C101.217 49.1109 100.847 49.0565 100.516 49.1442Z" fill="#7FAB56"/>
<path d="M111.921 58.8869C111.864 56.9388 111.617 54.9947 111.493 53.0499C111.086 46.6191 111.248 40.3148 113.313 34.1496C113.773 32.7766 114.204 31.3447 114.847 30.0444C117.782 24.1129 123.222 19.1029 129.529 17.0171C132.732 15.958 136.908 15.6185 139.985 17.1922C141.493 17.9631 142.522 19.1997 143.026 20.8187C143.206 21.3975 143.421 22.1805 143.314 22.7908C143.087 24.0873 142.177 25.4276 141.57 26.5681C140.517 28.5486 139.434 30.5104 138.381 32.4884L137.883 32.6143C129.651 35.0059 124.089 41.5021 120.185 48.7991C119.096 50.8349 118.243 53.0093 117.147 55.0258L117.102 55.1072C117.453 53.1791 117.762 51.239 117.996 49.2933C118.149 48.0284 118.179 46.5814 118.492 45.3608C118.705 44.5293 119.25 43.6296 119.628 42.8553C121.05 39.9405 122.527 37.1242 124.378 34.4525C124.767 34.4748 125.224 34.5351 125.61 34.4649C126.62 34.2811 127.744 33.7184 128.716 33.3585C129.758 32.9724 131.18 32.6596 132.09 32.0381C132.041 31.7779 132.023 31.5679 131.827 31.3714C129.369 31.5859 127.307 32.8169 125.034 33.6724C127.311 30.8421 129.382 27.8915 132.485 25.8737C133.306 25.3398 134.192 24.957 135.066 24.5224L135.106 24.1709L134.984 24.0477C131.655 24.9481 128.977 27.2244 126.858 29.8874L126.593 29.7378C126.442 28.408 126.083 27.1085 125.9 25.7799C125.766 24.8119 125.793 23.7883 125.579 22.8358C125.521 22.5741 125.452 22.553 125.249 22.389L124.943 22.371C124.599 22.7519 124.712 24.0674 124.736 24.5667C124.811 26.1549 125.013 28.8995 125.958 30.1845L126.083 30.4634C126.158 30.6603 126.24 30.7359 126.101 30.898C123.327 34.1192 120.767 37.7404 118.862 41.5464L118.324 39.4345C118.049 38.2055 118.027 36.8623 118.158 35.6094C118.228 34.9405 118.45 34.3067 118.55 33.6426C118.568 33.5177 118.639 33.1925 118.609 33.0732C118.583 32.9693 118.519 32.879 118.474 32.7822C118.215 32.7867 118.078 32.8188 117.878 32.9946C117.264 33.5339 116.93 34.7231 116.868 35.4961C116.746 37.0249 116.783 38.4981 117.068 40.0088C117.178 40.586 117.278 41.2425 117.557 41.7667C117.742 42.1157 118.039 42.4342 118.296 42.7327C117.956 43.4801 117.55 44.2511 117.289 45.0285C117.103 45.5856 117.041 46.2388 116.921 46.817C116.621 48.2704 116.35 49.7237 116.112 51.1885C115.676 50.6744 115.235 50.1566 114.851 49.6016C114.465 49.0451 114.115 48.3372 113.6 47.8915C113.323 47.6516 113.065 47.6917 112.728 47.7257C112.51 47.9025 112.496 47.9172 112.418 48.1865C112.691 49.8815 114.632 51.7644 115.769 53.0079L115.383 59.2337L111.921 58.8869Z" fill="#7FAB56"/>
<path d="M146.514 33.3792C149.709 33.2298 153.325 33.8987 156.34 34.9129C158.523 35.6473 160.061 37.1729 161.067 39.2246C162.077 41.2831 162.695 44.0463 161.884 46.2715C161.462 47.4257 160.7 48.4217 159.773 49.2134C159.032 49.8467 158.254 50.4125 157.333 50.7568C156.242 51.1651 155.139 51.1616 153.989 51.1924C152.729 51.2262 151.468 51.239 150.209 51.2937C147.566 51.4086 144.983 51.6278 142.374 52.0874C137.595 52.9292 133.051 54.5749 128.644 56.568L120.609 61.0595L116.945 59.7579C117.506 58.7932 117.941 57.7516 118.446 56.7564C120.914 51.8872 123.424 46.5228 127.186 42.5213C130.632 38.8561 135.011 35.7847 139.869 34.3517C142.054 33.7072 144.249 33.4542 146.514 33.3792Z" fill="#7FAB56"/>
<path d="M145.214 34.6181L145.496 34.6883C145.655 34.761 145.686 34.8266 145.723 34.9883C145.93 35.8816 145.879 36.3712 145.39 37.1503C145.124 36.9638 144.809 36.7271 144.757 36.383C144.679 35.8653 144.922 35.0378 145.214 34.6181Z" fill="#1A1A1A"/>
<path d="M137.436 39.0916L137.926 39.1806L138.019 39.3877C137.887 39.964 136.708 40.8209 136.281 41.2967C135.061 42.655 134.065 44.2156 133.29 45.8657L138.568 43.6732C142.44 42.4095 146.708 41.8329 150.469 43.7689C151.744 44.4256 153.463 45.7352 153.924 47.1513C153.799 47.4141 153.763 47.4203 153.507 47.5654C153.406 47.5455 153.294 47.5534 153.203 47.5056C152.891 47.3412 152.475 46.7124 152.22 46.4423C151.303 45.4717 150.236 44.6937 149.011 44.1539C144.8 42.2979 140.278 43.7827 136.248 45.3696C137.696 45.7549 139.01 46.1305 140.308 46.9162C140.839 47.2377 141.959 47.9824 142.109 48.6006L141.809 48.9395C141.71 48.9382 141.604 48.9711 141.512 48.9355C141.027 48.7482 140.38 48.1312 139.907 47.8335C139.118 47.3358 138.312 46.9302 137.466 46.5352C136.761 46.2572 135.993 46.0118 135.227 46.0058C133.786 45.9942 128.341 49.5887 127.123 50.7599C128.251 50.7375 129.38 50.6936 130.508 50.6576C130.902 50.645 131.46 50.5344 131.796 50.7185L131.839 50.9814L131.636 51.1963C130.554 51.3862 129.422 51.3866 128.325 51.4083C127.654 51.4216 126.953 51.4802 126.298 51.3176C123.255 53.8558 121.225 56.9218 119.508 60.4608C119.516 60.0906 119.488 59.643 119.582 59.285C119.796 58.4662 120.314 57.5696 120.745 56.8437C122.726 53.5091 125.561 50.7435 128.724 48.5248C129.94 47.6722 131.239 47.0118 132.502 46.2437C133.303 43.1004 134.836 41.0298 137.436 39.0916Z" fill="#678F2C"/>
<path d="M106.44 111.235C106.93 111.247 107.37 111.392 107.837 111.528L107.299 112.036C105.13 113.938 102.553 115.624 99.5712 115.447L98.1005 115.092C98.2376 114.908 98.3868 114.739 98.5543 114.583C100.584 112.685 103.615 111.143 106.44 111.235Z" fill="#FF3D00"/>
<path d="M95.013 106.773C96.281 106.96 97.534 107.162 98.8204 107.12C101.853 107.022 104.824 105.595 107.318 103.963L106.52 105.619C105.895 106.512 105.162 107.275 104.244 107.873C102.293 109.147 99.2338 109.958 96.921 109.38C96.3863 109.247 95.9173 108.948 95.6509 108.46L95.5848 108.334C95.311 107.825 95.1643 107.326 95.013 106.773Z" fill="#FEFEFE"/>
<path d="M83 117.5C83.4 117.1 80 114.5 78 113.5L77.5 114.5L78 116.5L79.5 117.5H83Z" fill="#1A1A1A"/>
</g>
<defs>
<clipPath id="clip0_627_668">
<rect width="212" height="212" fill="white"/>
</clipPath>
</defs>
</svg>
