<svg width="41" height="40" viewBox="0 0 41 40" fill="none" xmlns="http://www.w3.org/2000/svg">
<path d="M29.2974 10.1975H11.6982L20.4978 3.29785L29.2974 10.1975Z" fill="white"/>
<path d="M11.6977 29.996H29.2969L20.4973 36.8956L11.6977 29.996Z" fill="white"/>
<path d="M10.697 11.3957V28.9949L3.79736 20.1953L10.697 11.3957Z" fill="white"/>
<path d="M30.4973 28.7977V11.1986L37.397 19.9982L30.4973 28.7977Z" fill="white"/>
<path d="M6.09863 13.5969V5.59729L14.0982 5.59768L6.09863 13.5969Z" fill="white"/>
<path d="M14.0982 34.3969H6.09863L6.09902 26.3972L14.0982 34.3969Z" fill="white"/>
<path d="M26.8969 5.59729L34.8965 5.59729L34.8961 13.5969L26.8969 5.59729Z" fill="white"/>
<path d="M34.8965 26.3972V34.3969L26.8969 34.3965L34.8965 26.3972Z" fill="white"/>
<path d="M13.1455 25.7991V13.1116L16.4285 16.7477V22.2404L13.1455 25.7991Z" fill="white"/>
<path d="M23.666 12.9569L17.0254 20.229L23.5168 27.0369H27.8444L20.8307 19.5327L26.8744 12.9569H23.666Z" fill="white"/>
</svg>
